<svg width="0" height="0" class="hidden">
  <symbol xmlns="http://www.w3.org/2000/svg" viewBox="781.361 0 944.893 873.377" id="adobe-animate">
    <radialGradient id="a" cx="943.992" cy="1221.416" r=".663" gradientTransform="matrix(944.8934 0 0 -873.3772 -890717.875 1067234.75)" gradientUnits="userSpaceOnUse">
      <stop offset="0" stop-color="#ffb900"></stop>
      <stop offset=".6" stop-color="#f95d8f"></stop>
      <stop offset=".999" stop-color="#f95353"></stop>
    </radialGradient>
    <path fill="url(#a)" d="M1520.766 462.371c-113.508 0-205.508 92-205.508 205.488 0 113.499 92 205.518 205.508 205.518 113.489 0 205.488-92.019 205.488-205.518 0-113.488-91.999-205.488-205.488-205.488zm-533.907.01c-113.489.01-205.498 91.99-205.498 205.488 0 113.489 92.009 205.498 205.498 205.498 113.498 0 205.508-92.009 205.508-205.498 0-113.499-92.01-205.488-205.518-205.488h.01zm472.447-256.883c0 113.489-91.999 205.518-205.488 205.518-113.508 0-205.508-92.029-205.508-205.518S1140.31 0 1253.817 0c113.489 0 205.479 92.009 205.479 205.498h.01z"></path>
  </symbol>
  <symbol xmlns="http://www.w3.org/2000/svg" viewBox="0 0 103.5 103.5" id="adobe-illustrator-cc">
    <path d="M103.5 103.5H0V0h103.5v103.5zM5 98.5h93.5V5H5v93.5z"></path>
    <path d="M3.8 3.8h95.9v95.9H3.8z" fill="#260600"></path>
    <path d="M91 76.7V46.6c0-9.1-13.9-15.2-31.3-8.1v38.2H70V43.8c5.4-1.8 11.7-1 11.7 3.6v29.3H91zM39.3 21H28.1L12.7 76.1l8.6.5 4.2-15.5H42l4.1 15.5H56L39.3 21zM27.7 52.4l5.8-23.1 6.1 23.1H27.7z"></path>
  </symbol>
  <symbol xmlns="http://www.w3.org/2000/svg" viewBox="0 130.746 595.279 580.398" id="adobe-xd-1">
    <radialGradient id="a" cx="-183.69" cy="328.972" r=".76" gradientTransform="matrix(545.6736 0 0 528.3113 100439.305 -173525.125)" gradientUnits="userSpaceOnUse">
      <stop offset="0" stop-color="#423325" stop-opacity=".98"></stop>
      <stop offset="1" stop-color="#1c0a00"></stop>
    </radialGradient>
    <path d="M24.803 155.549h545.674v530.792H24.803V155.549z" fill="url(#a)"></path>
    <path d="M24.803 155.549h545.674v530.792H24.803V155.549zM0 711.145h595.28V130.746H0v580.399zm389.908-373.539c0-1.984.744-2.977 2.977-2.977h38.941c1.983 0 2.976.744 2.976 2.977v195.699c0 1.983-.496 2.976-2.976 2.976h-38.445c-2.48 0-3.225-1.24-3.225-3.224V337.606h-.248zm-2.728-56.304c0-15.874 11.161-25.299 25.3-25.299 15.13 0 25.299 10.169 25.299 25.299 0 16.37-10.665 25.299-25.795 25.299-14.387.001-24.804-8.929-24.804-25.299zM275.565 419.209c-6.944-27.532-23.314-87.556-29.516-116.576h-.496c-5.209 29.02-18.354 78.13-28.771 116.576h58.783zm-68.953 40.182l-19.595 74.41c-.496 1.983-1.24 2.479-3.72 2.479h-36.461c-2.48 0-2.977-.744-2.48-3.72l70.441-246.546c1.24-4.464 1.984-8.433 2.48-20.586 0-1.736.744-2.48 1.984-2.48h52.087c1.736 0 2.48.496 2.977 2.48l78.874 267.628c.496 1.983 0 3.224-1.984 3.224h-41.174c-1.984 0-3.225-.496-3.72-2.231l-20.339-74.658h-79.37z" fill="#ff7f18"></path>
  </symbol>
  <symbol xmlns="http://www.w3.org/2000/svg" viewBox="0 0 2500 2437.5" id="airtable">
    <path d="M2057.3 2437.5H442.7C197.9 2437.5 0 2239.6 0 1994.8V442.7C0 197.9 197.9 0 442.7 0h1614.6C2302.1 0 2500 197.9 2500 442.7v1552.1c0 244.8-197.9 442.7-442.7 442.7z" fill="#ff26be"></path>
    <path d="M2017.7 2333.3H482.3c-208.3 0-378.1-169.8-378.1-378.1V482.3c0-208.3 169.8-378.1 378.1-378.1h1534.4c209.4 0 378.1 169.8 378.1 378.1v1471.9c1 209.3-168.8 379.1-377.1 379.1z" fill="#2e001f"></path>
    <path d="M988.5 1140.6l291.7 560.4c5.2 8.3 2.1 16.7-6.3 16.7h-181.3c-11.5 0-16.7-3.1-21.9-13.5-66.7-137.5-134.4-275-204.2-422.9h-2.1c-62.5 139.6-131.3 286.5-197.9 424-5.2 8.3-10.4 11.5-18.8 11.5H476c-10.4 0-11.5-8.3-6.2-14.6l285.4-543.8-276-550c-6.3-8.3 0-14.6 6.2-14.6h179.2c10.4 0 14.6 2.1 18.7 11.5 65.6 137.5 132.3 279.2 194.8 417.7h2.1c60.4-137.5 127.1-280.2 191.7-416.7 5.2-8.3 8.3-13.5 18.8-13.5h167.7c8.3 0 11.5 6.3 6.3 14.6l-276.2 533.2zm342.8 169.8c0-242.7 161.5-432.3 417.7-432.3 21.9 0 33.3 0 54.2 2.1v-276c0-6.3 5.2-10.4 10.4-10.4h164.6c8.3 0 10.4 3.1 10.4 8.3v956.3c0 28.1 0 63.5 5.2 102.1 0 6.3-2.1 8.3-8.3 11.5-87.5 41.7-179.2 60.4-266.7 60.4-226.1.9-387.6-138.6-387.5-422zm471.8-266.6c-14.6-6.3-35.4-10.4-60.4-10.4-131.3 0-222.9 101-222.9 268.8 0 191.7 93.8 268.8 211.5 268.8 25 0 52.1-3.1 71.9-11.5v-515.7z" fill="#ffd9f2"></path>
  </symbol>
  <symbol xmlns="http://www.w3.org/2000/svg" viewBox="0 1.866 690.647 146.969" shape-rendering="geometricPrecision" id="asana-logo">
    <path fill="#333" d="M272.85 85.198L261.013 53.29c-.483-1.305-2.329-1.305-2.813 0L246.365 85.2a1.5 1.5 0 0 0 1.407 2.021h23.671a1.5 1.5 0 0 0 1.406-2.022m5.469 17.934h-37.42a1.5 1.5 0 0 0-1.406.978l-7.367 19.854a1.5 1.5 0 0 1-1.406.978H214.5a1.5 1.5 0 0 1-1.392-2.058l37.341-93.022a1.5 1.5 0 0 1 1.393-.94h15.53c.612 0 1.163.372 1.392.94l37.34 93.021a1.5 1.5 0 0 1-1.392 2.06h-16.216a1.5 1.5 0 0 1-1.406-.979l-7.368-19.854a1.5 1.5 0 0 0-1.406-.978m35.387-41.564h13.872a1.5 1.5 0 0 1 1.5 1.5v60.374a1.5 1.5 0 0 1-1.5 1.5h-13.872a1.5 1.5 0 0 1-1.5-1.5V63.068a1.5 1.5 0 0 1 1.5-1.5m65.964 14.687a1.5 1.5 0 0 1-1.5 1.5h-.42c-6.859 0-11.89 1.646-15.09 4.938-3.202 3.292-4.8 8.734-4.8 16.324v24.426a1.5 1.5 0 0 1-1.5 1.5h-13.736a1.5 1.5 0 0 1-1.5-1.5V63.068a1.5 1.5 0 0 1 1.5-1.5h13.598a1.5 1.5 0 0 1 1.5 1.5V75.01h.275c1.646-4.938 4.252-8.731 7.82-11.385 3.565-2.651 7.955-3.978 13.167-3.978h.686v16.607zm37.93-.558a1.5 1.5 0 0 0-1.5 1.5v25.112c0 2.561.5 4.39 1.508 5.487 1.005 1.097 2.743 1.646 5.212 1.646h1.381a1.5 1.5 0 0 1 1.5 1.5v12.637a1.5 1.5 0 0 1-1.5 1.5h-5.908c-6.127 0-10.836-1.577-14.128-4.732-3.293-3.155-4.939-7.84-4.939-14.06v-29.09a1.5 1.5 0 0 0-1.5-1.5h-8.659a1.5 1.5 0 0 1-1.5-1.5V63.068a1.5 1.5 0 0 1 1.5-1.5h8.66a1.5 1.5 0 0 0 1.5-1.5V37.691a1.5 1.5 0 0 1 1.5-1.5h13.872a1.5 1.5 0 0 1 1.5 1.5v22.377a1.5 1.5 0 0 0 1.5 1.5h10.031a1.5 1.5 0 0 1 1.5 1.5v11.13a1.5 1.5 0 0 1-1.5 1.5h-10.03zm63.521 30.453c3.155-3.292 4.732-7.59 4.732-12.895 0-5.302-1.577-9.602-4.732-12.894-3.155-3.292-7.294-4.938-12.415-4.938-5.122 0-9.258 1.646-12.414 4.938-3.154 3.292-4.732 7.592-4.732 12.894 0 5.305 1.578 9.603 4.732 12.895 3.156 3.292 7.292 4.938 12.414 4.938 5.121 0 9.26-1.646 12.415-4.938m-32.03 16.872c-4.664-2.651-8.346-6.516-11.042-11.591-2.699-5.075-4.047-11.133-4.047-18.176 0-7.04 1.348-13.1 4.047-18.175 2.696-5.075 6.378-8.937 11.042-11.591 4.664-2.652 9.784-3.978 15.363-3.978 4.938 0 9.167.96 12.69 2.88 3.518 1.92 6.33 4.619 8.435 8.094h.274v-7.417a1.5 1.5 0 0 1 1.5-1.5h13.735a1.5 1.5 0 0 1 1.5 1.5v60.374a1.5 1.5 0 0 1-1.5 1.5H487.35a1.5 1.5 0 0 1-1.5-1.5v-7.416h-.274c-2.105 3.477-4.917 6.173-8.436 8.093-3.522 1.92-7.75 2.88-12.689 2.88-5.579 0-10.699-1.326-15.363-3.977m110.62-16.872c3.155-3.292 4.732-7.59 4.732-12.895 0-5.302-1.577-9.602-4.732-12.894-3.154-3.292-7.293-4.938-12.414-4.938-5.122 0-9.259 1.646-12.414 4.938-3.154 3.292-4.733 7.592-4.733 12.894 0 5.305 1.579 9.603 4.733 12.895 3.155 3.292 7.292 4.938 12.414 4.938 5.121 0 9.26-1.646 12.414-4.938m-20.85 17.969c-3.521-1.92-6.334-4.616-8.436-8.093h-.275v7.416a1.5 1.5 0 0 1-1.5 1.5h-13.872a1.5 1.5 0 0 1-1.5-1.5V30.42a1.5 1.5 0 0 1 1.5-1.5h13.872a1.5 1.5 0 0 1 1.5 1.5v40.064h.275c2.102-3.475 4.915-6.173 8.436-8.093 3.52-1.921 7.75-2.881 12.689-2.881 5.577 0 10.699 1.326 15.363 3.978 4.664 2.654 8.344 6.516 11.042 11.59C580.649 80.156 582 86.216 582 93.256c0 7.043-1.351 13.1-4.047 18.176-2.698 5.075-6.378 8.94-11.042 11.59-4.664 2.652-9.786 3.979-15.363 3.979-4.939 0-9.169-.96-12.689-2.881m66.513.823H591.5a1.5 1.5 0 0 1-1.5-1.5v-93.02a1.5 1.5 0 0 1 1.5-1.5h13.872a1.5 1.5 0 0 1 1.5 1.5v93.02a1.5 1.5 0 0 1-1.5 1.5m32.722-48.696c-2.3 1.794-3.853 4.384-4.657 7.772-.221.934.508 1.83 1.468 1.83h26.4c.916 0 1.636-.82 1.488-1.724-.528-3.205-1.902-5.76-4.123-7.672-2.606-2.24-6.014-3.36-10.22-3.36-4.207 0-7.66 1.051-10.356 3.154m33.813-7.888c5.395 5.9 8.093 14.245 8.093 25.034v1.792a1.5 1.5 0 0 1-1.5 1.5h-44.104a1.51 1.51 0 0 0-1.485 1.766c.705 4.008 2.478 7.192 5.32 9.551 3.245 2.7 7.339 4.047 12.277 4.047 6.375 0 12.276-2.488 17.702-7.465.663-.608 1.714-.479 2.228.26l6.744 9.68a1.5 1.5 0 0 1-.23 1.982 49.67 49.67 0 0 1-10.944 7.271c-4.39 2.148-9.557 3.224-15.5 3.224-6.858 0-12.85-1.396-17.97-4.184-5.123-2.788-9.1-6.72-11.933-11.797-2.836-5.075-4.253-10.95-4.253-17.627 0-6.674 1.372-12.572 4.115-17.695 2.743-5.12 6.584-9.098 11.523-11.934 4.938-2.833 10.699-4.252 17.284-4.252 9.69 0 17.236 2.95 22.633 8.847m-341.02-29.11c0 5.658-4.587 10.245-10.246 10.245-5.66 0-10.247-4.587-10.247-10.246 0-5.659 4.588-10.246 10.247-10.246s10.246 4.587 10.246 10.246"></path>
    <path fill="#FCB400" d="M79 1.867L13.04 29.16c-3.668 1.518-3.63 6.729.061 8.192l66.235 26.266a24.575 24.575 0 0 0 18.12 0l66.236-26.267c3.69-1.462 3.73-6.672.06-8.19L97.794 1.866a24.578 24.578 0 0 0-18.795 0"></path>
    <path fill="#18BFFF" d="M94.273 77.96v65.617c0 3.12 3.147 5.258 6.048 4.108l73.806-28.648a4.418 4.418 0 0 0 2.79-4.108V49.313c0-3.121-3.147-5.258-6.048-4.108L97.063 73.853a4.42 4.42 0 0 0-2.79 4.108"></path>
    <path fill="#F82B60" d="M77.038 81.346L55.134 91.922l-2.224 1.075-46.238 22.155C3.742 116.566 0 114.43 0 111.174V49.588c0-1.178.604-2.195 1.414-2.96a5.024 5.024 0 0 1 1.12-.84c1.104-.663 2.68-.84 4.02-.31L76.67 73.26c3.564 1.414 3.844 6.408.368 8.087"></path>
    <path fill="rgba(0, 0, 0, 0.25)" d="M77.038 81.346L55.134 91.922 1.414 46.627a5.024 5.024 0 0 1 1.12-.839c1.104-.663 2.68-.84 4.02-.31L76.67 73.26c3.564 1.414 3.844 6.408.368 8.087"></path>
  </symbol>
  <symbol viewBox="0 0 256 256" xmlns="http://www.w3.org/2000/svg" preserveAspectRatio="xMinYMin meet" id="atom-4">
    <defs>
      <linearGradient x1="50%" y1="3.961%" x2="50%" y2="100%" id="a">
        <stop stop-color="#FDFDFD" offset="0%"></stop>
        <stop stop-color="#CBCBCB" offset="100%"></stop>
      </linearGradient>
      <linearGradient x1="50%" y1="3.961%" x2="50%" y2="100%" id="b">
        <stop stop-color="#B2E198" offset="0%"></stop>
        <stop stop-color="#04A171" offset="100%"></stop>
      </linearGradient>
    </defs>
    <circle fill="url(#a)" cx="128" cy="128" r="127.858"></circle>
    <circle fill="url(#b)" cx="127.858" cy="128.142" r="116.907"></circle>
    <path d="M100.453 110.097a221.782 221.782 0 0 0-3.988 6.382 164.44 164.44 0 0 1-3.684-11.377c3.73-.535 7.695-.957 11.874-1.249a224.887 224.887 0 0 0-4.202 6.244zm103.138 7.475c-4.132-3.967-10.04-7.602-17.558-10.804-14.926-6.356-34.918-10.474-56.295-11.595a234.82 234.82 0 0 0-7.529-.277C138.53 75.415 154.292 65.05 163.472 64.7c1.944-.074 3.576.31 4.854 1.141 4.296 2.792 5.488 11.453 3.189 23.166a4.267 4.267 0 0 0 8.373 1.644c3.953-20.137-1.576-28.497-6.911-31.965-2.785-1.81-6.093-2.655-9.83-2.513-14.12.536-33.904 15.592-51.956 38.803-7.148.247-14.038.864-20.483 1.827a106.106 106.106 0 0 1-1.625-9.522c-1.619-13.344.367-22.816 5.312-25.337.794-.405 1.662-.639 2.654-.713 4.418-.332 10.652 2.637 17.542 8.359a4.267 4.267 0 0 0 5.452-6.565c-8.85-7.35-16.8-10.817-23.633-10.303-2.112.158-4.095.703-5.892 1.62-4.593 2.342-7.732 6.828-9.33 13.331-1.368 5.57-1.562 12.513-.576 20.636.39 3.213.96 6.556 1.695 9.998-5.04 1.062-9.71 2.356-13.897 3.869-18.316 6.616-22.544 15.337-22.866 21.488-.308 5.876 2.7 14.62 18.775 22.91a4.267 4.267 0 0 0 3.911-7.583c-9.247-4.77-14.41-10.193-14.165-14.88.346-6.605 11.417-13.596 30.274-17.535 1.747 6.309 3.99 12.861 6.68 19.505-6.777 12.723-11.722 25.262-14.286 36.416-1.833 7.97-2.369 14.89-1.592 20.567.906 6.63 3.558 11.418 7.881 14.228 2.205 1.433 5.176 2.553 9.079 2.553 5.658 0 13.275-2.357 23.343-9.538a4.267 4.267 0 1 0-4.955-6.948c-9.925 7.08-18.454 9.613-22.816 6.778-4.652-3.023-5.633-12.642-2.624-25.728 1.995-8.678 5.555-18.296 10.383-28.21a220.995 220.995 0 0 0 3.283 6.731c9.717 19.087 21.612 35.694 33.494 46.762 5.984 5.573 11.708 9.497 17.011 11.663 3.218 1.314 6.24 1.971 9.045 1.971 2.596 0 5.008-.563 7.216-1.69 4.43-2.259 7.511-6.52 9.157-12.665 1.41-5.263 1.726-11.827.942-19.512-1.543-15.11-7.253-33.539-16.077-51.891a4.267 4.267 0 0 0-7.69 3.697c8.407 17.485 13.833 34.908 15.278 49.06 1.27 12.447-.78 21.31-5.486 23.71-4.942 2.52-13.756-1.438-23.58-10.588-11.17-10.404-22.43-26.168-31.706-44.388a210.555 210.555 0 0 1-5.851-12.483 210.936 210.936 0 0 1 7.143-11.836 213.301 213.301 0 0 1 7.877-11.333c.7-.01 1.405-.017 2.115-.019 3.664-.012 7.592.09 11.688.305 20.404 1.07 39.368 4.95 53.399 10.925 12.34 5.256 19.534 11.704 19.244 17.25-.246 4.708-5.967 9.575-15.696 13.352a4.267 4.267 0 0 0 3.088 7.955c16.905-6.563 20.821-14.967 21.13-20.861.27-5.151-2.04-10.111-6.865-14.743z" fill="#F2F8F6"></path>
    <path d="M119.194 129.133c0 5.153 4.174 9.33 9.323 9.33s9.323-4.177 9.323-9.33c0-5.154-4.174-9.331-9.323-9.331s-9.323 4.177-9.323 9.33" fill="#F1F8F3"></path>
  </symbol>
  <symbol viewBox="-0.1 1.1 304.9 179.8" xmlns="http://www.w3.org/2000/svg" id="aws-2">
    <path d="M86.4 66.4c0 3.7.4 6.7 1.1 8.9.8 2.2 1.8 4.6 3.2 7.2.5.8.7 1.6.7 2.3 0 1-.6 2-1.9 3L83.2 92c-.9.6-1.8.9-2.6.9-1 0-2-.5-3-1.4-1.4-1.5-2.6-3.1-3.6-4.7-1-1.7-2-3.6-3.1-5.9-7.8 9.2-17.6 13.8-29.4 13.8-8.4 0-15.1-2.4-20-7.2s-7.4-11.2-7.4-19.2c0-8.5 3-15.4 9.1-20.6s14.2-7.8 24.5-7.8c3.4 0 6.9.3 10.6.8s7.5 1.3 11.5 2.2v-7.3c0-7.6-1.6-12.9-4.7-16-3.2-3.1-8.6-4.6-16.3-4.6-3.5 0-7.1.4-10.8 1.3s-7.3 2-10.8 3.4c-1.6.7-2.8 1.1-3.5 1.3s-1.2.3-1.6.3c-1.4 0-2.1-1-2.1-3.1v-4.9c0-1.6.2-2.8.7-3.5s1.4-1.4 2.8-2.1c3.5-1.8 7.7-3.3 12.6-4.5C41 1.9 46.2 1.3 51.7 1.3c11.9 0 20.6 2.7 26.2 8.1 5.5 5.4 8.3 13.6 8.3 24.6v32.4zM45.8 81.6c3.3 0 6.7-.6 10.3-1.8s6.8-3.4 9.5-6.4c1.6-1.9 2.8-4 3.4-6.4s1-5.3 1-8.7v-4.2c-2.9-.7-6-1.3-9.2-1.7s-6.3-.6-9.4-.6c-6.7 0-11.6 1.3-14.9 4s-4.9 6.5-4.9 11.5c0 4.7 1.2 8.2 3.7 10.6 2.4 2.5 5.9 3.7 10.5 3.7zm80.3 10.8c-1.8 0-3-.3-3.8-1-.8-.6-1.5-2-2.1-3.9L96.7 10.2c-.6-2-.9-3.3-.9-4 0-1.6.8-2.5 2.4-2.5h9.8c1.9 0 3.2.3 3.9 1 .8.6 1.4 2 2 3.9l16.8 66.2 15.6-66.2c.5-2 1.1-3.3 1.9-3.9s2.2-1 4-1h8c1.9 0 3.2.3 4 1 .8.6 1.5 2 1.9 3.9l15.8 67 17.3-67c.6-2 1.3-3.3 2-3.9.8-.6 2.1-1 3.9-1h9.3c1.6 0 2.5.8 2.5 2.5 0 .5-.1 1-.2 1.6s-.3 1.4-.7 2.5l-24.1 77.3c-.6 2-1.3 3.3-2.1 3.9s-2.1 1-3.8 1h-8.6c-1.9 0-3.2-.3-4-1s-1.5-2-1.9-4L156 23l-15.4 64.4c-.5 2-1.1 3.3-1.9 4s-2.2 1-4 1zm128.5 2.7c-5.2 0-10.4-.6-15.4-1.8s-8.9-2.5-11.5-4c-1.6-.9-2.7-1.9-3.1-2.8s-.6-1.9-.6-2.8v-5.1c0-2.1.8-3.1 2.3-3.1.6 0 1.2.1 1.8.3s1.5.6 2.5 1c3.4 1.5 7.1 2.7 11 3.5 4 .8 7.9 1.2 11.9 1.2 6.3 0 11.2-1.1 14.6-3.3s5.2-5.4 5.2-9.5c0-2.8-.9-5.1-2.7-7s-5.2-3.6-10.1-5.2L246 52c-7.3-2.3-12.7-5.7-16-10.2-3.3-4.4-5-9.3-5-14.5 0-4.2.9-7.9 2.7-11.1s4.2-6 7.2-8.2c3-2.3 6.4-4 10.4-5.2s8.2-1.7 12.6-1.7c2.2 0 4.5.1 6.7.4 2.3.3 4.4.7 6.5 1.1 2 .5 3.9 1 5.7 1.6S280 5.4 281 6c1.4.8 2.4 1.6 3 2.5.6.8.9 1.9.9 3.3v4.7c0 2.1-.8 3.2-2.3 3.2-.8 0-2.1-.4-3.8-1.2-5.7-2.6-12.1-3.9-19.2-3.9-5.7 0-10.2.9-13.3 2.8s-4.7 4.8-4.7 8.9c0 2.8 1 5.2 3 7.1s5.7 3.8 11 5.5l14.2 4.5c7.2 2.3 12.4 5.5 15.5 9.6s4.6 8.8 4.6 14c0 4.3-.9 8.2-2.6 11.6-1.8 3.4-4.2 6.4-7.3 8.8-3.1 2.5-6.8 4.3-11.1 5.6-4.5 1.4-9.2 2.1-14.3 2.1z" fill="#252f3e"></path>
    <g clip-rule="evenodd" fill="#f90" fill-rule="evenodd">
      <path d="M273.5 143.7c-32.9 24.3-80.7 37.2-121.8 37.2-57.6 0-109.5-21.3-148.7-56.7-3.1-2.8-.3-6.6 3.4-4.4 42.4 24.6 94.7 39.5 148.8 39.5 36.5 0 76.6-7.6 113.5-23.2 5.5-2.5 10.2 3.6 4.8 7.6z"></path>
      <path d="M287.2 128.1c-4.2-5.4-27.8-2.6-38.5-1.3-3.2.4-3.7-2.4-.8-4.5 18.8-13.2 49.7-9.4 53.3-5 3.6 4.5-1 35.4-18.6 50.2-2.7 2.3-5.3 1.1-4.1-1.9 4-9.9 12.9-32.2 8.7-37.5z"></path>
    </g>
  </symbol>
  <symbol viewBox="0 0 256 213" xmlns="http://www.w3.org/2000/svg" preserveAspectRatio="xMidYMid" id="basecamp">
    <path d="M128.3 0C59.66 0 5.884 87.33.796 161.09c21.54 37.383 73.483 51.435 127.506 51.435 54.019 0 105.965-14.052 127.494-51.436C250.707 87.33 196.938 0 128.301 0" fill="#B6DEFF"></path>
    <path d="M237.86 143.52s-15.16-32.776-30.569-51.898c-15.42-19.13-34.251-39.96-45.385-39.96-11.128 0-42.236 55.078-56.507 55.078-14.274 0-21.692-24.968-39.241-24.968-17.556 0-45.448 60.209-45.448 60.209l-1.89 10.207s9.69 42.961 111.064 42.961c101.378 0 109.48-42.256 109.48-42.256l-1.503-9.374" fill="#6C6"></path>
    <path d="M106.987 130.245c-15.744 0-23.815-15.534-28.191-25.123-3.935-8.638-4.616-22.276-15.781-22.658 1.097-.435 2.153-.692 3.143-.692 17.549 0 24.967 24.968 39.241 24.968 14.271 0 45.379-55.079 56.507-55.079 2.097 0 4.459.74 7.022 2.056-1.896-.25-4.327-.076-6.2 1.803-3.597 3.598-36.25 74.725-55.741 74.725" fill="#17AD49"></path>
  </symbol>
  <symbol xmlns="http://www.w3.org/2000/svg" fill="none" viewBox="0 0 48 48" id="bitbucket">
    <path fill="#fff" d="M0 24C0 10.745 10.745 0 24 0s24 10.745 24 24-10.745 24-24 24S0 37.255 0 24z"></path>
    <path fill="#2684FF" fill-rule="evenodd" d="M12.547 13.958a.75.75 0 0 1 .578-.26l21.889.003a.75.75 0 0 1 .75.87L32.58 34.116a.75.75 0 0 1-.75.63H16.556a1.02 1.02 0 0 1-.997-.851l-3.184-19.328a.75.75 0 0 1 .172-.61zm9.11 13.708h4.874l1.181-6.896h-7.376l1.32 6.896z" clip-rule="evenodd"></path>
    <path fill="url(#paint0_linear)" d="M34.751 20.77h-7.038l-1.182 6.896h-4.875L15.9 34.5c.182.157.415.245.656.247h15.278a.75.75 0 0 0 .75-.63L34.75 20.77z"></path>
    <defs>
      <linearGradient id="paint0_linear" x1="30.256" x2="22.125" y1="18.389" y2="29.934" gradientUnits="userSpaceOnUse">
        <stop offset=".18" stop-color="#0052CC"></stop>
        <stop offset="1" stop-color="#2684FF"></stop>
      </linearGradient>
    </defs>
  </symbol>
  <symbol fill="none" viewBox="-8 -2.89 819.875 654.801" xmlns="http://www.w3.org/2000/svg" id="blender-2">
    <path d="M418.47 366.596c1.487-26.724 14.593-50.293 34.336-67.007 19.393-16.415 45.478-26.421 73.934-26.439 28.456.018 54.541 10.024 73.934 26.439 19.743 16.714 32.849 40.283 34.354 67.007 1.505 27.481-9.529 53.036-28.918 71.949-19.747 19.249-47.886 31.344-79.352 31.344-31.484 0-59.641-12.095-79.406-31.344-19.371-18.913-30.405-44.468-28.882-71.949z" fill="#005385"></path>
    <path d="M246.008 420.711c.181 10.431 3.541 30.763 8.536 46.68 10.518 33.61 28.37 64.727 53.231 92.154 25.5 28.156 56.862 50.805 93.128 66.848 38.126 16.896 79.443 25.518 122.278 25.432 42.854-.072 84.148-8.835 122.274-25.835 36.235-16.221 67.596-38.923 93.078-67.153 24.825-27.535 42.641-58.702 53.177-92.33a233.25 233.25 0 0 0 10.005-51.531 234.814 234.814 0 0 0-1.646-51.177c-4.728-33.238-16.238-64.441-33.928-92.883-16.242-26.117-37.1-48.997-61.93-68.264l.037-.036L453.726 10.234c-.21-.18-.421-.359-.635-.534-16.488-12.59-44.114-12.553-62.175.09-18.31 12.802-20.363 33.928-4.125 47.297l-.054.036 104.498 85-318.54.336h-.44c-26.316.018-51.603 17.322-56.635 39.136-5.118 22.245 12.77 40.678 40.129 40.782l-.036.109 161.446-.318L29.047 443.291c-.354.281-.744.549-1.097.83C.8 464.929-8 499.55 9.104 521.455c17.39 22.277 54.31 22.295 81.782.091l157.23-128.652s-2.285 17.372-2.108 27.817zm404.016 58.14c-32.386 33.044-77.719 51.744-126.825 51.83-49.123.09-94.475-18.469-126.883-51.426-15.831-16.076-27.463-34.513-34.653-54.219a141.005 141.005 0 0 1-7.952-60.548 143.216 143.216 0 0 1 17.372-57.038c9.475-17.177 22.49-32.69 38.552-45.828 31.484-25.677 71.558-39.562 113.528-39.617 41.97-.05 82.027 13.727 113.529 39.295 16.043 13.07 29.059 28.529 38.515 45.674a143.23 143.23 0 0 1 17.408 56.984 141.144 141.144 0 0 1-7.969 60.561c-7.172 19.729-18.791 38.198-34.622 54.332z" fill="#ff7021"></path>
  </symbol>
  <symbol xmlns="http://www.w3.org/2000/svg" viewBox="0 -3.954 53.927 53.954" id="buffer">
    <g fill="#0080ff" fill-rule="evenodd">
      <path d="M24.915 50v-9.661c10.226 0 18.164-10.141 14.237-20.904a14.438 14.438 0 0 0-8.615-8.616C19.774 6.921 9.633 14.83 9.633 25.056H0C0 8.758 15.763-3.954 32.853 1.384 40.311 3.73 46.271 9.661 48.588 17.12 53.927 34.237 41.243 50 24.915 50"></path>
      <path d="M15.339 40.367h9.604v-9.604H15.34zm-7.401 7.401h7.4v-7.4h-7.4zm-6.187-7.4h6.187V34.18H1.751z"></path>
    </g>
  </symbol>
  <symbol viewBox="0 0 256 262" xmlns="http://www.w3.org/2000/svg" preserveAspectRatio="xMidYMid" id="digitalocean-icon-1">
    <path d="M136.442 1.515c38.04 17.645 76.703 35.867 114.69 53.622 2.027.948 4.685 1.593 4.688 4.463.004 2.875-2.65 3.515-4.682 4.464a76682.54 76682.54 0 0 1-114.45 53.437c-5.814 2.707-11.784 2.672-17.605-.041A104726.907 104726.907 0 0 1 4.403 63.907c-1.967-.92-4.442-1.616-4.365-4.413.072-2.617 2.44-3.297 4.332-4.182C42.747 37.38 81.513 19.166 119.94 1.344c4.062-1.881 12.27-1.753 16.502.17zm-8.562 260.047c-2.767 0-4.84-1.05-8.794-2.53-38.185-17.712-76.323-35.526-114.458-53.346-2.027-.947-4.652-1.616-4.628-4.504.025-2.873 2.652-3.507 4.68-4.471 6.325-3.008 12.683-5.948 19.038-8.893 6.35-2.943 12.657-2.902 19.025.083 25.28 11.85 50.586 23.64 75.876 35.465 6.28 2.936 12.506 2.875 18.778-.063a70166.124 70166.124 0 0 1 76.108-35.573c5.992-2.797 12.063-2.875 18.083-.147 6.77 3.067 13.49 6.244 20.214 9.405.997.469 2.008.998 2.843 1.7 1.797 1.515 1.821 3.566-.013 5.035-1.115.893-2.449 1.55-3.757 2.16-37.827 17.674-75.649 35.358-113.527 52.922-2.944 1.364-6.7 2.757-9.468 2.757zm-.134-70.823c-1.265 0-6.18-1.342-8.978-2.641-38.028-17.66-76.005-35.43-113.985-53.191-2.04-.954-4.7-1.57-4.753-4.412-.056-3.015 2.728-3.618 4.828-4.617 6.396-3.045 12.81-6.056 19.247-9.014 6.104-2.804 12.218-2.738 18.317.11 25.535 11.928 51.07 23.858 76.623 35.746 5.915 2.752 11.922 2.73 17.842-.025 25.627-11.933 51.236-23.903 76.86-35.844 5.924-2.761 11.91-2.76 17.838-.054 6.756 3.082 13.47 6.257 20.191 9.414.923.434 1.87.892 2.66 1.52 2.04 1.62 2.023 3.759-.04 5.38-.794.625-1.737 1.086-2.66 1.518-38.37 17.937-76.732 35.89-115.148 53.725-2.64 1.227-7.578 2.385-8.842 2.385z"></path>
  </symbol>
  <symbol xmlns="http://www.w3.org/2000/svg" viewBox="0 0 42.4 39.5" id="dropbox-1">
    <path d="M10.6 1.7L0 8.5l10.6 6.7 10.6-6.7zm21.2 0L21.2 8.5l10.6 6.7 10.6-6.7zM0 22l10.6 6.8L21.2 22l-10.6-6.8zm31.8-6.8L21.2 22l10.6 6.8L42.4 22zM10.6 31l10.6 6.8L31.8 31l-10.6-6.7z" fill="#0062ff"></path>
  </symbol>
  <symbol viewBox="0 0 512 502.8" xmlns="http://www.w3.org/2000/svg" id="dropbox-paper">
    <path d="M256 153.4L0 327.5l256 175.3 256-175.3z" fill="#b3d8f6"></path>
    <path d="M256 0L0 174.1l256 175.3 256-175.3z" fill="#0070e0"></path>
  </symbol>
  <symbol xmlns="http://www.w3.org/2000/svg" viewBox="83.262 180.188 595.286 580.384" id="edge-animate-app-cc">
    <path d="M83.262 180.188h595.286v580.384H83.262V180.188" fill="#0f0b4a"></path>
    <linearGradient id="a" gradientUnits="userSpaceOnUse" x1="83.255" y1="632.146" x2="392.045" y2="632.146" gradientTransform="matrix(1.9278 0 0 -1.9278 -77.236 1706.52)">
      <stop offset="0" stop-color="#b0a0ff" stop-opacity=".1"></stop>
      <stop offset=".483" stop-color="#b0a0ff"></stop>
      <stop offset="1" stop-color="#b0a0ff" stop-opacity=".1"></stop>
    </linearGradient>
    <path d="M83.262 738.384h595.286v14.896H83.262v-14.896m0-64.65h595.286v14.896H83.262v-14.896m0-128.811h595.286v14.896H83.262v-14.896m0-64.65h595.286v14.896H83.262v-14.896m0-64.359h595.286v14.896H83.262v-14.896m0-64.454h595.286v14.898H83.262V351.46m0-64.649h595.286v14.896H83.262v-14.896m0-64.358h595.286v14.896H83.262v-14.896m0 386.93h595.286v14.897H83.262v-14.897" opacity=".08" fill="url(#a)"></path>
    <linearGradient id="b" gradientUnits="userSpaceOnUse" x1="83.255" y1="648.909" x2="392.045" y2="648.909" gradientTransform="matrix(1.9278 0 0 -1.9278 -77.236 1706.52)">
      <stop offset="0" stop-color="#b0a0ff" stop-opacity=".1"></stop>
      <stop offset=".483" stop-color="#b0a0ff"></stop>
      <stop offset="1" stop-color="#b0a0ff" stop-opacity=".1"></stop>
    </linearGradient>
    <path d="M83.262 641.704h595.286v14.898H83.262v-14.898m0 64.359h595.286v14.896H83.262v-14.896m0-193.454h595.286v14.896H83.262v-14.896m0 64.454h595.286v14.897H83.262v-14.897m0-128.909h595.286v14.896H83.262v-14.896m0-64.553h595.286v14.898H83.262v-14.898m0-64.455h595.286v14.896H83.262v-14.896m0-64.454h595.286v14.896H83.262v-14.896m0-64.552h595.286v14.898H83.262V190.14" opacity=".15" fill="url(#b)"></path>
    <path d="M252.176 514.354l-19.18 72.148c-.39 1.946-1.168 2.14-3.699 2.14h-35.441c-2.336 0-2.726-.777-2.336-3.698l68.446-239.896c1.168-4.478 1.947-7.011 2.337-18.987 0-1.558.778-2.336 1.946-2.336h50.528c1.558 0 2.336.39 2.728 2.336l76.819 259.29c.389 1.947 0 3.31-1.947 3.31h-39.823c-1.946 0-3.31-.194-3.699-1.75l-19.96-72.537h-76.723m67.083-39.625c-6.814-26.679-22.588-84.901-28.623-113.139h-.39c-5.257 28.235-18.012 75.647-27.846 113.139h56.859m98.143-42.356c0-2.336 0-10.807-1.168-24.729 0-1.558.586-1.947 2.142-2.726 20.35-7.497 46.634-15.87 74.096-15.87 33.881 0 70.978 13.144 70.978 71.367v125.211c0 2.335-.779 3.311-2.726 3.311H524.5c-2.337 0-3.115-1.169-3.115-3.311V463.654c0-22.978-8.082-35.83-32.131-35.83-10.224 0-20.153 1.947-27.26 4.479v153.838c0 1.56-.778 2.727-2.338 2.727h-39.238c-1.947 0-2.727-.779-2.727-2.727V432.303h-.291v.096" fill="#8689c3"></path>
  </symbol>
  <symbol xmlns="http://www.w3.org/2000/svg" viewBox="0 0 128 128" id="electron">
    <path fill="#47848f" d="M49.07 32.66c-14.37-2.62-25.72.12-30.25 8-3.38 5.85-2.41 13.61 2.34 21.9a1.47 1.47 0 0 0 2.56-1.47c-4.28-7.47-5.12-14.17-2.35-19 3.76-6.51 13.89-9 27.17-6.54a1.47 1.47 0 1 0 .53-2.9zM28.63 72.61a92.2 92.2 0 0 0 22 17.34c20.84 12 43 15.25 54 7.79a1.47 1.47 0 0 0-1.66-2.43C93.11 102 72 98.92 52.07 87.39a89.27 89.27 0 0 1-21.26-16.77 1.47 1.47 0 0 0-2.18 2z"></path>
    <path fill="#47848f" d="M101.06 70.81c9.41-11.11 12.69-22.29 8.17-30.11-3.32-5.76-10.35-8.8-19.69-8.92a1.47 1.47 0 0 0 0 2.95c8.4.11 14.45 2.73 17.18 7.45 3.75 6.5.82 16.47-7.87 26.74a1.47 1.47 0 1 0 2.25 1.9zM76.89 33.15a92 92 0 0 0-26.25 10.4C29.13 56 15.09 74.29 17 87.57a1.47 1.47 0 0 0 3-.43C18.23 75.35 31.53 58 52.11 46.11A89.07 89.07 0 0 1 77.51 36a1.47 1.47 0 1 0-.62-2.88z"></path>
    <path fill="#47848f" d="M42 96.78C47 110.51 55 119 64.05 119c6.6 0 12.7-4.5 17.46-12.42A1.47 1.47 0 1 0 79 105c-4.28 7.12-9.53 11-14.94 11-7.52 0-14.69-7.54-19.24-20.24a1.47 1.47 0 0 0-2.77 1zm45-2.69a92.5 92.5 0 0 0 3.91-27.3c0-24.41-8.54-45.44-20.71-50.85a1.47 1.47 0 0 0-1.2 2.7c10.85 4.82 19 24.78 19 48.15a89.57 89.57 0 0 1-3.78 26.42 1.47 1.47 0 0 0 2.81.88zm27.71-1.44a7.05 7.05 0 1 0-7.05 7.05 7.05 7.05 0 0 0 7.05-7.05zm-2.95 0a4.1 4.1 0 1 1-4.1-4.1 4.1 4.1 0 0 1 4.1 4.1zM20.34 99.7a7.05 7.05 0 1 0-7.05-7.05 7.05 7.05 0 0 0 7.05 7.05zm0-2.95a4.1 4.1 0 1 1 4.1-4.1 4.1 4.1 0 0 1-4.1 4.1z"></path>
    <path fill="#47848f" d="M64.05 23.13A7.05 7.05 0 1 0 57 16.08a7.05 7.05 0 0 0 7.05 7.05zm0-2.95a4.1 4.1 0 1 1 4.1-4.1 4.1 4.1 0 0 1-4.1 4.1zm1.08 51.59A5.1 5.1 0 1 1 69 65.71a5.1 5.1 0 0 1-3.87 6.06z"></path>
  </symbol>
  <symbol xmlns="http://www.w3.org/2000/svg" viewBox="0 0 200 300" id="figma-1">
    <title>Figma.logo</title>
    <path d="M50 300c27.6 0 50-22.4 50-50v-50H50c-27.6 0-50 22.4-50 50s22.4 50 50 50z" fill="#0acf83"></path>
    <path d="M0 150c0-27.6 22.4-50 50-50h50v100H50c-27.6 0-50-22.4-50-50z" fill="#a259ff"></path>
    <path d="M0 50C0 22.4 22.4 0 50 0h50v100H50C22.4 100 0 77.6 0 50z" fill="#f24e1e"></path>
    <path d="M100 0h50c27.6 0 50 22.4 50 50s-22.4 50-50 50h-50V0z" fill="#ff7262"></path>
    <path d="M200 150c0 27.6-22.4 50-50 50s-50-22.4-50-50 22.4-50 50-50 50 22.4 50 50z" fill="#1abcfe"></path>
  </symbol>
  <symbol viewBox="0 0 256 217" xmlns="http://www.w3.org/2000/svg" preserveAspectRatio="xMidYMid" id="front">
    <path d="M219.172 0h-71.08c-.736 0-1.446.269-2 .754L130 12.181a3.035 3.035 0 0 1-4 0L109.91.754a3.032 3.032 0 0 0-2-.754H36.83c-.84 0-1.65.345-2.224.958C13.253 23.731.135 54.317.001 87.965-.273 157.81 56.328 215.492 126.168 216.47 197.699 217.469 256 159.784 256 88.482c0-33.854-13.145-64.634-34.607-87.524A3.043 3.043 0 0 0 219.172 0zm-27.587 32.946c12.98 14.844 20.86 34.265 20.86 55.536 0 48.156-40.312 86.895-89.026 84.321-43.439-2.295-78.304-37.851-79.81-81.324-.778-22.435 7.216-42.986 20.799-58.528 1.042-1.193.966-2.991-.151-4.111L38.119 2.618l86.078 61.768a6.071 6.071 0 0 0 7.607 0l86.02-61.71-26.08 26.161c-1.114 1.12-1.198 2.919-.159 4.11z" fill="#FF6B6B"></path>
  </symbol>
  <symbol version="1.2" baseProfile="tiny" xmlns="http://www.w3.org/2000/svg" viewBox="0 0 2350 2314.8" id="github-1">
    <path d="M1175 0C525.8 0 0 525.8 0 1175c0 552.2 378.9 1010.5 890.1 1139.7-5.9-14.7-8.8-35.3-8.8-55.8v-199.8H734.4c-79.3 0-152.8-35.2-185.1-99.9-38.2-70.5-44.1-179.2-141-246.8-29.4-23.5-5.9-47 26.4-44.1 61.7 17.6 111.6 58.8 158.6 120.4 47 61.7 67.6 76.4 155.7 76.4 41.1 0 105.7-2.9 164.5-11.8 32.3-82.3 88.1-155.7 155.7-190.9-393.6-47-581.6-240.9-581.6-505.3 0-114.6 49.9-223.3 132.2-317.3-26.4-91.1-61.7-279.1 11.8-352.5 176.3 0 282 114.6 308.4 143.9 88.1-29.4 185.1-47 284.9-47 102.8 0 196.8 17.6 284.9 47 26.4-29.4 132.2-143.9 308.4-143.9 70.5 70.5 38.2 261.4 8.8 352.5 82.3 91.1 129.3 202.7 129.3 317.3 0 264.4-185.1 458.3-575.7 499.4 108.7 55.8 185.1 214.4 185.1 331.9V2256c0 8.8-2.9 17.6-2.9 26.4C2021 2123.8 2350 1689.1 2350 1175 2350 525.8 1824.2 0 1175 0z"></path>
  </symbol>
  <symbol viewBox="0 0 256 236" xmlns="http://www.w3.org/2000/svg" preserveAspectRatio="xMinYMin meet" id="gitlab">
    <path d="M128.075 236.075l47.104-144.97H80.97l47.104 144.97z" fill="#E24329"></path>
    <path d="M128.075 236.074L80.97 91.104H14.956l113.119 144.97z" fill="#FC6D26"></path>
    <path d="M14.956 91.104L.642 135.16a9.752 9.752 0 0 0 3.542 10.903l123.891 90.012-113.12-144.97z" fill="#FCA326"></path>
    <path d="M14.956 91.105H80.97L52.601 3.79c-1.46-4.493-7.816-4.492-9.275 0l-28.37 87.315z" fill="#E24329"></path>
    <path d="M128.075 236.074l47.104-144.97h66.015l-113.12 144.97z" fill="#FC6D26"></path>
    <path d="M241.194 91.104l14.314 44.056a9.752 9.752 0 0 1-3.543 10.903l-123.89 90.012 113.119-144.97z" fill="#FCA326"></path>
    <path d="M241.194 91.105h-66.015l28.37-87.315c1.46-4.493 7.816-4.492 9.275 0l28.37 87.315z" fill="#E24329"></path>
  </symbol>
  <symbol xmlns="http://www.w3.org/2000/svg" viewBox="0 0 32 32" id="google slide">
    <g stroke-linecap="round" stroke-linejoin="round">
      <path d="M25 8v18.5c0 .831-.669 1.5-1.5 1.5h-16c-.831 0-1.5-.669-1.5-1.5v-22C6 3.669 6.669 3 7.5 3H20" fill="#f5ba15" stroke-miterlimit="4.1"></path>
      <path d="M20 3v3.5c0 .831.669 1.5 1.5 1.5H25z" fill="#fadc87" stroke-miterlimit="4.1"></path>
      <path d="M10 12v11h11V12H10zm2 3h7v5h-7v-5z" fill="#fff"></path>
    </g>
  </symbol>
  <symbol xmlns="http://www.w3.org/2000/svg" viewBox="0 0 48 48" id="google-calendar">
    <g fill-rule="evenodd" clip-rule="evenodd">
      <path d="M38 5H10a2 2 0 0 0-2 2v3h32V7a2 2 0 0 0-2-2zM14 8a1 1 0 1 1 0-2 1 1 0 0 1 0 2zm20 0a1 1 0 1 1 0-2 1 1 0 0 1 0 2z" fill="#C7C7C7"></path>
      <path d="M44 11c.103-.582-1.409-2-2-2H6c-1 0-2.103 1.418-2 2 .823 4.664 3 15 3 15h34s2.177-10.336 3-15z" fill="#1976D2"></path>
      <path d="M41 26H7S4.823 36.336 4 41c0 1.146.792 2 2 2h36c.591 0 2-.5 2-2-.823-4.664-3-15-3-15z" fill="#1E88E5"></path>
      <path d="M20.534 26c.984.325 1.687.85 2.105 1.557.433.732.65 1.55.65 2.457 0 1.582-.519 2.826-1.556 3.733-1.037.906-2.363 1.36-3.977 1.36-1.582 0-2.892-.427-3.93-1.282-1.038-.855-1.536-2.014-1.497-3.476l.036-.072h2.242c0 .914.28 1.642.841 2.182.56.541 1.33.811 2.308.811.994 0 1.773-.27 2.337-.811.564-.541.847-1.34.847-2.397 0-1.073-.25-1.864-.751-2.373-.501-.509-1.292-.763-2.373-.763h-2.051V26h4.769zm11.103 0h2.349v8.856h-2.349z" fill="#FAFAFA"></path>
      <path d="M14.727 22.036h-2.254l-.024-.072c-.04-1.312.435-2.427 1.425-3.345.99-.918 2.284-1.377 3.882-1.377 1.606 0 2.886.427 3.84 1.282.954.855 1.431 2.073 1.431 3.655 0 .716-.217 1.429-.65 2.141-.433.712-1.083 1.254-1.95 1.628l.107.052h-4.77v-.911h2.051c1.042 0 1.779-.26 2.212-.781.433-.521.65-1.246.65-2.176 0-.994-.246-1.749-.739-2.266-.493-.517-1.22-.775-2.182-.775-.914 0-1.648.268-2.2.805-.534.518-.81 1.202-.829 2.14zM33.986 26h-2.349v-6.218l-3.554.048v-1.694l5.903-.644z" fill="#E0E0E0"></path>
      <path d="M6 9c-1.438 0-2.103 1.418-2 2 .823 4.664 3 15 3 15m34 0s2.177-10.336 3-15c0-1.625-1.409-2-2-2" fill="#1976D2"></path>
    </g>
  </symbol>
  <symbol xmlns="http://www.w3.org/2000/svg" viewBox="0 0 1818.2 2500" id="google-docs-icon">
    <path d="M1136.4 0h-966C79.6 0 0 79.5 0 170.5v2159.1c0 90.9 79.5 170.5 170.5 170.5h1477.3c90.9 0 170.5-79.5 170.5-170.5V681.8l-397.7-284.1L1136.4 0z" fill="#4285f4"></path>
    <path d="M454.5 1818.2h909.1v-113.6h-909l-.1 113.6zm0 227.3h681.8v-113.6H454.5v113.6zm0-795.5v113.6h909.1V1250H454.5zm0 340.9h909.1v-113.6h-909l-.1 113.6z" fill="#f1f1f1"></path>
    <path d="M1136.4 0v511.4c0 90.9 79.5 170.4 170.4 170.4h511.4L1136.4 0z" fill="#a1c2fa"></path>
  </symbol>
  <symbol viewBox="0 0 375.84 140" xmlns="http://www.w3.org/2000/svg" id="google-meet-2">
    <linearGradient id="a" gradientUnits="userSpaceOnUse" x1="69.397" x2="117.338" y1="57.964" y2="105.905">
      <stop offset="0" stop-color="#263238" stop-opacity=".2"></stop>
      <stop offset="1" stop-color="#263238" stop-opacity=".02"></stop>
    </linearGradient>
    <radialGradient id="b" cx="30.382" cy="21.753" gradientUnits="userSpaceOnUse" r="113.159">
      <stop offset="0" stop-color="#fff" stop-opacity=".1"></stop>
      <stop offset="1" stop-color="#fff" stop-opacity="0"></stop>
    </radialGradient>
    <path d="M181.62 105.8V39.93h8.46L213 80.04h.37l22.91-40.11h8.46v65.87h-8.46V66.7l.37-11.04h-.37l-20.61 36.16h-4.97l-20.61-36.16h-.37l.37 11.04v39.1zm94.04 1.47c-6.81 0-12.34-2.27-16.61-6.81-4.26-4.54-6.39-10.27-6.39-17.2 0-6.56 2.07-12.2 6.21-16.93 4.14-4.72 9.43-7.08 15.87-7.08 6.68 0 12.04 2.18 16.05 6.53 4.02 4.36 6.03 10.18 6.03 17.48l-.09 1.56h-35.6c.24 4.54 1.76 8.13 4.55 10.76 2.79 2.64 6.06 3.96 9.8 3.96 6.07 0 10.18-2.58 12.33-7.73l7.54 3.13c-1.47 3.5-3.9 6.43-7.27 8.79-3.38 2.36-7.52 3.54-12.42 3.54zm12.14-29.44c-.18-2.58-1.37-5.03-3.54-7.36-2.18-2.33-5.41-3.5-9.71-3.5-3.13 0-5.84.98-8.14 2.94s-3.88 4.6-4.74 7.91h26.13zm35.77 29.44c-6.81 0-12.34-2.27-16.61-6.81-4.26-4.54-6.39-10.27-6.39-17.2 0-6.56 2.07-12.2 6.21-16.93 4.14-4.72 9.43-7.08 15.87-7.08 6.68 0 12.04 2.18 16.05 6.53 4.02 4.36 6.03 10.18 6.03 17.48l-.09 1.56h-35.6c.24 4.54 1.76 8.13 4.55 10.76 2.79 2.64 6.06 3.96 9.8 3.96 6.07 0 10.18-2.58 12.33-7.73l7.54 3.13c-1.47 3.5-3.9 6.43-7.27 8.79s-7.51 3.54-12.42 3.54zm12.14-29.44c-.18-2.58-1.37-5.03-3.54-7.36-2.18-2.33-5.41-3.5-9.71-3.5-3.13 0-5.84.98-8.14 2.94s-3.88 4.6-4.74 7.91h26.13zm33.34 28.7c-4.72 0-8.33-1.26-10.81-3.77s-3.73-6.07-3.73-10.67V68.45h-7.91v-7.73h7.91v-13.8h8.46v13.8h11.04v7.73h-11.04v23c0 4.91 2.02 7.36 6.07 7.36 1.53 0 2.82-.24 3.86-.74l2.94 7.27c-1.83.79-4.1 1.19-6.79 1.19z" fill="#5f6368"></path>
    <path d="M0 0h140v140H0z" fill="none"></path>
    <path d="M125.42 61.25c0-30.6-24.83-55.42-55.42-55.42S14.58 30.65 14.58 61.25c0 28.99 26.44 52.5 55.42 52.5v20.42c33.66-17.08 55.42-44.56 55.42-72.92z" fill="#00897b"></path>
    <path clip-path="url(#a)" d="M104.27 41.2L97 61.25H56.88l-16.1 19.74L99.79 140h39.48V76.2z" fill="url(#a)"></path>
    <path d="M70 113.02c-28.87 0-55.2-23.32-55.41-52.16 0 .13-.01.26-.01.39 0 28.99 26.44 52.5 55.42 52.5zm0 20.42v.73c33.66-17.08 55.42-44.56 55.42-72.92 0-.12-.01-.24-.01-.35-.19 28.22-21.9 55.54-55.41 72.54zm12.4-50.32H45.94c-1.87 0-3.73-.71-5.16-2.14s-2.14-3.29-2.14-5.16v.73c0 1.87.71 3.73 2.14 5.16s3.29 2.14 5.16 2.14H82.4c1.87 0 3.73-.71 5.16-2.14a7.285 7.285 0 0 0 2.14-5.16v-.73c0 1.87-.71 3.73-2.14 5.16s-3.3 2.14-5.16 2.14zm7.29-15.67l14.58 14.58v-.73L89.69 66.72z" fill="#263238" opacity=".2"></path>
    <path d="M89.69 55.78v-9.11c0-1.87-.71-3.73-2.14-5.16a7.285 7.285 0 0 0-5.16-2.14H45.94c-1.87 0-3.73.71-5.16 2.14a7.285 7.285 0 0 0-2.14 5.16v29.17c0 1.87.71 3.73 2.14 5.16s3.29 2.14 5.16 2.14H82.4c1.87 0 3.73-.71 5.16-2.14a7.285 7.285 0 0 0 2.14-5.16v-9.11l14.58 14.58V41.2z" fill="#f5f5f5"></path>
    <path d="M38.65 46.67v14.58h65.62V41.2L89.69 55.78v-9.11c0-1.87-.71-3.73-2.14-5.16a7.285 7.285 0 0 0-5.16-2.14H45.94c-1.87 0-3.73.71-5.16 2.14a7.275 7.275 0 0 0-2.13 5.16z" fill="#e0e0e0"></path>
    <path d="M38.65 60.52h65.62v.73H38.65z" fill="#212121" fill-opacity=".02"></path>
    <g fill="#fff">
      <path d="M38.65 61.25h65.62v.73H38.65z" fill-opacity=".05"></path>
      <path d="M45.94 40.1H82.4c1.87 0 3.73.71 5.16 2.14a7.285 7.285 0 0 1 2.14 5.16v-.73c0-1.87-.71-3.73-2.14-5.16a7.285 7.285 0 0 0-5.16-2.14H45.94c-1.87 0-3.73.71-5.16 2.14a7.285 7.285 0 0 0-2.14 5.16v.73c0-1.87.71-3.73 2.14-5.16a7.302 7.302 0 0 1 5.16-2.14zm43.75 15.68v.73l14.58-14.58v-.73z" opacity=".2"></path>
      <path d="M70 6.56c30.47 0 55.22 24.62 55.41 55.06 0-.13.01-.25.01-.38 0-30.6-24.83-55.42-55.42-55.42S14.58 30.65 14.58 61.25c0 .12.01.23.01.34C14.8 31.17 39.54 6.56 70 6.56z" opacity=".2"></path>
    </g>
    <path d="M125.42 61.25c0-30.6-24.83-55.42-55.42-55.42S14.58 30.65 14.58 61.25c0 28.99 26.44 52.5 55.42 52.5v20.42c33.66-17.08 55.42-44.56 55.42-72.92z" fill="url(#b)"></path>
  </symbol>
  <symbol xmlns="http://www.w3.org/2000/svg" viewBox="0 0 48 48" id="google-sheets">
    <path d="M37 45H11a3 3 0 0 1-3-3V6a3 3 0 0 1 3-3h19l10 10v29a3 3 0 0 1-3 3z" fill="#43A047"></path>
    <path d="M40 13H30V3z" fill="#C8E6C9"></path>
    <path d="M30 13l10 10V13z" fill="#2E7D32"></path>
    <path d="M31 23H15v14h18V23zm-14 2h4v2h-4zm0 4h4v2h-4zm0 4h4v2h-4zm14 2h-8v-2h8zm0-4h-8v-2h8zm0-4h-8v-2h8z" fill="#E8F5E9"></path>
  </symbol>
  <symbol viewBox="6.209 0.645 244.269 251.247" xmlns="http://www.w3.org/2000/svg" id="hubspot-1">
    <path d="M191.385 85.694V56.188a22.722 22.722 0 0 0 13.101-20.48v-.677c0-12.549-10.173-22.722-22.721-22.722h-.678c-12.549 0-22.722 10.173-22.722 22.722v.677a22.722 22.722 0 0 0 13.101 20.48v29.506a64.342 64.342 0 0 0-30.594 13.47L59.95 36.134c.577-2.083.878-4.225.912-6.375a25.6 25.6 0 1 0-25.633 25.55 25.323 25.323 0 0 0 12.607-3.43l79.685 62.007c-14.65 22.131-14.258 50.974.987 72.7l-24.236 24.243c-1.96-.626-4-.959-6.057-.987-11.607.01-21.01 9.423-21.007 21.03.003 11.606 9.412 21.014 21.018 21.017 11.607.003 21.02-9.4 21.03-21.007a20.747 20.747 0 0 0-.988-6.056l23.976-23.985c21.423 16.492 50.846 17.913 73.759 3.562 22.912-14.352 34.475-41.446 28.985-67.918-5.49-26.473-26.873-46.734-53.603-50.792m-9.938 97.044a33.17 33.17 0 1 1 0-66.316c17.85.625 32 15.272 32.01 33.134.008 17.86-14.127 32.522-31.977 33.165" fill="#ff7a59"></path>
  </symbol>
  <symbol xmlns="http://www.w3.org/2000/svg" viewBox="0 0 120 120" id="ibooks">
    <title>iBooks</title>
    <defs>
      <linearGradient x1="50%" y1="0%" x2="50%" y2="100%" id="a">
        <stop stop-color="#FFCE55" offset="0%"></stop>
        <stop stop-color="#F45413" offset="100%"></stop>
      </linearGradient>
    </defs>
    <g fill="none" fill-rule="evenodd">
      <rect fill="url(#a)" width="120" height="120" rx="28"></rect>
      <path d="M58.5 97.412c-3.208-9.65-9.785-14.475-19.731-14.475-10.588 0-14.269 5.475-17.269 5.475-.962 0-1.5-.5-1.5-1.143V41.106C20 35.757 27.219 30 39.25 30c12.295 0 19.25 9.181 19.25 15.438v51.974zm2.5 0V45.437C61 39.181 67.955 30 80.25 30c12.031 0 19.25 5.757 19.25 11.106V87.27c0 .643-.537 1.143-1.5 1.143-3 0-6.681-5.475-17.269-5.475-9.946 0-16.523 4.826-19.731 14.475z" fill="#FFF"></path>
    </g>
  </symbol>
  <symbol xmlns="http://www.w3.org/2000/svg" viewBox="0 130.746 595.279 580.398" id="indesign-cc">
    <radialGradient id="a" cx="-183.69" cy="328.972" r=".76" gradientTransform="matrix(545.6736 0 0 528.3113 100439.305 -173525.125)" gradientUnits="userSpaceOnUse">
      <stop offset="0" stop-color="#4b2b36" stop-opacity=".98"></stop>
      <stop offset="1" stop-color="#250012"></stop>
    </radialGradient>
    <path d="M24.803 155.549h545.674v530.792H24.803V155.549z" fill="url(#a)"></path>
    <path d="M24.803 155.549h545.674v530.792H24.803V155.549zM0 711.145h595.28V130.746H0v580.399zm376.515-339.311c-3.721-1.736-8.682-2.48-14.635-2.48-31.996 0-54.319 24.556-54.319 65.481 0 46.63 22.819 65.48 51.344 65.48 6.2 0 12.649-.744 17.61-2.976V371.834zm-13.147-40.429c5.209 0 8.186 0 13.146.496v-65.977c0-1.736 1.24-2.48 2.479-2.48h40.182c1.984 0 2.48.744 2.48 1.984V497.34c0 6.944 0 15.626 1.24 25.051 0 1.736-.496 1.984-2.232 2.977-21.331 10.169-43.901 14.634-64.984 14.634-54.815 0-94.005-33.98-94.005-103.182-.247-59.281 38.942-105.415 101.694-105.415zM217.774 533.057c0 2.479-.496 3.224-3.225 3.224h-38.197c-2.48 0-3.225-1.24-3.225-3.224V266.668c0-2.48 1.24-3.225 3.225-3.225h38.445c1.984 0 2.977.744 2.977 2.977v266.637z" fill="#ff408c"></path>
  </symbol>
  <symbol xmlns="http://www.w3.org/2000/svg" viewBox="0 0 256 256" id="intercom">
    <g fill="none">
      <path d="M0 18.338C0 8.216 8.474 0 18.92 0h218.16C247.53 0 256 8.216 256 18.338v219.327C256 247.79 247.53 256 237.08 256H18.92C8.475 256 0 247.791 0 237.668V18.335z" fill="#069"></path>
      <path d="M77.796 214.238V98.986H39.488v115.252H77.8zM58.65 83.253c13.356 0 21.671-8.85 21.671-19.91-.25-11.312-8.315-19.915-21.417-19.915-13.111 0-21.674 8.603-21.674 19.914 0 11.06 8.312 19.91 21.169 19.91h.248zM99 214.238h38.305v-64.355c0-3.44.25-6.889 1.262-9.346 2.768-6.885 9.071-14.012 19.656-14.012 13.858 0 19.405 10.568 19.405 26.063v61.65h38.304v-66.082c0-35.399-18.896-51.872-44.099-51.872-20.663 0-29.738 11.549-34.78 19.415h.255V98.99H99.002c.5 10.812-.003 115.252-.003 115.252z" fill="#fff"></path>
    </g>
  </symbol>
  <symbol viewBox="0 0 256 256" xmlns="http://www.w3.org/2000/svg" preserveAspectRatio="xMinYMin meet" id="invision">
    <path d="M232.793 0H23.207C10.39 0 0 10.39 0 23.207v209.586C0 245.61 10.39 256 23.207 256h209.586C245.61 256 256 245.61 256 232.793V23.207C256 10.39 245.61 0 232.793 0" fill="#DC395F"></path>
    <path d="M85.555 80.545c8.51 0 15.639-6.67 15.639-15.412 0-8.736-7.129-15.405-15.639-15.405s-15.637 6.669-15.637 15.405c0 8.741 7.127 15.412 15.637 15.412m-32.426 82.52c-.919 3.91-1.38 8.132-1.38 11.576 0 13.571 7.359 22.58 22.998 22.58 12.97 0 23.485-7.702 31.056-20.139l-4.623 18.553h25.755l14.72-59.039c3.68-14.948 10.809-22.707 21.619-22.707 8.509 0 13.798 5.292 13.798 14.028 0 2.531-.23 5.288-1.15 8.279l-7.59 27.137c-1.15 3.91-1.608 7.822-1.608 11.499 0 12.883 7.587 22.306 23.456 22.306 13.569 0 24.377-8.735 30.357-29.664l-10.118-3.906c-5.06 14.021-9.43 16.556-12.88 16.556-3.45 0-5.29-2.298-5.29-6.895 0-2.07.462-4.367 1.15-7.133l7.361-26.438c1.839-6.208 2.53-11.713 2.53-16.771 0-19.778-11.96-30.1-26.448-30.1-13.568 0-27.368 12.239-34.266 25.12l5.058-23.12H108.31l-5.52 20.364h18.399l-11.33 45.36c-8.897 19.778-25.24 20.099-27.291 19.64-3.368-.76-5.522-2.039-5.522-6.415 0-2.525.46-6.152 1.61-10.525l17.25-68.424H52.21l-5.52 20.364h18.167L53.13 163.065" fill="#FFF"></path>
  </symbol>
  <symbol xmlns="http://www.w3.org/2000/svg" fill="none" viewBox="0 0 48 48" id="jira">
    <path fill="#fff" d="M0 24C0 10.745 10.745 0 24 0s24 10.745 24 24-10.745 24-24 24S0 37.255 0 24z"></path>
    <path fill="#2684FF" d="M34.937 12H23.41a5.203 5.203 0 0 0 5.203 5.203h2.124v2.05a5.203 5.203 0 0 0 5.2 5.2V13a1 1 0 0 0-1-1z"></path>
    <path fill="url(#paint0_linear)" d="M29.233 17.743H17.707a5.203 5.203 0 0 0 5.2 5.2h2.123V25a5.203 5.203 0 0 0 5.203 5.197V18.743a1 1 0 0 0-1-1z"></path>
    <path fill="url(#paint1_linear)" d="M23.527 23.483H12a5.203 5.203 0 0 0 5.203 5.204h2.13v2.05a5.203 5.203 0 0 0 5.194 5.2V24.483a1 1 0 0 0-1-1z"></path>
    <defs>
      <linearGradient id="paint0_linear" x1="27.443" x2="22.57" y1="15.326" y2="20.411" gradientUnits="userSpaceOnUse">
        <stop offset=".18" stop-color="#0052CC"></stop>
        <stop offset="1" stop-color="#2684FF"></stop>
      </linearGradient>
      <linearGradient id="paint1_linear" x1="376.829" x2="167.455" y1="349.939" y2="557.146" gradientUnits="userSpaceOnUse">
        <stop offset=".18" stop-color="#0052CC"></stop>
        <stop offset="1" stop-color="#2684FF"></stop>
      </linearGradient>
    </defs>
  </symbol>
  <symbol xmlns="http://www.w3.org/2000/svg" fill="none" viewBox="0 0 48 48" id="linkedin-icon-2">
    <path fill="#1F8DED" d="M0 24C0 10.745 10.745 0 24 0s24 10.745 24 24-10.745 24-24 24S0 37.255 0 24z"></path>
    <path fill="#fff" fill-rule="evenodd" d="M22.91 13.09a1.091 1.091 0 0 1 2.18 0v15.82a1.09 1.09 0 0 1-2.18 0V13.09zm-4.364-.538a1.09 1.09 0 0 0-1.091 1.09v14.575a1.09 1.09 0 1 0 2.181 0V13.643a1.09 1.09 0 0 0-1.09-1.091zm16.363 14.175A1.09 1.09 0 0 0 36 25.637v-9.812a1.09 1.09 0 0 0-2.182 0v9.811c0 .603.489 1.091 1.091 1.091zM24 36c7.41 0 11.45-3.391 11.62-3.535a1.091 1.091 0 1 0-1.421-1.657c-.035.03-3.588 3.01-10.199 3.01-6.53 0-10.137-2.959-10.202-3.012a1.09 1.09 0 0 0-1.417 1.659C12.549 32.609 16.59 36 24 36zM12 15.825a1.091 1.091 0 0 1 2.182 0v9.811a1.09 1.09 0 0 1-2.182 0v-9.811zm17.455-3.273a1.09 1.09 0 0 0-1.091 1.09v14.575a1.09 1.09 0 1 0 2.181 0V13.643a1.09 1.09 0 0 0-1.09-1.091z" clip-rule="evenodd"></path>
  </symbol>
  <symbol xmlns="http://www.w3.org/2000/svg" viewBox="0 0 110.037 107.5" id="microsoft-excel-2013">
    <path d="M57.55 0h7.425v10c12.513 0 25.025.025 37.537-.038 2.113.087 4.438-.062 6.275 1.2 1.287 1.85 1.138 4.2 1.225 6.325-.062 21.7-.037 43.388-.024 65.075-.062 3.638.337 7.35-.425 10.938-.5 2.6-3.625 2.662-5.713 2.75-12.95.037-25.912-.025-38.875 0v11.25h-7.763c-19.05-3.463-38.138-6.662-57.212-10V10.013C19.188 6.675 38.375 3.388 57.55 0z" fill="#207245"></path>
    <path d="M64.975 13.75h41.25V92.5h-41.25V85h10v-8.75h-10v-5h10V62.5h-10v-5h10v-8.75h-10v-5h10V35h-10v-5h10v-8.75h-10v-7.5z" fill="#fff"></path>
    <path d="M79.975 21.25h17.5V30h-17.5v-8.75z" fill="#207245"></path>
    <path d="M37.025 32.962c2.825-.2 5.663-.375 8.5-.512a2607.344 2607.344 0 0 1-10.087 20.487c3.438 7 6.949 13.95 10.399 20.95a716.28 716.28 0 0 1-9.024-.575c-2.125-5.213-4.713-10.25-6.238-15.7-1.699 5.075-4.125 9.862-6.074 14.838-2.738-.038-5.476-.15-8.213-.263C19.5 65.9 22.6 59.562 25.912 53.312c-2.812-6.438-5.9-12.75-8.8-19.15 2.75-.163 5.5-.325 8.25-.475 1.862 4.888 3.899 9.712 5.438 14.725 1.649-5.312 4.112-10.312 6.225-15.45z" fill="#fff"></path>
    <path d="M79.975 35h17.5v8.75h-17.5V35zm0 13.75h17.5v8.75h-17.5v-8.75zm0 13.75h17.5v8.75h-17.5V62.5zm0 13.75h17.5V85h-17.5v-8.75z" fill="#207245"></path>
  </symbol>
  <symbol viewBox="13.38 3.2 485.44 505.7" xmlns="http://www.w3.org/2000/svg" id="microsoft-powerpoint-2013">
    <path d="M186.84 13.95C107.78 19.8 40.57 25.18 37.41 25.81c-8.86 1.58-16.92 7.59-20.71 15.5l-3.32 6.96.32 165.88.47 165.88 5.06 10.28c2.85 5.69 22.14 32.26 43.17 59.61 41.59 53.92 44.59 56.93 60.4 58.51 4.59.47 39.06-1.11 76.38-3.32 37.48-2.37 97.56-6.01 133.62-8.06 154.01-9.35 146.1-8.56 154.95-16.15 11.07-9.17 10.28 5.85 10.75-195.76.32-170.94.16-182.16-2.37-187.38-3-5.85-8.38-9.96-78.59-59.3-46.96-32.89-50.28-34.63-71.32-34.95-8.69-.31-80.48 4.43-159.38 10.44zm177.73 21.66c6.64 3 55.19 36.84 62.3 43.33 1.9 1.9 2.53 3.48 1.58 4.43-2.21 1.9-302.66 19.77-311.35 18.5-3.95-.63-9.8-3-13.12-5.22-13.76-9.33-47.91-37.32-47.91-39.37 0-5.38-1.11-5.38 132.83-15.02 25.62-1.74 67.68-4.9 93.3-6.96 55.49-4.43 72.1-4.27 82.37.31zm95.51 86.5c2.21 2.21 4.11 6.48 4.74 10.59.47 3.8.79 74.64.47 157.18-.47 141.68-.63 150.54-3.32 154.65-1.58 2.53-4.74 5.22-7.12 6.01-6.63 2.69-321.46 20.56-327.94 18.66-3-.79-7.12-3.32-9.33-5.53l-3.8-4.11-.47-152.75c-.32-107.21 0-154.65 1.27-158.92.95-3.16 3.32-6.96 5.38-8.22 2.85-1.9 21.51-3.48 85.71-7.27 45.07-2.53 114.8-6.8 154.81-9.17 95.17-5.86 94.86-5.86 99.6-1.12z"></path>
    <path d="M375.48 174.45c-17.08 1.11-32.26 2.69-34 3.64-5.22 2.69-8.38 7.12-9.01 12.18-.47 5.22 1.11 5.85 18.18 7.91l7.43.95v67.52c0 40.16-.63 66.73-1.42 65.94-.79-.95-23.24-35.1-49.97-75.9-26.72-40.95-48.86-74.64-49.18-74.95-.32-.32-17.71.63-38.58 2.06-25.62 1.74-39.69 3.32-42.54 4.9-4.59 2.37-9.65 10.75-9.65 16.29 0 3.32 6.01 5.06 18.66 5.06h6.64v194.18l-10.75 3.32c-8.38 2.53-11.23 4.11-12.65 7.27-2.53 5.38-2.37 10.28.16 10.28.95 0 18.82-1.11 39.37-2.37 40.64-2.37 45.22-3.48 49.49-11.86 1.27-2.53 2.37-5.22 2.37-6.01 0-.63-5.53-2.53-12.18-4.11-6.8-1.58-13.6-3.16-15.02-3.48-2.69-.79-2.85-5.69-2.85-73.69v-72.9l48.07 75.43c50.44 79.06 56.77 88.08 64.52 92.03 9.65 5.06 34.16 1.58 46.49-6.48l3.8-2.37.32-107.84.47-108 8.38-1.58c9.96-1.9 14.55-6.48 14.55-14.39 0-5.06-.32-5.38-5.06-5.22-2.83.13-19.12 1.08-36.04 2.19z"></path>
  </symbol>
  <symbol xmlns="http://www.w3.org/2000/svg" viewBox="0 0 110.031 107.5" id="microsoft-word-2013-logo">
    <path d="M57.893 0h7.087v11.25c13.363.075 26.738-.138 40.088.062 2.875-.275 5.125 1.962 4.838 4.837.212 23.35-.05 46.712.125 70.075-.125 2.525.25 5.325-1.2 7.562-1.825 1.325-4.2 1.15-6.338 1.25-12.5-.062-25-.037-37.513-.037v12.5h-7.774c-19.05-3.475-38.138-6.65-57.2-10-.013-29.162 0-58.325 0-87.475C19.292 6.688 38.58 3.288 57.893 0z" fill="#d24625"></path>
    <path d="M64.98 15h41.25v76.25H64.98v-10h30v-5h-30V70h30v-5H64.993c-.013-2.45-.013-4.9-.024-7.35 4.95 1.537 10.587 1.5 15.012-1.476 4.788-2.837 7.288-8.25 7.7-13.65-5.487-.038-10.975-.025-16.45-.025-.012-5.438.062-10.875-.112-16.3-2.05.4-4.1.825-6.138 1.262V15z" fill="#fff"></path>
    <path d="M73.743 23.587c8.688.4 15.987 7.712 16.45 16.375-5.488.063-10.975.038-16.463.038 0-5.475-.012-10.95.013-16.413z" fill="#d24625"></path>
    <path d="M20.055 33.025c6.788.325 15.013-2.688 20.638 2.4 5.388 6.538 3.963 18.562-4.025 22.476-2.837 1.449-6.087 1.25-9.175 1.149-.013 4.888-.024 9.775-.013 14.663a1323.27 1323.27 0 0 0-7.438-.625c-.112-13.351-.136-26.713.013-40.063z" fill="#fff"></path>
    <path d="M27.48 39.788c2.463-.113 5.513-.562 7.176 1.75 1.425 2.45 1.35 5.675.162 8.2-1.425 2.575-4.65 2.325-7.138 2.625-.263-4.188-.237-8.376-.2-12.575z" fill="#d24625"></path>
  </symbol>
  <symbol xmlns="http://www.w3.org/2000/svg" viewBox="1 1 800 800" id="notion-2">
    <g transform="translate(1 -251.362)">
      <linearGradient id="a" gradientUnits="userSpaceOnUse" x1="-751.117" y1="1549.032" x2="-750.533" y2="2139.381" gradientTransform="matrix(1.3333 0 0 -1.3333 1401.097 3114.52)">
        <stop offset="0" stop-color="#11d51d"></stop>
        <stop offset="1" stop-color="#82fa6c"></stop>
      </linearGradient>
      <path d="M183.579 252.362h432.843C718.124 252.362 800 334.239 800 435.941v432.842c0 101.703-81.876 183.579-183.578 183.579H183.579C81.877 1052.362 0 970.486 0 868.783V435.941c0-101.702 81.877-183.579 183.579-183.579z" fill="url(#a)"></path>
      <linearGradient id="b" gradientUnits="userSpaceOnUse" x1="-716.633" y1="1764.823" x2="-725.204" y2="1274.823" gradientTransform="matrix(1 0 0 -1 1046.93 2173.537)">
        <stop offset="0" stop-color="#fff"></stop>
        <stop offset="1" stop-color="#fff"></stop>
      </linearGradient>
      <path d="M265.715 646.648h117.143a5 5 0 0 1 5 5v201.428a5 5 0 0 1-5 5H265.715a5 5 0 0 1-5-5V651.648a5 5 0 0 1 5-5z" fill="url(#b)"></path>
      <linearGradient id="c" gradientUnits="userSpaceOnUse" x1="-862.839" y1="1767.385" x2="-871.41" y2="1277.38" gradientTransform="matrix(1 0 0 -1 1046.93 2173.537)">
        <stop offset="0" stop-color="#fff"></stop>
        <stop offset="1" stop-color="#fff"></stop>
      </linearGradient>
      <path d="M117.151 766.648H236.82c2.063 0 3.737 1.533 3.737 3.425v84.579c0 1.891-1.674 3.424-3.737 3.424H117.151c-2.063 0-3.737-1.533-3.737-3.424v-84.579c0-1.891 1.674-3.425 3.737-3.425z" fill="url(#c)"></path>
      <linearGradient id="d" gradientUnits="userSpaceOnUse" x1="-570.775" y1="1762.272" x2="-579.347" y2="1272.273" gradientTransform="matrix(1 0 0 -1 1046.93 2173.537)">
        <stop offset="0" stop-color="#fff"></stop>
        <stop offset="1" stop-color="#fff"></stop>
      </linearGradient>
      <path d="M413.715 406.737h117.143c2.762 0 5 2.235 5 4.992v441.356a4.995 4.995 0 0 1-5 4.991H413.715c-2.762 0-5-2.234-5-4.991V411.729a4.996 4.996 0 0 1 5-4.992z" fill="url(#d)"></path>
      <linearGradient id="e" gradientUnits="userSpaceOnUse" x1="-421.665" y1="1759.664" x2="-430.237" y2="1269.663" gradientTransform="matrix(1 0 0 -1 1046.93 2173.537)">
        <stop offset="0" stop-color="#fff"></stop>
        <stop offset="1" stop-color="#fff"></stop>
      </linearGradient>
      <path d="M561.21 538.814h118.153c2.482 0 4.494 2.092 4.494 4.672v309.919c0 2.58-2.012 4.671-4.494 4.671H561.21c-2.482 0-4.495-2.091-4.495-4.671V543.486c0-2.58 2.012-4.672 4.495-4.672z" fill="url(#e)"></path>
      <linearGradient id="f" gradientUnits="userSpaceOnUse" x1="-639.519" y1="1763.475" x2="-648.091" y2="1273.475" gradientTransform="matrix(1 0 0 -1 1046.93 2173.537)">
        <stop offset="0" stop-color="#fff"></stop>
        <stop offset="1" stop-color="#fff"></stop>
      </linearGradient>
      <path d="M120.587 881.289h556.786c6.312 0 11.429 4.162 11.429 9.296v2.857c0 5.134-5.116 9.295-11.429 9.295H120.587c-6.312 0-11.429-4.161-11.429-9.295v-2.857c0-5.134 5.117-9.296 11.429-9.296z" fill="url(#f)"></path>
    </g>
  </symbol>
  <symbol xmlns="http://www.w3.org/2000/svg" viewBox="0 0 110.031 107.5" id="numbers">
    <path d="M57.505 0h7.475v10c13.375.075 26.738-.138 40.101.075 2.85-.288 5.087 1.925 4.825 4.775.212 24.625-.05 49.262.125 73.887-.125 2.525.25 5.325-1.213 7.562-1.825 1.3-4.188 1.138-6.312 1.237-12.514-.061-25.014-.036-37.526-.036v10h-7.812c-19.024-3.475-38.1-6.662-57.162-10-.013-29.162 0-58.325 0-87.475C19.167 6.675 38.343 3.413 57.506 0z" fill="#2a5699"></path>
    <path d="M64.98 13.75h41.25v80H64.98v-10h32.5v-5h-32.5V72.5h32.5v-5h-32.5v-6.25h32.5v-5h-32.5V50h32.5v-5h-32.5v-6.25h32.5v-5h-32.5V27.5h32.5v-5h-32.5v-8.75zM25.83 35.837c2.375-.137 4.75-.237 7.125-.362 1.662 8.438 3.362 16.862 5.162 25.262 1.413-8.675 2.976-17.325 4.487-25.987 2.5-.087 5-.225 7.488-.375-2.825 12.112-5.3 24.325-8.388 36.362-2.088 1.088-5.213-.05-7.688.125-1.663-8.274-3.6-16.5-5.088-24.812-1.462 8.075-3.362 16.075-5.037 24.101-2.4-.125-4.812-.275-7.226-.438-2.074-11-4.512-21.925-6.449-32.95 2.137-.1 4.287-.188 6.425-.263 1.287 7.962 2.75 15.888 3.875 23.862 1.765-8.174 3.564-16.349 5.314-24.525z" fill="#fff"></path>
  </symbol>
  <symbol viewBox="-1.132 4.727 34.057 21.467" xmlns="http://www.w3.org/2000/svg" id="onedrive-1">
    <path d="M12.202 11.193v-.001l6.718 4.024 4.003-1.685A6.477 6.477 0 0 1 25.5 13c.148 0 .294.007.439.016a10 10 0 0 0-18.041-3.013L8 10a7.96 7.96 0 0 1 4.202 1.193z" fill="#0364b8"></path>
    <path d="M12.203 11.192A7.96 7.96 0 0 0 8 10l-.102.003a7.997 7.997 0 0 0-6.46 12.57L7.36 20.08l2.634-1.108 5.863-2.468 3.062-1.288z" fill="#0078d4"></path>
    <path d="M25.939 13.016A6.577 6.577 0 0 0 25.5 13a6.477 6.477 0 0 0-2.576.532l-4.004 1.684 1.161.695 3.805 2.279 1.66.994 5.677 3.4a6.5 6.5 0 0 0-5.284-9.568z" fill="#1490df"></path>
    <path d="M25.546 19.184l-1.66-.994-3.805-2.28-1.16-.694-3.063 1.288-5.863 2.468L7.36 20.08l-5.924 2.493A7.989 7.989 0 0 0 8 26h17.5a6.498 6.498 0 0 0 5.723-3.416z" fill="#28a8ea"></path>
  </symbol>
  <symbol xmlns="http://www.w3.org/2000/svg" viewBox="0 -250.362 801 1051.362" id="pages-ios">
    <g transform="translate(0 -250.362)">
      <linearGradient id="a" gradientUnits="userSpaceOnUse" x1="-750.117" y1="1548.032" x2="-749.533" y2="2138.381" gradientTransform="matrix(1.3333 0 0 -1.3333 1400.763 3112.186)">
        <stop offset="0" stop-color="#ff8500"></stop>
        <stop offset="1" stop-color="#ffb900"></stop>
      </linearGradient>
      <path d="M184.579 251.362h432.843C719.124 251.362 801 333.239 801 434.941v432.842c0 101.703-81.876 183.579-183.578 183.579H184.579C82.877 1051.362 1 969.486 1 867.783V434.941c0-101.702 81.877-183.579 183.579-183.579z" fill="url(#a)"></path>
      <path d="M209.103 856.752c12.945-8.639 24.057-16.201 24.69-16.807 1.006-.96-.291-2.547-10.146-12.42-6.214-6.226-11.88-11.319-12.591-11.319-1.267 0-31.858 45.308-33.491 49.602-1.518 3.993 1.583 7.789 5.757 7.048 1.234-.219 12.836-7.466 25.781-16.104zm44.318-29.296c20.951-13.987 33.419-23.974 62.908-50.39 43.364-38.846 141.702-132.555 141.702-135.031 0-1.575-48.444-50.048-50.019-50.048-1.975 0-79.355 80.714-118.363 123.461-26.138 28.642-39.037 43.427-48.354 55.42-11.345 14.605-26.233 36.418-26.233 38.435 0 1.49 24.355 25.653 25.857 25.653.697 0 6.322-3.375 12.502-7.5zM510.844 651.05c2.185-2.185 2.656-3.244 2.656-5.964 0-1.819-.406-4.667-.904-6.328-1.222-4.076-.038-7.818 4.363-13.796 4.659-6.329 9.46-11.491 43.086-46.326 44.895-46.508 71.874-75.353 84.272-90.1 6.521-7.756 9.373-14.214 9.343-21.158-.023-5.44-.141-5.807-4.59-14.301-1.725-3.292-1.159-6.466 1.976-11.089 11.478-16.926 12.014-32.663 1.502-44.066-9.29-10.079-25.003-10.998-39.606-2.315-4.727 2.81-24.082 19.599-47.083 40.839C515.166 483.258 413.5 583.482 413.5 586.644c0 1.465 48.559 49.875 50.027 49.875.665 0 21.445-20.303 46.178-45.117 46.51-46.663 68.226-69.054 94.889-97.839 22.971-24.798 23.157-24.984 25.312-25.204 1.603-.164 1.997.18 2.197 1.911.321 2.788-.444 4.087-7.167 12.157-12.876 15.458-35.721 39.683-86.008 91.208-16.778 17.191-32.36 33.715-34.627 36.719-5.241 6.948-9.938 16.221-11.159 22.03-2.312 10.993 3.669 21.246 12.428 21.306 1.949.011 3.296-.663 5.274-2.64zM175.312 880.425c-5.459 0-9.844 4.857-9.844 10.875s4.385 10.844 9.844 10.844H798l.67-5.072.893-5.653.625-5.385.312-5.608H175.312z" fill="#fff"></path>
    </g>
  </symbol>
  <symbol xmlns="http://www.w3.org/2000/svg" viewBox="0 130.746 595.279 580.398" id="photoshop-cc">
    <radialGradient id="a" cx="-183.69" cy="328.972" r=".76" gradientTransform="matrix(545.6736 0 0 528.3113 100439.305 -173525.125)" gradientUnits="userSpaceOnUse">
      <stop offset="0" stop-color="#34364e" stop-opacity=".98"></stop>
      <stop offset="1" stop-color="#0c0824"></stop>
    </radialGradient>
    <path d="M24.803 155.549h545.674v530.792H24.803V155.549z" fill="url(#a)"></path>
    <path d="M24.803 155.549h545.674v530.792H24.803V155.549zM0 711.145h595.28V130.746H0v580.399zm401.318-342.287c-19.595 0-26.291 9.921-26.291 18.106 0 8.929 4.464 15.13 30.756 28.772 38.941 18.851 51.095 36.957 51.095 63.497 0 39.685-30.26 61.016-71.186 61.016-21.579 0-40.182-4.465-50.847-10.665-1.736-.744-1.984-1.984-1.984-3.969v-36.461c0-2.48 1.24-3.225 2.977-1.984 15.626 10.17 33.484 14.634 49.854 14.634 19.595 0 27.78-8.185 27.78-19.347 0-8.929-5.705-16.866-30.757-29.764-35.221-16.866-49.854-33.98-49.854-62.504 0-31.997 25.052-58.536 68.457-58.536 21.331 0 36.213 3.225 44.398 6.945 1.984 1.24 2.48 3.224 2.48 4.96v33.98c0 1.984-1.24 3.225-3.721 2.48-10.913-6.943-27.035-11.16-43.157-11.16zm-213.309 29.516c5.705.496 10.17.496 20.091.496 29.021 0 56.304-10.169 56.304-49.606 0-31.5-19.595-47.375-52.583-47.375-9.921 0-19.347.496-23.812.744v95.741zM143.86 266.668c0-1.736 3.473-2.977 5.456-2.977 15.875-.744 39.438-1.24 63.993-1.24 68.705 0 95.492 37.701 95.492 85.82 0 63-45.638 90.036-101.693 90.036-9.425 0-12.649-.496-19.347-.496v95.245c0 1.984-.744 2.976-2.976 2.976h-37.949c-1.984 0-2.977-.744-2.977-2.976V266.668z" fill="#31c5f0"></path>
  </symbol>
  <symbol xmlns="http://www.w3.org/2000/svg" viewBox="0 130.746 595.279 580.398" id="premiere-cc">
    <radialGradient id="a" cx="-183.69" cy="328.972" r=".76" gradientTransform="matrix(545.6736 0 0 528.3113 100439.305 -173525.125)" gradientUnits="userSpaceOnUse">
      <stop offset="0" stop-color="#4b2d4f" stop-opacity=".98"></stop>
      <stop offset="1" stop-color="#180024"></stop>
    </radialGradient>
    <path d="M24.803 155.549h545.674v530.792H24.803V155.549z" fill="url(#a)"></path>
    <path d="M24.803 155.549h545.674v530.792H24.803V155.549zM0 711.145h595.28V130.746H0v580.399zm357.168-335.342c0-2.977 0-10.169-1.24-24.06 0-1.984.248-2.48 1.984-3.224 15.13-6.201 50.599-17.114 90.78-17.114 1.984 0 2.976.496 2.976 2.48v35.965c0 1.984-.744 2.48-2.728 2.48-15.627-.744-38.197 1.24-46.879 4.96v156.262c0 1.983-.744 2.976-2.977 2.976h-38.94c-1.984 0-2.977-.744-2.977-2.976V375.803zm-158.741 22.571c5.704.496 10.169.496 20.091.496 29.02 0 56.304-10.169 56.304-49.606 0-31.5-19.347-47.375-52.584-47.375-9.921 0-19.346.496-23.811.744v95.741zm-43.902-131.706c0-1.736.496-2.977 2.48-2.977 15.874-.744 39.189-1.24 63.745-1.24 68.705 0 98.717 37.701 98.717 86.068 0 63-45.638 90.036-101.693 90.036-9.426 0-12.65-.496-19.347-.496v95.245c0 1.984-.744 2.976-2.977 2.976h-38.197c-1.984 0-2.977-.744-2.977-2.976V266.668h.249z" fill="#e579ff"></path>
  </symbol>
  <symbol xmlns="http://www.w3.org/2000/svg" viewBox="0.5 0.5 999 699.242" id="salesforce-2">
    <path fill="#00A1E0" d="M416.224 76.763c32.219-33.57 77.074-54.391 126.682-54.391 65.946 0 123.48 36.772 154.12 91.361 26.626-11.896 56.098-18.514 87.106-18.514 118.94 0 215.368 97.268 215.368 217.247 0 119.993-96.428 217.261-215.368 217.261a213.735 213.735 0 0 1-42.422-4.227c-26.981 48.128-78.397 80.646-137.412 80.646-24.705 0-48.072-5.706-68.877-15.853-27.352 64.337-91.077 109.448-165.348 109.448-77.344 0-143.261-48.939-168.563-117.574-11.057 2.348-22.513 3.572-34.268 3.572C75.155 585.74.5 510.317.5 417.262c0-62.359 33.542-116.807 83.378-145.937-10.26-23.608-15.967-49.665-15.967-77.06C67.911 87.25 154.79.5 261.948.5c62.914 0 118.827 29.913 154.276 76.263"></path>
    <path fill="#FFF" d="M145.196 363.11c-.626 1.637.228 1.979.427 2.263 1.878 1.366 3.786 2.349 5.707 3.444 10.189 5.407 19.81 6.986 29.871 6.986 20.492 0 33.214-10.9 33.214-28.447v-.341c0-16.224-14.358-22.115-27.835-26.37l-1.75-.569c-10.161-3.302-18.927-6.147-18.927-12.836v-.355c0-5.721 5.123-9.934 13.064-9.934 8.823 0 19.297 2.932 26.042 6.66 0 0 1.978 1.281 2.704-.64.398-1.025 3.814-10.218 4.17-11.214.384-1.082-.299-1.879-.996-2.306-7.699-4.682-18.344-7.884-29.358-7.884l-2.049.014c-18.756 0-31.848 11.328-31.848 27.565v.342c0 17.119 14.444 22.669 27.978 26.54l2.177.669c9.862 3.031 18.358 5.635 18.358 12.58v.342c0 6.347-5.521 11.071-14.43 11.071-3.458 0-14.487-.071-26.398-7.6-1.438-.84-2.277-1.451-3.387-2.12-.583-.37-2.049-1.011-2.689.925l-4.045 11.215zm299.998 0c-.626 1.637.228 1.979.427 2.263 1.878 1.366 3.786 2.349 5.706 3.444 10.189 5.407 19.811 6.986 29.871 6.986 20.492 0 33.215-10.9 33.215-28.447v-.341c0-16.224-14.359-22.115-27.836-26.37l-1.75-.569c-10.161-3.302-18.928-6.147-18.928-12.836v-.355c0-5.721 5.123-9.934 13.064-9.934 8.823 0 19.297 2.932 26.043 6.66 0 0 1.978 1.281 2.703-.64.398-1.025 3.814-10.218 4.17-11.214.385-1.082-.299-1.879-.996-2.306-7.699-4.682-18.344-7.884-29.358-7.884l-2.05.014c-18.756 0-31.848 11.328-31.848 27.565v.342c0 17.119 14.444 22.669 27.978 26.54l2.177.669c9.862 3.031 18.373 5.635 18.373 12.58v.342c0 6.347-5.536 11.071-14.445 11.071-3.457 0-14.486-.071-26.397-7.6-1.438-.84-2.291-1.423-3.372-2.12-.371-.242-2.107-.911-2.705.925l-4.042 11.215zm204.801-34.37c0 9.919-1.85 17.731-5.493 23.253-3.601 5.465-9.051 8.126-16.649 8.126-7.613 0-13.035-2.647-16.579-8.126-3.587-5.507-5.407-13.334-5.407-23.253 0-9.904 1.82-17.703 5.407-23.168 3.544-5.407 8.966-8.04 16.579-8.04 7.599 0 13.049 2.633 16.664 8.04 3.629 5.464 5.478 13.263 5.478 23.168m17.106-18.386c-1.68-5.679-4.298-10.688-7.784-14.857-3.487-4.184-7.898-7.542-13.136-9.99-5.223-2.433-11.398-3.671-18.328-3.671-6.945 0-13.121 1.238-18.344 3.671-5.237 2.448-9.648 5.807-13.149 9.99-3.472 4.184-6.091 9.193-7.784 14.857-1.665 5.649-2.505 11.825-2.505 18.386s.84 12.751 2.505 18.386c1.693 5.664 4.298 10.674 7.799 14.857 3.486 4.184 7.912 7.528 13.135 9.904 5.236 2.377 11.398 3.586 18.344 3.586 6.93 0 13.092-1.209 18.328-3.586 5.223-2.376 9.648-5.721 13.136-9.904 3.486-4.17 6.104-9.179 7.784-14.857 1.68-5.649 2.519-11.84 2.519-18.386s-.841-12.737-2.52-18.386m140.467 47.116c-.569-1.665-2.177-1.039-2.177-1.039-2.49.954-5.138 1.836-7.955 2.277-2.861.44-6.006.669-9.379.669-8.281 0-14.856-2.462-19.566-7.329-4.725-4.867-7.372-12.736-7.344-23.381.029-9.691 2.362-16.978 6.561-22.527 4.17-5.521 10.517-8.354 18.984-8.354 7.059 0 12.438.811 18.072 2.59 0 0 1.352.583 1.992-1.181 1.494-4.156 2.604-7.13 4.198-11.698.456-1.295-.654-1.85-1.053-2.007-2.22-.868-7.457-2.276-11.413-2.874-3.7-.569-8.026-.868-12.836-.868-7.188 0-13.591 1.224-19.069 3.672-5.465 2.433-10.104 5.791-13.775 9.976-3.672 4.184-6.461 9.192-8.325 14.856-1.85 5.649-2.789 11.854-2.789 18.415 0 14.188 3.828 25.657 11.385 34.054 7.57 8.425 18.941 12.708 33.77 12.708 8.766 0 17.76-1.778 24.221-4.326 0 0 1.238-.598.697-2.034l-4.199-11.599zm29.929-38.232c.811-5.507 2.334-10.09 4.682-13.661 3.544-5.422 8.951-8.396 16.551-8.396s12.623 2.988 16.223 8.396c2.391 3.571 3.43 8.354 3.843 13.661h-41.299zm57.592-12.111c-1.451-5.479-5.052-11.015-7.414-13.548-3.729-4.013-7.371-6.816-10.986-8.382-4.725-2.021-10.389-3.358-16.593-3.358-7.229 0-13.79 1.21-19.112 3.714-5.336 2.505-9.818 5.921-13.334 10.176-3.516 4.24-6.162 9.292-7.842 15.027-1.693 5.707-2.547 11.926-2.547 18.485 0 6.675.883 12.894 2.633 18.486 1.765 5.636 4.582 10.602 8.396 14.714 3.799 4.142 8.695 7.387 14.558 9.648 5.821 2.249 12.894 3.416 21.019 3.401 16.722-.057 25.53-3.785 29.159-5.792.641-.355 1.253-.981.483-2.774l-3.785-10.603c-.568-1.579-2.177-.996-2.177-.996-4.142 1.537-10.032 4.298-23.766 4.27-8.979-.014-15.64-2.661-19.81-6.803-4.283-4.24-6.375-10.474-6.745-19.268l57.905.057s1.522-.028 1.68-1.509c.057-.624 1.993-11.895-1.722-24.945m-521.327 12.111c.825-5.507 2.334-10.09 4.682-13.661 3.543-5.422 8.951-8.396 16.55-8.396s12.623 2.988 16.237 8.396c2.376 3.571 3.415 8.354 3.828 13.661h-41.297zm57.577-12.111c-1.451-5.479-5.037-11.015-7.399-13.548-3.729-4.013-7.372-6.816-10.986-8.382-4.725-2.021-10.388-3.358-16.593-3.358-7.215 0-13.79 1.21-19.112 3.714-5.336 2.505-9.819 5.921-13.334 10.176-3.515 4.24-6.162 9.292-7.841 15.027-1.679 5.707-2.547 11.926-2.547 18.485 0 6.675.882 12.894 2.633 18.486 1.765 5.636 4.583 10.602 8.396 14.714 3.8 4.142 8.695 7.387 14.558 9.648 5.821 2.249 12.893 3.416 21.019 3.401 16.721-.057 25.53-3.785 29.159-5.792.641-.355 1.252-.981.484-2.774l-3.771-10.603c-.584-1.579-2.191-.996-2.191-.996-4.141 1.537-10.019 4.298-23.78 4.27-8.965-.014-15.625-2.661-19.795-6.803-4.284-4.24-6.375-10.474-6.746-19.268l57.905.057s1.522-.028 1.679-1.509c.055-.624 1.99-11.895-1.738-24.945m-182.738 50.026c-2.263-1.808-2.576-2.263-3.344-3.43-1.139-1.779-1.722-4.312-1.722-7.528 0-5.095 1.679-8.752 5.166-11.214-.042.015 4.981-4.34 16.792-4.184 8.296.114 15.71 1.338 15.71 1.338v26.327h.014s-7.357 1.579-15.639 2.077c-11.783.712-17.02-3.4-16.977-3.386m23.039-40.686c-2.348-.171-5.394-.271-9.037-.271-4.966 0-9.762.626-14.259 1.836-4.525 1.209-8.595 3.103-12.096 5.606a27.927 27.927 0 0 0-8.396 9.549c-2.049 3.814-3.088 8.311-3.088 13.349 0 5.123.882 9.577 2.647 13.221 1.765 3.657 4.312 6.702 7.556 9.051 3.216 2.348 7.187 4.069 11.797 5.108 4.54 1.039 9.691 1.565 15.327 1.565 5.934 0 11.854-.483 17.589-1.466 5.678-.968 12.651-2.377 14.586-2.817a146.25 146.25 0 0 0 4.056-1.039c1.438-.355 1.324-1.893 1.324-1.893l-.029-52.952c0-11.613-3.102-20.223-9.207-25.559-6.077-5.322-15.028-8.013-26.597-8.013-4.341 0-11.328.599-15.512 1.438 0 0-12.651 2.448-17.86 6.518 0 0-1.138.712-.512 2.306l4.099 11.015c.512 1.423 1.893.939 1.893.939s.441-.171.954-.47c11.143-6.062 25.231-5.877 25.231-5.877 6.262 0 11.072 1.252 14.316 3.742 3.159 2.419 4.767 6.076 4.767 13.789v2.448a209.677 209.677 0 0 0-9.549-1.123m467.029-29.836c.44-1.31-.484-1.936-.869-2.078-.981-.384-5.905-1.423-9.705-1.665-7.271-.441-11.312.783-14.928 2.405-3.586 1.622-7.57 4.24-9.791 7.215v-7.044c0-.982-.697-1.765-1.665-1.765h-14.843c-.967 0-1.664.782-1.664 1.765v86.366c0 .968.797 1.765 1.764 1.765h15.213a1.76 1.76 0 0 0 1.75-1.765v-43.147c0-5.792.641-11.569 1.922-15.198 1.252-3.587 2.96-6.461 5.066-8.525 2.12-2.049 4.525-3.486 7.158-4.297 2.689-.826 5.663-1.096 7.77-1.096 3.031 0 6.361.782 6.361.782 1.109.128 1.736-.555 2.105-1.565.997-2.647 3.815-10.574 4.356-12.153"></path>
    <path fill="#FFF" d="M595.874 246.603c-1.85-.569-3.529-.954-5.721-1.366-2.221-.398-4.867-.598-7.869-.598-10.475 0-18.729 2.96-24.52 8.794-5.764 5.807-9.678 14.644-11.642 26.271l-.712 3.913h-13.148s-1.594-.057-1.936 1.68l-2.148 12.053c-.157 1.139.342 1.864 1.878 1.864h12.794l-12.979 72.463c-1.011 5.835-2.178 10.631-3.473 14.273-1.267 3.587-2.504 6.276-4.041 8.24-1.48 1.879-2.875 3.273-5.295 4.084-1.992.669-4.297.982-6.816.982-1.395 0-3.258-.229-4.639-.513-1.366-.271-2.092-.569-3.131-1.011 0 0-1.494-.568-2.092.926-.47 1.238-3.885 10.615-4.298 11.769-.398 1.152.171 2.049.896 2.319 1.708.598 2.974.996 5.294 1.551 3.217.755 5.934.797 8.481.797 5.322 0 10.189-.754 14.217-2.205 4.042-1.466 7.57-4.014 10.701-7.457 3.373-3.729 5.493-7.628 7.515-12.964 2.006-5.266 3.729-11.812 5.094-19.439l13.05-73.815h19.069s1.607.057 1.936-1.693l2.162-12.039c.143-1.152-.341-1.864-1.893-1.864h-18.514c.1-.412.939-6.931 3.06-13.063.911-2.604 2.618-4.725 4.056-6.177 1.424-1.423 3.06-2.433 4.854-3.017 1.835-.598 3.928-.882 6.219-.882 1.736 0 3.457.199 4.752.469 1.793.385 2.49.584 2.961.727 1.893.569 2.148.014 2.519-.896l4.426-12.153c.455-1.312-.669-1.867-1.067-2.023m-258.68 125.231c0 .968-.697 1.751-1.665 1.751h-15.355c-.968 0-1.651-.783-1.651-1.751v-123.58c0-.967.683-1.75 1.651-1.75h15.355c.968 0 1.665.783 1.665 1.75v123.58z"></path>
  </symbol>
  <symbol viewBox="0 0 95 86" xmlns="http://www.w3.org/2000/svg" xmlns:xlink="http://www.w3.org/1999/xlink" id="sketch-2">
    <title>logo-symbol</title>
    <use xlink:href="#a" transform="translate(.17 30.901)" fill="#EA6C00"></use>
    <use xlink:href="#b" transform="matrix(-1 0 0 1 94.64 30.901)" fill="#EA6C00"></use>
    <use xlink:href="#c" transform="translate(19.3 30.901)" fill="#FDAD00"></use>
    <use xlink:href="#d" transform="translate(19.3 .42)" fill="#FDD231"></use>
    <use xlink:href="#e" transform="matrix(-1 0 0 1 75.5 .42)" fill="#FDD231"></use>
    <use xlink:href="#f" transform="matrix(-1 0 0 1 94.64 3.234)" fill="#FDAD00"></use>
    <use xlink:href="#g" transform="translate(.17 3.234)" fill="#FDAD00"></use>
    <use xlink:href="#h" transform="translate(19.3 .42)" fill="#FEEEB7"></use>
    <defs>
      <path id="a" fill-rule="evenodd" d="M19.131 0l28.1 55L0 0h19.131z"></path>
      <path id="b" fill-rule="evenodd" d="M19.131 0l28.1 55L0 0h19.131z"></path>
      <path id="c" fill-rule="evenodd" d="M0 0h56.2L28.1 55 0 0z"></path>
      <path id="d" fill-rule="evenodd" d="M28.1 0L1.479 2.814 0 30.481 28.1 0z"></path>
      <path id="e" fill-rule="evenodd" d="M28.1 0L1.479 2.814 0 30.481 28.1 0z"></path>
      <path id="f" fill-rule="evenodd" d="M0 27.667L20.61 0l-1.479 27.667H0z"></path>
      <path id="g" fill-rule="evenodd" d="M0 27.667L20.61 0l-1.479 27.667H0z"></path>
      <path id="h" fill-rule="evenodd" d="M28.1 0L0 30.481h56.2L28.1 0z"></path>
    </defs>
  </symbol>
  <symbol viewBox="2.832 2.832 58.335 58.335" xmlns="http://www.w3.org/2000/svg" id="skype-1">
    <g fill="#28a8ea">
      <circle cx="21.5" cy="21.5" r="14.5"></circle>
      <circle cx="42.5" cy="42.5" r="14.5"></circle>
      <circle cx="32" cy="32" r="24"></circle>
    </g>
    <g fill-rule="evenodd">
      <path d="M25.776 31.544a7.294 7.294 0 0 1-2.287-2.415 6.672 6.672 0 0 1-.784-3.335 5.995 5.995 0 0 1 1.412-4.037 8.501 8.501 0 0 1 3.682-2.461 14.218 14.218 0 0 1 4.82-.811 18.72 18.72 0 0 1 3.208.246 11.58 11.58 0 0 1 2.224.574 4.312 4.312 0 0 1 1.74 1.112 2.25 2.25 0 0 1 .538 1.495 2.165 2.165 0 0 1-.565 1.558 1.881 1.881 0 0 1-1.422.592 2.559 2.559 0 0 1-1.057-.237 19.134 19.134 0 0 0-2.515-.92 9.13 9.13 0 0 0-2.424-.3 5.532 5.532 0 0 0-3.034.774 2.525 2.525 0 0 0-1.212 2.269 2.281 2.281 0 0 0 .628 1.595 5.734 5.734 0 0 0 1.695 1.212q1.067.529 3.18 1.403a3.296 3.296 0 0 1 .456.183 22.589 22.589 0 0 1 3.937 2.023 7.937 7.937 0 0 1 2.424 2.488 6.56 6.56 0 0 1 .875 3.454 6.948 6.948 0 0 1-1.212 4.164 7.204 7.204 0 0 1-3.39 2.516 14.288 14.288 0 0 1-5.094.829 16.05 16.05 0 0 1-6.944-1.312 3.78 3.78 0 0 1-1.43-1.112 2.5 2.5 0 0 1-.465-1.513 1.977 1.977 0 0 1 .61-1.54 2.252 2.252 0 0 1 1.577-.556 4.029 4.029 0 0 1 1.84.474q1.057.529 1.668.793a8.382 8.382 0 0 0 1.44.455 8.233 8.233 0 0 0 1.85.192 4.937 4.937 0 0 0 3.107-.83 2.737 2.737 0 0 0 1.048-2.269 2.412 2.412 0 0 0-.656-1.658 6.975 6.975 0 0 0-1.932-1.404q-1.276-.674-3.59-1.64a22.244 22.244 0 0 1-3.946-2.05" fill="#fff"></path>
      <path d="M26.03 7.73a14.153 14.153 0 0 0-1.94-.5A26.075 26.075 0 0 0 7.23 24.09a14.16 14.16 0 0 0 .5 1.94 10.982 10.982 0 0 0 .67 1.67A23.947 23.947 0 0 1 27.7 8.4a10.99 10.99 0 0 0-1.67-.67z" opacity=".1"></path>
      <path d="M26.03 7.73a25.02 25.02 0 0 0-18.3 18.3 10.982 10.982 0 0 0 .67 1.67A23.947 23.947 0 0 1 27.7 8.4a10.99 10.99 0 0 0-1.67-.67zm30.24 30.24a10.982 10.982 0 0 0-.67-1.67 23.947 23.947 0 0 1-19.3 19.3 10.984 10.984 0 0 0 1.67.67 14.153 14.153 0 0 0 1.94.5 26.075 26.075 0 0 0 16.86-16.86 14.161 14.161 0 0 0-.5-1.94z" opacity=".1"></path>
      <path d="M55.6 36.3a23.947 23.947 0 0 1-19.3 19.3 10.984 10.984 0 0 0 1.67.67 25.02 25.02 0 0 0 18.3-18.3 10.982 10.982 0 0 0-.67-1.67z" opacity=".1"></path>
    </g>
  </symbol>
  <symbol xmlns="http://www.w3.org/2000/svg" viewBox="1.464 25.444 498.152 149.23" id="slack">
    <title>background</title>
    <title>Layer 1</title>
    <path fill="#443642" d="M178.463 83.987c0-14.818 10.804-25.165 30.438-25.165 11.98 0 21.783 3.825 27.094 7.572.76.535 2.116 1.833 1.303 4.247-1.042 2.6-2.953 6.51-4.324 9.05-.798 1.48-2.836 1.285-3.88.756-3.783-1.917-9.988-5.16-15.688-5.758a33.378 33.378 0 0 0-4.347-.188c-5.02.112-9.214 1.855-10.691 5.685a6.74 6.74 0 0 0-.477 2.274c-.138 5.047 6.886 6.872 15.395 8.334 15.819 2.71 27.787 7.348 27.787 23.63 0 13.827-10.989 26.323-32.52 25.94-14.194-.287-24.264-5.083-29.66-9.737-.184-.158-2.238-2.25-1.137-4.766 1.26-3.239 3.387-6.951 5.056-8.922.928-1.266 3.377-1.467 4.65-.678 4.448 2.764 11.768 7.196 20.206 7.49.666.023 1.326.027 1.974.01 7.59-.184 12.182-3.062 12.086-7.91-.082-4.271-6.1-6.766-15.683-8.572-15.284-2.879-27.58-7.917-27.58-23.292m138.851 21.099c-10.778.141-20.66 3.087-20.945 11.51-.003 6.684 5.419 9.967 13.029 9.537 7.3-.703 12.867-3.869 15.32-8.07.907-1.557 1.045-7.383.99-9.873-.014-.53-1.062-1.533-1.521-1.726-2.29-.965-3.985-1.263-6.874-1.38m-35.862-33.938c5.04-4.51 15.033-11.53 30.959-11.16 21.017.437 32.12 10.29 33.154 33.86.426 9.72-.28 36.832-.448 43.587-.025.969-.353 1.639-1.659 1.664-3.461.139-11.457.084-15.131.036-1.854-.09-2.069-1.01-2.093-1.973-.016-.63-.07-2.498-.109-4.021-.021-.808-.78-.785-.974-.578-4.93 5.264-13.004 7.806-21.59 7.806-13.05 0-26.06-7.677-26.02-22.88.04-15.57 11.08-23.25 23.208-25.061 7.766-1.156 16.52-.128 23.149 2.506.424.17 1.29-.076 1.297-.677.027-1.984-.069-5.765-.45-7.557-.973-4.566-4.782-8.24-12.784-9.23-1.648-.203-3.307-.27-4.968-.138-6.361.5-14.016 5.46-17.186 7.317-.746.436-1.914.117-2.292-.37-1.85-2.39-6.5-9.38-6.866-10.497-.366-1.114.15-2.052.801-2.638l.002.004zm71.043 28.984c-.125-21.715 15.005-40.034 39.573-40.195 15.33-.1 26.467 6.85 28.431 10.128.399.77.194 1.413-.082 2.188-1.298 2.74-4.576 8.034-6.912 11.034-.995 1.278-2.075.183-3.33-.652-3.483-2.32-10.101-5.157-16.614-5.157-11.816.002-20.615 8.104-20.517 23.01.092 14.304 8.52 22.165 20.558 22.45 6.293.158 12.39-3.459 15.67-6.422 1.03-.899 2.096-.449 3.273.471 2.31 2.361 5.623 6.006 7.46 8.515 1.203 1.394.303 2.758-.13 3.306-4.984 6.307-14.61 11.615-27.349 11.687-26.674.187-39.906-18.568-40.029-40.36m127.325 39.381c1.252-.094 14.613-1.938 18.714-2.877 1.018-.232 1.38-1.088.811-1.936-2.29-3.434-8.311-13.186-14.617-21.916-5.8-8.027-11.913-15.087-13.89-17.803-.482-.66-.456-1.31.069-1.822 3.761-3.68 19.493-19.105 25.408-25.475 2.29-2.478.915-3.544-1.03-4.123-3.757-1.12-9.834-2.516-13.29-3.245-1.457-.308-3.212-.2-4.486 1.11-5.914 5.515-23.963 23.63-29.351 29.045-.97.977-1.535.76-1.54-.636-.044-10.44-.25-55.138-.623-62.49-.026-.972-1.195-1.71-1.854-1.745-3.388-.177-11.947-.228-15.32-.03-.945.107-1.848 1.07-1.93 1.884-.778 11.756.33 98.054.792 110.126.033.873.683 1.55 1.512 1.599 3.365.195 11.688.182 15.574.109 1.912 0 2.146-1.344 2.146-1.344l.288-23.157s.197-1.03.516-1.37c1.37-1.475 5.16-5.537 6.776-7.107.388-.377 1-.35 1.396.183 1.92 2.59 7.395 11.01 12.47 18.53 4.663 6.908 9.016 13.039 9.32 13.472.702 1 1.522 1.04 2.14 1.021v-.003zm-227.233-.08c1.175.039 10.09.029 14.04.024 1.33.026 2.021-.981 2.065-1.87.839-16.926.48-97.512-.05-110.237-.044-1.1-.515-1.513-1.266-1.613-3.39-.454-13.024-.348-16.112.46-.604.157-.96.616-.979 1.206-.756 32.8-.246 108.42-.086 109.852.159 1.434.909 2.128 2.39 2.178h-.002z"></path>
    <path fill="#70CADB" d="M13.997 105.78c-5.494.042-10.148-3.232-11.864-8.342a13.67 13.67 0 0 1-.178-.583c-1.87-6.544 1.756-13.39 8.255-15.582L114.45 46.35a14.128 14.128 0 0 1 3.807-.556c5.64-.044 10.422 3.302 12.18 8.52l.156.504c1.95 6.816-2.895 12.9-8.7 14.85-.004.003-1.06.36-103.662 35.391a13.49 13.49 0 0 1-4.234.721z"></path>
    <path fill="#E01765" d="M31.372 157.045c-5.537.04-10.207-3.188-11.903-8.225a13.34 13.34 0 0 1-.18-.579c-1.896-6.622 1.726-13.54 8.247-15.735L131.78 97.263c1.347-.45 2.738-.68 4.137-.693 5.552-.042 10.43 3.35 12.151 8.444l.16.53c1.007 3.521.412 7.478-1.59 10.601-1.492 2.322-6.198 4.366-6.198 4.366L35.8 156.29a14.356 14.356 0 0 1-4.428.757v-.002z"></path>
    <path fill="#E8A723" d="M118.148 157.268a12.798 12.798 0 0 1-12.255-8.723l-34.79-103.34-.174-.58c-1.885-6.59 1.74-13.464 8.237-15.654 1.3-.437 2.644-.665 3.997-.677 2.01-.015 3.955.438 5.787 1.343a12.772 12.772 0 0 1 6.449 7.392l34.787 103.331.101.332c1.954 6.842-1.663 13.72-8.16 15.91a12.935 12.935 0 0 1-3.979.666z"></path>
    <path fill="#3EB890" d="M66.435 174.674a12.803 12.803 0 0 1-12.26-8.73L19.394 62.608a12.797 12.797 0 0 1 8.051-16.23 12.96 12.96 0 0 1 3.985-.668 12.796 12.796 0 0 1 12.257 8.723l34.782 103.34a12.797 12.797 0 0 1-8.06 16.233 12.88 12.88 0 0 1-3.978.667h.004z"></path>
    <path fill="#CC2027" d="M100.997 133.996l24.258-8.294-7.93-23.55-24.286 8.207 7.958 23.637z"></path>
    <path fill="#361238" d="M49.364 151.65l24.256-8.293-7.99-23.73-24.28 8.21 8.014 23.813z"></path>
    <path fill="#65863A" d="M83.727 82.7l24.26-8.283-7.837-23.275-24.305 8.143L83.727 82.7z"></path>
    <path fill="#1A937D" d="M32.088 100.33l24.26-8.283-7.933-23.572-24.305 8.142 7.978 23.713z"></path>
  </symbol>
  <symbol viewBox="0 0 512 114" xmlns="http://www.w3.org/2000/svg" preserveAspectRatio="xMinYMin meet" id="stack-overflow">
    <path d="M112.963 105.623c-6.248 0-11.14-1.43-15.204-5.343l3.612-3.613c2.936 3.085 6.925 4.29 11.517 4.29 6.096 0 9.86-2.183 9.86-6.549 0-3.236-1.883-5.042-6.173-5.419l-6.096-.526c-7.226-.603-11.064-3.839-11.064-9.935 0-6.774 5.72-10.838 13.623-10.838 5.268 0 10.01 1.28 13.322 3.988l-3.538 3.537c-2.634-2.03-6.02-2.935-9.86-2.935-5.419 0-8.279 2.334-8.279 6.097 0 3.161 1.806 5.043 6.473 5.419l5.946.527c6.473.602 10.913 3.085 10.913 10.01 0 7.15-6.096 11.29-15.052 11.29m31.532-.451c-6.323 0-9.484-4.442-9.484-9.935v-22.73h-4.666v-4.14h4.666v-11.59h5.42v11.59h7.902v4.14h-7.903v22.579c0 3.387 1.581 5.419 5.043 5.419h2.86v4.667h-3.838m31.864-17.086h-10.387c-5.57 0-8.28 2.259-8.28 6.548 0 4.29 2.635 6.323 8.506 6.323 3.161 0 5.945-.227 8.279-2.484 1.28-1.204 1.882-3.312 1.882-6.398v-3.989zm0 17.086v-3.538c-3.011 3.011-5.72 3.989-10.688 3.989-5.118 0-8.129-.978-10.463-3.386-1.805-1.808-2.784-4.592-2.784-7.528 0-6.472 4.516-10.688 12.795-10.688h11.14v-3.537c0-5.418-2.71-8.128-9.484-8.128-4.741 0-7.15 1.13-9.333 4.215l-3.688-3.387c3.312-4.29 7.075-5.494 13.097-5.494 9.934 0 14.826 4.29 14.826 12.342v25.14h-5.418zm26.643.451c-9.333 0-16.408-6.323-16.408-18.967 0-12.644 7.075-18.966 16.408-18.966 5.118 0 8.354 1.354 12.192 5.494l-3.687 3.462c-2.785-3.086-4.968-4.139-8.505-4.139-3.613 0-6.623 1.43-8.58 4.215-1.731 2.408-2.409 5.269-2.409 9.934 0 4.666.678 7.527 2.409 9.935 1.957 2.785 4.967 4.215 8.58 4.215 3.537 0 5.72-1.129 8.505-4.215l3.687 3.538c-3.838 4.138-7.074 5.494-12.192 5.494m41.859-.451L233.12 86.204l-7.225 8.28v10.688h-5.419v-53.59h5.42v35.826l16.708-19.267h6.774l-12.57 14.15 14.752 22.88h-6.698m28.555-27.581c-1.07-1.07-2.497-1.64-4.351-1.64-1.855 0-3.21.57-4.28 1.64-1.927 1.926-2.14 5.135-2.14 8.988 0 3.852.213 7.133 2.14 9.058 1.07 1.07 2.425 1.641 4.28 1.641 1.854 0 3.281-.57 4.351-1.641 1.925-1.925 2.14-5.206 2.14-9.058 0-3.853-.215-7.062-2.14-8.988zm7.204 23.468c-2.283 2.425-6.063 4.565-11.555 4.565-5.493 0-9.202-2.14-11.485-4.565-3.352-3.495-4.208-7.705-4.208-14.48 0-6.705.856-10.914 4.208-14.41 2.283-2.425 5.992-4.565 11.485-4.565 5.492 0 9.272 2.14 11.555 4.565 3.353 3.496 4.21 7.705 4.21 14.41 0 6.775-.857 10.985-4.21 14.48zm25.049 4.137h-7.275L284.699 68.03h9.772L302.033 91l7.49-22.97h9.771l-13.623 37.164m35.605-26.035c-.998-2.211-3.067-3.852-6.207-3.852-3.137 0-5.207 1.64-6.204 3.852-.572 1.355-.786 2.353-.857 3.995h14.124c-.072-1.642-.285-2.64-.856-3.995zm-13.268 10.343c0 4.78 2.925 8.274 8.132 8.274 4.066 0 6.063-1.14 8.418-3.495l5.635 5.492c-3.781 3.78-7.42 5.85-14.124 5.85-8.774 0-17.191-3.994-17.191-19.045 0-12.127 6.562-18.975 16.191-18.975 10.344 0 16.193 7.561 16.193 17.762v4.137h-23.254zm48.06-11.342c-1.427-1.427-2.639-2.21-4.921-2.21-2.854 0-5.993 2.139-5.993 6.847v22.398h-9.273V68.03h9.06v3.567c1.782-2.14 5.35-3.995 9.344-3.995 3.638 0 6.205.927 8.774 3.496l-6.99 7.061m44.775 27.036c-7.632 0-10.842-5.35-10.842-10.629V52.825h9.273v41.17c0 2.212.927 3.353 3.28 3.353h3.567v7.847h-5.278zm-22.1-30.087v30.087h-9.273V75.108h-3.851v-7.06h3.851V63.41c0-5.278 3.281-10.628 10.842-10.628h5.28v7.846h-3.568c-2.21 0-3.28 1.213-3.28 3.353v4.066h6.847v7.061h-6.847zm48.753 2.482c-1.07-1.07-2.497-1.64-4.352-1.64-1.854 0-3.21.57-4.28 1.64-1.926 1.926-2.14 5.135-2.14 8.988 0 3.852.214 7.133 2.14 9.058 1.07 1.07 2.426 1.641 4.28 1.641 1.855 0 3.282-.57 4.352-1.641 1.925-1.925 2.14-5.206 2.14-9.058 0-3.853-.215-7.062-2.14-8.988zm7.204 23.468c-2.283 2.425-6.064 4.565-11.556 4.565-5.492 0-9.2-2.14-11.484-4.565-3.352-3.495-4.209-7.705-4.209-14.48 0-6.705.857-10.914 4.21-14.41 2.282-2.425 5.99-4.565 11.483-4.565 5.492 0 9.273 2.14 11.556 4.565 3.353 3.496 4.21 7.705 4.21 14.41 0 6.775-.857 10.985-4.21 14.48zm45.823 4.137h-7.632l-7.775-23.325-7.775 23.325h-7.632L458.297 68.03h9.844l5.99 22.97 7.563-22.97h6.775L496.102 91l5.992-22.97h9.772l-11.342 37.164" fill="#0A0B09"></path>
    <path d="M63.277 73.175L19.852 62.643l2.107-8.685L65.384 64.49l-2.107 8.685" fill="#B58F52"></path>
    <path d="M66.188 62.785l-39.79-20.332 4.066-7.959 39.79 20.333-4.066 7.958" fill="#C78431"></path>
    <path d="M72.317 52.022l-33.65-29.4 5.879-6.729 33.651 29.398-5.88 6.73" fill="#E9812C"></path>
    <path d="M81.575 42.56L56.48 5.589l7.396-5.02L88.97 37.542l-7.394 5.019" fill="#E5712A"></path>
    <path d="M62.582 84.038l-44.618-2.436.487-8.924 44.618 2.436-.487 8.924" fill="#9D8469"></path>
    <path d="M71.833 105.059V68.035h8.929l.006 45.962H0l.002-46h8.937v37.062h62.894" fill="#797B7B"></path>
    <path d="M17.84 87.22h44.988v8.937H17.84v-8.936z" fill="#797B7B"></path>
  </symbol>
  <symbol xmlns="http://www.w3.org/2000/svg" viewBox="0 0 38 48" id="stackoverflow">
    <title>stackoverflow-color</title>
    <g fill="none" fill-rule="evenodd">
      <path d="M25.086 41.592l-19.111.01-.002-4.048 19.11-.01.003 4.048zM38 18.671L34.73 0l-4.02.692 3.269 18.67 4.021-.69zM25.546 32.355l-19.03-1.739-.375 4.031 19.03 1.737.375-4.03zm1.255-5.282l-18.455-4.92-1.06 3.91 18.456 4.919 1.059-3.909zm2.41-4.63l-16.462-9.627-2.074 3.486 16.462 9.627 2.073-3.485zm4.036-2.834L22.479 3.952l-3.372 2.28 10.768 15.656 3.372-2.28z" fill="#FF810F"></path>
      <path fill="#BEBCBC" d="M28.332 28.278v16.546H3.265V28.278H0V48h31.58V28.278z"></path>
    </g>
  </symbol>
  <symbol viewBox="284.868 270.29 505.135 539.521" xmlns="http://www.w3.org/2000/svg" id="teamwork-2">
    <path d="M402.55 579c0 31.48-.51 63 .16 94.43.64 29.88 18.18 41.26 46 31 33-12.21 60.24 9.74 56 45.22-1.82 15.26-8.89 26.69-23.19 33.9-39.26 19.8-80.21 22.71-121.67 10.45-38.57-11.41-53.52-42.41-58.9-79.34a207.08 207.08 0 0 1-2.06-29.55q-.21-175.36 0-350.75c0-39 32.2-64.07 67.33-53.09 22.05 6.9 35.46 26.09 36.28 52.69.4 13 .79 26.13-.15 39.1-.72 10 3.05 11.85 12.11 11.52 18.86-.7 37.77-.41 56.65-.15 27.17.37 45 18.24 45.07 44.75.06 27.32-16.82 43.91-45.13 44.13-18.43.15-36.89.56-55.29-.18-10-.4-13.81 1.65-13.49 12.83.85 31.04.27 62.04.28 93.04z" fill="#1b1c39"></path>
    <path d="M690.12 800.9c-50.06-.06-91-41.4-90.43-91.37.53-50.29 41.22-90.11 91.87-89.91 49.42.2 89.75 41 89.7 90.67a90.65 90.65 0 0 1-91.14 90.61z" fill="#fc21ae"></path>
  </symbol>
  <symbol fill="none" xmlns="http://www.w3.org/2000/svg" viewBox="0 0 500 500" id="telegram-1">
    <path d="M250 500c138.071 0 250-111.929 250-250S388.071 0 250 0 0 111.929 0 250s111.929 250 250 250z" fill="#34aadf"></path>
    <path d="M104.047 247.832s125-51.3 168.352-69.364c16.619-7.225 72.977-30.347 72.977-30.347s26.012-10.115 23.844 14.451c-.723 10.116-6.503 45.52-12.283 83.815-8.671 54.191-18.064 113.439-18.064 113.439s-1.445 16.619-13.728 19.509-32.515-10.115-36.127-13.006c-2.891-2.167-54.191-34.682-72.977-50.578-5.058-4.335-10.838-13.005.722-23.121 26.012-23.844 57.081-53.468 75.867-72.254 8.671-8.671 17.341-28.902-18.786-4.336-51.3 35.405-101.878 68.642-101.878 68.642s-11.561 7.225-33.237.722c-21.677-6.502-46.966-15.173-46.966-15.173s-17.34-10.838 12.284-22.399z" fill="#fff"></path>
  </symbol>
  <symbol xmlns="http://www.w3.org/2000/svg" viewBox="0 0 16 16" id="terminal">
    <path d="M0 1v14h16V1H0zm3 11l-1-1 3-3-3-3 1-1 4 4-4 4z"></path>
  </symbol>
  <symbol xmlns="http://www.w3.org/2000/svg" viewBox="0 0 48 48" id="trello">
    <title>Trello-color</title>
    <path d="M6 9v27a3 3 0 0 0 3 3h9a3 3 0 0 0 3-3V9a3 3 0 0 0-3-3H9a3 3 0 0 0-3 3zm21 0v15a3 3 0 0 0 3 3h9a3 3 0 0 0 3-3V9a3 3 0 0 0-3-3h-9a3 3 0 0 0-3 3zM6 0a6 6 0 0 0-6 6v36c0 3.313 2.688 6 6 6h36a6 6 0 0 0 6-6V6c0-3.313-2.688-6-6-6H6z" fill="#007AC2" fill-rule="evenodd"></path>
  </symbol>
  <symbol viewBox="0 0 256 263" xmlns="http://www.w3.org/2000/svg" preserveAspectRatio="xMinYMin meet" id="unity-69">
    <path d="M166.872 131.237l45.91-79.275 22.184 79.275-22.185 79.256-45.909-79.256zm-22.376 12.874l45.916 79.262-79.966-20.486-57.77-58.776h91.82zm45.906-105.033l-45.906 79.275h-91.82l57.77-58.78 79.956-20.495zm65.539 65.18L227.933.06l-104.54 27.925-15.475 27.207-31.401-.225L0 131.244l76.517 76.259h.003l31.388-.232 15.497 27.207 104.528 27.92L255.94 158.22l-15.906-26.982 15.906-26.978z" fill="#222C37"></path>
  </symbol>
  <symbol xmlns="http://www.w3.org/2000/svg" viewBox="-0.002 -0.003 500.002 516.812" id="visual-studio-2013">
    <path d="M483.292 64.07L372.104 19.499l-194.08 189.002-116.873-88.967-44.441 22.351-.044 233.313 44.232 22.189 116.778-88.894 194.557 188.829 111.101-44.397-.042-388.855z" fill="#68217a" stroke="#fff" stroke-width="33.33"></path>
    <path d="M361.037 175.128L249.98 258.15l111.101 83.673-.044-166.695zM72.192 208.596l.066 99.858 55.483-50.267-55.549-49.591z" fill="#fff"></path>
  </symbol>
  <symbol xmlns="http://www.w3.org/2000/svg" viewBox="0 0 234 235.1" id="visual-studio-code">
    <path d="M83.3 143.9l-58 45.2L0 176.5V58.7L25.2 46l57.6 45.3L174 0l60 23.9v186.9l-59.7 24.3-91-91.2zm88.9 15.9V75.3l-54.6 42.3 54.6 42.2zM27.3 144.6L56 118.5 27.3 89.9v54.7z" fill="#0179cb"></path>
  </symbol>
  <symbol xmlns="http://www.w3.org/2000/svg" viewBox="0 0 363.2 259.5" id="zendesk-1">
    <title>golion-z-sourcefile-algae</title>
    <path d="M173.8 40.5v112.9H80.3zm0-40.5c0 25.8-20.9 46.7-46.7 46.7S80.3 25.8 80.3 0h93.5zm15.4 153.4c0-25.8 20.9-46.7 46.7-46.7 25.8 0 46.7 20.9 46.7 46.7h-93.4zm0-40.5V0h93.5zm52.3 137c4.8.1 9.5-1.7 13-5l6.4 6.9c-4.2 4.4-10.1 7.6-19.3 7.6-15.7 0-25.8-10.4-25.8-24.5-.3-13.3 10.3-24.2 23.5-24.5h.8c15.6 0 24.4 11.8 23.6 28.3H227c1.3 6.9 6.1 11.3 14.5 11.2m11.2-18.9c-1-6.4-4.8-11.1-12.4-11.1-7.1 0-12 4-13.3 11.1h25.7zM0 249.4l28.3-28.8H.7v-9h40.7v9.2l-28.3 28.8h28.7v9H0zm73.6.5c4.8.1 9.5-1.7 12.9-5l6.4 6.9c-4.2 4.4-10.1 7.6-19.3 7.6-15.7 0-25.8-10.4-25.8-24.5-.3-13.3 10.3-24.2 23.5-24.5h.8c15.6 0 24.4 11.8 23.6 28.3H59.1c1.3 6.9 6.1 11.3 14.5 11.2M84.8 231c-1-6.4-4.8-11.1-12.4-11.1-7.1 0-12 4-13.3 11.1h25.7zm72.2 4c0-15 11.2-24.4 23.6-24.4 6-.1 11.7 2.5 15.7 7v-27.7h10v68.6h-10V252c-3.9 4.7-9.7 7.5-15.8 7.4-12 0-23.5-9.5-23.5-24.4m39.8-.1c-.2-8.2-7.1-14.7-15.3-14.5-8.2.2-14.7 7.1-14.5 15.3.2 8.1 6.8 14.5 14.9 14.5 8.6 0 14.9-6.8 14.9-15.3m73.5 13.6l9.1-4.7c2.4 4.4 7.1 7 12.1 6.9 5.7 0 8.6-2.9 8.6-6.2 0-3.8-5.5-4.6-11.4-5.8-8-1.7-16.3-4.3-16.3-14 0-7.4 7.1-14.3 18.2-14.2 8.8 0 15.3 3.5 19 9.1l-8.4 4.6c-2.4-3.5-6.4-5.5-10.6-5.4-5.4 0-8.1 2.6-8.1 5.6 0 3.4 4.3 4.3 11.1 5.8 7.7 1.7 16.5 4.2 16.5 14 0 6.5-5.7 15.2-19.1 15.1-9.8.1-16.7-3.8-20.7-10.8m66.9-10.9l-7.9 8.7v12.2h-10v-68.6h10v44.9l21.2-23.3h12.2l-18.4 20.1 18.9 26.9h-11.3zm-210.4-27.1c-11.9 0-21.9 7.7-21.9 20.5v27.5h10.2v-26.2c0-7.7 4.4-12.3 12-12.3s11.3 4.6 11.3 12.3v26.2h10.1V231c.1-12.8-9.9-20.5-21.7-20.5" fill="#03363d"></path>
  </symbol>
  <symbol viewBox="0 0 2406.8 1923.8" xmlns="http://www.w3.org/2000/svg" id="zeplin">
    <path d="M371 1326.4l-125.9 46-6.7 374.5 435.8-159.2c-149.6-50.1-258.7-138.4-303.2-261.3" fill="#fdbd39"></path>
    <path d="M436.9 930.3L0 1089.9l245.1 282.6 125.9-46c-44.4-122.5-17-260.8 65.9-396.2" fill="#f69833"></path>
    <path d="M1172 389.8C615.7 593 257 1012.4 371 1326.4l2014.5-735.9c-114-314-657.2-403.9-1213.5-200.7" fill="#fecf33"></path>
    <path d="M1584.4 1527.2c556.3-203.2 915.6-620.7 801-936.6L370.9 1326.4c114.6 316 657.2 404 1213.5 200.8" fill="#ee6723"></path>
    <path d="M2385.4 590.5L371 1326.4c39.4 108.8 189.9 162.4 400.9 162.4 205.8 0 469.2-50.9 743.8-151.2 556.3-203.2 947.6-532.3 869.7-747.1" fill="#f69833"></path>
    <path d="M1984.5 428.2c-205.7 0-469.2 50.9-743.8 151.2-556.3 203.2-947.6 532.2-869.7 747l2014.5-735.9c-39.5-108.8-189.9-162.3-401-162.3" fill="#fdbd39"></path>
    <g fill="#ee6723">
      <path d="M1873.2 1766.8c-59.3 0-146.7-53.5-259.9-159.1-133.9-124.9-287.2-307.9-431.9-515.2C1036.8 885.2 918 678 846.8 508.9c-77.5-184.2-88.6-297.4-32.9-336.6 12.9-8.8 28.2-13.3 43.8-12.9 45.3 0 133.7 33.7 297 194.5l3.6 3.5-.5 5c-1.1 11.6-2.1 23.2-3 34.7l-1.8 22.7-16-16.1C961 226.4 883.6 207.3 858.4 207.3c-7.2 0-12.9 1.4-17 4.3-24.2 17-25.8 100.2 49.4 278.7 69.9 166 187 370.1 329.7 574.7 142.8 204.7 293.8 384.9 425.4 507.6 141.8 132.3 205.7 146.6 226.6 146.6 7.2 0 13-1.5 17.4-4.6 25.5-17.9 25.5-107-58.3-299.2l-3.9-8.8 8.4-4.6c8.4-4.6 16.6-9.1 24.2-13.5l10.1-5.7 4.7 10.6c59.4 136.2 115 309.3 42.1 360.5-12.9 8.8-28.3 13.3-44 12.9zm0-21v10.5z"></path>
      <path d="M1597.9 1521.4l-.8 10.4c-14.1 174-51.1 383.2-147.7 391.7-2 .2-4 .2-5.9.2-65.6 0-127.7-94-184.4-279.3-53.8-175.4-95.5-410.8-117.4-662.9-22-252.1-21.7-491.2.9-673.3 24.6-198.4 71.4-302 139.2-308 2-.2 4.1-.3 6.1-.3 47.6 0 119.3 53.9 192.7 304.9l-47.9 9.2c-24.5-83.8-51.2-152-77.7-199-24.5-43.3-48.4-67.2-67.1-67.2-.6 0-1.2 0-1.9.1-29.4 2.6-72.2 73.8-96 266.2-22.2 178.8-22.5 414.4-.8 663.2 21.7 248.9 62.7 480.8 115.5 653 23.6 77.1 49.5 140.7 75 183.8 23.4 39.8 46.1 61.7 63.8 61.7.6 0 1.2 0 1.8-.1 28.1-2.4 81.1-76.6 103.4-337.5z"></path>
    </g>
  </symbol>
  <symbol xmlns="http://www.w3.org/2000/svg" viewBox="0 -0.225 84.762 20.903" id="zoom-communications-logo">
    <path d="M69.012 6.414c.324.559.43 1.195.465 1.91l.046.953v6.664l.047.954c.094 1.558 1.243 2.71 2.813 2.808l.949.047V9.277l.047-.953c.039-.707.144-1.355.473-1.918a3.806 3.806 0 0 1 6.59.012c.324.559.425 1.207.464 1.906l.047.95v6.667l.047.954c.098 1.566 1.238 2.718 2.813 2.808l.949.047V8.324a7.62 7.62 0 0 0-7.617-7.62 7.6 7.6 0 0 0-5.715 2.581A7.61 7.61 0 0 0 65.715.703c-1.582 0-3.05.48-4.266 1.309-.742-.828-2.402-1.309-3.355-1.309V19.75l.953-.047c1.594-.105 2.746-1.226 2.808-2.808l.051-.954V9.277l.047-.953c.04-.719.14-1.351.465-1.914a3.816 3.816 0 0 1 3.297-1.898 3.81 3.81 0 0 1 3.297 1.902zM3.809 19.704l.953.046h14.285L19 18.8c-.129-1.566-1.238-2.71-2.809-2.812l-.953-.047h-8.57l11.426-11.43-.047-.949C17.973 1.98 16.817.837 15.238.75l-.953-.043L0 .703l.047.953c.125 1.551 1.25 2.719 2.808 2.809l.954.047h8.57L.953 15.942l.047.953c.094 1.57 1.227 2.707 2.809 2.808zM54.355 3.491a9.523 9.523 0 0 1 0 13.469 9.53 9.53 0 0 1-13.472 0c-3.719-3.719-3.719-9.75 0-13.469a9.518 9.518 0 0 1 6.73-2.789 9.525 9.525 0 0 1 6.742 2.79zM51.66 6.188a5.717 5.717 0 0 1 0 8.082 5.717 5.717 0 0 1-8.082 0 5.717 5.717 0 0 1 0-8.082 5.717 5.717 0 0 1 8.082 0zM27.625.702a9.518 9.518 0 0 1 6.73 2.79c3.72 3.718 3.72 9.75 0 13.468a9.53 9.53 0 0 1-13.472 0c-3.719-3.719-3.719-9.75 0-13.469a9.518 9.518 0 0 1 6.73-2.789h.012zm4.035 5.484a5.717 5.717 0 0 1 0 8.083 5.717 5.717 0 0 1-8.082 0 5.717 5.717 0 0 1 0-8.082 5.717 5.717 0 0 1 8.082 0z" fill="#2D8CFF" fill-rule="evenodd"></path>
  </symbol>
</svg>