<svg aria-hidden="true" style="position: absolute; width: 0; height: 0; overflow: hidden;" version="1.1" xmlns="http://www.w3.org/2000/svg" xmlns:xlink="http://www.w3.org/1999/xlink">
<defs>
<symbol id="adobe-animate" viewBox="0 0 32 32">
<path fill="#ff401f" style="fill: var(--color1, #ff401f)" d="M32 32h-32v-32h32v32zM1.546 30.454h28.908v-28.908h-28.908v28.908z"></path>
<path fill="#260600" style="fill: var(--color2, #260600)" d="M1.175 1.175h29.65v29.65h-29.65z"></path>
<path fill="#ff401f" style="fill: var(--color1, #ff401f)" d="M28.135 23.714v-9.306c0-2.814-4.298-4.7-9.677-2.504v11.811h3.185v-10.172c1.67-0.557 3.617-0.309 3.617 1.113v9.059h2.875zM12.151 6.493h-3.463l-4.761 17.036 2.659 0.155 1.299-4.792h5.101l1.268 4.792h3.061l-5.163-17.19zM8.564 16.201l1.793-7.142 1.886 7.142h-3.679z"></path>
</symbol>
<symbol id="adobe-xd-1" viewBox="0 0 32 32">
<path fill="#ff26be" style="fill: var(--color3, #ff26be)" d="M26.333 31.597h-20.667c-3.133 0-5.667-2.533-5.667-5.667v-19.867c0-3.133 2.533-5.667 5.667-5.667h20.667c3.133 0 5.667 2.533 5.667 5.667v19.867c0 3.133-2.533 5.667-5.667 5.667z"></path>
<path fill="#2e001f" style="fill: var(--color4, #2e001f)" d="M25.827 30.263h-19.653c-2.666 0-4.84-2.173-4.84-4.84v-18.853c0-2.666 2.173-4.84 4.84-4.84h19.64c2.68 0 4.84 2.173 4.84 4.84v18.84c0.013 2.679-2.161 4.852-4.827 4.852v0z"></path>
<path fill="#ffd9f2" style="fill: var(--color5, #ffd9f2)" d="M12.653 14.996l3.734 7.173c0.067 0.106 0.027 0.214-0.081 0.214h-2.321c-0.147 0-0.214-0.040-0.28-0.173-0.854-1.76-1.72-3.52-2.614-5.413h-0.027c-0.8 1.787-1.681 3.667-2.533 5.427-0.067 0.106-0.133 0.147-0.241 0.147h-2.198c-0.133 0-0.147-0.106-0.079-0.187l3.653-6.961-3.533-7.040c-0.081-0.106 0-0.187 0.079-0.187h2.294c0.133 0 0.187 0.027 0.239 0.147 0.84 1.76 1.693 3.574 2.493 5.347h0.027c0.773-1.76 1.627-3.587 2.454-5.334 0.067-0.106 0.106-0.173 0.241-0.173h2.147c0.106 0 0.147 0.081 0.081 0.187l-3.535 6.825zM17.041 17.17c0-3.107 2.067-5.533 5.347-5.533 0.28 0 0.426 0 0.694 0.027v-3.533c0-0.081 0.067-0.133 0.133-0.133h2.107c0.106 0 0.133 0.040 0.133 0.106v12.241c0 0.36 0 0.813 0.067 1.307 0 0.081-0.027 0.106-0.106 0.147-1.12 0.534-2.294 0.773-3.414 0.773-2.894 0.012-4.961-1.774-4.96-5.402v0zM23.080 13.757c-0.187-0.081-0.453-0.133-0.773-0.133-1.681 0-2.853 1.293-2.853 3.441 0 2.454 1.201 3.441 2.707 3.441 0.32 0 0.667-0.040 0.92-0.147v-6.601z"></path>
</symbol>
<symbol id="adobe-illustrator-cc" viewBox="0 0 32 32">
<path fill="#000" style="fill: var(--color6, #000)" d="M1.333 1.733h29.333v28.533h-29.333v-28.533z"></path>
<path fill="#ff7f18" style="fill: var(--color7, #ff7f18)" d="M1.333 1.733h29.333v28.533h-29.333v-28.533zM0 31.6h32v-31.2h-32v31.2zM20.96 11.52c0-0.107 0.040-0.16 0.16-0.16h2.093c0.107 0 0.16 0.040 0.16 0.16v10.52c0 0.107-0.027 0.16-0.16 0.16h-2.067c-0.133 0-0.173-0.067-0.173-0.173v-10.507h-0.013zM20.813 8.493c0-0.853 0.6-1.36 1.36-1.36 0.813 0 1.36 0.547 1.36 1.36 0 0.88-0.573 1.36-1.387 1.36-0.773 0-1.333-0.48-1.333-1.36zM14.813 15.907c-0.373-1.48-1.253-4.707-1.587-6.267h-0.027c-0.28 1.56-0.987 4.2-1.547 6.267h3.16zM11.107 18.067l-1.053 4c-0.027 0.107-0.067 0.133-0.2 0.133h-1.96c-0.133 0-0.16-0.040-0.133-0.2l3.787-13.253c0.067-0.24 0.107-0.453 0.133-1.107 0-0.093 0.040-0.133 0.107-0.133h2.8c0.093 0 0.133 0.027 0.16 0.133l4.24 14.387c0.027 0.107 0 0.173-0.107 0.173h-2.213c-0.107 0-0.173-0.027-0.2-0.12l-1.093-4.013h-4.267z"></path>
</symbol>
<symbol id="airtable" viewBox="0 0 32 32">
<path fill="#333" style="fill: var(--color8, #333)" d="M12.642 16.456l-0.548-1.478c-0.022-0.060-0.108-0.060-0.13 0l-0.548 1.479c-0.003 0.007-0.004 0.015-0.004 0.024 0 0.038 0.031 0.070 0.069 0.070 0 0 0 0 0 0h1.097c0.038 0 0.069-0.031 0.069-0.070 0-0.009-0.002-0.017-0.005-0.025l0 0zM12.895 17.287h-1.734c-0.030 0-0.055 0.019-0.065 0.045l-0 0-0.341 0.92c-0.010 0.027-0.035 0.045-0.065 0.045h-0.751c-0.038 0-0.069-0.031-0.069-0.070 0-0.009 0.002-0.018 0.005-0.026l-0 0 1.73-4.31c0.011-0.026 0.035-0.044 0.064-0.044 0 0 0 0 0 0h0.72c0.028 0 0.054 0.017 0.065 0.044l1.73 4.31c0.003 0.008 0.005 0.017 0.005 0.026 0 0.038-0.031 0.070-0.069 0.070 0 0 0 0-0 0h-0.751c-0.030 0-0.055-0.019-0.065-0.045l-0-0-0.341-0.92c-0.010-0.027-0.035-0.045-0.065-0.045v0zM14.535 15.361h0.643c0.038 0 0.069 0.031 0.069 0.069v0 2.797c0 0.038-0.031 0.070-0.069 0.070v0h-0.643c-0.038 0-0.069-0.031-0.069-0.070v0-2.797c0-0.038 0.031-0.069 0.069-0.069v0zM17.591 16.042c0 0.038-0.031 0.070-0.070 0.070v0h-0.019c-0.318 0-0.551 0.076-0.699 0.229s-0.222 0.405-0.222 0.756v1.132c0 0.038-0.031 0.070-0.070 0.070v0h-0.636c-0.038 0-0.069-0.031-0.069-0.070v0-2.797c0-0.038 0.031-0.069 0.069-0.069v0h0.63c0.038 0 0.070 0.031 0.070 0.069v0 0.553h0.013c0.076-0.229 0.197-0.405 0.362-0.527s0.369-0.184 0.61-0.184h0.032v0.769zM19.349 16.016c-0.038 0-0.070 0.031-0.070 0.070v0 1.164c0 0.119 0.023 0.203 0.070 0.254s0.127 0.076 0.241 0.076h0.064c0.038 0 0.070 0.031 0.070 0.070v0 0.585c0 0.038-0.031 0.070-0.070 0.070v0h-0.274c-0.284 0-0.502-0.073-0.655-0.219s-0.229-0.363-0.229-0.651v-1.348c0-0.038-0.031-0.070-0.070-0.070v0h-0.401c-0.038 0-0.070-0.031-0.070-0.069v0-0.516c0-0.038 0.031-0.069 0.070-0.069v0h0.401c0.038 0 0.070-0.031 0.070-0.069v0-1.037c0-0.038 0.031-0.069 0.070-0.069v0h0.643c0.038 0 0.070 0.031 0.070 0.069v0 1.037c0 0.038 0.031 0.069 0.070 0.069v0h0.465c0.038 0 0.070 0.031 0.070 0.069v0 0.516c0 0.038-0.031 0.070-0.070 0.070v0h-0.465zM22.292 17.427c0.146-0.153 0.219-0.352 0.219-0.597s-0.073-0.445-0.219-0.597-0.338-0.229-0.575-0.229c-0.237 0-0.429 0.076-0.575 0.229s-0.219 0.352-0.219 0.597c0 0.246 0.073 0.445 0.219 0.597s0.338 0.229 0.575 0.229c0.237 0 0.429-0.076 0.575-0.229zM20.808 18.209c-0.216-0.123-0.387-0.302-0.512-0.537s-0.188-0.516-0.188-0.842c0-0.326 0.062-0.607 0.188-0.842s0.296-0.414 0.512-0.537c0.216-0.123 0.453-0.184 0.712-0.184 0.229 0 0.425 0.044 0.588 0.133s0.293 0.214 0.391 0.375h0.013v-0.344c0-0.038 0.031-0.069 0.070-0.069v0h0.636c0.038 0 0.070 0.031 0.070 0.069v0 2.797c0 0.038-0.031 0.070-0.070 0.070v0h-0.636c-0.038 0-0.070-0.031-0.070-0.070v0-0.344h-0.013c-0.098 0.161-0.228 0.286-0.391 0.375s-0.359 0.133-0.588 0.133c-0.259 0-0.496-0.061-0.712-0.184zM25.933 17.427c0.146-0.153 0.219-0.352 0.219-0.597s-0.073-0.445-0.219-0.597c-0.146-0.153-0.338-0.229-0.575-0.229s-0.429 0.076-0.575 0.229c-0.146 0.153-0.219 0.352-0.219 0.597s0.073 0.445 0.219 0.597c0.146 0.153 0.338 0.229 0.575 0.229s0.429-0.076 0.575-0.229zM24.967 18.26c-0.163-0.089-0.293-0.214-0.391-0.375h-0.013v0.344c0 0.038-0.031 0.070-0.070 0.070v0h-0.643c-0.038 0-0.070-0.031-0.070-0.070v0-4.31c0-0.038 0.031-0.069 0.070-0.069v0h0.643c0.038 0 0.070 0.031 0.070 0.069v0 1.856h0.013c0.097-0.161 0.228-0.286 0.391-0.375s0.359-0.133 0.588-0.133c0.258 0 0.496 0.061 0.712 0.184s0.387 0.302 0.512 0.537c0.125 0.235 0.188 0.516 0.188 0.842s-0.063 0.607-0.188 0.842c-0.125 0.235-0.296 0.414-0.512 0.537s-0.453 0.184-0.712 0.184c-0.229 0-0.425-0.044-0.588-0.134zM28.049 18.298h-0.643c-0.038 0-0.070-0.031-0.070-0.070v0-4.31c0-0.038 0.031-0.069 0.070-0.069v0h0.643c0.038 0 0.070 0.031 0.070 0.069v0 4.31c0 0.038-0.031 0.070-0.070 0.070v0zM29.565 16.042c-0.107 0.083-0.179 0.203-0.216 0.36-0.010 0.043 0.024 0.085 0.068 0.085h1.223c0.042 0 0.076-0.038 0.069-0.080-0.024-0.148-0.088-0.267-0.191-0.355-0.121-0.104-0.279-0.156-0.474-0.156s-0.355 0.049-0.48 0.146zM31.132 15.676c0.25 0.273 0.375 0.66 0.375 1.16v0.083c0 0.038-0.031 0.070-0.070 0.070v0h-2.044c-0.039 0-0.070 0.031-0.070 0.070 0 0.004 0 0.008 0.001 0.012l-0-0c0.033 0.186 0.115 0.333 0.247 0.443 0.15 0.125 0.34 0.188 0.569 0.188 0.295 0 0.569-0.115 0.82-0.346 0.031-0.028 0.079-0.022 0.103 0.012l0.312 0.448c0.008 0.011 0.013 0.025 0.013 0.040 0 0.021-0.009 0.039-0.023 0.052l-0 0c-0.147 0.129-0.314 0.241-0.494 0.331l-0.013 0.006c-0.203 0.1-0.443 0.149-0.718 0.149-0.318 0-0.595-0.065-0.833-0.194s-0.422-0.311-0.553-0.547c-0.131-0.235-0.197-0.507-0.197-0.817s0.064-0.582 0.191-0.82c0.127-0.237 0.305-0.422 0.534-0.553s0.496-0.197 0.801-0.197c0.449 0 0.799 0.137 1.049 0.41zM15.331 14.327c0 0.262-0.213 0.475-0.475 0.475s-0.475-0.213-0.475-0.475 0.213-0.475 0.475-0.475 0.475 0.213 0.475 0.475z"></path>
<path fill="#fcb400" style="fill: var(--color9, #fcb400)" d="M3.66 12.595l-3.056 1.265c-0.17 0.070-0.168 0.312 0.003 0.38l3.069 1.217c0.124 0.051 0.269 0.080 0.42 0.080s0.295-0.029 0.427-0.083l-0.008 0.003 3.069-1.217c0.171-0.068 0.173-0.309 0.003-0.379l-3.056-1.265c-0.129-0.055-0.278-0.087-0.435-0.087s-0.307 0.032-0.443 0.089l0.007-0.003z"></path>
<path fill="#18bfff" style="fill: var(--color10, #18bfff)" d="M4.368 16.121v3.040c0 0.145 0.146 0.244 0.28 0.19l3.42-1.327c0.076-0.031 0.129-0.104 0.129-0.19 0 0 0-0 0-0v0-3.040c0-0.145-0.146-0.244-0.28-0.19l-3.42 1.327c-0.076 0.031-0.129 0.104-0.129 0.19v0z"></path>
<path fill="#f82b60" style="fill: var(--color11, #f82b60)" d="M3.569 16.278l-1.118 0.54-2.142 1.026c-0.136 0.066-0.309-0.033-0.309-0.184v-2.854c0-0.055 0.028-0.102 0.066-0.137 0.015-0.015 0.032-0.028 0.051-0.038l0.001-0.001c0.051-0.031 0.124-0.039 0.186-0.014l3.249 1.287c0.165 0.066 0.178 0.297 0.017 0.375z"></path>
<path fill="rgba(0, 0, 0, 0.25)" style="fill: var(--color12, rgba(0, 0, 0, 0.25))" d="M3.569 16.278l-1.015 0.49-2.489-2.099c0.015-0.015 0.032-0.028 0.051-0.038l0.001-0.001c0.051-0.031 0.124-0.039 0.186-0.014l3.249 1.287c0.165 0.066 0.178 0.297 0.017 0.375z"></path>
</symbol>
<symbol id="asana-logo" viewBox="0 0 32 32">
<path d="M25.041 16.87c-3.844 0-6.96 3.116-6.96 6.959s3.116 6.96 6.96 6.96c3.843 0 6.959-3.116 6.959-6.96s-3.116-6.959-6.959-6.959zM6.959 16.87c-3.843 0-6.959 3.115-6.959 6.959s3.116 6.959 6.959 6.959c3.844 0 6.96-3.116 6.96-6.959s-3.116-6.959-6.96-6.959h0zM22.959 8.17c0 3.843-3.116 6.96-6.959 6.96s-6.96-3.117-6.96-6.96 3.116-6.959 6.96-6.959c3.843 0 6.959 3.116 6.959 6.959h0z"></path>
</symbol>
<symbol id="atom-4" viewBox="0 0 32 32">
<path fill="#000" style="fill: var(--color6, #000)" d="M31.982 16c0 8.827-7.155 15.982-15.982 15.982s-15.982-7.155-15.982-15.982c0-8.827 7.155-15.982 15.982-15.982s15.982 7.155 15.982 15.982z"></path>
<path fill="#000" style="fill: var(--color6, #000)" d="M30.596 16.018c0 8.071-6.543 14.613-14.613 14.613s-14.613-6.543-14.613-14.613c0-8.071 6.543-14.613 14.613-14.613s14.613 6.543 14.613 14.613z"></path>
<path fill="#f2f8f6" style="fill: var(--color13, #f2f8f6)" d="M12.557 13.762c-0.104 0.152-0.269 0.412-0.429 0.676l-0.069 0.122c-0.127-0.323-0.284-0.796-0.424-1.277l-0.036-0.145c0.466-0.067 0.962-0.12 1.484-0.156-0.118 0.162-0.291 0.417-0.46 0.674l-0.066 0.107zM25.449 14.697c-0.517-0.496-1.255-0.95-2.195-1.351-1.866-0.794-4.365-1.309-7.037-1.449-0.252-0.015-0.58-0.027-0.909-0.034l-0.032-0.001c2.040-2.435 4.010-3.731 5.158-3.774 0.243-0.009 0.447 0.039 0.607 0.143 0.537 0.349 0.686 1.432 0.399 2.896-0.005 0.028-0.008 0.061-0.008 0.094 0 0.295 0.239 0.533 0.533 0.533 0.255 0 0.468-0.179 0.521-0.419l0.001-0.004c0.494-2.517-0.197-3.562-0.864-3.996-0.348-0.226-0.762-0.332-1.229-0.314-1.765 0.067-4.238 1.949-6.495 4.85-0.893 0.031-1.755 0.108-2.56 0.228-0.072-0.309-0.144-0.714-0.196-1.124l-0.007-0.066c-0.202-1.668 0.046-2.852 0.664-3.167 0.099-0.051 0.208-0.080 0.332-0.089 0.552-0.042 1.332 0.33 2.193 1.045 0.091 0.075 0.209 0.12 0.337 0.12 0.295 0 0.533-0.239 0.533-0.533 0-0.163-0.073-0.309-0.188-0.407l-0.001-0.001c-1.106-0.919-2.1-1.352-2.954-1.288-0.264 0.020-0.512 0.088-0.736 0.202-0.574 0.293-0.966 0.854-1.166 1.666-0.171 0.696-0.195 1.564-0.072 2.579 0.049 0.402 0.12 0.819 0.212 1.25-0.63 0.133-1.214 0.294-1.737 0.484-2.29 0.827-2.818 1.917-2.858 2.686-0.038 0.735 0.338 1.828 2.347 2.864 0.068 0.034 0.149 0.054 0.235 0.054 0.295 0 0.533-0.239 0.533-0.533 0-0.201-0.112-0.377-0.276-0.467l-0.003-0.001c-1.156-0.596-1.801-1.274-1.771-1.86 0.043-0.826 1.427-1.7 3.784-2.192 0.218 0.789 0.499 1.608 0.835 2.438-0.847 1.59-1.465 3.158-1.786 4.552-0.229 0.996-0.296 1.861-0.199 2.571 0.113 0.829 0.445 1.427 0.985 1.779 0.276 0.179 0.647 0.319 1.135 0.319 0.707 0 1.659-0.295 2.918-1.192 0.138-0.098 0.226-0.257 0.226-0.436 0-0.295-0.239-0.533-0.533-0.533-0.117 0-0.226 0.038-0.314 0.102l0.002-0.001c-1.241 0.885-2.307 1.202-2.852 0.847-0.582-0.378-0.704-1.58-0.328-3.216 0.249-1.085 0.694-2.287 1.298-3.526 0.204 0.446 0.341 0.722 0.483 0.995l-0.072-0.154c1.215 2.386 2.701 4.462 4.187 5.845 0.748 0.697 1.463 1.187 2.126 1.458 0.402 0.164 0.78 0.246 1.131 0.246 0.325 0 0.626-0.070 0.902-0.211 0.554-0.282 0.939-0.815 1.145-1.583 0.176-0.658 0.216-1.478 0.118-2.439-0.193-1.889-0.907-4.192-2.010-6.486-0.090-0.175-0.269-0.293-0.476-0.293-0.295 0-0.533 0.239-0.533 0.533 0 0.081 0.018 0.157 0.050 0.225l-0.001-0.003c1.051 2.186 1.729 4.364 1.91 6.133 0.159 1.556-0.098 2.664-0.686 2.964-0.618 0.315-1.72-0.18-2.948-1.323-1.396-1.3-2.804-3.271-3.963-5.549-0.192-0.357-0.437-0.87-0.665-1.391l-0.066-0.169c0.348-0.623 0.644-1.107 0.954-1.579l-0.062 0.1c0.372-0.573 0.696-1.035 1.034-1.486l-0.050 0.069c0.088-0.001 0.176-0.002 0.264-0.002 0.458-0.002 0.949 0.011 1.461 0.038 2.55 0.134 4.921 0.619 6.675 1.366 1.543 0.657 2.442 1.463 2.405 2.156-0.031 0.588-0.746 1.197-1.962 1.669-0.198 0.081-0.334 0.272-0.334 0.495 0 0.295 0.239 0.533 0.533 0.533 0.067 0 0.131-0.012 0.19-0.035l-0.004 0.001c2.113-0.82 2.603-1.871 2.641-2.608 0.034-0.644-0.255-1.264-0.858-1.843z"></path>
<path fill="#f1f8f3" style="fill: var(--color14, #f1f8f3)" d="M14.899 16.142c0 0.644 0.522 1.166 1.165 1.166s1.165-0.522 1.165-1.166c0-0.644-0.522-1.166-1.165-1.166s-1.165 0.522-1.165 1.166z"></path>
</symbol>
<symbol id="aws-2" viewBox="0 0 32 32">
<path fill="#252f3e" style="fill: var(--color15, #252f3e)" d="M9.078 13.418c0 0.388 0.042 0.703 0.115 0.934 0.084 0.231 0.189 0.483 0.336 0.756 0.052 0.084 0.073 0.168 0.073 0.241 0 0.105-0.063 0.21-0.199 0.315l-0.661 0.441c-0.094 0.063-0.189 0.094-0.273 0.094-0.105 0-0.21-0.052-0.315-0.147-0.147-0.157-0.273-0.325-0.378-0.493-0.105-0.178-0.21-0.378-0.325-0.619-0.819 0.966-1.847 1.448-3.086 1.448-0.882 0-1.585-0.252-2.099-0.756s-0.777-1.175-0.777-2.015c0-0.892 0.315-1.616 0.955-2.162s1.49-0.819 2.571-0.819c0.357 0 0.724 0.031 1.112 0.084s0.787 0.136 1.207 0.231v-0.766c0-0.798-0.168-1.354-0.493-1.679-0.336-0.325-0.903-0.483-1.711-0.483-0.367 0-0.745 0.042-1.133 0.136s-0.766 0.21-1.133 0.357c-0.168 0.073-0.294 0.115-0.367 0.136s-0.126 0.031-0.168 0.031c-0.147 0-0.22-0.105-0.22-0.325v-0.514c0-0.168 0.021-0.294 0.073-0.367s0.147-0.147 0.294-0.22c0.367-0.189 0.808-0.346 1.322-0.472 0.514-0.136 1.060-0.199 1.637-0.199 1.249 0 2.162 0.283 2.75 0.85 0.577 0.567 0.871 1.427 0.871 2.582v3.4zM4.817 15.013c0.346 0 0.703-0.063 1.081-0.189s0.714-0.357 0.997-0.672c0.168-0.199 0.294-0.42 0.357-0.672s0.105-0.556 0.105-0.913v-0.441c-0.304-0.073-0.63-0.136-0.966-0.178s-0.661-0.063-0.987-0.063c-0.703 0-1.217 0.136-1.564 0.42s-0.514 0.682-0.514 1.207c0 0.493 0.126 0.861 0.388 1.113 0.252 0.262 0.619 0.388 1.102 0.388zM13.245 16.147c-0.189 0-0.315-0.032-0.399-0.105-0.084-0.063-0.157-0.21-0.22-0.409l-2.466-8.113c-0.063-0.21-0.094-0.346-0.094-0.42 0-0.168 0.084-0.262 0.252-0.262h1.029c0.199 0 0.336 0.032 0.409 0.105 0.084 0.063 0.147 0.21 0.21 0.409l1.763 6.948 1.637-6.948c0.052-0.21 0.115-0.346 0.199-0.409s0.231-0.105 0.42-0.105h0.84c0.199 0 0.336 0.032 0.42 0.105 0.084 0.063 0.157 0.21 0.199 0.409l1.658 7.032 1.816-7.032c0.063-0.21 0.136-0.346 0.21-0.409 0.084-0.063 0.22-0.105 0.409-0.105h0.976c0.168 0 0.262 0.084 0.262 0.262 0 0.052-0.011 0.105-0.021 0.168s-0.032 0.147-0.073 0.262l-2.529 8.113c-0.063 0.21-0.136 0.346-0.22 0.409s-0.22 0.105-0.399 0.105h-0.903c-0.199 0-0.336-0.032-0.42-0.105s-0.157-0.21-0.199-0.42l-1.627-6.769-1.616 6.759c-0.052 0.21-0.115 0.346-0.199 0.42s-0.231 0.105-0.42 0.105zM26.731 16.43c-0.546 0-1.091-0.063-1.616-0.189s-0.934-0.262-1.207-0.42c-0.168-0.094-0.283-0.199-0.325-0.294s-0.063-0.199-0.063-0.294v-0.535c0-0.22 0.084-0.325 0.241-0.325 0.063 0 0.126 0.011 0.189 0.031s0.157 0.063 0.262 0.105c0.357 0.157 0.745 0.283 1.154 0.367 0.42 0.084 0.829 0.126 1.249 0.126 0.661 0 1.175-0.115 1.532-0.346s0.546-0.567 0.546-0.997c0-0.294-0.094-0.535-0.283-0.735s-0.546-0.378-1.060-0.546l-1.522-0.472c-0.766-0.241-1.333-0.598-1.679-1.071-0.346-0.462-0.525-0.976-0.525-1.522 0-0.441 0.094-0.829 0.283-1.165s0.441-0.63 0.756-0.861c0.315-0.241 0.672-0.42 1.091-0.546s0.861-0.178 1.322-0.178c0.231 0 0.472 0.011 0.703 0.042 0.241 0.032 0.462 0.073 0.682 0.115 0.21 0.052 0.409 0.105 0.598 0.168s0.336 0.126 0.441 0.189c0.147 0.084 0.252 0.168 0.315 0.262 0.063 0.084 0.094 0.199 0.094 0.346v0.493c0 0.22-0.084 0.336-0.241 0.336-0.084 0-0.22-0.042-0.399-0.126-0.598-0.273-1.27-0.409-2.015-0.409-0.598 0-1.070 0.094-1.396 0.294s-0.493 0.504-0.493 0.934c0 0.294 0.105 0.546 0.315 0.745s0.598 0.399 1.154 0.577l1.49 0.472c0.756 0.241 1.301 0.577 1.627 1.008s0.483 0.924 0.483 1.469c0 0.451-0.094 0.861-0.273 1.217-0.189 0.357-0.441 0.672-0.766 0.924-0.325 0.262-0.714 0.451-1.165 0.588-0.472 0.147-0.966 0.22-1.501 0.22z"></path>
<path fill="#f90" style="fill: var(--color16, #f90)" d="M28.715 21.531c-3.453 2.55-8.47 3.904-12.783 3.904-6.045 0-11.492-2.236-15.606-5.951-0.325-0.294-0.031-0.693 0.357-0.462 4.45 2.582 9.939 4.146 15.617 4.146 3.831 0 8.039-0.798 11.912-2.435 0.577-0.262 1.070 0.378 0.504 0.798z"></path>
<path fill="#f90" style="fill: var(--color16, #f90)" d="M30.153 19.894c-0.441-0.567-2.918-0.273-4.041-0.136-0.336 0.042-0.388-0.252-0.084-0.472 1.973-1.385 5.216-0.987 5.594-0.525 0.378 0.472-0.105 3.715-1.952 5.269-0.283 0.241-0.556 0.115-0.43-0.199 0.42-1.039 1.354-3.379 0.913-3.936z"></path>
</symbol>
<symbol id="basecamp" viewBox="0 0 32 32">
<path fill="#b6deff" style="fill: var(--color17, #b6deff)" d="M16.038 2.688c-8.58 0-15.302 10.916-15.938 20.136 2.692 4.673 9.185 6.429 15.938 6.429s13.246-1.756 15.937-6.43c-0.636-9.22-7.357-20.136-15.937-20.136z"></path>
<path fill="#6c6" style="fill: var(--color18, #6c6)" d="M29.733 20.628s-1.895-4.097-3.821-6.487c-1.927-2.391-4.281-4.995-5.673-4.995s-5.279 6.885-7.063 6.885c-1.784 0-2.712-3.121-4.905-3.121s-5.681 7.526-5.681 7.526l-0.236 1.276s1.211 5.37 13.883 5.37c12.672 0 13.685-5.282 13.685-5.282l-0.188-1.172z"></path>
<path fill="#17ad49" style="fill: var(--color19, #17ad49)" d="M13.373 18.968c-1.968 0-2.977-1.942-3.524-3.14-0.492-1.080-0.577-2.784-1.973-2.832 0.137-0.054 0.269-0.086 0.393-0.086 2.194 0 3.121 3.121 4.905 3.121s5.672-6.885 7.063-6.885c0.262 0 0.557 0.092 0.878 0.257-0.237-0.031-0.541-0.009-0.775 0.225-0.45 0.45-4.531 9.341-6.968 9.341z"></path>
</symbol>
<symbol id="bitbucket" viewBox="0 0 32 32">
<path fill="#fff" style="fill: var(--color20, #fff)" d="M0 16c0-8.837 7.163-16 16-16s16 7.163 16 16c0 8.837-7.163 16-16 16s-16-7.163-16-16z"></path>
<path fill="#2684ff" style="fill: var(--color21, #2684ff)" d="M8.365 9.305c0.096-0.112 0.237-0.175 0.385-0.173l14.593 0.002c0.148-0.002 0.289 0.062 0.385 0.173s0.138 0.261 0.115 0.407l-2.123 13.030c-0.040 0.245-0.252 0.423-0.5 0.42h-10.182c-0.33-0.003-0.61-0.242-0.665-0.567l-2.123-12.885c-0.024-0.146 0.018-0.295 0.115-0.407zM14.438 18.444h3.25l0.787-4.597h-4.917l0.88 4.597z"></path>
<path fill="#000" style="fill: var(--color6, #000)" d="M23.168 13.847h-4.693l-0.787 4.597h-3.25l-3.838 4.555c0.122 0.105 0.277 0.164 0.438 0.165h10.185c0.248 0.003 0.46-0.175 0.5-0.42l1.445-8.897z"></path>
</symbol>
<symbol id="blender-2" viewBox="0 0 32 32">
<path fill="#005385" style="fill: var(--color22, #005385)" d="M16.645 17.643c0.058-1.043 0.57-1.963 1.34-2.615 0.757-0.641 1.775-1.031 2.886-1.032 1.111 0.001 2.129 0.391 2.886 1.032 0.771 0.652 1.282 1.572 1.341 2.615 0.059 1.073-0.372 2.070-1.129 2.808-0.771 0.751-1.869 1.223-3.097 1.223s-2.328-0.472-3.099-1.223c-0.756-0.738-1.187-1.736-1.127-2.808z"></path>
<path fill="#ff7021" style="fill: var(--color23, #ff7021)" d="M9.914 19.755c0.007 0.407 0.138 1.201 0.333 1.822 0.411 1.312 1.107 2.526 2.078 3.597 0.995 1.099 2.219 1.983 3.635 2.609 1.488 0.659 3.101 0.996 4.773 0.993s3.284-0.345 4.772-1.008c1.414-0.633 2.638-1.519 3.633-2.621 0.969-1.075 1.664-2.291 2.076-3.604 0.192-0.588 0.331-1.272 0.388-1.979l0.002-0.033c0.017-0.211 0.027-0.457 0.027-0.706 0-0.456-0.033-0.904-0.097-1.341l0.006 0.050c-0.185-1.297-0.634-2.515-1.324-3.625-0.634-1.019-1.448-1.912-2.417-2.664l0.001-0.001-9.778-7.509c-0.008-0.007-0.016-0.014-0.025-0.021-0.644-0.491-1.722-0.49-2.427 0.003-0.715 0.5-0.795 1.324-0.161 1.846l-0.002 0.001 4.079 3.318-12.45 0.013c-1.027 0.001-2.014 0.676-2.21 1.527-0.2 0.868 0.498 1.588 1.566 1.592l-0.001 0.004 6.301-0.012-11.245 8.63c-0.014 0.011-0.029 0.021-0.043 0.032-1.060 0.812-1.403 2.163-0.736 3.018 0.679 0.869 2.12 0.87 3.192 0.004l6.137-5.021s-0.089 0.678-0.082 1.086zM25.683 22.024c-1.264 1.29-3.033 2.020-4.95 2.023s-3.687-0.721-4.952-2.007c-0.618-0.627-1.072-1.347-1.353-2.116-0.21-0.56-0.332-1.206-0.332-1.881 0-0.17 0.008-0.338 0.023-0.503l-0.002 0.021c0.073-0.827 0.316-1.583 0.693-2.254l-0.014 0.028c0.37-0.67 0.878-1.276 1.505-1.789 1.229-1.002 2.793-1.544 4.431-1.546s3.202 0.536 4.431 1.534c0.626 0.51 1.134 1.114 1.503 1.783 0.363 0.642 0.606 1.398 0.678 2.203l0.002 0.022c0.013 0.144 0.021 0.311 0.021 0.48 0 0.676-0.122 1.323-0.344 1.922l0.012-0.038c-0.28 0.77-0.733 1.491-1.351 2.121z"></path>
</symbol>
<symbol id="buffer" viewBox="0 0 31 32">
<path d="M16.666 0.185c4.646 2.155 9.368 4.381 14.008 6.549 0.248 0.116 0.572 0.195 0.573 0.545s-0.324 0.429-0.572 0.545c51.992-22.099 47.398-19.914 42.803-17.732l-56.781 24.259c-0.71 0.331-1.439 0.326-2.15-0.005-82.101-35.323-86.7-37.511-91.297-39.702l77.29 33.161c-0.24-0.112-0.543-0.197-0.533-0.539 0.009-0.32 0.298-0.403 0.529-0.511 4.687-2.19 9.422-4.415 14.115-6.591 0.496-0.23 1.499-0.214 2.015 0.021zM15.621 31.947c-0.338 0-0.591-0.128-1.074-0.309-4.664-2.163-9.322-4.339-13.98-6.516-0.248-0.116-0.568-0.197-0.565-0.55 0.003-0.351 0.324-0.428 0.572-0.546 0.773-0.367 1.549-0.726 2.325-1.086s1.546-0.354 2.324 0.010c3.088 1.447 6.178 2.887 9.267 4.332 0.767 0.359 1.527 0.351 2.294-0.008-48.704 20.772-45.65 19.318-42.595 17.865l51.891-22.21c0.732-0.342 1.473-0.351 2.209-0.018 0.827 0.375 1.648 0.763 2.469 1.149 0.122 0.057 0.245 0.122 0.347 0.208 0.219 0.185 0.222 0.436-0.002 0.615-0.136 0.109-0.299 0.189-0.459 0.264-4.62 2.159-9.24 4.319-13.866 6.464-0.36 0.167-0.818 0.337-1.156 0.337zM15.604 23.296c-0.155 0-0.755-0.164-1.097-0.323-4.645-2.157-9.283-4.327-13.922-6.497-0.249-0.117-0.574-0.192-0.581-0.539-0.007-0.368 0.333-0.442 0.59-0.564 0.781-0.372 1.565-0.74 2.351-1.101 0.746-0.342 1.492-0.334 2.237 0.013 3.119 1.457 6.238 2.914 9.359 4.366 0.722 0.336 1.456 0.333 2.179-0.003 3.13-1.457 6.258-2.919 9.387-4.378 0.724-0.337 1.455-0.337 2.179-0.007 0.825 0.376 1.645 0.764 2.466 1.15 0.113 0.053 0.228 0.109 0.325 0.186 0.249 0.198 0.247 0.459-0.005 0.657-0.097 0.076-0.212 0.133-0.325 0.185-4.686 2.191-9.372 4.383-14.064 6.562-0.322 0.15-0.926 0.291-1.080 0.291z"></path>
</symbol>
<symbol id="digitalocean-icon-1" viewBox="0 0 32 32">
<path fill="#0080ff" style="fill: var(--color24, #0080ff)" d="M14.785 32v-5.73c6.065 0 10.773-6.015 8.444-12.398-0.885-2.38-2.73-4.224-5.050-5.091l-0.059-0.019c-6.383-2.312-12.398 2.379-12.398 8.444h-5.713c0-9.666 9.349-17.206 19.485-14.040 4.423 1.391 7.958 4.909 9.332 9.333 3.167 10.152-4.356 19.501-14.040 19.501z"></path>
<path fill="#0080ff" style="fill: var(--color24, #0080ff)" d="M9.106 26.287h5.696v-5.696h-5.696zM4.716 30.676h4.389v-4.389h-4.389zM1.047 26.287h3.67v-3.67h-3.67z"></path>
</symbol>
<symbol id="dropbox-1" viewBox="0 0 32 32">
<path fill="#0062ff" style="fill: var(--color25, #0062ff)" d="M8 2.377l-8 5.132 8 5.057 8-5.057zM24 2.377l-8 5.132 8 5.057 8-5.057zM0 17.698l8 5.132 8-5.132-8-5.132zM24 12.566l-8 5.132 8 5.132 8-5.132zM8 24.491l8 5.132 8-5.132-8-5.057z"></path>
</symbol>
<symbol id="dropbox-paper" viewBox="0 0 32 32">
<path fill="#b3d8f6" style="fill: var(--color26, #b3d8f6)" d="M16 9.875l-16 10.881 16 10.956 16-10.956z"></path>
<path fill="#0070e0" style="fill: var(--color27, #0070e0)" d="M16 0.287l-16 10.881 16 10.956 16-10.956z"></path>
</symbol>
<symbol id="edge-animate-app-cc" viewBox="0 0 32 32">
<path fill="#0f0b4a" style="fill: var(--color28, #0f0b4a)" d="M0 0.401h32v31.199h-32v-31.199z"></path>
<path fill="#000" style="fill: var(--color6, #000)" opacity="0.08" d="M0 30.407h32v0.801h-32v-0.801zM0 26.931h32v0.801h-32v-0.801zM0 20.007h32v0.801h-32v-0.801zM0 16.532h32v0.801h-32v-0.801zM0 13.072h32v0.801h-32v-0.801zM0 9.607h32v0.801h-32v-0.801zM0 6.132h32v0.801h-32v-0.801zM0 2.673h32v0.801h-32v-0.801zM0 23.472h32v0.801h-32v-0.801z"></path>
<path fill="#000" style="fill: var(--color6, #000)" opacity="0.15" d="M0 25.21h32v0.801h-32v-0.801zM0 28.669h32v0.801h-32v-0.801zM0 18.27h32v0.801h-32v-0.801zM0 21.735h32v0.801h-32v-0.801zM0 14.805h32v0.801h-32v-0.801zM0 11.335h32v0.801h-32v-0.801zM0 7.87h32v0.801h-32v-0.801zM0 4.406h32v0.801h-32v-0.801zM0 0.935h32v0.801h-32v-0.801z"></path>
<path fill="#8689c3" style="fill: var(--color29, #8689c3)" d="M9.080 18.364l-1.031 3.878c-0.021 0.105-0.063 0.115-0.199 0.115h-1.905c-0.126 0-0.147-0.042-0.126-0.199l3.679-12.896c0.063-0.241 0.105-0.377 0.126-1.021 0-0.084 0.042-0.126 0.105-0.126h2.716c0.084 0 0.126 0.021 0.147 0.126l4.129 13.938c0.021 0.105 0 0.178-0.105 0.178h-2.141c-0.105 0-0.178-0.010-0.199-0.094l-1.073-3.899h-4.124zM12.686 16.235c-0.366-1.434-1.214-4.564-1.539-6.082h-0.021c-0.283 1.518-0.968 4.066-1.497 6.082h3.056zM17.962 13.958c0-0.126 0-0.581-0.063-1.329 0-0.084 0.032-0.105 0.115-0.147 1.094-0.403 2.507-0.853 3.983-0.853 1.821 0 3.815 0.707 3.815 3.836v6.731c0 0.126-0.042 0.178-0.147 0.178h-1.947c-0.126 0-0.167-0.063-0.167-0.178v-6.558c0-1.235-0.434-1.926-1.727-1.926-0.55 0-1.083 0.105-1.465 0.241v8.27c0 0.084-0.042 0.147-0.126 0.147h-2.109c-0.105 0-0.147-0.042-0.147-0.147v-8.27h-0.016v0.005z"></path>
</symbol>
<symbol id="electron" viewBox="0 0 32 32">
<path fill="#47848f" style="fill: var(--color30, #47848f)" d="M12.268 8.165c-3.592-0.655-6.43 0.030-7.563 2-0.845 1.463-0.603 3.402 0.585 5.475 0.065 0.111 0.184 0.185 0.32 0.185 0.204 0 0.369-0.165 0.369-0.369 0-0.068-0.018-0.131-0.050-0.185l0.001 0.002c-1.070-1.867-1.28-3.543-0.588-4.75 0.94-1.627 3.473-2.25 6.793-1.635 0.020 0.004 0.043 0.006 0.066 0.006 0.204 0 0.368-0.165 0.368-0.368 0-0.18-0.129-0.33-0.3-0.362l-0.002-0zM7.157 18.152c1.577 1.687 3.388 3.127 5.388 4.276l0.112 0.059c5.21 3 10.75 3.813 13.5 1.948 0.097-0.067 0.16-0.178 0.16-0.304 0-0.203-0.165-0.368-0.368-0.368-0.078 0-0.149 0.024-0.209 0.065l0.001-0.001c-2.465 1.672-7.742 0.902-12.725-1.98-2.041-1.169-3.791-2.562-5.303-4.18l-0.012-0.013c-0.068-0.074-0.165-0.12-0.272-0.12-0.204 0-0.37 0.166-0.37 0.37 0 0.097 0.037 0.184 0.098 0.25l-0-0z"></path>
<path fill="#47848f" style="fill: var(--color30, #47848f)" d="M25.265 17.703c2.352-2.777 3.172-5.572 2.043-7.527-0.83-1.44-2.587-2.2-4.922-2.23-0.204 0-0.369 0.165-0.369 0.369s0.165 0.369 0.369 0.369v0c2.1 0.027 3.613 0.682 4.295 1.863 0.938 1.625 0.205 4.117-1.968 6.685-0.054 0.064-0.087 0.147-0.087 0.238 0 0.203 0.165 0.368 0.368 0.368 0.113 0 0.213-0.050 0.281-0.13l0-0.001zM19.223 8.287c-2.482 0.573-4.673 1.469-6.668 2.658l0.105-0.058c-5.378 3.113-8.887 7.685-8.41 11.005 0.027 0.185 0.185 0.325 0.375 0.325 0.209 0 0.379-0.17 0.379-0.379 0-0.019-0.001-0.038-0.004-0.056l0 0.002c-0.442-2.948 2.883-7.285 8.027-10.258 1.829-1.098 3.948-1.969 6.199-2.498l0.151-0.030c0.167-0.037 0.291-0.184 0.291-0.36 0-0.203-0.165-0.368-0.368-0.368-0.027 0-0.054 0.003-0.080 0.009l0.002-0z"></path>
<path fill="#47848f" style="fill: var(--color30, #47848f)" d="M10.5 24.195c1.25 3.433 3.25 5.555 5.512 5.555 1.65 0 3.175-1.125 4.365-3.105 0.036-0.056 0.057-0.124 0.057-0.198 0-0.205-0.166-0.371-0.371-0.371-0.132 0-0.247 0.069-0.313 0.172l-0.001 0.002c-1.070 1.78-2.383 2.75-3.735 2.75-1.88 0-3.672-1.885-4.81-5.060-0.053-0.143-0.188-0.243-0.346-0.243-0.203 0-0.368 0.165-0.368 0.368 0 0.045 0.008 0.088 0.023 0.128l-0.001-0.003zM21.75 23.523c0.621-1.991 0.978-4.281 0.978-6.654 0-0.060-0-0.12-0.001-0.18l0 0.009c0-6.102-2.135-11.36-5.177-12.713-0.044-0.020-0.096-0.032-0.15-0.032-0.204 0-0.369 0.165-0.369 0.369 0 0.15 0.089 0.279 0.217 0.337l0.002 0.001c2.712 1.205 4.75 6.195 4.75 12.038 0 0.049 0.001 0.108 0.001 0.166 0 2.296-0.346 4.512-0.988 6.597l0.042-0.159c-0.011 0.033-0.017 0.071-0.017 0.11 0 0.203 0.165 0.368 0.368 0.368 0.164 0 0.303-0.107 0.351-0.255l0.001-0.003zM28.677 23.163c0-0.973-0.789-1.762-1.762-1.762s-1.762 0.789-1.762 1.762c0 0.973 0.789 1.762 1.762 1.762v0c0.973 0 1.762-0.789 1.762-1.762v0zM27.94 23.163c0 0.566-0.459 1.025-1.025 1.025s-1.025-0.459-1.025-1.025c0-0.566 0.459-1.025 1.025-1.025v0c0.566 0 1.025 0.459 1.025 1.025v0zM5.085 24.925c0.973 0 1.763-0.789 1.763-1.762s-0.789-1.762-1.763-1.762c-0.973 0-1.763 0.789-1.763 1.762v0c0 0.973 0.789 1.762 1.763 1.762v0zM5.085 24.188c-0.566 0-1.025-0.459-1.025-1.025s0.459-1.025 1.025-1.025c0.566 0 1.025 0.459 1.025 1.025v0c0 0.566-0.459 1.025-1.025 1.025v0z"></path>
<path fill="#47848f" style="fill: var(--color30, #47848f)" d="M16.012 5.782c0.973 0 1.762-0.789 1.762-1.763s-0.789-1.763-1.762-1.763c-0.973 0-1.762 0.789-1.762 1.763v0c0 0.973 0.789 1.763 1.762 1.763v0zM16.012 5.045c-0.566 0-1.025-0.459-1.025-1.025s0.459-1.025 1.025-1.025c0.566 0 1.025 0.459 1.025 1.025v0c0 0.566-0.459 1.025-1.025 1.025v0zM16.282 17.942c-0.084 0.020-0.18 0.031-0.278 0.031-0.704 0-1.275-0.571-1.275-1.275s0.571-1.275 1.275-1.275c0.608 0 1.117 0.426 1.244 0.996l0.002 0.009c0.018 0.081 0.029 0.175 0.029 0.271 0 0.605-0.422 1.112-0.988 1.243l-0.009 0.002z"></path>
</symbol>
<symbol id="figma-1" viewBox="0 0 21 32">
<path fill="#0acf83" style="fill: var(--color31, #0acf83)" d="M5.335 32c2.944 0 5.333-2.389 5.333-5.333v-5.333h-5.333c-2.944 0-5.333 2.389-5.333 5.333s2.389 5.333 5.333 5.333z"></path>
<path fill="#a259ff" style="fill: var(--color32, #a259ff)" d="M0.002 16c0-2.944 2.389-5.333 5.333-5.333h5.333v10.667h-5.333c-2.944 0-5.333-2.389-5.333-5.333z"></path>
<path fill="#f24e1e" style="fill: var(--color33, #f24e1e)" d="M0.002 5.333c0-2.944 2.389-5.333 5.333-5.333h5.333v10.667h-5.333c-2.944 0-5.333-2.389-5.333-5.333z"></path>
<path fill="#ff7262" style="fill: var(--color34, #ff7262)" d="M10.669 0h5.333c2.944 0 5.333 2.389 5.333 5.333s-2.389 5.333-5.333 5.333h-5.333v-10.667z"></path>
<path fill="#1abcfe" style="fill: var(--color35, #1abcfe)" d="M21.335 16c0 2.944-2.389 5.333-5.333 5.333s-5.333-2.389-5.333-5.333 2.389-5.333 5.333-5.333 5.333 2.389 5.333 5.333z"></path>
</symbol>
<symbol id="front" viewBox="0 0 32 32">
<path fill="#ff6b6b" style="fill: var(--color36, #ff6b6b)" d="M27.396 2.438h-8.885c-0.092 0-0.181 0.034-0.25 0.094l-2.011 1.428c-0.066 0.058-0.154 0.094-0.25 0.094s-0.184-0.036-0.25-0.094l0 0-2.011-1.428c-0.066-0.058-0.154-0.094-0.25-0.094h-8.885c-0.105 0-0.206 0.043-0.278 0.12-2.669 2.847-4.309 6.67-4.326 10.876-0.034 8.731 7.041 15.941 15.771 16.063 8.941 0.125 16.229-7.086 16.229-15.998 0-4.232-1.643-8.079-4.326-10.941-0.070-0.074-0.168-0.12-0.277-0.12-0 0-0 0-0.001 0h0zM23.948 6.556c1.622 1.855 2.607 4.283 2.607 6.942 0 6.020-5.039 10.862-11.128 10.54-5.43-0.287-9.788-4.731-9.976-10.165-0.097-2.804 0.902-5.373 2.6-7.316 0.13-0.149 0.121-0.374-0.019-0.514l-3.267-3.278 10.76 7.721c0.129 0.104 0.295 0.167 0.475 0.167s0.347-0.063 0.477-0.168l-0.001 0.001 10.752-7.714-3.26 3.27c-0.139 0.14-0.15 0.365-0.020 0.514z"></path>
</symbol>
<symbol id="github-1" viewBox="0 0 32 32">
<path d="M16 0.238c-8.84 0-16 7.16-16 16 0 7.519 5.16 13.76 12.12 15.519-0.080-0.2-0.12-0.481-0.12-0.76v-2.721h-2c-1.080 0-2.081-0.479-2.521-1.36-0.52-0.96-0.601-2.44-1.92-3.361-0.4-0.32-0.080-0.64 0.359-0.601 0.84 0.24 1.52 0.801 2.16 1.64 0.64 0.84 0.921 1.040 2.12 1.040 0.56 0 1.439-0.040 2.24-0.161 0.44-1.121 1.2-2.12 2.12-2.599-5.36-0.64-7.92-3.28-7.92-6.881 0-1.56 0.679-3.041 1.8-4.321-0.36-1.24-0.84-3.8 0.161-4.8 2.401 0 3.84 1.561 4.2 1.959 1.2-0.4 2.521-0.64 3.88-0.64 1.4 0 2.68 0.24 3.88 0.64 0.36-0.4 1.8-1.96 4.2-1.96 0.96 0.96 0.52 3.559 0.12 4.8 1.121 1.241 1.761 2.76 1.761 4.321 0 3.6-2.521 6.241-7.839 6.8 1.48 0.76 2.52 2.919 2.52 4.52v3.644c0 0.12-0.040 0.24-0.040 0.36 6.239-2.16 10.719-8.079 10.719-15.079 0-8.84-7.16-16-16-16v0z"></path>
</symbol>
<symbol id="gitlab" viewBox="0 0 32 32">
<path fill="#e24329" style="fill: var(--color37, #e24329)" d="M16.009 30.759l5.888-18.121h-11.776l5.888 18.121z"></path>
<path fill="#fc6d26" style="fill: var(--color38, #fc6d26)" d="M16.009 30.759l-5.888-18.121h-8.252l14.14 18.121z"></path>
<path fill="#fca326" style="fill: var(--color39, #fca326)" d="M1.869 12.638l-1.789 5.507c-0.038 0.113-0.060 0.242-0.060 0.377 0 0.404 0.196 0.762 0.499 0.984l0.003 0.002 15.486 11.252-14.14-18.121z"></path>
<path fill="#e24329" style="fill: var(--color37, #e24329)" d="M1.869 12.638h8.252l-3.546-10.914c-0.183-0.562-0.977-0.562-1.159 0l-3.546 10.914z"></path>
<path fill="#fc6d26" style="fill: var(--color38, #fc6d26)" d="M16.009 30.759l5.888-18.121h8.252l-14.14 18.121z"></path>
<path fill="#fca326" style="fill: var(--color39, #fca326)" d="M30.149 12.638l1.789 5.507c0.038 0.113 0.060 0.242 0.060 0.377 0 0.404-0.197 0.762-0.499 0.984l-0.003 0.002-15.486 11.252 14.14-18.121z"></path>
<path fill="#e24329" style="fill: var(--color37, #e24329)" d="M30.149 12.638h-8.252l3.546-10.914c0.183-0.562 0.977-0.562 1.159 0l3.546 10.914z"></path>
</symbol>
<symbol id="google-slide" viewBox="0 0 32 32">
<path fill="#f5ba15" style="fill: var(--color40, #f5ba15)" d="M25 8v18.5c0 0.831-0.669 1.5-1.5 1.5h-16c-0.831 0-1.5-0.669-1.5-1.5v-22c0-0.831 0.669-1.5 1.5-1.5h12.5z"></path>
<path fill="#fadc87" style="fill: var(--color41, #fadc87)" d="M20 3v3.5c0 0.831 0.669 1.5 1.5 1.5h3.5z"></path>
<path fill="#fff" style="fill: var(--color20, #fff)" d="M10.001 12v11h11v-11h-11zM12.001 15h7v5h-7v-5z"></path>
</symbol>
<symbol id="google-calendar" viewBox="0 0 32 32">
<path fill="#c7c7c7" style="fill: var(--color42, #c7c7c7)" d="M25.333 3.333h-18.667c-0.736 0-1.333 0.597-1.333 1.333v0 2h21.333v-2c0-0.736-0.597-1.333-1.333-1.333v0zM9.333 5.333c-0.368 0-0.667-0.298-0.667-0.667s0.298-0.667 0.667-0.667v0c0.368 0 0.667 0.298 0.667 0.667s-0.298 0.667-0.667 0.667v0zM22.667 5.333c-0.368 0-0.667-0.298-0.667-0.667s0.298-0.667 0.667-0.667v0c0.368 0 0.667 0.298 0.667 0.667s-0.298 0.667-0.667 0.667v0z"></path>
<path fill="#1976d2" style="fill: var(--color43, #1976d2)" d="M29.333 7.333c0.069-0.388-0.939-1.333-1.333-1.333h-24c-0.667 0-1.402 0.945-1.333 1.333 0.549 3.109 2 10 2 10h22.667s1.451-6.891 2-10z"></path>
<path fill="#1e88e5" style="fill: var(--color44, #1e88e5)" d="M27.333 17.333h-22.667s-1.451 6.891-2 10c0 0.764 0.528 1.333 1.333 1.333h24c0.394 0 1.333-0.333 1.333-1.333-0.549-3.109-2-10-2-10z"></path>
<path fill="#fafafa" style="fill: var(--color45, #fafafa)" d="M13.689 17.333c0.656 0.217 1.125 0.567 1.403 1.038 0.289 0.488 0.433 1.033 0.433 1.638 0 1.055-0.346 1.884-1.037 2.489s-1.575 0.907-2.651 0.907c-1.055 0-1.928-0.285-2.62-0.855s-1.024-1.343-0.998-2.317l0.024-0.048h1.495c0 0.609 0.187 1.095 0.561 1.455s0.887 0.541 1.539 0.541c0.663 0 1.182-0.18 1.558-0.541s0.565-0.893 0.565-1.598c0-0.715-0.167-1.243-0.501-1.582s-0.861-0.509-1.582-0.509h-1.367v-0.617h3.179z"></path>
<path fill="#fafafa" style="fill: var(--color45, #fafafa)" d="M21.091 17.333h1.566v5.904h-1.566z"></path>
<path fill="#e0e0e0" style="fill: var(--color46, #e0e0e0)" d="M9.818 14.691h-1.503l-0.016-0.048c-0.027-0.875 0.29-1.618 0.95-2.23s1.523-0.918 2.588-0.918c1.071 0 1.924 0.285 2.56 0.855s0.954 1.382 0.954 2.437c0 0.477-0.145 0.953-0.433 1.427s-0.722 0.836-1.3 1.085l0.071 0.035h-3.18v-0.607h1.367c0.695 0 1.186-0.173 1.475-0.521s0.433-0.831 0.433-1.451c0-0.663-0.164-1.166-0.493-1.511s-0.813-0.517-1.455-0.517c-0.609 0-1.099 0.179-1.467 0.537-0.356 0.345-0.54 0.801-0.553 1.427z"></path>
<path fill="#e0e0e0" style="fill: var(--color46, #e0e0e0)" d="M22.657 17.333h-1.566v-4.145l-2.369 0.032v-1.129l3.935-0.429z"></path>
<path fill="#1976d2" style="fill: var(--color43, #1976d2)" d="M4 6c-0.959 0-1.402 0.945-1.333 1.333 0.549 3.109 2 10 2 10z"></path>
<path fill="#1976d2" style="fill: var(--color43, #1976d2)" d="M27.333 17.333s1.451-6.891 2-10c0-1.083-0.939-1.333-1.333-1.333z"></path>
</symbol>
<symbol id="google-docs-icon" viewBox="0 0 23 32">
<path fill="#4285f4" style="fill: var(--color47, #4285f4)" d="M14.546 0h-12.365c-1.162 0-2.181 1.018-2.181 2.182v27.636c0 1.164 1.018 2.182 2.182 2.182h18.909c1.164 0 2.182-1.018 2.182-2.182v-21.092l-5.091-3.636-3.638-5.091z"></path>
<path fill="#f1f1f1" style="fill: var(--color48, #f1f1f1)" d="M5.818 23.273h11.636v-1.454h-11.635l-0.001 1.454zM5.818 26.182h8.727v-1.454h-8.727v1.454zM5.818 16v1.454h11.636v-1.454h-11.636zM5.818 20.364h11.636v-1.454h-11.635l-0.001 1.454z"></path>
<path fill="#a1c2fa" style="fill: var(--color49, #a1c2fa)" d="M14.546 0v6.546c0 1.164 1.018 2.181 2.181 2.181h6.546l-8.727-8.727z"></path>
</symbol>
<symbol id="google-meet-2" viewBox="0 0 32 32">
<path fill="#5f6368" style="fill: var(--color50, #5f6368)" d="M15.464 19.048v-5.608h0.72l1.951 3.415h0.032l1.951-3.415h0.72v5.608h-0.72v-3.329l0.032-0.94h-0.032l-1.755 3.079h-0.423l-1.755-3.079h-0.032l0.032 0.94v3.329zM23.47 19.173c-0.58 0-1.051-0.193-1.414-0.58s-0.544-0.874-0.544-1.464c0-0.559 0.176-1.039 0.529-1.441s0.803-0.603 1.351-0.603c0.569 0 1.025 0.186 1.367 0.556s0.513 0.867 0.513 1.488l-0.008 0.133h-3.031c0.020 0.387 0.15 0.692 0.387 0.916s0.516 0.337 0.834 0.337c0.517 0 0.867-0.22 1.050-0.658l0.642 0.267c-0.125 0.298-0.332 0.547-0.619 0.748s-0.64 0.301-1.057 0.301zM24.504 16.667c-0.015-0.22-0.117-0.428-0.301-0.627s-0.461-0.298-0.827-0.298c-0.267 0-0.497 0.083-0.693 0.25s-0.33 0.392-0.404 0.673h2.225zM27.55 19.173c-0.58 0-1.051-0.193-1.414-0.58s-0.544-0.874-0.544-1.464c0-0.559 0.176-1.039 0.529-1.441s0.803-0.603 1.351-0.603c0.569 0 1.025 0.186 1.367 0.556s0.513 0.867 0.513 1.488l-0.008 0.133h-3.031c0.020 0.387 0.15 0.692 0.387 0.916s0.516 0.337 0.834 0.337c0.517 0 0.867-0.22 1.050-0.658l0.642 0.267c-0.125 0.298-0.332 0.547-0.619 0.748s-0.639 0.301-1.057 0.301zM28.583 16.667c-0.015-0.22-0.117-0.428-0.301-0.627s-0.461-0.298-0.827-0.298c-0.267 0-0.497 0.083-0.693 0.25s-0.33 0.392-0.404 0.673h2.225zM31.422 19.11c-0.402 0-0.709-0.107-0.92-0.321s-0.318-0.517-0.318-0.908v-2.013h-0.673v-0.658h0.673v-1.175h0.72v1.175h0.94v0.658h-0.94v1.958c0 0.418 0.172 0.627 0.517 0.627 0.13 0 0.24-0.020 0.329-0.063l0.25 0.619c-0.156 0.067-0.349 0.101-0.578 0.101z"></path>
<path fill="#00897b" style="fill: var(--color51, #00897b)" d="M10.679 15.255c0-2.605-2.114-4.719-4.719-4.719s-4.719 2.113-4.719 4.719c0 2.468 2.251 4.47 4.719 4.47v1.739c2.866-1.454 4.719-3.794 4.719-6.209z"></path>
<path fill="#000" style="fill: var(--color6, #000)" d="M8.878 13.548l-0.619 1.707h-3.416l-1.371 1.681 5.024 5.024h3.361v-5.432z"></path>
<path fill="#263238" style="fill: var(--color52, #263238)" opacity="0.2" d="M5.96 19.663c-2.458 0-4.7-1.986-4.718-4.441 0 0.011-0.001 0.022-0.001 0.033 0 2.468 2.251 4.47 4.719 4.47zM5.96 21.401v0.062c2.866-1.454 4.719-3.794 4.719-6.209 0-0.010-0.001-0.020-0.001-0.030-0.016 2.403-1.865 4.729-4.718 6.176zM7.016 17.117h-3.104c-0.159 0-0.318-0.060-0.439-0.182s-0.182-0.28-0.182-0.439v0.062c0 0.159 0.060 0.318 0.182 0.439s0.28 0.182 0.439 0.182h3.104c0.159 0 0.318-0.060 0.439-0.182 0.113-0.112 0.182-0.268 0.182-0.439 0-0 0-0 0-0v0-0.062c0 0.159-0.060 0.318-0.182 0.439s-0.281 0.182-0.439 0.182zM7.636 15.783l1.241 1.241v-0.062l-1.241-1.241z"></path>
<path fill="#f5f5f5" style="fill: var(--color53, #f5f5f5)" d="M7.636 14.789v-0.776c0-0.159-0.060-0.318-0.182-0.439-0.112-0.113-0.268-0.182-0.439-0.182-0 0-0 0-0 0h-3.103c-0.159 0-0.318 0.060-0.439 0.182-0.113 0.112-0.182 0.268-0.182 0.439 0 0 0 0 0 0v0 2.484c0 0.159 0.060 0.318 0.182 0.439s0.28 0.182 0.439 0.182h3.104c0.159 0 0.318-0.060 0.439-0.182 0.113-0.112 0.182-0.268 0.182-0.439 0-0 0-0 0-0v0-0.776l1.241 1.241v-3.415z"></path>
<path fill="#e0e0e0" style="fill: var(--color46, #e0e0e0)" d="M3.291 14.014v1.241h5.587v-1.707l-1.241 1.241v-0.776c0-0.159-0.060-0.318-0.182-0.439-0.112-0.113-0.268-0.182-0.439-0.182-0 0-0 0-0 0h-3.103c-0.159 0-0.318 0.060-0.439 0.182-0.112 0.112-0.181 0.267-0.181 0.438 0 0.001 0 0.001 0 0.002v-0z"></path>
<path fill="#212121" style="fill: var(--color54, #212121)" opacity="0.02" d="M3.291 15.193h5.587v0.062h-5.587z"></path>
<path fill="#fff" style="fill: var(--color20, #fff)" opacity="0.05" d="M3.291 15.255h5.587v0.062h-5.587z"></path>
<path fill="#fff" style="fill: var(--color20, #fff)" opacity="0.2" d="M3.911 13.454h3.104c0.159 0 0.318 0.060 0.439 0.182 0.113 0.112 0.182 0.268 0.182 0.439 0 0 0 0 0 0v0-0.062c0-0.159-0.060-0.318-0.182-0.439-0.112-0.113-0.268-0.182-0.439-0.182-0 0-0 0-0 0h-3.104c-0.159 0-0.318 0.060-0.439 0.182-0.113 0.112-0.182 0.268-0.182 0.439 0 0 0 0 0 0v0 0.062c0-0.159 0.060-0.318 0.182-0.439 0.112-0.112 0.268-0.182 0.439-0.182h0zM7.636 14.789v0.062l1.241-1.241v-0.062z"></path>
<path fill="#fff" style="fill: var(--color20, #fff)" opacity="0.2" d="M5.96 10.599c2.594 0 4.702 2.096 4.718 4.688 0-0.011 0.001-0.021 0.001-0.032 0-2.605-2.114-4.719-4.719-4.719s-4.719 2.114-4.719 4.719c0 0.010 0.001 0.020 0.001 0.029 0.018-2.59 2.124-4.685 4.718-4.685z"></path>
<path fill="#000" style="fill: var(--color6, #000)" d="M10.679 15.255c0-2.605-2.114-4.719-4.719-4.719s-4.719 2.113-4.719 4.719c0 2.468 2.251 4.47 4.719 4.47v1.739c2.866-1.454 4.719-3.794 4.719-6.209z"></path>
</symbol>
<symbol id="google-sheets" viewBox="0 0 32 32">
<path fill="#43a047" style="fill: var(--color55, #43a047)" d="M24.667 30h-17.333c-1.105 0-2-0.895-2-2v0-24c0-1.105 0.895-2 2-2v0h12.667l6.667 6.667v19.333c0 1.105-0.895 2-2 2v0z"></path>
<path fill="#c8e6c9" style="fill: var(--color56, #c8e6c9)" d="M26.667 8.667h-6.667v-6.667z"></path>
<path fill="#2e7d32" style="fill: var(--color57, #2e7d32)" d="M20 8.667l6.667 6.667v-6.667z"></path>
<path fill="#e8f5e9" style="fill: var(--color58, #e8f5e9)" d="M20.667 15.333h-10.667v9.333h12v-9.333zM11.333 16.667h2.667v1.333h-2.667zM11.333 19.333h2.667v1.333h-2.667zM11.333 22h2.667v1.333h-2.667zM20.667 23.333h-5.333v-1.333h5.333zM20.667 20.667h-5.333v-1.333h5.333zM20.667 18h-5.333v-1.333h5.333z"></path>
</symbol>
<symbol id="hubspot-1" viewBox="0 0 32 32">
<path fill="#ff7a59" style="fill: var(--color59, #ff7a59)" d="M24.029 10.832v-3.758c0.99-0.471 1.663-1.46 1.669-2.608v-0.087c0-1.598-1.296-2.894-2.894-2.894h-0.086c-1.598 0-2.894 1.296-2.894 2.894v0.086c0.005 1.148 0.679 2.138 1.651 2.601l0.017 0.008v3.758c-1.496 0.235-2.82 0.844-3.912 1.728l0.015-0.012-10.307-8.028c0.074-0.265 0.112-0.538 0.116-0.812 0-0.002 0-0.004 0-0.006 0-1.801-1.46-3.261-3.261-3.261s-3.261 1.46-3.261 3.261c0 1.799 1.457 3.258 3.256 3.261h0c0.592-0.003 1.145-0.165 1.621-0.445l-0.015 0.008 10.149 7.897c-1.866 2.819-1.816 6.492 0.126 9.259l-3.087 3.088c-0.25-0.080-0.509-0.122-0.771-0.126-1.478 0.001-2.676 1.2-2.676 2.678s1.199 2.676 2.677 2.677c1.478 0 2.677-1.197 2.678-2.676-0.004-0.277-0.050-0.541-0.131-0.79l0.005 0.019 3.054-3.055c2.729 2.101 6.476 2.281 9.394 0.454s4.391-5.279 3.692-8.65c-0.699-3.372-3.423-5.952-6.827-6.469zM22.764 23.192c-0.034 0.001-0.074 0.002-0.114 0.002-2.333 0-4.225-1.891-4.225-4.225s1.891-4.225 4.225-4.225c0.040 0 0.080 0.001 0.119 0.002l-0.006-0c2.273 0.080 4.076 1.945 4.077 4.22s-1.799 4.142-4.073 4.224z"></path>
</symbol>
<symbol id="ibooks" viewBox="0 0 32 32">
<path fill="#000" style="fill: var(--color6, #000)" d="M7.467 0h17.067c4.124 0 7.467 3.343 7.467 7.467v17.067c0 4.124-3.343 7.467-7.467 7.467h-17.067c-4.124 0-7.467-3.343-7.467-7.467v-17.067c0-4.124 3.343-7.467 7.467-7.467z"></path>
<path fill="#fff" style="fill: var(--color20, #fff)" d="M15.6 25.977c-0.855-2.573-2.609-3.86-5.262-3.86-2.823 0-3.805 1.46-4.605 1.46-0.257 0-0.4-0.133-0.4-0.305v-12.31c0-1.426 1.925-2.962 5.133-2.962 3.279 0 5.133 2.448 5.133 4.117v13.86zM16.267 25.977v-13.86c0-1.668 1.855-4.117 5.133-4.117 3.208 0 5.133 1.535 5.133 2.962v12.31c0 0.171-0.143 0.305-0.4 0.305-0.8 0-1.782-1.46-4.605-1.46-2.652 0-4.406 1.287-5.262 3.86z"></path>
</symbol>
<symbol id="indesign-cc" viewBox="0 0 32 32">
<path fill="#000" style="fill: var(--color6, #000)" d="M1.333 1.733h29.333v28.533h-29.333v-28.533z"></path>
<path fill="#ff408c" style="fill: var(--color60, #ff408c)" d="M1.333 1.733h29.333v28.533h-29.333v-28.533zM0 31.6h32v-31.2h-32v31.2zM20.24 13.36c-0.2-0.093-0.467-0.133-0.787-0.133-1.72 0-2.92 1.32-2.92 3.52 0 2.507 1.227 3.52 2.76 3.52 0.333 0 0.68-0.040 0.947-0.16v-6.747zM19.533 11.187c0.28 0 0.44 0 0.707 0.027v-3.547c0-0.093 0.067-0.133 0.133-0.133h2.16c0.107 0 0.133 0.040 0.133 0.107v12.467c0 0.373 0 0.84 0.067 1.347 0 0.093-0.027 0.107-0.12 0.16-1.147 0.547-2.36 0.787-3.493 0.787-2.947 0-5.053-1.827-5.053-5.547-0.013-3.187 2.093-5.667 5.467-5.667zM11.707 22.027c0 0.133-0.027 0.173-0.173 0.173h-2.053c-0.133 0-0.173-0.067-0.173-0.173v-14.32c0-0.133 0.067-0.173 0.173-0.173h2.067c0.107 0 0.16 0.040 0.16 0.16v14.333z"></path>
</symbol>
<symbol id="intercom" viewBox="0 0 32 32">
<path fill="#1f8ded" style="fill: var(--color61, #1f8ded)" d="M0 16c0-8.837 7.163-16 16-16s16 7.163 16 16c0 8.837-7.163 16-16 16s-16-7.163-16-16z"></path>
<path fill="#fff" style="fill: var(--color20, #fff)" d="M15.273 8.727c0-0.402 0.326-0.727 0.727-0.727s0.727 0.326 0.727 0.727v10.545c0 0.402-0.326 0.727-0.727 0.727s-0.727-0.326-0.727-0.727v-10.545zM12.364 8.368c-0.402 0-0.727 0.326-0.727 0.727v9.716c0 0.402 0.326 0.727 0.727 0.727s0.727-0.326 0.727-0.727v-9.716c0-0.402-0.326-0.727-0.727-0.727zM23.273 17.818c0.402 0 0.727-0.326 0.727-0.727v-6.541c0-0.402-0.326-0.727-0.727-0.727s-0.727 0.326-0.727 0.727v6.541c0 0.402 0.326 0.727 0.727 0.727zM16 24c4.94 0 7.634-2.261 7.746-2.357 0.305-0.261 0.34-0.721 0.079-1.026s-0.721-0.34-1.026-0.079c-0.023 0.020-2.392 2.007-6.799 2.007-4.353 0-6.758-1.973-6.801-2.008-0.305-0.26-0.763-0.224-1.024 0.080s-0.226 0.764 0.079 1.026c0.112 0.096 2.807 2.357 7.746 2.357zM8 10.55c0-0.402 0.326-0.727 0.727-0.727s0.727 0.326 0.727 0.727v6.541c0 0.402-0.326 0.727-0.727 0.727s-0.727-0.326-0.727-0.727v-6.541zM19.636 8.368c-0.402 0-0.727 0.326-0.727 0.727v9.716c0 0.402 0.326 0.727 0.727 0.727s0.727-0.326 0.727-0.727v-9.716c0-0.402-0.326-0.727-0.727-0.727z"></path>
</symbol>
<symbol id="invision" viewBox="0 0 32 32">
<path fill="#dc395f" style="fill: var(--color62, #dc395f)" d="M29.099 0h-26.198c-1.602 0-2.901 1.299-2.901 2.901v26.198c0 1.602 1.299 2.901 2.901 2.901h26.198c1.602 0 2.901-1.299 2.901-2.901v-26.198c0-1.602-1.299-2.901-2.901-2.901z"></path>
<path fill="#fff" style="fill: var(--color20, #fff)" d="M10.694 10.068c1.064 0 1.955-0.834 1.955-1.927s-0.891-1.926-1.955-1.926-1.955 0.834-1.955 1.926c0 1.093 0.891 1.927 1.955 1.927zM6.641 20.383c-0.115 0.489-0.173 1.017-0.173 1.447 0 1.696 0.92 2.823 2.875 2.823 1.621 0 2.936-0.963 3.882-2.517l-0.578 2.319h3.219l1.84-7.38c0.46-1.869 1.351-2.838 2.702-2.838 1.064 0 1.725 0.662 1.725 1.754 0 0.316-0.029 0.661-0.144 1.035l-0.949 3.392c-0.144 0.489-0.201 0.978-0.201 1.437 0 1.61 0.948 2.788 2.932 2.788 1.696 0 3.047-1.092 3.795-3.708l-1.265-0.488c-0.633 1.753-1.179 2.070-1.61 2.070s-0.661-0.287-0.661-0.862c0-0.259 0.058-0.546 0.144-0.892l0.92-3.305c0.23-0.776 0.316-1.464 0.316-2.096 0-2.472-1.495-3.763-3.306-3.763-1.696 0-3.421 1.53-4.283 3.14l0.632-2.89h-4.915l-0.69 2.546h2.3l-1.416 5.67c-1.112 2.472-3.155 2.512-3.411 2.455-0.421-0.095-0.69-0.255-0.69-0.802 0-0.316 0.057-0.769 0.201-1.316l2.156-8.553h-5.462l-0.69 2.546h2.271l-1.466 5.989z"></path>
</symbol>
<symbol id="jira" viewBox="0 0 32 32">
<path fill="#fff" style="fill: var(--color20, #fff)" d="M0 16c0-8.837 7.163-16 16-16s16 7.163 16 16c0 8.837-7.163 16-16 16s-16-7.163-16-16z"></path>
<path fill="#2684ff" style="fill: var(--color21, #2684ff)" d="M23.291 8h-7.684c0 0.92 0.365 1.802 1.016 2.453s1.533 1.016 2.453 1.016h1.416v1.367c0.001 1.914 1.553 3.465 3.467 3.467v-7.636c0-0.368-0.298-0.667-0.667-0.667z"></path>
<path fill="#000" style="fill: var(--color6, #000)" d="M19.489 11.829h-7.684c0.001 1.914 1.553 3.465 3.467 3.467h1.416v1.371c0.002 1.914 1.555 3.464 3.469 3.464v-7.636c0-0.368-0.298-0.667-0.667-0.667z"></path>
<path fill="#000" style="fill: var(--color6, #000)" d="M15.684 15.656h-7.684c0 1.916 1.553 3.469 3.469 3.469h1.42v1.367c0.001 1.912 1.55 3.463 3.462 3.467v-7.636c0-0.368-0.298-0.667-0.667-0.667z"></path>
</symbol>
<symbol id="linkedin-icon-2" viewBox="0 0 32 32">
<path fill="#069" style="fill: var(--color63, #069)" d="M0 2.347c0-1.26 1.055-2.283 2.356-2.283h27.161c1.301 0 2.356 1.023 2.356 2.283v27.306c0 1.261-1.055 2.283-2.356 2.283h-27.161c-1.3 0-2.356-1.022-2.356-2.282v-27.307z"></path>
<path fill="#fff" style="fill: var(--color20, #fff)" d="M9.686 26.737v-14.349h-4.769v14.349h4.77zM7.302 10.429c1.663 0 2.698-1.102 2.698-2.479-0.031-1.408-1.035-2.479-2.666-2.479-1.632 0-2.698 1.071-2.698 2.479 0 1.377 1.035 2.479 2.636 2.479h0.031zM12.325 26.737h4.769v-8.012c0-0.428 0.031-0.858 0.157-1.164 0.345-0.857 1.129-1.745 2.447-1.745 1.725 0 2.416 1.316 2.416 3.245v7.675h4.769v-8.227c0-4.407-2.353-6.458-5.49-6.458-2.573 0-3.702 1.438-4.33 2.417h0.032v-2.080h-4.769c0.062 1.346-0 14.349-0 14.349z"></path>
</symbol>
<symbol id="microsoft-excel-2013" viewBox="0 0 32 32">
<path fill="#207245" style="fill: var(--color64, #207245)" d="M16.736 0.369h2.159v2.908c3.639 0 7.278 0.007 10.916-0.011 0.614 0.025 1.291-0.018 1.825 0.349 0.374 0.538 0.331 1.221 0.356 1.839-0.018 6.311-0.011 12.618-0.007 18.925-0.018 1.058 0.098 2.137-0.124 3.181-0.145 0.756-1.054 0.774-1.661 0.8-3.766 0.011-7.535-0.007-11.305 0v3.272h-2.258c-5.54-1.007-11.091-1.937-16.638-2.908v-25.442c5.58-0.971 11.16-1.927 16.736-2.912z"></path>
<path fill="#fff" style="fill: var(--color20, #fff)" d="M18.895 4.368h11.996v22.901h-11.996v-2.181h2.908v-2.545h-2.908v-1.454h2.908v-2.545h-2.908v-1.454h2.908v-2.545h-2.908v-1.454h2.908v-2.545h-2.908v-1.454h2.908v-2.545h-2.908v-2.181z"></path>
<path fill="#207245" style="fill: var(--color64, #207245)" d="M23.258 6.549h5.089v2.545h-5.089v-2.545z"></path>
<path fill="#fff" style="fill: var(--color20, #fff)" d="M10.767 9.955c0.822-0.058 1.647-0.109 2.472-0.149-2.954 6.38-3.933 8.334-4.921 10.283l1.988-4.325c1 2.036 2.021 4.057 3.024 6.092-1.481-0.081-2.39-0.141-3.298-0.206l0.674 0.039c-0.618-1.516-1.371-2.981-1.814-4.566-0.494 1.476-1.2 2.868-1.766 4.315-0.796-0.011-1.592-0.044-2.388-0.076 0.934-1.828 1.836-3.671 2.799-5.489-0.818-1.872-1.716-3.708-2.559-5.569 0.8-0.047 1.599-0.095 2.399-0.138 0.542 1.421 1.134 2.824 1.581 4.282 0.48-1.545 1.196-2.999 1.81-4.493z"></path>
<path fill="#207245" style="fill: var(--color64, #207245)" d="M23.258 10.547h5.089v2.545h-5.089v-2.545zM23.258 14.546h5.089v2.545h-5.089v-2.545zM23.258 18.545h5.089v2.545h-5.089v-2.545zM23.258 22.543h5.089v2.545h-5.089v-2.545z"></path>
</symbol>
<symbol id="microsoft-powerpoint-2013" viewBox="0 0 32 32">
<path fill="#d24625" style="fill: var(--color65, #d24625)" d="M16.837 0.368h2.061v3.272c3.886 0.022 7.776-0.040 11.659 0.018 0.836-0.080 1.491 0.571 1.407 1.407 0.062 6.791-0.015 13.585 0.036 20.38-0.036 0.734 0.073 1.549-0.349 2.199-0.531 0.385-1.221 0.334-1.843 0.364-3.635-0.018-7.271-0.011-10.91-0.011v3.635h-2.261c-5.54-1.011-11.092-1.934-16.635-2.908-0.004-8.481 0-16.962 0-25.44 5.609-0.97 11.218-1.959 16.835-2.915z"></path>
<path fill="#fff" style="fill: var(--color20, #fff)" d="M18.898 4.73h11.997v22.176h-11.997v-2.908h8.725v-1.454h-8.725v-1.818h8.725v-1.454h-8.721c-0.004-0.713-0.004-1.425-0.007-2.138 1.44 0.447 3.079 0.436 4.366-0.429 1.392-0.825 2.12-2.399 2.239-3.97-1.596-0.011-3.192-0.007-4.784-0.007-0.003-1.582 0.018-3.163-0.033-4.74-0.596 0.116-1.192 0.24-1.785 0.367v-3.624z"></path>
<path fill="#d24625" style="fill: var(--color65, #d24625)" d="M21.446 7.228c2.527 0.116 4.649 2.243 4.784 4.762-1.596 0.018-3.192 0.011-4.788 0.011 0-1.592-0.003-3.185 0.004-4.773z"></path>
<path fill="#fff" style="fill: var(--color20, #fff)" d="M5.833 9.973c1.974 0.095 4.366-0.782 6.002 0.698 1.567 1.901 1.153 5.398-1.171 6.537-0.825 0.421-1.77 0.364-2.668 0.334-0.004 1.422-0.007 2.843-0.004 4.264 0.734 0.040-0.013-0.025-0.76-0.087l-1.403-0.095c-0.033-3.883-0.040-7.769 0.004-11.651z"></path>
<path fill="#d24625" style="fill: var(--color65, #d24625)" d="M7.992 11.939c0.716-0.033 1.603-0.163 2.087 0.509 0.414 0.713 0.393 1.65 0.047 2.385-0.414 0.749-1.352 0.676-2.076 0.763-0.077-1.218-0.069-2.436-0.058-3.657z"></path>
</symbol>
<symbol id="microsoft-word-2013-logo" viewBox="0 0 32 32">
<path fill="#2a5699" style="fill: var(--color66, #2a5699)" d="M16.724 0.368h2.174v2.908c3.89 0.022 7.776-0.040 11.662 0.022 0.829-0.084 1.479 0.56 1.403 1.389 0.062 7.162-0.015 14.327 0.036 21.488-0.036 0.734 0.073 1.549-0.353 2.199-0.531 0.378-1.218 0.331-1.836 0.36-3.639-0.018-7.275-0.010-10.914-0.010v2.908h-2.272c-5.533-1.011-11.081-1.938-16.624-2.908-0.004-8.481 0-16.962 0-25.44 5.573-0.974 11.149-1.923 16.723-2.916z"></path>
<path fill="#fff" style="fill: var(--color20, #fff)" d="M18.898 4.367h11.997v23.266h-11.997v-2.908h9.452v-1.454h-9.452v-1.818h9.452v-1.454h-9.452v-1.818h9.452v-1.454h-9.452v-1.818h9.452v-1.454h-9.452v-1.818h9.452v-1.454h-9.452v-1.818h9.452v-1.454h-9.452v-2.545zM7.512 10.79c0.691-0.040 1.381-0.069 2.072-0.105 0.483 2.454 0.978 4.904 1.501 7.347 0.411-2.523 0.866-5.039 1.305-7.558 0.727-0.025 1.454-0.065 2.178-0.109-0.822 3.523-1.541 7.074-2.439 10.575-0.607 0.316-1.516-0.015-2.236 0.036-0.484-2.406-1.047-4.799-1.48-7.216-0.425 2.348-0.978 4.675-1.465 7.009-0.698-0.036-1.399-0.080-2.102-0.127-0.603-3.199-1.312-6.376-1.876-9.583 0.622-0.029 1.247-0.055 1.869-0.076 0.374 2.316 0.8 4.621 1.127 6.94 0.513-2.377 1.037-4.755 1.545-7.133z"></path>
</symbol>
<symbol id="notion-2" viewBox="0 0 30 32">
<path d="M10.651 0.68c-5.003 0.37-9.256 0.711-9.456 0.75-0.561 0.1-1.071 0.48-1.31 0.981l-0.21 0.44 0.020 10.497 0.030 10.497 0.32 0.651c0.18 0.36 1.401 2.041 2.732 3.772 2.632 3.412 2.822 3.602 3.822 3.702 0.29 0.030 2.472-0.070 4.833-0.21 2.372-0.15 6.173-0.38 8.455-0.51 9.746-0.592 9.245-0.542 9.805-1.022 0.701-0.58 0.651 0.37 0.68-12.387 0.020-10.817 0.010-11.527-0.15-11.857-0.19-0.37-0.53-0.63-4.973-3.752-2.972-2.081-3.182-2.191-4.513-2.212-0.55-0.020-5.093 0.28-10.085 0.661zM21.897 2.051c0.42 0.19 3.492 2.331 3.942 2.742 0.12 0.12 0.16 0.22 0.1 0.28-0.14 0.12-19.152 1.251-19.702 1.171-0.25-0.040-0.62-0.19-0.83-0.33-0.871-0.59-3.032-2.362-3.032-2.491 0-0.34-0.070-0.34 8.405-0.95 1.621-0.11 4.283-0.31 5.904-0.44 3.511-0.28 4.562-0.27 5.212 0.020zM27.941 7.524c0.14 0.14 0.26 0.41 0.3 0.67 0.030 0.24 0.050 4.723 0.030 9.946-0.030 8.965-0.040 9.526-0.21 9.786-0.1 0.16-0.3 0.33-0.451 0.38-0.42 0.17-20.342 1.301-20.752 1.181-0.19-0.050-0.451-0.21-0.59-0.35l-0.24-0.26-0.030-9.666c-0.020-6.784 0-9.786 0.080-10.056 0.060-0.2 0.21-0.44 0.34-0.52 0.18-0.12 1.361-0.22 5.424-0.46 2.852-0.16 7.264-0.43 9.796-0.58 6.022-0.371 6.003-0.371 6.303-0.071z"></path>
<path d="M22.588 10.836c-1.081 0.070-2.041 0.17-2.151 0.23-0.33 0.17-0.53 0.451-0.57 0.771-0.030 0.33 0.070 0.37 1.15 0.501l0.47 0.060v4.273c0 2.541-0.040 4.223-0.090 4.173-0.050-0.060-1.471-2.221-3.162-4.803-1.691-2.591-3.092-4.723-3.112-4.743s-1.121 0.040-2.441 0.13c-1.621 0.11-2.512 0.21-2.692 0.31-0.29 0.15-0.611 0.68-0.611 1.031 0 0.21 0.38 0.32 1.181 0.32h0.42v12.287l-0.68 0.21c-0.53 0.16-0.711 0.26-0.8 0.46-0.16 0.34-0.15 0.651 0.010 0.651 0.060 0 1.191-0.070 2.491-0.15 2.572-0.15 2.861-0.22 3.132-0.75 0.080-0.16 0.15-0.33 0.15-0.38 0-0.040-0.35-0.16-0.771-0.26-0.43-0.1-0.861-0.2-0.95-0.22-0.17-0.050-0.18-0.36-0.18-4.663v-4.613l3.042 4.773c3.192 5.003 3.592 5.574 4.083 5.824 0.611 0.32 2.162 0.1 2.942-0.41l0.24-0.15 0.020-6.824 0.030-6.834 0.53-0.1c0.63-0.12 0.921-0.41 0.921-0.911 0-0.32-0.020-0.34-0.32-0.33-0.179 0.008-1.21 0.068-2.281 0.139z"></path>
</symbol>
<symbol id="numbers" viewBox="0 0 32 32">
<path d="M7.343 0h17.314c4.068 0 7.343 3.275 7.343 7.343v17.314c0 4.068-3.275 7.343-7.343 7.343h-17.314c-4.068 0-7.343-3.275-7.343-7.343v-17.314c0-4.068 3.275-7.343 7.343-7.343z"></path>
<path d="M10.629 15.771h4.686c0.11 0 0.2 0.090 0.2 0.2v0 8.057c0 0.11-0.090 0.2-0.2 0.2v0h-4.686c-0.11 0-0.2-0.090-0.2-0.2v0-8.057c0-0.11 0.090-0.2 0.2-0.2v0z"></path>
<path d="M4.686 20.571h4.787c0.083 0 0.149 0.061 0.149 0.137v3.383c0 0.076-0.067 0.137-0.149 0.137h-4.787c-0.083 0-0.149-0.061-0.149-0.137v-3.383c0-0.076 0.067-0.137 0.149-0.137z"></path>
<path d="M16.549 6.175h4.686c0.11 0 0.2 0.089 0.2 0.2v17.654c-0 0.11-0.090 0.2-0.2 0.2-0 0-0 0-0 0h-4.686c-0.11 0-0.2-0.089-0.2-0.2v-17.654c0-0.11 0.090-0.2 0.2-0.2 0 0 0 0 0 0v0z"></path>
<path d="M22.448 11.458h4.726c0.099 0 0.18 0.084 0.18 0.187v12.397c0 0.103-0.080 0.187-0.18 0.187h-4.726c-0.099 0-0.18-0.084-0.18-0.187v-12.397c0-0.103 0.080-0.187 0.18-0.187z"></path>
<path d="M4.823 25.157h22.271c0.252 0 0.457 0.166 0.457 0.372v0.114c0 0.205-0.205 0.372-0.457 0.372h-22.271c-0.252 0-0.457-0.166-0.457-0.372v-0.114c0-0.205 0.205-0.372 0.457-0.372z"></path>
</symbol>
<symbol id="onedrive-1" viewBox="0 0 32 32">
<path fill="#0364b8" style="fill: var(--color67, #0364b8)" d="M12.529 11.991v-0.001l6.312 3.781 3.761-1.583c0.711-0.315 1.541-0.499 2.413-0.499 0.003 0 0.006 0 0.009 0h-0c0.139 0 0.276 0.007 0.413 0.015-1.075-4.093-4.741-7.063-9.102-7.063-3.267 0-6.144 1.667-7.828 4.197l-0.022 0.034 0.096-0.003c0.003 0 0.006 0 0.010 0 1.458 0 2.819 0.417 3.97 1.139l-0.031-0.018z"></path>
<path fill="#0078d4" style="fill: var(--color68, #0078d4)" d="M12.53 11.99c-1.119-0.703-2.479-1.12-3.937-1.12-0.004 0-0.009 0-0.013 0h0.001l-0.096 0.003c-4.109 0.053-7.42 3.397-7.42 7.513 0 1.608 0.505 3.099 1.366 4.321l-0.016-0.024 16.425-6.913z"></path>
<path fill="#1490df" style="fill: var(--color69, #1490df)" d="M25.436 13.704c-0.123-0.009-0.266-0.015-0.411-0.015h-0.001c-0.001 0-0.003 0-0.005 0-0.873 0-1.704 0.184-2.454 0.515l0.039-0.015-3.762 1.582 11.56 6.923c0.46-0.838 0.731-1.836 0.731-2.897 0-3.228-2.504-5.871-5.676-6.092l-0.019-0.001z"></path>
<path fill="#28a8ea" style="fill: var(--color70, #28a8ea)" d="M25.067 19.499l-6.225-3.728-16.429 6.913c1.374 1.957 3.621 3.22 6.162 3.22 0.002 0 0.004 0 0.006 0h16.443c0.001 0 0.001 0 0.002 0 2.311 0 4.322-1.284 5.359-3.178l0.016-0.032z"></path>
</symbol>
<symbol id="pages-ios" viewBox="0 0 24 32">
<path fill="#000" style="fill: var(--color6, #000)" d="M5.62 7.651h13.174c3.095 0 5.588 2.492 5.588 5.588v13.174c0 3.096-2.492 5.588-5.587 5.588h-13.174c-3.095 0-5.588-2.492-5.588-5.588v-13.174c0-3.095 2.492-5.588 5.588-5.588z"></path>
<path fill="#fff" style="fill: var(--color20, #fff)" d="M6.367 26.077c0.394-0.263 0.732-0.493 0.751-0.512 0.031-0.029-0.009-0.078-0.309-0.378-0.189-0.189-0.362-0.345-0.383-0.345-0.039 0-0.97 1.379-1.019 1.51-0.046 0.122 0.048 0.237 0.175 0.215 0.038-0.007 0.391-0.227 0.785-0.49zM7.715 25.185c0.638-0.426 1.017-0.73 1.915-1.534 1.32-1.182 4.313-4.035 4.313-4.11 0-0.048-1.474-1.523-1.522-1.523-0.060 0-2.415 2.457-3.603 3.758-0.796 0.872-1.188 1.322-1.472 1.687-0.345 0.445-0.798 1.108-0.798 1.17 0 0.045 0.741 0.781 0.787 0.781 0.021 0 0.192-0.103 0.381-0.228zM15.55 19.816c0.066-0.067 0.081-0.099 0.081-0.182 0-0.055-0.012-0.142-0.027-0.193-0.037-0.124-0.001-0.238 0.133-0.42 0.142-0.193 0.288-0.35 1.311-1.41 1.366-1.416 2.188-2.293 2.565-2.742 0.198-0.236 0.285-0.433 0.284-0.644-0.001-0.166-0.004-0.177-0.14-0.435-0.052-0.1-0.035-0.197 0.060-0.338 0.349-0.515 0.366-0.994 0.046-1.341-0.283-0.307-0.761-0.335-1.205-0.070-0.144 0.086-0.733 0.597-1.433 1.243-1.543 1.425-4.637 4.475-4.637 4.572 0 0.045 1.478 1.518 1.523 1.518 0.020 0 0.653-0.618 1.405-1.373 1.416-1.42 2.077-2.102 2.888-2.978 0.699-0.755 0.705-0.76 0.77-0.767 0.049-0.005 0.061 0.005 0.067 0.058 0.010 0.085-0.014 0.124-0.218 0.37-0.392 0.47-1.087 1.208-2.618 2.776-0.511 0.523-0.985 1.026-1.054 1.118-0.16 0.211-0.302 0.494-0.34 0.671-0.070 0.335 0.112 0.647 0.378 0.648 0.059 0 0.1-0.020 0.161-0.080zM5.338 26.797c-0.166 0-0.3 0.148-0.3 0.331s0.133 0.33 0.3 0.33h18.953l0.020-0.154 0.027-0.172 0.019-0.164 0.009-0.171h-19.029z"></path>
</symbol>
<symbol id="photoshop-cc" viewBox="0 0 32 32">
<path fill="#000" style="fill: var(--color6, #000)" d="M1.333 1.733h29.333v28.533h-29.333v-28.533z"></path>
<path fill="#31c5f0" style="fill: var(--color71, #31c5f0)" d="M1.333 1.733h29.333v28.533h-29.333v-28.533zM0 31.6h32v-31.2h-32v31.2zM21.573 13.2c-1.053 0-1.413 0.533-1.413 0.973 0 0.48 0.24 0.813 1.653 1.547 2.093 1.013 2.747 1.987 2.747 3.413 0 2.133-1.627 3.28-3.827 3.28-1.16 0-2.16-0.24-2.733-0.573-0.093-0.040-0.107-0.107-0.107-0.213v-1.96c0-0.133 0.067-0.173 0.16-0.107 0.84 0.547 1.8 0.787 2.68 0.787 1.053 0 1.493-0.44 1.493-1.040 0-0.48-0.307-0.907-1.653-1.6-1.893-0.907-2.68-1.827-2.68-3.36 0-1.72 1.347-3.147 3.68-3.147 1.147 0 1.947 0.173 2.387 0.373 0.107 0.067 0.133 0.173 0.133 0.267v1.827c0 0.107-0.067 0.173-0.2 0.133-0.587-0.373-1.453-0.6-2.32-0.6zM10.107 14.787c0.307 0.027 0.547 0.027 1.080 0.027 1.56 0 3.027-0.547 3.027-2.667 0-1.693-1.053-2.547-2.827-2.547-0.533 0-1.040 0.027-1.28 0.040v5.147zM7.733 7.707c0-0.093 0.187-0.16 0.293-0.16 0.853-0.040 2.12-0.067 3.44-0.067 3.693 0 5.133 2.027 5.133 4.613 0 3.387-2.453 4.84-5.467 4.84-0.507 0-0.68-0.027-1.040-0.027v5.12c0 0.107-0.040 0.16-0.16 0.16h-2.040c-0.107 0-0.16-0.040-0.16-0.16v-14.32z"></path>
</symbol>
<symbol id="premiere-cc" viewBox="0 0 32 32">
<path fill="#000" style="fill: var(--color6, #000)" d="M1.333 1.733h29.333v28.533h-29.333v-28.533z"></path>
<path fill="#e579ff" style="fill: var(--color72, #e579ff)" d="M1.333 1.733h29.333v28.533h-29.333v-28.533zM0 31.6h32v-31.2h-32v31.2zM19.2 13.573c0-0.16 0-0.547-0.067-1.293 0-0.107 0.013-0.133 0.107-0.173 0.813-0.333 2.72-0.92 4.88-0.92 0.107 0 0.16 0.027 0.16 0.133v1.933c0 0.107-0.040 0.133-0.147 0.133-0.84-0.040-2.053 0.067-2.52 0.267v8.4c0 0.107-0.040 0.16-0.16 0.16h-2.093c-0.107 0-0.16-0.040-0.16-0.16v-8.48zM10.667 14.787c0.307 0.027 0.547 0.027 1.080 0.027 1.56 0 3.027-0.547 3.027-2.667 0-1.693-1.040-2.547-2.827-2.547-0.533 0-1.040 0.027-1.28 0.040v5.147zM8.307 7.707c0-0.093 0.027-0.16 0.133-0.16 0.853-0.040 2.107-0.067 3.427-0.067 3.693 0 5.307 2.027 5.307 4.627 0 3.387-2.453 4.84-5.467 4.84-0.507 0-0.68-0.027-1.040-0.027v5.12c0 0.107-0.040 0.16-0.16 0.16h-2.053c-0.107 0-0.16-0.040-0.16-0.16v-14.333h0.013z"></path>
</symbol>
<symbol id="salesforce-2" viewBox="0 0 32 32">
<path fill="#00a1e0" style="fill: var(--color73, #00a1e0)" d="M13.316 7.244c1.032-1.075 2.469-1.742 4.058-1.742 2.112 0 3.955 1.178 4.937 2.926 0.853-0.381 1.797-0.593 2.79-0.593 3.81 0 6.899 3.116 6.899 6.959s-3.089 6.959-6.899 6.959c-0.001 0-0.003 0-0.004 0-0.48 0-0.948-0.049-1.399-0.143l0.044 0.008c-0.864 1.542-2.511 2.583-4.402 2.583-0.791 0-1.54-0.183-2.206-0.508-0.876 2.061-2.917 3.506-5.296 3.506-2.477 0-4.589-1.568-5.399-3.766-0.354 0.075-0.721 0.114-1.098 0.114-2.95 0-5.341-2.416-5.341-5.397 0-1.997 1.074-3.742 2.671-4.675-0.329-0.756-0.511-1.591-0.511-2.468 0-3.428 2.783-6.207 6.215-6.207 2.015 0 3.806 0.958 4.942 2.443z"></path>
<path fill="#fff" style="fill: var(--color20, #fff)" d="M4.635 16.416c-0.020 0.052 0.007 0.063 0.014 0.073 0.060 0.044 0.121 0.075 0.183 0.11 0.326 0.173 0.635 0.224 0.957 0.224 0.656 0 1.064-0.349 1.064-0.911v-0.011c0-0.52-0.46-0.708-0.892-0.845l-0.056-0.018c-0.325-0.106-0.606-0.197-0.606-0.411v-0.011c0-0.183 0.164-0.318 0.418-0.318 0.283 0 0.618 0.094 0.834 0.213 0 0 0.063 0.041 0.087-0.021 0.013-0.033 0.122-0.327 0.134-0.359 0.012-0.035-0.010-0.060-0.032-0.074-0.247-0.15-0.588-0.253-0.94-0.253l-0.066 0c-0.601 0-1.020 0.363-1.020 0.883v0.011c0 0.548 0.463 0.726 0.896 0.85l0.070 0.021c0.316 0.097 0.588 0.181 0.588 0.403v0.011c0 0.203-0.177 0.355-0.462 0.355-0.111 0-0.464-0.002-0.846-0.243-0.046-0.027-0.073-0.046-0.109-0.068-0.019-0.012-0.066-0.032-0.086 0.030l-0.13 0.359zM14.244 16.416c-0.020 0.052 0.007 0.063 0.014 0.073 0.060 0.044 0.121 0.075 0.183 0.11 0.326 0.173 0.635 0.224 0.957 0.224 0.656 0 1.064-0.349 1.064-0.911v-0.011c0-0.52-0.46-0.708-0.892-0.845l-0.056-0.018c-0.325-0.106-0.606-0.197-0.606-0.411v-0.011c0-0.183 0.164-0.318 0.418-0.318 0.283 0 0.618 0.094 0.834 0.213 0 0 0.063 0.041 0.087-0.021 0.013-0.033 0.122-0.327 0.134-0.359 0.012-0.035-0.010-0.060-0.032-0.074-0.247-0.15-0.588-0.253-0.94-0.253l-0.066 0c-0.601 0-1.020 0.363-1.020 0.883v0.011c0 0.548 0.463 0.726 0.896 0.85l0.070 0.021c0.316 0.097 0.589 0.181 0.589 0.403v0.011c0 0.203-0.177 0.355-0.463 0.355-0.111 0-0.464-0.002-0.846-0.243-0.046-0.027-0.073-0.046-0.108-0.068-0.012-0.008-0.068-0.029-0.087 0.030l-0.129 0.359zM20.805 15.315c0 0.318-0.059 0.568-0.176 0.745-0.115 0.175-0.29 0.26-0.533 0.26s-0.418-0.085-0.531-0.26c-0.115-0.176-0.173-0.427-0.173-0.745s0.058-0.567 0.173-0.742c0.114-0.173 0.287-0.258 0.531-0.258s0.418 0.084 0.534 0.258c0.116 0.175 0.175 0.425 0.175 0.742zM21.353 14.726c-0.054-0.182-0.138-0.342-0.249-0.476s-0.253-0.242-0.421-0.32c-0.167-0.078-0.365-0.118-0.587-0.118s-0.42 0.040-0.588 0.118c-0.168 0.078-0.309 0.186-0.421 0.32s-0.195 0.294-0.249 0.476c-0.053 0.181-0.080 0.379-0.080 0.589s0.027 0.408 0.080 0.589c0.054 0.181 0.138 0.342 0.25 0.476s0.253 0.241 0.421 0.317c0.168 0.076 0.365 0.115 0.588 0.115s0.419-0.039 0.587-0.115c0.167-0.076 0.309-0.183 0.421-0.317s0.196-0.294 0.249-0.476c0.054-0.181 0.081-0.379 0.081-0.589s-0.027-0.408-0.081-0.589zM25.852 16.235c-0.018-0.053-0.070-0.033-0.070-0.033-0.080 0.031-0.165 0.059-0.255 0.073-0.092 0.014-0.192 0.021-0.3 0.021-0.265 0-0.476-0.079-0.627-0.235s-0.236-0.408-0.235-0.749c0.001-0.31 0.076-0.544 0.21-0.722s0.337-0.268 0.608-0.268c0.226 0 0.398 0.026 0.579 0.083 0 0 0.043 0.019 0.064-0.038 0.048-0.133 0.083-0.228 0.134-0.375 0.015-0.041-0.021-0.059-0.034-0.064-0.071-0.028-0.239-0.073-0.366-0.092-0.119-0.018-0.257-0.028-0.411-0.028-0.23 0-0.435 0.039-0.611 0.118s-0.324 0.185-0.441 0.32c-0.118 0.134-0.207 0.294-0.267 0.476s-0.089 0.38-0.089 0.59c0 0.454 0.123 0.822 0.365 1.091s0.607 0.407 1.082 0.407c0.281 0 0.569-0.057 0.776-0.139 0 0 0.040-0.019 0.022-0.065l-0.134-0.372zM26.811 15.011c0.026-0.176 0.075-0.323 0.15-0.438 0.114-0.174 0.287-0.269 0.53-0.269s0.404 0.096 0.52 0.269c0.077 0.114 0.11 0.268 0.123 0.438h-1.323zM28.655 14.623c-0.046-0.175-0.162-0.353-0.238-0.434-0.119-0.129-0.236-0.218-0.352-0.268-0.151-0.065-0.333-0.108-0.532-0.108-0.232 0-0.442 0.039-0.612 0.119s-0.314 0.19-0.427 0.326c-0.113 0.136-0.197 0.298-0.251 0.481s-0.082 0.382-0.082 0.592c0 0.214 0.028 0.413 0.084 0.592 0.057 0.181 0.147 0.34 0.269 0.471s0.279 0.237 0.466 0.309c0.186 0.072 0.413 0.109 0.673 0.109 0.536-0.002 0.818-0.121 0.934-0.186 0.021-0.011 0.040-0.031 0.015-0.089l-0.121-0.34c-0.018-0.051-0.070-0.032-0.070-0.032-0.133 0.049-0.321 0.138-0.761 0.137-0.288-0-0.501-0.085-0.635-0.218-0.137-0.136-0.204-0.335-0.216-0.617l1.855 0.002s0.049-0.001 0.054-0.048c0.002-0.020 0.064-0.381-0.055-0.799zM11.956 15.011c0.026-0.176 0.075-0.323 0.15-0.438 0.114-0.174 0.287-0.269 0.53-0.269s0.404 0.096 0.52 0.269c0.076 0.114 0.109 0.268 0.123 0.438h-1.323zM13.801 14.623c-0.046-0.175-0.161-0.353-0.237-0.434-0.119-0.129-0.236-0.218-0.352-0.268-0.151-0.065-0.333-0.108-0.531-0.108-0.231 0-0.442 0.039-0.612 0.119s-0.315 0.19-0.427 0.326c-0.113 0.136-0.197 0.298-0.251 0.481s-0.082 0.382-0.082 0.592c0 0.214 0.028 0.413 0.084 0.592 0.057 0.181 0.147 0.34 0.269 0.471s0.279 0.237 0.466 0.309c0.186 0.072 0.413 0.109 0.673 0.109 0.536-0.002 0.818-0.121 0.934-0.186 0.021-0.011 0.040-0.031 0.015-0.089l-0.121-0.34c-0.019-0.051-0.070-0.032-0.070-0.032-0.133 0.049-0.321 0.138-0.762 0.137-0.287-0-0.501-0.085-0.634-0.218-0.137-0.136-0.204-0.335-0.216-0.617l1.855 0.002s0.049-0.001 0.054-0.048c0.002-0.020 0.064-0.381-0.056-0.799zM7.947 16.225c-0.072-0.058-0.082-0.073-0.107-0.11-0.037-0.057-0.055-0.138-0.055-0.241 0-0.163 0.054-0.28 0.165-0.359-0.001 0 0.16-0.139 0.538-0.134 0.266 0.004 0.503 0.043 0.503 0.043v0.843h0s-0.236 0.051-0.501 0.067c-0.377 0.023-0.545-0.109-0.544-0.108zM8.685 14.922c-0.075-0.005-0.173-0.009-0.289-0.009-0.159 0-0.313 0.020-0.457 0.059s-0.275 0.099-0.387 0.18c-0.112 0.080-0.202 0.183-0.267 0.301l-0.002 0.005c-0.066 0.122-0.099 0.266-0.099 0.428 0 0.164 0.028 0.307 0.085 0.424s0.138 0.215 0.242 0.29c0.103 0.075 0.23 0.13 0.378 0.164 0.145 0.033 0.31 0.050 0.491 0.050 0.19 0 0.38-0.015 0.563-0.047 0.182-0.031 0.405-0.076 0.467-0.090 0.076-0.018 0.12-0.029 0.163-0.041l-0.033 0.008c0.046-0.011 0.042-0.061 0.042-0.061l-0.001-1.696c0-0.372-0.099-0.648-0.295-0.819s-0.481-0.257-0.852-0.257c-0.139 0-0.363 0.019-0.497 0.046 0 0-0.405 0.078-0.572 0.209 0 0-0.036 0.023-0.016 0.074l0.131 0.353c0.016 0.046 0.061 0.030 0.061 0.030s0.014-0.005 0.031-0.015c0.357-0.194 0.808-0.188 0.808-0.188 0.201 0 0.355 0.040 0.459 0.12 0.101 0.078 0.153 0.195 0.153 0.442v0.078c-0.16-0.023-0.306-0.036-0.306-0.036zM23.645 13.966c0.014-0.042-0.015-0.062-0.028-0.067-0.031-0.012-0.189-0.046-0.311-0.053-0.233-0.014-0.362 0.025-0.478 0.077s-0.242 0.136-0.314 0.231v-0.226c0-0.031-0.022-0.057-0.053-0.057h-0.475c-0.031 0-0.053 0.025-0.053 0.057v2.766c0 0.031 0.026 0.057 0.056 0.057h0.487c0.031-0 0.056-0.025 0.056-0.056 0-0 0-0 0-0v0-1.382c0-0.186 0.021-0.371 0.062-0.487 0.040-0.115 0.095-0.207 0.162-0.273s0.145-0.112 0.229-0.138c0.086-0.026 0.181-0.035 0.249-0.035 0.097 0 0.204 0.025 0.204 0.025 0.036 0.004 0.056-0.018 0.067-0.050 0.032-0.085 0.122-0.339 0.14-0.389z"></path>
<path fill="#fff" style="fill: var(--color20, #fff)" d="M19.071 12.684c-0.059-0.018-0.113-0.031-0.183-0.044s-0.156-0.019-0.252-0.019c-0.336 0-0.6 0.095-0.785 0.282s-0.31 0.469-0.373 0.841l-0.023 0.125h-0.421s-0.051-0.002-0.062 0.054l-0.069 0.386c-0.005 0.037 0.011 0.060 0.060 0.060h0.41l-0.416 2.321c-0.032 0.187-0.070 0.341-0.111 0.457-0.041 0.115-0.080 0.201-0.129 0.264-0.047 0.060-0.092 0.105-0.17 0.131-0.064 0.021-0.138 0.031-0.218 0.031-0.045 0-0.104-0.007-0.149-0.016s-0.067-0.018-0.1-0.032c0 0-0.048-0.018-0.067 0.030-0.015 0.040-0.124 0.34-0.138 0.377s0.005 0.066 0.029 0.074c0.055 0.019 0.095 0.032 0.17 0.050 0.103 0.024 0.19 0.026 0.272 0.026 0.17 0 0.326-0.024 0.455-0.071s0.242-0.129 0.343-0.239c0.108-0.119 0.176-0.244 0.241-0.415 0.064-0.169 0.119-0.378 0.163-0.623l0.418-2.364h0.611s0.051 0.002 0.062-0.054l0.069-0.386c0.005-0.037-0.011-0.060-0.061-0.060h-0.593c0.003-0.013 0.030-0.222 0.098-0.418 0.029-0.083 0.084-0.151 0.13-0.198s0.098-0.078 0.155-0.097c0.059-0.019 0.126-0.028 0.199-0.028 0.056 0 0.111 0.006 0.152 0.015 0.057 0.012 0.080 0.019 0.095 0.023 0.061 0.018 0.069 0 0.081-0.029l0.142-0.389c0.015-0.042-0.021-0.060-0.034-0.065zM10.785 16.695c0 0.031-0.022 0.056-0.053 0.056h-0.492c-0.031 0-0.053-0.025-0.053-0.056v-3.959c0-0.031 0.022-0.056 0.053-0.056h0.492c0.031 0 0.053 0.025 0.053 0.056v3.959z"></path>
</symbol>
<symbol id="sketch-2" viewBox="0 0 32 32">
<path fill="#ea6c00" style="fill: var(--color74, #ea6c00)" d="M6.501 11.925l9.465 18.526-15.909-18.526h6.444z"></path>
<path fill="#ea6c00" style="fill: var(--color74, #ea6c00)" d="M25.435 11.925l-9.465 18.526 15.909-18.526h-6.444z"></path>
<path fill="#fdad00" style="fill: var(--color75, #fdad00)" d="M6.501 11.925h18.931l-9.465 18.526-9.465-18.526z"></path>
<path fill="#fdd231" style="fill: var(--color76, #fdd231)" d="M15.966 1.657l-8.967 0.948-0.498 9.319 9.465-10.267z"></path>
<path fill="#fdd231" style="fill: var(--color76, #fdd231)" d="M15.966 1.657l8.967 0.948 0.498 9.319-9.465-10.267z"></path>
<path fill="#fdad00" style="fill: var(--color75, #fdad00)" d="M31.879 11.925l-6.942-9.319 0.498 9.319h6.444z"></path>
<path fill="#fdad00" style="fill: var(--color75, #fdad00)" d="M0.057 11.925l6.942-9.319-0.498 9.319h-6.444z"></path>
<path fill="#feeeb7" style="fill: var(--color77, #feeeb7)" d="M15.966 1.657l-9.465 10.267h18.931l-9.465-10.267z"></path>
</symbol>
<symbol id="skype-1" viewBox="0 0 32 32">
<path fill="#28a8ea" style="fill: var(--color70, #28a8ea)" d="M18.194 10.24c0 4.393-3.561 7.954-7.954 7.954s-7.954-3.561-7.954-7.954c0-4.393 3.561-7.954 7.954-7.954s7.954 3.561 7.954 7.954z"></path>
<path fill="#28a8ea" style="fill: var(--color70, #28a8ea)" d="M29.714 21.76c0 4.393-3.561 7.954-7.954 7.954s-7.954-3.561-7.954-7.954c0-4.393 3.561-7.954 7.954-7.954s7.954 3.561 7.954 7.954z"></path>
<path fill="#28a8ea" style="fill: var(--color70, #28a8ea)" d="M29.165 16c0 7.271-5.894 13.165-13.165 13.165s-13.165-5.894-13.165-13.165c0-7.271 5.894-13.165 13.165-13.165s13.165 5.894 13.165 13.165z"></path>
<path fill="#fff" style="fill: var(--color20, #fff)" d="M12.586 15.75c-0.516-0.343-0.937-0.787-1.244-1.306l-0.010-0.019c-0.272-0.499-0.432-1.093-0.432-1.724 0-0.037 0.001-0.074 0.002-0.111l-0 0.005c-0.001-0.028-0.001-0.060-0.001-0.093 0-0.811 0.293-1.553 0.78-2.126l-0.004 0.005c0.533-0.608 1.214-1.073 1.987-1.34l0.033-0.010c0.773-0.282 1.666-0.445 2.597-0.445 0.017 0 0.033 0 0.050 0h-0.003c0.029-0 0.063-0 0.098-0 0.587 0 1.162 0.049 1.723 0.144l-0.060-0.008c0.461 0.072 0.872 0.182 1.264 0.329l-0.044-0.014c0.376 0.13 0.697 0.339 0.954 0.609l0.001 0.001c0.184 0.214 0.295 0.495 0.295 0.801 0 0.007-0 0.013-0 0.020v-0.001c0.001 0.016 0.001 0.035 0.001 0.053 0 0.309-0.118 0.591-0.312 0.802l0.001-0.001c-0.189 0.2-0.456 0.325-0.752 0.325-0.010 0-0.020-0-0.030-0l0.001 0c-0.211-0.002-0.41-0.049-0.588-0.134l0.009 0.004c-0.376-0.175-0.834-0.346-1.305-0.486l-0.074-0.019c-0.382-0.105-0.821-0.165-1.274-0.165-0.019 0-0.039 0-0.058 0l0.003-0c-0.034-0.001-0.073-0.002-0.113-0.002-0.573 0-1.108 0.159-1.565 0.434l0.014-0.008c-0.402 0.247-0.666 0.685-0.666 1.184 0 0.021 0 0.043 0.001 0.064l-0-0.003c-0 0.004-0 0.008-0 0.013 0 0.334 0.131 0.638 0.345 0.863l-0-0.001c0.261 0.27 0.569 0.493 0.911 0.657l0.019 0.008q0.585 0.29 1.744 0.77c0.098 0.031 0.181 0.065 0.261 0.105l-0.010-0.005c0.83 0.331 1.541 0.704 2.207 1.139l-0.048-0.029c0.541 0.356 0.986 0.813 1.319 1.346l0.011 0.018c0.303 0.516 0.481 1.136 0.481 1.798 0 0.034-0 0.068-0.001 0.102l0-0.005c0.001 0.039 0.002 0.084 0.002 0.13 0 0.805-0.25 1.552-0.675 2.167l0.008-0.013c-0.465 0.627-1.098 1.105-1.832 1.371l-0.027 0.009c-0.784 0.289-1.69 0.456-2.635 0.456-0.056 0-0.112-0.001-0.167-0.002l0.008 0c-0.092 0.003-0.201 0.005-0.31 0.005-1.265 0-2.468-0.267-3.555-0.747l0.056 0.022c-0.315-0.142-0.578-0.349-0.781-0.606l-0.003-0.004c-0.16-0.221-0.255-0.498-0.255-0.797 0-0.012 0-0.023 0-0.035l-0 0.002c-0.001-0.018-0.002-0.039-0.002-0.060 0-0.309 0.129-0.587 0.336-0.785l0-0c0.216-0.19 0.502-0.306 0.814-0.306 0.018 0 0.036 0 0.054 0.001l-0.003-0c0.37 0.005 0.717 0.101 1.021 0.266l-0.012-0.006q0.58 0.29 0.915 0.435c0.222 0.096 0.486 0.182 0.759 0.244l0.031 0.006c0.292 0.067 0.627 0.106 0.971 0.106 0.016 0 0.031-0 0.047-0l-0.002 0c0.057 0.004 0.124 0.007 0.191 0.007 0.564 0 1.089-0.173 1.522-0.468l-0.009 0.006c0.352-0.277 0.576-0.704 0.576-1.182 0-0.022-0-0.044-0.001-0.065l0 0.003c0-0.001 0-0.002 0-0.002 0-0.351-0.137-0.671-0.36-0.908l0.001 0.001c-0.3-0.309-0.65-0.566-1.038-0.76l-0.022-0.010q-0.7-0.37-1.969-0.9c-0.831-0.334-1.543-0.712-2.21-1.153l0.045 0.028z"></path>
<path fill="#000" style="fill: var(--color6, #000)" opacity="0.1" d="M12.725 2.687c-0.292-0.103-0.649-0.197-1.016-0.267l-0.048-0.008c-4.404 1.444-7.805 4.845-9.22 9.148l-0.029 0.101c0.077 0.415 0.172 0.772 0.291 1.119l-0.016-0.055c0.111 0.357 0.236 0.661 0.383 0.95l-0.016-0.034c1.002-5.395 5.192-9.585 10.506-10.575l0.081-0.013c-0.256-0.132-0.559-0.256-0.873-0.356l-0.043-0.012z"></path>
<path fill="#000" style="fill: var(--color6, #000)" opacity="0.1" d="M12.725 2.687c-4.958 1.253-8.786 5.081-10.018 9.944l-0.020 0.095c0.111 0.357 0.236 0.661 0.383 0.95l-0.016-0.034c1.002-5.395 5.192-9.585 10.506-10.575l0.081-0.013c-0.256-0.132-0.559-0.256-0.873-0.356l-0.043-0.012zM29.313 19.275c-0.111-0.357-0.236-0.66-0.383-0.95l0.016 0.034c-1.002 5.395-5.192 9.585-10.506 10.575l-0.081 0.013c0.256 0.132 0.559 0.256 0.873 0.356l0.043 0.012c0.292 0.103 0.649 0.198 1.016 0.267l0.048 0.008c4.404-1.444 7.805-4.845 9.22-9.148l0.029-0.101c-0.077-0.415-0.172-0.772-0.291-1.119l0.016 0.055z"></path>
<path fill="#000" style="fill: var(--color6, #000)" opacity="0.1" d="M28.946 18.359c-1.002 5.395-5.192 9.585-10.506 10.575l-0.081 0.013c0.256 0.132 0.559 0.256 0.873 0.356l0.043 0.012c4.958-1.253 8.786-5.081 10.018-9.944l0.020-0.095c-0.111-0.357-0.236-0.66-0.383-0.95l0.016 0.034z"></path>
</symbol>
<symbol id="slack" viewBox="0 0 32 32">
<path fill="#443642" style="fill: var(--color78, #443642)" d="M11.37 14.968c0-0.952 0.694-1.617 1.955-1.617 0.77 0 1.399 0.246 1.74 0.486 0.049 0.034 0.136 0.118 0.084 0.273-0.067 0.167-0.19 0.418-0.278 0.581-0.051 0.095-0.182 0.083-0.249 0.049-0.243-0.123-0.642-0.331-1.008-0.37-0.070-0.008-0.15-0.013-0.232-0.013-0.017 0-0.033 0-0.050 0.001l0.002-0c-0.322 0.007-0.592 0.119-0.687 0.365-0.018 0.043-0.029 0.093-0.031 0.145l-0 0.001c-0.009 0.324 0.442 0.441 0.989 0.535 1.016 0.174 1.785 0.472 1.785 1.518 0 0.888-0.706 1.691-2.089 1.666-0.912-0.018-1.559-0.327-1.905-0.625-0.012-0.010-0.144-0.145-0.073-0.306 0.081-0.208 0.218-0.447 0.325-0.573 0.060-0.081 0.217-0.094 0.299-0.044 0.286 0.178 0.756 0.462 1.298 0.481 0.043 0.001 0.085 0.002 0.127 0.001 0.488-0.012 0.783-0.197 0.776-0.508-0.005-0.274-0.392-0.435-1.007-0.551-0.982-0.185-1.772-0.509-1.772-1.496zM20.29 16.323c-0.692 0.009-1.327 0.198-1.345 0.739-0 0.429 0.348 0.64 0.837 0.613 0.469-0.045 0.827-0.249 0.984-0.518 0.058-0.1 0.067-0.474 0.064-0.634-0.001-0.034-0.068-0.098-0.098-0.111-0.147-0.062-0.256-0.081-0.442-0.089zM17.986 14.143c0.324-0.29 0.966-0.741 1.989-0.717 1.35 0.028 2.063 0.661 2.13 2.175 0.027 0.624-0.018 2.366-0.029 2.8-0.002 0.062-0.023 0.105-0.107 0.107-0.222 0.009-0.736 0.005-0.972 0.002-0.119-0.006-0.133-0.065-0.134-0.127-0.001-0.040-0.005-0.16-0.007-0.258-0.001-0.052-0.050-0.050-0.063-0.037-0.317 0.338-0.835 0.501-1.387 0.501-0.838 0-1.674-0.493-1.671-1.47 0.003-1 0.712-1.494 1.491-1.61 0.499-0.074 1.061-0.008 1.487 0.161 0.027 0.011 0.083-0.005 0.083-0.043 0.002-0.127-0.004-0.37-0.029-0.485-0.063-0.293-0.307-0.529-0.821-0.593-0.106-0.013-0.212-0.017-0.319-0.009-0.409 0.032-0.9 0.351-1.104 0.47-0.048 0.028-0.123 0.008-0.147-0.024-0.119-0.154-0.418-0.603-0.441-0.674s0.010-0.132 0.051-0.169l0 0zM22.549 16.005c-0.008-1.395 0.964-2.572 2.542-2.582 0.985-0.006 1.7 0.44 1.826 0.651 0.026 0.049 0.012 0.091-0.005 0.141-0.083 0.176-0.294 0.516-0.444 0.709-0.064 0.082-0.133 0.012-0.214-0.042-0.224-0.149-0.649-0.331-1.067-0.331-0.759 0-1.324 0.521-1.318 1.478 0.006 0.919 0.547 1.424 1.321 1.442 0.404 0.010 0.796-0.222 1.007-0.413 0.066-0.058 0.135-0.029 0.21 0.030 0.148 0.152 0.361 0.386 0.479 0.547 0.077 0.090 0.019 0.177-0.008 0.212-0.32 0.405-0.939 0.746-1.757 0.751-1.713 0.012-2.563-1.193-2.571-2.593zM30.729 18.535c0.080-0.006 0.939-0.125 1.202-0.185 0.065-0.015 0.089-0.070 0.052-0.124-0.147-0.221-0.534-0.847-0.939-1.408-0.373-0.516-0.765-0.969-0.892-1.144-0.031-0.042-0.029-0.084 0.004-0.117 0.242-0.236 1.252-1.227 1.632-1.636 0.147-0.159 0.059-0.228-0.066-0.265-0.241-0.072-0.632-0.162-0.854-0.208-0.094-0.020-0.206-0.013-0.288 0.071-0.38 0.354-1.539 1.518-1.885 1.866-0.062 0.063-0.099 0.049-0.099-0.041-0.003-0.671-0.016-3.542-0.040-4.014-0.002-0.062-0.077-0.11-0.119-0.112-0.218-0.011-0.767-0.015-0.984-0.002-0.061 0.007-0.119 0.069-0.124 0.121-0.050 0.755 0.021 6.299 0.051 7.074 0.002 0.056 0.044 0.1 0.097 0.103 0.216 0.013 0.751 0.012 1 0.007 0.123 0 0.138-0.086 0.138-0.086l0.018-1.488s0.013-0.066 0.033-0.088c0.088-0.095 0.331-0.356 0.435-0.457 0.025-0.024 0.064-0.022 0.090 0.012 0.123 0.166 0.475 0.707 0.801 1.19 0.3 0.444 0.579 0.838 0.599 0.865 0.045 0.064 0.098 0.067 0.137 0.066v-0zM16.132 18.529c0.075 0.003 0.648 0.002 0.902 0.002 0.085 0.002 0.13-0.063 0.133-0.12 0.054-1.087 0.031-6.264-0.003-7.081-0.003-0.071-0.033-0.097-0.081-0.104-0.218-0.029-0.837-0.022-1.035 0.030-0.039 0.010-0.062 0.040-0.063 0.077-0.049 2.107-0.016 6.965-0.006 7.057s0.058 0.137 0.154 0.14h-0z"></path>
<path fill="#70cadb" style="fill: var(--color79, #70cadb)" d="M0.805 16.367c-0.353 0.003-0.652-0.208-0.762-0.536-0.002-0.006-0.006-0.019-0.010-0.031l-0.002-0.006c-0.12-0.42 0.113-0.86 0.53-1.001l6.696-2.243c0.073-0.022 0.157-0.035 0.244-0.036h0c0.362-0.003 0.669 0.212 0.782 0.547l0.010 0.032c0.125 0.438-0.186 0.829-0.559 0.954-0 0-0.068 0.023-6.659 2.273-0.081 0.029-0.174 0.045-0.272 0.046h-0z"></path>
<path fill="#e01765" style="fill: var(--color80, #e01765)" d="M1.921 19.661c-0.356 0.003-0.656-0.205-0.765-0.528-0.002-0.006-0.006-0.019-0.010-0.031l-0.002-0.006c-0.122-0.425 0.111-0.87 0.53-1.011l6.696-2.264c0.087-0.029 0.176-0.044 0.266-0.045 0.357-0.003 0.67 0.215 0.781 0.542l0.010 0.034c0.065 0.226 0.026 0.48-0.102 0.681-0.096 0.149-0.398 0.28-0.398 0.28l-6.722 2.298c-0.085 0.030-0.182 0.047-0.284 0.049h-0.001v-0z"></path>
<path fill="#e8a723" style="fill: var(--color81, #e8a723)" d="M7.495 19.675c-0.002 0-0.005 0-0.008 0-0.36 0-0.667-0.232-0.778-0.555l-0.002-0.006-2.235-6.638-0.011-0.037c-0.121-0.423 0.112-0.865 0.529-1.006 0.083-0.028 0.17-0.043 0.257-0.043 0.129-0.001 0.254 0.028 0.372 0.086 0.195 0.098 0.343 0.265 0.413 0.469l0.002 0.006 2.241 6.659c0.126 0.439-0.107 0.881-0.524 1.022-0.076 0.026-0.164 0.042-0.255 0.043h-0z"></path>
<path fill="#3eb890" style="fill: var(--color82, #3eb890)" d="M4.174 20.793c-0.002 0-0.005 0-0.008 0-0.361 0-0.667-0.232-0.778-0.555l-0.002-0.006-2.234-6.638c-0.027-0.079-0.043-0.169-0.043-0.263 0-0.36 0.232-0.667 0.555-0.778l0.006-0.002c0.076-0.026 0.164-0.042 0.256-0.043h0c0.002-0 0.005-0 0.008-0 0.36 0 0.667 0.232 0.778 0.555l0.002 0.006 2.234 6.638c0.027 0.079 0.043 0.169 0.043 0.263 0 0.361-0.232 0.667-0.555 0.778l-0.006 0.002c-0.076 0.026-0.164 0.042-0.255 0.043h-0z"></path>
<path fill="#cc2027" style="fill: var(--color83, #cc2027)" d="M6.394 18.18l1.558-0.533-0.509-1.513-1.56 0.527 0.511 1.518z"></path>
<path fill="#361238" style="fill: var(--color84, #361238)" d="M3.077 19.314l1.558-0.533-0.513-1.524-1.56 0.527 0.515 1.53z"></path>
<path fill="#65863a" style="fill: var(--color85, #65863a)" d="M5.284 14.885l1.558-0.532-0.503-1.495-1.561 0.523 0.506 1.504z"></path>
<path fill="#1a937d" style="fill: var(--color86, #1a937d)" d="M1.967 16.017l1.558-0.532-0.51-1.514-1.561 0.523 0.512 1.523z"></path>
</symbol>
<symbol id="stackoverflow" viewBox="0 0 32 32">
<path fill="#ff810f" style="fill: var(--color87, #ff810f)" d="M20.057 27.728l-12.741 0.007-0.001-2.699 12.74-0.007 0.002 2.699zM28.667 12.447l-2.18-12.447-2.68 0.461 2.179 12.447 2.681-0.46zM20.364 21.57l-12.687-1.159-0.25 2.687 12.687 1.158 0.25-2.687zM21.201 18.049l-12.303-3.28-0.707 2.607 12.304 3.279 0.706-2.606zM22.807 14.962l-10.975-6.418-1.383 2.324 10.975 6.418 1.382-2.323zM25.498 13.073l-7.179-10.438-2.248 1.52 7.179 10.437 2.248-1.52z"></path>
<path fill="#bebcbc" style="fill: var(--color88, #bebcbc)" d="M22.221 18.852v11.031h-16.711v-11.031h-2.177v13.148h21.053v-13.148z"></path>
</symbol>
<symbol id="teamwork-2" viewBox="0 0 26 32">
<path fill="#1b1c39" style="fill: var(--color89, #1b1c39)" d="M5.088 18.31c0 1.867-0.030 3.737 0.010 5.601 0.038 1.772 1.078 2.447 2.728 1.839 1.957-0.724 3.573 0.578 3.321 2.682-0.108 0.905-0.527 1.583-1.375 2.011-2.329 1.174-4.757 1.347-7.216 0.62-2.288-0.677-3.174-2.515-3.493-4.706-0.078-0.519-0.122-1.119-0.122-1.728 0-0.009 0-0.017 0-0.026v0.001q-0.012-10.401 0-20.804c0-2.313 1.91-3.8 3.993-3.149 1.308 0.409 2.103 1.547 2.152 3.125 0.024 0.771 0.047 1.55-0.009 2.319-0.043 0.593 0.181 0.703 0.718 0.683 1.119-0.042 2.24-0.024 3.36-0.009 1.611 0.022 2.669 1.082 2.673 2.654 0.004 1.62-0.998 2.604-2.677 2.617-1.093 0.009-2.188 0.033-3.279-0.011-0.593-0.024-0.819 0.098-0.8 0.761 0.050 1.841 0.016 3.68 0.017 5.518z"></path>
<path fill="#fc21ae" style="fill: var(--color90, #fc21ae)" d="M22.144 31.471c-2.969-0.004-5.397-2.456-5.364-5.419 0.031-2.983 2.445-5.345 5.449-5.333 2.931 0.012 5.323 2.432 5.32 5.378-0.001 2.968-2.408 5.374-5.377 5.374-0.010 0-0.020-0-0.031-0h0.002z"></path>
</symbol>
<symbol id="telegram-1" viewBox="0 0 32 32">
<path fill="#34aadf" style="fill: var(--color91, #34aadf)" d="M16 32c8.837 0 16-7.163 16-16s-7.163-16-16-16-16 7.163-16 16 7.163 16 16 16z"></path>
<path fill="#fff" style="fill: var(--color20, #fff)" d="M6.659 15.861s8-3.283 10.775-4.439c1.064-0.462 4.671-1.942 4.671-1.942s1.665-0.647 1.526 0.925c-0.046 0.647-0.416 2.913-0.786 5.364-0.555 3.468-1.156 7.26-1.156 7.26s-0.092 1.064-0.879 1.249-2.081-0.647-2.312-0.832c-0.185-0.139-3.468-2.22-4.671-3.237-0.324-0.277-0.694-0.832 0.046-1.48 1.665-1.526 3.653-3.422 4.856-4.624 0.555-0.555 1.11-1.85-1.202-0.277-3.283 2.266-6.52 4.393-6.52 4.393s-0.74 0.462-2.127 0.046c-1.387-0.416-3.006-0.971-3.006-0.971s-1.11-0.694 0.786-1.434z"></path>
</symbol>
<symbol id="terminal" viewBox="0 0 32 32">
<path d="M0 2v28h32v-28h-32zM6 24l-2-2 6-6-6-6 2-2 8 8-8 8z"></path>
</symbol>
<symbol id="trello" viewBox="0 0 32 32">
<path fill="#007ac2" style="fill: var(--color92, #007ac2)" d="M4 6v0c0-1.105 0.895-2 2-2h6c1.105 0 2 0.895 2 2v18c0 1.105-0.895 2-2 2h-6c-1.105 0-2-0.895-2-2v-18zM18 6v0c0-1.105 0.895-2 2-2h6c1.105 0 2 0.895 2 2v10c0 1.105-0.895 2-2 2h-6c-1.105 0-2-0.895-2-2v-10zM4 0c-2.209 0-4 1.792-4 4v24c0 2.209 1.792 4 4 4h24c2.209 0 4-1.792 4-4v-24c0-2.209-1.792-4-4-4h-24z"></path>
</symbol>
<symbol id="unity-69" viewBox="0 0 31 32">
<path d="M20.301 15.968l5.586-9.646 2.699 9.646-2.699 9.643-5.586-9.643zM17.578 17.534l5.587 9.644-9.73-2.493-7.029-7.151h11.172zM23.164 4.755l-5.586 9.646h-11.172l7.029-7.152 9.729-2.494zM31.138 12.685l-3.408-12.678-12.72 3.398-1.883 3.31-3.821-0.027-9.31 9.281 9.31 9.279 3.819-0.028 1.886 3.31 12.718 3.397 3.408-12.676-1.935-3.283 1.935-3.283z"></path>
</symbol>
<symbol id="visual-studio-2013" viewBox="0 0 31 32">
<path fill="#68217a" style="fill: var(--color93, #68217a); stroke: var(--color20, #fff)" stroke="#fff" stroke-linejoin="miter" stroke-linecap="butt" stroke-miterlimit="4" stroke-width="0.4266" d="M29.927 3.967l-6.885-2.76-12.017 11.703-7.237-5.509-2.752 1.384-0.003 14.446 2.739 1.374 7.231-5.504 12.047 11.692 6.879-2.749-0.003-24.077z"></path>
<path fill="#fff" style="fill: var(--color20, #fff)" d="M22.357 10.844l-6.876 5.141 6.879 5.181-0.003-10.321zM4.472 12.916l0.004 6.183 3.435-3.112-3.439-3.071z"></path>
</symbol>
<symbol id="visual-studio-code" viewBox="0 0 32 32">
<path fill="#0179cb" style="fill: var(--color94, #0179cb)" d="M11.336 19.587l-7.894 6.152-3.444-1.715v-16.034l3.43-1.729 7.84 6.166 12.413-12.427 8.167 3.253v25.439l-8.126 3.308-12.386-12.413zM23.437 21.751v-11.502l-7.432 5.758 7.432 5.744zM3.714 19.682l3.906-3.553-3.906-3.893v7.445z"></path>
</symbol>
<symbol id="zendesk-1" viewBox="0 0 32 32">
<path d="M15.313 8.137v9.947h-8.238zM15.313 4.568c0 2.273-1.841 4.115-4.115 4.115s-4.123-1.841-4.123-4.115h8.238zM16.67 18.084c0-2.273 1.841-4.115 4.115-4.115s4.115 1.841 4.115 4.115h-8.229zM16.67 14.515v-9.947h8.238zM21.278 26.586c0.423 0.009 0.837-0.15 1.145-0.441l0.564 0.608c-0.37 0.388-0.89 0.67-1.7 0.67-1.383 0-2.273-0.916-2.273-2.159-0.026-1.172 0.907-2.132 2.070-2.159h0.070c1.374 0 2.15 1.040 2.079 2.493h-3.233c0.115 0.608 0.537 0.996 1.278 0.987zM22.264 24.921c-0.088-0.564-0.423-0.978-1.093-0.978-0.626 0-1.057 0.352-1.172 0.978h2.264zM0 26.542l2.493-2.537h-2.432v-0.793h3.586v0.811l-2.493 2.537h2.529v0.793h-3.683zM6.485 26.586c0.423 0.009 0.837-0.15 1.137-0.441l0.564 0.608c-0.37 0.388-0.89 0.67-1.7 0.67-1.383 0-2.273-0.916-2.273-2.159-0.026-1.172 0.907-2.132 2.071-2.159h0.071c1.374 0 2.15 1.040 2.079 2.493h-3.225c0.115 0.608 0.537 0.996 1.278 0.987zM7.471 24.921c-0.088-0.564-0.423-0.978-1.093-0.978-0.626 0-1.057 0.352-1.172 0.978h2.264zM13.833 25.273c0-1.322 0.987-2.15 2.079-2.15 0.529-0.009 1.031 0.22 1.383 0.617v-2.441h0.881v6.044h-0.881v-0.573c-0.344 0.414-0.855 0.661-1.392 0.652-1.057 0-2.071-0.837-2.071-2.15zM17.339 25.264c-0.018-0.722-0.626-1.295-1.348-1.278s-1.295 0.626-1.278 1.348c0.018 0.714 0.599 1.278 1.313 1.278 0.758 0 1.313-0.599 1.313-1.348zM23.815 26.463l0.802-0.414c0.211 0.388 0.626 0.617 1.066 0.608 0.502 0 0.758-0.256 0.758-0.546 0-0.335-0.485-0.405-1.004-0.511-0.705-0.15-1.436-0.379-1.436-1.233 0-0.652 0.626-1.26 1.604-1.251 0.775 0 1.348 0.308 1.674 0.802l-0.74 0.405c-0.211-0.308-0.564-0.485-0.934-0.476-0.476 0-0.714 0.229-0.714 0.493 0 0.3 0.379 0.379 0.978 0.511 0.678 0.15 1.454 0.37 1.454 1.233 0 0.573-0.502 1.339-1.683 1.33-0.863 0.009-1.471-0.335-1.824-0.952zM29.709 25.502l-0.696 0.767v1.075h-0.881v-6.044h0.881v3.956l1.868-2.053h1.075l-1.621 1.771 1.665 2.37h-0.996zM11.172 23.115c-1.048 0-1.929 0.678-1.929 1.806v2.423h0.899v-2.308c0-0.678 0.388-1.084 1.057-1.084s0.996 0.405 0.996 1.084v2.308h0.89v-2.423c0.009-1.128-0.872-1.806-1.912-1.806z"></path>
</symbol>
<symbol id="zeplin" viewBox="0 0 32 32">
<path fill="#fdbd39" style="fill: var(--color95, #fdbd39)" d="M4.932 20.845l-1.674 0.612-0.089 4.979 5.794-2.116c-1.989-0.666-3.439-1.84-4.031-3.474z"></path>
<path fill="#f69833" style="fill: var(--color96, #f69833)" d="M5.808 15.579l-5.808 2.122 3.259 3.757 1.674-0.612c-0.59-1.629-0.226-3.467 0.876-5.267z"></path>
<path fill="#fecf33" style="fill: var(--color97, #fecf33)" d="M15.581 8.393c-7.396 2.701-12.165 8.277-10.649 12.452l26.782-9.783c-1.516-4.175-8.737-5.37-16.133-2.668z"></path>
<path fill="#ee6723" style="fill: var(--color98, #ee6723)" d="M21.064 23.514c7.396-2.701 12.173-8.252 10.649-12.452l-26.782 9.782c1.524 4.201 8.737 5.371 16.133 2.67z"></path>
<path fill="#f69833" style="fill: var(--color96, #f69833)" d="M31.713 11.061l-26.781 9.783c0.524 1.446 2.525 2.159 5.33 2.159 2.736 0 6.238-0.677 9.889-2.010 7.396-2.701 12.598-7.077 11.562-9.932z"></path>
<path fill="#fdbd39" style="fill: var(--color95, #fdbd39)" d="M26.383 8.903c-2.735 0-6.238 0.677-9.889 2.010-7.396 2.701-12.598 7.075-11.562 9.931l26.782-9.783c-0.525-1.446-2.525-2.158-5.331-2.158z"></path>
<path fill="#ee6723" style="fill: var(--color98, #ee6723)" d="M24.903 26.699c-0.788 0-1.95-0.711-3.455-2.115-1.78-1.66-3.818-4.093-5.742-6.849-1.922-2.756-3.502-5.511-4.448-7.759-1.030-2.449-1.178-3.954-0.437-4.475 0.171-0.117 0.375-0.177 0.582-0.171 0.602 0 1.777 0.448 3.948 2.586l0.048 0.047-0.007 0.066c-0.015 0.154-0.028 0.308-0.040 0.461l-0.024 0.302-0.213-0.214c-2.34-2.357-3.369-2.611-3.704-2.611-0.096 0-0.171 0.019-0.226 0.057-0.322 0.226-0.343 1.332 0.657 3.705 0.929 2.207 2.486 4.92 4.383 7.64 1.898 2.721 3.906 5.117 5.655 6.748 1.885 1.759 2.735 1.949 3.013 1.949 0.096 0 0.173-0.020 0.231-0.061 0.339-0.238 0.339-1.423-0.775-3.978l-0.052-0.117 0.112-0.061c0.112-0.061 0.221-0.121 0.322-0.179l0.134-0.076 0.063 0.141c0.79 1.811 1.529 4.112 0.56 4.793-0.172 0.117-0.376 0.177-0.585 0.172zM24.903 26.42v0.14z"></path>
<path fill="#ee6723" style="fill: var(--color98, #ee6723)" d="M21.243 23.437l-0.011 0.138c-0.187 2.313-0.679 5.094-1.964 5.207-0.027 0.003-0.053 0.003-0.078 0.003-0.872 0-1.698-1.25-2.452-3.713-0.715-2.332-1.27-5.461-1.561-8.813-0.292-3.352-0.289-6.53 0.012-8.951 0.327-2.638 0.949-4.015 1.851-4.095 0.027-0.003 0.055-0.004 0.081-0.004 0.633 0 1.586 0.717 2.562 4.053l-0.637 0.122c-0.326-1.114-0.681-2.021-1.033-2.646-0.326-0.576-0.643-0.893-0.892-0.893-0.008 0-0.016 0-0.025 0.001-0.391 0.035-0.96 0.981-1.276 3.539-0.295 2.377-0.299 5.509-0.011 8.817 0.289 3.309 0.834 6.392 1.536 8.681 0.314 1.025 0.658 1.871 0.997 2.444 0.311 0.529 0.613 0.82 0.848 0.82 0.008 0 0.016 0 0.024-0.001 0.374-0.032 1.078-1.018 1.375-4.487z"></path>
</symbol>
<symbol id="zoom-communications-logo" viewBox="0 0 32 32">
<path fill="#2d8cff" style="fill: var(--color99, #2d8cff)" d="M26.054 14.561l-0.004-0.007c-0.25-0.425-0.712-0.711-1.241-0.711h-0c-0.529 0-0.991 0.285-1.245 0.717-0.123 0.213-0.16 0.451-0.176 0.723l-0.018 0.36v2.516l-0.019 0.36c-0.023 0.597-0.458 1.020-1.060 1.060l-0.36 0.018v-7.191c0.36 0 0.986 0.182 1.267 0.494 0.459-0.313 1.013-0.494 1.611-0.494h-0c0 0 0.001 0 0.001 0 0.858 0 1.628 0.376 2.157 0.975l0.003-0.003c0.526-0.596 1.295-0.971 2.152-0.971 0.001 0 0.002 0 0.003 0h0c1.588 0.001 2.876 1.288 2.876 2.877v4.314l-0.358-0.018c-0.595-0.034-1.025-0.469-1.062-1.060l-0.018-0.36v-2.517l-0.018-0.359c-0.015-0.264-0.053-0.509-0.175-0.72l-0.004-0.007c-0.249-0.427-0.712-0.713-1.242-0.713-0.528 0-0.989 0.285-1.243 0.715-0.124 0.213-0.164 0.457-0.179 0.724l-0.018 0.36v3.954l-0.358-0.018c-0.593-0.037-1.026-0.472-1.062-1.060l-0.018-0.36v-2.516l-0.017-0.36c-0.013-0.27-0.053-0.51-0.176-0.721zM1.438 19.578c-0.597-0.038-1.025-0.467-1.060-1.060l-0.018-0.36 4.314-4.315h-3.235l-0.36-0.018c-0.588-0.034-1.013-0.475-1.060-1.060l-0.018-0.36 5.393 0.002 0.36 0.016c0.596 0.033 1.033 0.464 1.060 1.062l0.018 0.358-4.314 4.315h3.235l0.36 0.018c0.593 0.038 1.012 0.47 1.060 1.062l0.018 0.359h-5.393l-0.36-0.017zM20.521 13.458v0c-0.651-0.651-1.55-1.053-2.543-1.053-0.001 0-0.002 0-0.003 0h-0c-0.992 0-1.891 0.402-2.541 1.053-1.404 1.404-1.404 3.681 0 5.085l-0-0c0.651 0.651 1.55 1.053 2.543 1.053s1.892-0.402 2.543-1.053v0c0.651-0.651 1.053-1.55 1.053-2.542s-0.402-1.892-1.053-2.542zM19.503 14.475c0.39 0.391 0.632 0.93 0.632 1.526s-0.241 1.135-0.632 1.526v0c-0.391 0.39-0.93 0.632-1.526 0.632s-1.135-0.241-1.526-0.632v0c-0.39-0.391-0.632-0.93-0.632-1.526s0.241-1.135 0.632-1.526v0c0.391-0.39 0.93-0.632 1.526-0.632s1.135 0.241 1.526 0.632v0zM10.429 12.404h-0.005c-0.992 0-1.891 0.402-2.541 1.053-1.404 1.404-1.404 3.681 0 5.085l-0-0c0.651 0.651 1.55 1.053 2.543 1.053s1.892-0.402 2.543-1.053c1.404-1.404 1.404-3.681 0-5.085l-0-0c-0.65-0.651-1.548-1.053-2.541-1.053zM11.953 14.475c0.39 0.391 0.632 0.93 0.632 1.526s-0.241 1.135-0.632 1.526v0c-0.391 0.39-0.93 0.632-1.526 0.632s-1.135-0.241-1.526-0.632v0c-0.39-0.391-0.632-0.93-0.632-1.526s0.241-1.135 0.632-1.526v0c0.391-0.39 0.93-0.632 1.526-0.632s1.135 0.241 1.526 0.632v0z"></path>
</symbol>
</defs>
</svg>
