<svg xmlns="http://www.w3.org/2000/svg" xmlns:xlink="http://www.w3.org/1999/xlink" width="443" height="356.961" viewBox="0 0 443 356.961">
  <defs>
    <linearGradient id="linear-gradient" x1="0.5" y1="1" x2="0.5" gradientUnits="objectBoundingBox">
      <stop offset="0" stop-color="gray" stop-opacity="0.251"/>
      <stop offset="0.54" stop-color="gray" stop-opacity="0.122"/>
      <stop offset="1" stop-color="gray" stop-opacity="0.102"/>
    </linearGradient>
    <linearGradient id="linear-gradient-2" x1="7.194" y1="-9.858" x2="7.194" y2="-10.955" xlink:href="#linear-gradient"/>
    <linearGradient id="linear-gradient-3" x1="47.005" y1="-76.977" x2="47.005" y2="-77.977" xlink:href="#linear-gradient"/>
    <linearGradient id="linear-gradient-4" x1="45.78" y1="-75.851" x2="45.78" y2="-76.851" xlink:href="#linear-gradient"/>
    <linearGradient id="linear-gradient-5" x1="45.657" y1="-78.237" x2="45.657" y2="-79.237" xlink:href="#linear-gradient"/>
    <linearGradient id="linear-gradient-6" x1="44.401" y1="-77.207" x2="44.401" y2="-78.207" xlink:href="#linear-gradient"/>
    <linearGradient id="linear-gradient-7" y1="1.001" y2="0" xlink:href="#linear-gradient"/>
    <linearGradient id="linear-gradient-8" y1="1" y2="0" xlink:href="#linear-gradient"/>
    <linearGradient id="linear-gradient-9" x1="0.501" y1="1" x2="0.501" gradientUnits="objectBoundingBox">
      <stop offset="0" stop-color="#fff"/>
      <stop offset="1"/>
    </linearGradient>
    <linearGradient id="linear-gradient-10" y1="1" y2="0" xlink:href="#linear-gradient"/>
    <linearGradient id="linear-gradient-11" x1="5.982" y1="-11.162" x2="5.982" y2="-12.162" xlink:href="#linear-gradient"/>
    <linearGradient id="linear-gradient-12" x1="3.661" y1="-6.311" x2="3.661" y2="-7.416" xlink:href="#linear-gradient"/>
  </defs>
  <g id="undraw_chilling_8tii_1_" data-name="undraw_chilling_8tii (1)" transform="translate(0 0.007)">
    <g id="Group_694" data-name="Group 694" transform="translate(0 41.355)" opacity="0.5">
      <path id="Path_519" data-name="Path 519" d="M534.635,197.289H473.967V174.075a24.315,24.315,0,0,0-24.315-24.315H171.873a22.059,22.059,0,0,0-22.059,22.059V197.3H140.68A25.671,25.671,0,0,0,115,222.942V338.03a25.667,25.667,0,0,0,23.748,25.575v26.032H164.68V363.683h32.654v26.174h25.931V363.683H456.64v26.174h25.931V363.683h21.611v25.931h25.959V363.683h4.672A23.183,23.183,0,0,0,558,340.5V220.658a23.366,23.366,0,0,0-23.369-23.369ZM469.4,298.855V318.3H372.726a12.555,12.555,0,0,0,1.594-6.133V298.855Z" transform="translate(-115 -149.76)" fill="url(#linear-gradient)"/>
    </g>
    <rect id="Rectangle_541" data-name="Rectangle 541" width="24.968" height="31.211" transform="translate(31.11 245.551)" fill="#efefef"/>
    <rect id="Rectangle_542" data-name="Rectangle 542" width="24.968" height="31.211" transform="translate(337.214 245.784)" fill="#efefef"/>
    <rect id="Rectangle_543" data-name="Rectangle 543" width="24.968" height="31.211" transform="translate(382.989 245.551)" fill="#efefef"/>
    <rect id="Rectangle_544" data-name="Rectangle 544" width="24.968" height="31.211" transform="translate(87.522 245.784)" fill="#efefef"/>
    <rect id="Rectangle_545" data-name="Rectangle 545" width="24.968" height="31.211" transform="translate(31.11 245.551)" opacity="0.3"/>
    <rect id="Rectangle_546" data-name="Rectangle 546" width="24.968" height="31.211" transform="translate(337.214 245.784)" opacity="0.3"/>
    <rect id="Rectangle_547" data-name="Rectangle 547" width="24.968" height="31.211" transform="translate(382.989 245.551)" opacity="0.3"/>
    <rect id="Rectangle_548" data-name="Rectangle 548" width="24.968" height="31.211" transform="translate(87.522 245.784)" opacity="0.3"/>
    <path id="Path_520" data-name="Path 520" d="M765.2,200.52h62.815a22.5,22.5,0,0,1,22.5,22.5v115.4a22.319,22.319,0,0,1-22.319,22.319H765.2Z" transform="translate(-415.732 -108.946)" fill="#efefef"/>
    <path id="Path_521" data-name="Path 521" d="M765.2,200.52h62.815a22.5,22.5,0,0,1,22.5,22.5v115.4a22.319,22.319,0,0,1-22.319,22.319H765.2Z" transform="translate(-415.732 -108.946)" opacity="0.3"/>
    <path id="Path_522" data-name="Path 522" d="M112.641,100.29H232.9V243.863H91.4V121.527a21.24,21.24,0,0,1,21.237-21.237Z" transform="translate(-49.658 -54.491)" fill="#efefef"/>
    <path id="Path_523" data-name="Path 523" d="M113.326,100.29H232.9V243.863H91.4V122.212a21.922,21.922,0,0,1,21.926-21.922Z" transform="translate(-49.658 -54.491)" opacity="0.3"/>
    <path id="Path_524" data-name="Path 524" d="M179.579,100.29h116.6V243.863H154.68V125.185a24.9,24.9,0,0,1,24.895-24.895Z" transform="translate(-84.037 -54.491)" fill="#efefef"/>
    <path id="Path_525" data-name="Path 525" d="M463,100.29H581.993a23.415,23.415,0,0,1,23.415,23.415V243.863H463Z" transform="translate(-251.547 -54.491)" fill="#efefef"/>
    <path id="Path_526" data-name="Path 526" d="M851.77,200.52h23.292a22.5,22.5,0,0,1,22.484,22.5v115.4a22.319,22.319,0,0,1-22.319,22.319H851.77Z" transform="translate(-462.766 -108.946)" fill="#efefef"/>
    <rect id="Rectangle_549" data-name="Rectangle 549" width="287.146" height="43.697" transform="translate(101.853 208.097)" fill="#efefef"/>
    <rect id="Rectangle_550" data-name="Rectangle 550" width="84.791" height="89.253" rx="42.396" transform="translate(111.444 113.643) rotate(-16.25)" fill="url(#linear-gradient-2)"/>
    <rect id="Rectangle_551" data-name="Rectangle 551" width="79.069" height="83.229" rx="39.534" transform="translate(113.521 116.793) rotate(-16.25)" fill="#f55f44"/>
    <rect id="Rectangle_552" data-name="Rectangle 552" width="79.069" height="83.229" rx="39.534" transform="translate(113.521 116.793) rotate(-16.25)" opacity="0.1"/>
    <rect id="Rectangle_553" data-name="Rectangle 553" width="79.069" height="83.229" rx="39.534" transform="translate(115.031 115.732) rotate(-16.25)" fill="#f55f44"/>
    <circle id="Ellipse_19" data-name="Ellipse 19" cx="6.243" cy="6.243" r="6.243" transform="matrix(0.818, -0.575, 0.575, 0.818, 149.067, 122.492)" fill="url(#linear-gradient-3)"/>
    <circle id="Ellipse_20" data-name="Ellipse 20" cx="6.243" cy="6.243" r="6.243" transform="matrix(0.818, -0.575, 0.575, 0.818, 178.936, 139.641)" fill="url(#linear-gradient-4)"/>
    <circle id="Ellipse_21" data-name="Ellipse 21" cx="6.243" cy="6.243" r="6.243" transform="matrix(0.818, -0.575, 0.575, 0.818, 132.607, 156.957)" fill="url(#linear-gradient-5)"/>
    <circle id="Ellipse_22" data-name="Ellipse 22" cx="6.243" cy="6.243" r="6.243" transform="matrix(0.818, -0.575, 0.575, 0.818, 160.771, 175.306)" fill="url(#linear-gradient-6)"/>
    <circle id="Ellipse_23" data-name="Ellipse 23" cx="4.161" cy="4.161" r="4.161" transform="matrix(0.818, -0.575, 0.575, 0.818, 151.969, 122.998)" fill="#f99f8f"/>
    <circle id="Ellipse_24" data-name="Ellipse 24" cx="4.161" cy="4.161" r="4.161" transform="matrix(0.818, -0.575, 0.575, 0.818, 181.838, 140.146)" fill="#f99f8f"/>
    <circle id="Ellipse_25" data-name="Ellipse 25" cx="4.161" cy="4.161" r="4.161" transform="matrix(0.818, -0.575, 0.575, 0.818, 135.508, 157.462)" fill="#f99f8f"/>
    <circle id="Ellipse_26" data-name="Ellipse 26" cx="4.161" cy="4.161" r="4.161" transform="matrix(0.818, -0.575, 0.575, 0.818, 163.672, 175.811)" fill="#f99f8f"/>
    <path id="Path_527" data-name="Path 527" d="M42.721,200.52h91.8V360.74h-91.8A24.721,24.721,0,0,1,18,336.023V225.241A24.721,24.721,0,0,1,42.721,200.52Z" transform="translate(-9.779 -108.946)" fill="#efefef"/>
    <path id="Path_528" data-name="Path 528" d="M42.895,200.52h68.592a23.036,23.036,0,0,1,23.036,23.054V337.7a23.036,23.036,0,0,1-23.036,23.036H42.895A24.9,24.9,0,0,1,18,335.845V225.4A24.9,24.9,0,0,1,42.895,200.52Z" transform="translate(-9.779 -108.946)" opacity="0.3"/>
    <path id="Path_529" data-name="Path 529" d="M173.41,200.52H213.5a7.764,7.764,0,0,1,7.764,7.764V352.976a7.764,7.764,0,0,1-7.764,7.764H173.41Z" transform="translate(-94.213 -108.946)" opacity="0.1"/>
    <path id="Path_530" data-name="Path 530" d="M168.35,200.52h40.094a7.764,7.764,0,0,1,7.764,7.764V352.976a7.764,7.764,0,0,1-7.764,7.764H168.35Z" transform="translate(-91.464 -108.946)" fill="#efefef"/>
    <rect id="Rectangle_554" data-name="Rectangle 554" width="143.573" height="39.537" transform="translate(114.34 174.808)" fill="#efefef"/>
    <rect id="Rectangle_555" data-name="Rectangle 555" width="143.573" height="39.537" transform="translate(258.146 175.036)" fill="#efefef"/>
    <rect id="Rectangle_556" data-name="Rectangle 556" width="143.573" height="39.537" rx="19.768" transform="translate(114.34 174.808)" fill="#fff" opacity="0.15"/>
    <circle id="Ellipse_27" data-name="Ellipse 27" cx="8.321" cy="8.321" r="8.321" transform="translate(266.353 85.45)" fill="#efefef"/>
    <circle id="Ellipse_28" data-name="Ellipse 28" cx="8.321" cy="8.321" r="8.321" transform="translate(266.353 85.45)" opacity="0.3"/>
    <circle id="Ellipse_29" data-name="Ellipse 29" cx="8.321" cy="8.321" r="8.321" transform="translate(137.348 85.45)" fill="#efefef"/>
    <circle id="Ellipse_30" data-name="Ellipse 30" cx="8.321" cy="8.321" r="8.321" transform="translate(137.348 85.45)" opacity="0.3"/>
    <ellipse id="Ellipse_31" data-name="Ellipse 31" cx="2.083" cy="3.119" rx="2.083" ry="3.119" transform="translate(139.422 43.602)" fill="#fda57d"/>
    <rect id="Rectangle_557" data-name="Rectangle 557" width="143.573" height="39.537" rx="19.768" transform="translate(258.146 175.036)" fill="#fff" opacity="0.15"/>
    <g id="Group_695" data-name="Group 695" transform="translate(274.55 65.319)" opacity="0.5">
      <path id="Path_531" data-name="Path 531" d="M748.714,231.908c-.955-5.247-1.932-10.554-4.11-15.436a33.9,33.9,0,0,0-10.847-13.5,3.653,3.653,0,0,0-2.448-.731h0a2.078,2.078,0,0,0-2,1.827c-.027.105-.05.206-.069.311a16.033,16.033,0,0,0,.6,7.887,90,90,0,0,0,3.96,9.527,63.555,63.555,0,0,1,4.809,17.629,24.208,24.208,0,0,1,.2,2.457,14.316,14.316,0,0,1-.037,1.475,8.8,8.8,0,0,1-.648,2.8q-.1.219-.206.457a2.716,2.716,0,0,1-.237.42,12.678,12.678,0,0,1-3.4,3.311,15.982,15.982,0,0,1-4.224,2.512h.05a6.1,6.1,0,0,1-2.2.361c-2.343-.073-4.841-1.959-7.2-1.516h0l-.265.059c-2.411.653-4.261,4.444-4.279,6.851h0v.557a.553.553,0,0,0,.023.192c.023.064.027.242.046.356a1.55,1.55,0,0,0,.046.21c.018.069.041.206.068.306s.041.142.064.21.059.187.091.279.055.137.082.2.073.174.114.256l.1.192c.046.078.087.16.137.237l.119.183.155.219.132.169.178.2.146.155.2.187.16.142.215.174.169.132.233.16.174.119.256.151.178.1.288.142.169.082c.137.064.279.123.42.178l.205.078.329.119.237.073.269.082.265.068.256.064.283.059.247.05.3.05.237.037.306.041.228.027.32.027h2.329l.4-.032h.078a13.176,13.176,0,0,0,3.338-.735,28.6,28.6,0,0,0,8.988-6.133c5.316-4.91,10.34-11,10.764-18.227A32.8,32.8,0,0,0,748.714,231.908Z" transform="translate(-716.16 -202.232)" fill="url(#linear-gradient-7)"/>
    </g>
    <rect id="Rectangle_558" data-name="Rectangle 558" width="43.053" height="12.463" transform="translate(241.567 93.259)" opacity="0.1"/>
    <rect id="Rectangle_559" data-name="Rectangle 559" width="43.053" height="11.331" transform="translate(241.567 93.259)" fill="#efefef"/>
    <circle id="Ellipse_32" data-name="Ellipse 32" cx="6.796" cy="6.796" r="6.796" transform="translate(259.698 81.179)" fill="#efefef"/>
    <path id="Path_532" data-name="Path 532" d="M670.362,272.159l-.082-.082a1.251,1.251,0,0,0,0-2l.073-.091a1.37,1.37,0,0,1,0,2.165Z" transform="translate(-416.683 -173.726)" fill="#4d8af0"/>
    <path id="Path_533" data-name="Path 533" d="M670.362,272.159l-.082-.082a1.251,1.251,0,0,0,0-2l.073-.091a1.37,1.37,0,0,1,0,2.165Z" transform="translate(-416.683 -173.726)" opacity="0.1"/>
    <path id="Path_534" data-name="Path 534" d="M669.649,272.165a1.37,1.37,0,0,1,0-2.165l.073.091a1.251,1.251,0,0,0,0,2Z" transform="translate(-416.052 -173.731)" fill="#4d8af0"/>
    <path id="Path_535" data-name="Path 535" d="M555.37,210.9h0" transform="translate(-301.732 -114.585)" fill="#4d8af0"/>
    <path id="Path_536" data-name="Path 536" d="M731.705,287.508a26.283,26.283,0,0,0,8.221-5.608c4.859-4.485,9.445-10.047,9.837-16.656a30.372,30.372,0,0,0-.726-7.193c-.872-4.8-1.763-9.646-3.74-14.1a30.978,30.978,0,0,0-9.91-12.331,3.334,3.334,0,0,0-2.242-.667c-1.37.123-1.717,1.064-1.9,1.964-1.11,5.48,1.936,10.8,4.165,15.911a58.084,58.084,0,0,1,4.393,16.108c.288,2.357.393,4.9-.849,6.933a11.651,11.651,0,0,1-3.106,3.023c-1.735,1.311-3.654,2.685-5.828,2.621s-4.6-1.932-6.851-1.329-3.9,4.06-3.909,6.275C719.233,288.458,727.531,289.088,731.705,287.508Z" transform="translate(-443.294 -152.511)" fill="#ffd180"/>
    <g id="Group_696" data-name="Group 696" transform="translate(275.971 78.424)" opacity="0.1">
      <path id="Path_537" data-name="Path 537" d="M752.892,271.858a11.652,11.652,0,0,1-3.106,3.023,14.43,14.43,0,0,1-3.864,2.284c1.973-.132,3.74-1.37,5.343-2.6a11.722,11.722,0,0,0,3.106-3.023c1.238-2.023,1.137-4.567.849-6.933a58.071,58.071,0,0,0-4.393-16.108c-2.229-5.12-5.279-10.44-4.165-15.911a2.37,2.37,0,0,1,.913-1.653,2.984,2.984,0,0,0-.507,0c-1.37.123-1.717,1.064-1.9,1.964-1.11,5.48,1.936,10.8,4.165,15.911a58.075,58.075,0,0,1,4.394,16.108C754.029,267.281,754.135,269.83,752.892,271.858Z" transform="translate(-733.213 -230.926)"/>
      <path id="Path_538" data-name="Path 538" d="M720.754,335.836c0-2.046,1.457-5.156,3.416-6.088a3.586,3.586,0,0,0-.991.114c-2.206.6-3.9,4.06-3.909,6.275-.027,5.6,7.184,6.513,11.545,5.339C726.481,342.107,720.727,340.824,720.754,335.836Z" transform="translate(-719.27 -284.616)"/>
    </g>
    <g id="Group_697" data-name="Group 697" transform="translate(220.769 58.152)" opacity="0.5">
      <path id="Path_539" data-name="Path 539" d="M623.276,195.605s12.441-2.489,18.661,0c0,0,3.731-8.709,7.462-8.709s4.974,13.7,4.974,13.7l4.974,19.9s23.634,42.3,0,64.683-60.947-2.5-60.947-18.674,7.462-49.753,7.462-49.753,7.463-27.366,9.951-29.855S623.276,195.605,623.276,195.605Z" transform="translate(-598.4 -186.539)" fill="url(#linear-gradient-8)"/>
    </g>
    <path id="Path_540" data-name="Path 540" d="M625.332,199.808s11.956-2.393,17.935,0c0,0,3.585-8.371,7.175-8.371s4.782,13.153,4.782,13.153L660,223.721s22.721,40.646,0,62.18-58.595-2.393-58.595-17.935,7.175-47.83,7.175-47.83,7.175-26.306,9.568-28.7S625.332,199.808,625.332,199.808Z" transform="translate(-379.266 -130.859)" fill="#ffd180"/>
    <g id="Group_698" data-name="Group 698" transform="translate(223.541 60.232)" opacity="0.1">
      <path id="Path_541" data-name="Path 541" d="M738.047,284.9a94.58,94.58,0,0,0-8.367-22.346l.754,3.023a94.541,94.541,0,0,1,7.613,19.323Z" transform="translate(-672.496 -229.915)" fill="#fff"/>
      <path id="Path_542" data-name="Path 542" d="M605.224,264.748c0-15.528,5.786-41.587,5.786-41.587s7.175-26.306,9.568-28.7,7.175,8.371,7.175,8.371,11.956-2.393,17.935,0c0,0,3.59-8.371,7.175-8.371,1.37,0,2.425,1.982,3.165,4.407-.731-3.549-1.973-7.431-3.919-7.431-3.585,0-7.175,8.371-7.175,8.371-5.978-2.393-17.935,0-17.935,0s-4.782-10.76-7.175-8.371-9.568,28.7-9.568,28.7-5.786,26.032-5.786,41.587C604.465,263.131,605.224,265.2,605.224,264.748Z" transform="translate(-604.47 -191.092)" fill="#fff"/>
    </g>
    <circle id="Ellipse_33" data-name="Ellipse 33" cx="2.393" cy="2.393" r="2.393" transform="translate(266.992 87.482)" fill="#58555d"/>
    <circle id="Ellipse_34" data-name="Ellipse 34" cx="2.393" cy="2.393" r="2.393" transform="translate(239.489 87.482)" fill="#58555d"/>
    <ellipse id="Ellipse_35" data-name="Ellipse 35" cx="3.585" cy="2.393" rx="3.585" ry="2.393" transform="translate(252.647 89.875)" fill="#58555d"/>
    <rect id="Rectangle_560" data-name="Rectangle 560" width="11.025" height="1.197" transform="translate(276.43 89.27) rotate(-12.52)" fill="#ffd180"/>
    <rect id="Rectangle_561" data-name="Rectangle 561" width="12.194" height="1.197" transform="translate(276.447 94.049) rotate(-11.27)" fill="#ffd180"/>
    <rect id="Rectangle_562" data-name="Rectangle 562" width="1.197" height="12.879" transform="translate(221.328 84.448) rotate(-68.2)" fill="#ffd180"/>
    <rect id="Rectangle_563" data-name="Rectangle 563" width="1.197" height="15.729" transform="matrix(0.152, -0.988, 0.988, 0.152, 217.89, 90.477)" fill="#ffd180"/>
    <path id="Path_543" data-name="Path 543" d="M638.351,282.7a54.706,54.706,0,0,1-9.339-.795,51.607,51.607,0,0,1-16.861-6.06l.416-1.932a56.746,56.746,0,0,0,16.9,5.937c8.609,1.475,23.415,1.032,38.463-7.271l1,1.827A65.9,65.9,0,0,1,638.351,282.7Z" transform="translate(-385.101 -175.133)" opacity="0.1"/>
    <path id="Path_544" data-name="Path 544" d="M667.107,271.61c-15.071,8.3-29.859,8.746-38.463,7.271a56.744,56.744,0,0,1-16.9-5.937l-1.105,1.763a57.668,57.668,0,0,0,17.551,6.216,54.71,54.71,0,0,0,9.344.8,66.146,66.146,0,0,0,30.6-8.28Zm-29.188,9.947a.233.233,0,1,1,.233-.233.233.233,0,0,1-.233.233Z" transform="translate(-384.281 -174.606)" fill="#f55f44"/>
    <path id="Path_545" data-name="Path 545" d="M665.3,297.721h0a2.311,2.311,0,0,0,2.311,2.311h0a2.311,2.311,0,0,0,2.311-2.311h0a2.311,2.311,0,0,0-2.311-2.311h0a2.311,2.311,0,0,0-2.311,2.311Zm2.311-1.155a.384.384,0,1,1,.384-.384.384.384,0,0,1-.384.384Z" transform="translate(-413.977 -187.536)" opacity="0.1" fill="url(#linear-gradient-9)"/>
    <path id="Path_546" data-name="Path 546" d="M665.81,297.993h0a2.083,2.083,0,0,0,2.083,2.083h0a2.083,2.083,0,0,0,2.083-2.083h0a2.083,2.083,0,0,0-2.083-2.083h0A2.083,2.083,0,0,0,665.81,297.993Zm2.083-1.041a.347.347,0,1,1,.347-.347A.347.347,0,0,1,667.893,296.951Z" transform="translate(-414.254 -187.808)" fill="#4d8af0"/>
    <path id="Path_547" data-name="Path 547" d="M667.889,273.13c-31.828,18.725-50.169,1.37-50.169,1.37Z" transform="translate(-388.127 -175.432)" fill="#ffd180"/>
    <path id="Path_548" data-name="Path 548" d="M586.053,248.892c-1.95-5.531-22.835,10.047-22.835,10.047l-4.827-.288-9.289-8.6,6.485-6.485-54.457-46.7a13.737,13.737,0,0,0-10.646-3.2l-45.273,5.645c-.2-2.594-1.795-5.677-4.056-8.823-4.645-7.618-14.423-16.217-18.031-19.273L417.59,134l4.69-7.038a23.678,23.678,0,0,1-2.557-.859l.991-1.489-.365-.1.457-.539h-.055l11.682-13.518a5.124,5.124,0,0,0-.384-7.1L405.9,83.493a14.418,14.418,0,0,0,1.114-5.983c.206-3.946-1.562-7.951-7.485-10.915a57.777,57.777,0,0,0-11.454-4.046,37.586,37.586,0,0,0-19.8.292c-.105-.132-.219-.265-.338-.4-8.047-9.2-18.6,4.019-19.012,4.567l-41.249,45.88a8.38,8.38,0,0,0,2.064,11.171l21.835,16.373-.069.142,1.233.913c-.913,1.827-2.188,3.06-3.855,3.247l3.343,1.672a3.845,3.845,0,0,1-1.781.671l15.309,7.654c0,7.956.822,44.378,13.756,62.257a33.06,33.06,0,0,0,4.7,6.074s1.1-.6,3.11-1.566l2.311,4.626A27.055,27.055,0,0,0,397.66,240.8l71.862-10.267-.763,2.284.411-.059-23.292,69.875,3.845,1.283-.073.137.543.233-4.846,9.134L430.1,325.152s44.569,22.282,49.26,18.766-16.441-18.766-16.441-18.766l-1.174-4.69,5.129-10.828,4.3,1.434L505.706,242h0l1.174-2.347,23.374,29.229,6.59-6.586.712.722.059-.059,9.134,9.244,6.618,18.063S587.994,254.422,586.053,248.892ZM404.743,114.576l-.457-.53A43.805,43.805,0,0,1,391.079,124.6V120.76l.26-.228V118.86a25.347,25.347,0,0,0,7.17-25.735l15.172,11.65ZM353.25,71.267l-.365-.365.37.365ZM341.125,95.691q-.151,1.827-.123,3.676a38.2,38.2,0,0,0,.3,5.357c.781,6.207,3.005,11.281,7.586,13.7,3.992,2.1,6.618,1.987,8.289.553l.183.164a18,18,0,0,0,1.854,6.978,73.812,73.812,0,0,1-24.118-9.714s.027.311.059.868L328.876,111Z" transform="translate(-218.98 -59.2)" fill="url(#linear-gradient-10)"/>
    <path id="Path_549" data-name="Path 549" d="M505.973,507.27,495.72,526.639l15.948,6.832,10.253-21.643Z" transform="translate(-269.324 -275.603)" fill="#fda57d"/>
    <path id="Path_550" data-name="Path 550" d="M609.043,615.718l1.137,4.567s20.506,14.811,15.948,18.227-47.849-18.227-47.849-18.227l14.811-11.395Z" transform="translate(-366.7 -357.85)" fill="#333"/>
    <path id="Path_551" data-name="Path 551" d="M525.8,515.255,509.66,509.88l-4.8,9.061,15.948,6.837Z" transform="translate(-274.29 -277.021)" opacity="0.1"/>
    <path id="Path_552" data-name="Path 552" d="M677.69,411.357l15.4,15.592,11.3-13.167L686.819,397.51Z" transform="translate(-368.188 -215.971)" fill="#fda57d"/>
    <path id="Path_553" data-name="Path 553" d="M688.209,399.17l-9.129,13.852,5.837,5.905,11.842-11.842Z" transform="translate(-368.943 -216.872)" opacity="0.1"/>
    <path id="Path_554" data-name="Path 554" d="M837.719,479.689l4.69.279s20.278-15.121,22.173-9.751-31.736,40.19-31.736,40.19l-6.426-17.546Z" transform="translate(-501.514 -281.882)" fill="#333"/>
    <path id="Path_555" data-name="Path 555" d="M490.458,149.832l23.666-27.4a4.978,4.978,0,0,0-.375-6.9l-51.5-39.03L456,86.255l39.911,30.722-16.944,18.579Z" transform="translate(-300.265 -68.603)" fill="#fda57d"/>
    <path id="Path_556" data-name="Path 556" d="M515.65,184.82l-8.28,9.079,11.5,14.295,11.874-13.728A34.6,34.6,0,0,1,515.65,184.82Z" transform="translate(-328.174 -127.453)" opacity="0.1"/>
    <path id="Path_557" data-name="Path 557" d="M345.25,160.2l-26.795-20.095a8.143,8.143,0,0,1-2-10.851L356.544,84.64l8.221,8.221L337.03,127.41l16.4,16.4Z" transform="translate(-223.768 -73.025)" fill="#fda57d"/>
    <path id="Path_558" data-name="Path 558" d="M368.59,213.4l4.384,3.288,8.221-16.4L370.874,190C371.093,193.489,371.709,207.049,368.59,213.4Z" transform="translate(-252.775 -130.267)" opacity="0.1"/>
    <path id="Path_559" data-name="Path 559" d="M521.428,355.388l-24.6,73.789,24.6,8.2,40.989-81.987-32.791-8.2Z" transform="translate(-269.927 -188.632)" fill="#4d8af0"/>
    <path id="Path_560" data-name="Path 560" d="M546.729,360.378l-1.229,3.69,25.826-3.69,10.089,12.614,6.307-12.614-32.8-8.2Z" transform="translate(-296.37 -191.343)" opacity="0.1"/>
    <path id="Path_561" data-name="Path 561" d="M405.61,75.728s10.5-13.546,18.483-4.43-12.532,10.253-12.532,10.253Z" transform="translate(-272.888 -64.063)" fill="#fda57d"/>
    <path id="Path_562" data-name="Path 562" d="M432.32,369.7l7.924,15.852a26.279,26.279,0,0,0,27.224,14.263l96.026-13.7,32.8,40.993,24.593-24.593-52.909-45.35a13.345,13.345,0,0,0-10.34-3.11Z" transform="translate(-287.4 -219.343)" fill="#4d8af0"/>
    <path id="Path_563" data-name="Path 563" d="M372.378,192.09s2.16,26.626-6.038,27.539l16.4,8.221s-.913,48.278,16.4,65.587c0,0,31.882-17.309,65.587-16.4s-8.221-32.8-8.221-32.8l-5.535-37.322,4.567-6.851a34.253,34.253,0,0,1-15.948-10.253h0c-4.567,5.7-15.007,13.418-24.064,13.418H411.6c-13.5,0-27.859-2.74-39.235-10Z" transform="translate(-251.553 -130.169)" opacity="0.1"/>
    <path id="Path_564" data-name="Path 564" d="M369.042,187.094s2.178,26.626-6.042,27.535l16.4,8.221s-.913,48.278,16.4,65.587c0,0,31.882-17.309,65.587-16.4s-8.221-32.8-8.221-32.8l-5.535-37.322,4.567-6.851a34.253,34.253,0,0,1-15.948-10.253h0c-4.567,5.7-15.007,13.418-24.064,13.418h-3.918a74.59,74.59,0,0,1-39.235-11.144Z" transform="translate(-249.738 -127.453)" fill="#3ad29f"/>
    <path id="Path_565" data-name="Path 565" d="M423.52,173.36v9.134a17.491,17.491,0,0,0,5.123,12.366l19.475,19.475,6.481-12.966a16.259,16.259,0,0,0,1.717-7.271V173.36Z" transform="translate(-282.619 -121.227)" fill="#fda57d"/>
    <path id="Path_566" data-name="Path 566" d="M424.07,185.562c0,.338,0,.671.032,1.009a24.589,24.589,0,0,0,32.764-.027V176.41h-32.8Z" transform="translate(-282.917 -122.884)" opacity="0.1"/>
    <circle id="Ellipse_36" data-name="Ellipse 36" cx="24.593" cy="24.593" r="24.593" transform="translate(132.704 19.347)" fill="#fda57d"/>
    <path id="Path_567" data-name="Path 567" d="M404.657,104.932H445.65s16.4-16.4,0-24.593a56.124,56.124,0,0,0-11.125-3.928c-24.931-6.321-48.639,14.3-45.433,39.82.758,6.028,2.918,10.961,7.367,13.295C413.763,138.623,404.657,104.932,404.657,104.932Z" transform="translate(-263.755 -67.929)" opacity="0.1"/>
    <path id="Path_568" data-name="Path 568" d="M404.657,102.442H445.65s16.4-16.4,0-24.593a56.123,56.123,0,0,0-11.125-3.928c-24.931-6.321-48.639,14.3-45.433,39.82.758,6.028,2.918,10.961,7.367,13.295C413.763,136.147,404.657,102.442,404.657,102.442Z" transform="translate(-263.755 -66.577)" fill="#333"/>
    <ellipse id="Ellipse_37" data-name="Ellipse 37" cx="2.279" cy="3.987" rx="2.279" ry="3.987" transform="translate(139.81 40.273)" fill="#fda57d"/>
    <path id="Path_569" data-name="Path 569" d="M283.68,203.861l1.142-3.421,3.416,2.279Z" transform="translate(-154.123 -108.903)" opacity="0.1"/>
    <path id="Path_570" data-name="Path 570" d="M541.725,304s-12.4,5.937-15.825,11.646" transform="translate(-338.242 -192.203)" opacity="0.1"/>
    <path id="Path_571" data-name="Path 571" d="M429.286,163.03l-1.137,3.416-2.279-3.416Z" transform="translate(-231.375 -88.578)" opacity="0.1"/>
    <path id="Path_572" data-name="Path 572" d="M404.657,102.442H445.65s16.4-16.4,0-24.593a56.123,56.123,0,0,0-11.125-3.928c-24.931-6.321-48.639,14.3-45.433,39.82.758,6.028,2.918,10.961,7.367,13.295C413.763,136.147,404.657,102.442,404.657,102.442Z" transform="translate(-263.755 -66.577)" fill="#333"/>
    <path id="Path_573" data-name="Path 573" d="M650.38,338.48s8.317,18.081-2.6,19.638-5.937-15.144-5.937-15.144-1.092-4.955-3.75-5.234" transform="translate(-399.194 -210.534)" opacity="0.1"/>
    <path id="Path_574" data-name="Path 574" d="M682.059,338.4s-9.888,17.272.849,19.775,7.257-14.555,7.257-14.555,1.525-4.836,4.2-4.882" transform="translate(-420.826 -210.893)" opacity="0.1"/>
    <path id="Path_575" data-name="Path 575" d="M648.281,337.354s8.317,18.081-2.6,19.638-5.937-15.144-5.937-15.144-1.091-4.969-3.74-5.247" transform="translate(-398.059 -209.915)" fill="#ffd180"/>
    <path id="Path_576" data-name="Path 576" d="M683.74,336.73s-9.906,17.277.849,19.761,7.257-14.555,7.257-14.555,1.525-4.836,4.2-4.882" transform="translate(-421.735 -209.986)" fill="#ffd180"/>
    <rect id="Rectangle_564" data-name="Rectangle 564" width="0.187" height="3.53" transform="translate(244.116 143.318)" fill="#58555d" opacity="0.5"/>
    <rect id="Rectangle_565" data-name="Rectangle 565" width="0.187" height="3.53" transform="translate(247.139 143.318)" fill="#58555d" opacity="0.5"/>
    <rect id="Rectangle_566" data-name="Rectangle 566" width="0.187" height="4.937" transform="translate(245.5 142.195)" fill="#58555d" opacity="0.5"/>
    <rect id="Rectangle_567" data-name="Rectangle 567" width="0.187" height="3.53" transform="translate(263.754 142.565)" fill="#58555d" opacity="0.5"/>
    <rect id="Rectangle_568" data-name="Rectangle 568" width="0.187" height="3.53" transform="translate(266.777 142.565)" fill="#58555d" opacity="0.5"/>
    <rect id="Rectangle_569" data-name="Rectangle 569" width="0.187" height="4.937" transform="translate(265.138 141.437)" fill="#58555d" opacity="0.5"/>
    <g id="Group_699" data-name="Group 699" transform="translate(223.383 301.761)" opacity="0.5">
      <circle id="Ellipse_38" data-name="Ellipse 38" cx="21.734" cy="21.734" r="21.734" transform="matrix(0.948, -0.318, 0.318, 0.948, 0, 13.822)" fill="url(#linear-gradient-11)"/>
    </g>
    <circle id="Ellipse_39" data-name="Ellipse 39" cx="20.346" cy="20.346" r="20.346" transform="matrix(0.948, -0.318, 0.318, 0.948, 225.141, 316.457)" fill="#f55f44"/>
    <g id="Group_700" data-name="Group 700" transform="translate(158.436 282.037)" opacity="0.5">
      <path id="Path_577" data-name="Path 577" d="M500.23,751.257c-2.923.982-6.563.283-7.919-2.521a9.479,9.479,0,0,1-.411-5.188c.2-1.923.37-3.581-.712-4.654a4.928,4.928,0,0,0-1.927-1.009c-.913-.306-1.9-.562-2.841-.808a28.219,28.219,0,0,1-4.9-1.608c-3.106-1.457-5.092-3.919-5.311-6.586-.187-2.284.913-4.366,1.964-6.362s2.11-3.978,1.608-5.937c-.68-2.644-3.855-3.9-6.65-5.024l-.457-.174c-3.416-1.37-7.079-4.261-6.165-7.969a7.87,7.87,0,0,1,1.927-3.2,9.711,9.711,0,0,0,1.37-1.959c1.233-2.6-.457-5.6-1.21-6.777a30.348,30.348,0,0,0-1.964-2.589,25.039,25.039,0,0,1-2.8-3.964l-.128-.237c-1.854-3.507-1.891-3.654-1.735-7.476v-.457l1.617.064v.457c-.137,3.466-.137,3.466,1.548,6.654l.128.237a23.46,23.46,0,0,0,2.626,3.7c.7.863,1.42,1.758,2.055,2.713,1.959,2.964,2.439,6.01,1.32,8.362a11.055,11.055,0,0,1-1.608,2.284,6.823,6.823,0,0,0-1.6,2.567c-.712,2.882,2.927,5.174,5.193,6.079l.434.174c3,1.187,6.736,2.667,7.622,6.106.658,2.553-.562,4.855-1.745,7.083-.991,1.872-1.932,3.654-1.781,5.48.2,2.453,2.4,4.32,4.384,5.257a26.6,26.6,0,0,0,4.617,1.507c.968.251,1.968.516,2.946.84a6.33,6.33,0,0,1,2.557,1.4c1.63,1.617,1.4,3.832,1.183,5.974a8.2,8.2,0,0,0,.26,4.316c1.055,2.183,4.325,2.5,6.6,1.429a17.91,17.91,0,0,0,4.882-3.946c.5-.511,1.023-1.037,1.553-1.539,2.9-2.74,5.823-3.937,8.472-3.475a11.949,11.949,0,0,1,2.443.79,12.076,12.076,0,0,0,1.886.649,5.814,5.814,0,0,0,6.645-4.256c.059-.27.1-.553.146-.849a5.142,5.142,0,0,1,1.06-2.864,5.336,5.336,0,0,1,2.813-1.338l8.814-2.037.365,1.576L530.6,734.19a3.815,3.815,0,0,0-1.978.849,3.872,3.872,0,0,0-.653,2.014c-.046.311-.1.635-.164.955a7.43,7.43,0,0,1-8.577,5.48,13.459,13.459,0,0,1-2.142-.731,10.579,10.579,0,0,0-2.115-.694c-2.685-.457-5.33,1.4-7.079,3.055-.507.479-1.018,1-1.512,1.5a19.4,19.4,0,0,1-5.343,4.275A7.6,7.6,0,0,1,500.23,751.257Z" transform="translate(-461.914 -676.76)" fill="url(#linear-gradient-12)"/>
    </g>
    <path id="Path_578" data-name="Path 578" d="M500.71,749.5c-2.923.982-6.563.283-7.919-2.521a9.479,9.479,0,0,1-.411-5.188c.2-1.923.37-3.581-.712-4.654a4.927,4.927,0,0,0-1.927-1.009c-.913-.306-1.9-.562-2.841-.808a28.229,28.229,0,0,1-4.9-1.608c-3.106-1.457-5.092-3.918-5.311-6.586-.187-2.284.913-4.366,1.964-6.362s2.11-3.978,1.608-5.937c-.68-2.644-3.855-3.9-6.65-5.024l-.457-.174c-3.416-1.37-7.079-4.261-6.165-7.969a7.87,7.87,0,0,1,1.927-3.2,9.711,9.711,0,0,0,1.37-1.959c1.233-2.6-.457-5.6-1.21-6.777a30.348,30.348,0,0,0-1.964-2.589,25.036,25.036,0,0,1-2.8-3.964l-.128-.237c-1.854-3.507-1.891-3.654-1.735-7.476V675l1.617.064v.457c-.137,3.466-.137,3.466,1.548,6.654l.128.237a23.457,23.457,0,0,0,2.626,3.7c.7.863,1.42,1.758,2.055,2.713,1.959,2.964,2.439,6.01,1.32,8.362a11.053,11.053,0,0,1-1.608,2.284,6.823,6.823,0,0,0-1.6,2.567c-.712,2.882,2.927,5.174,5.193,6.079l.434.174c3,1.187,6.736,2.667,7.622,6.106.658,2.553-.562,4.855-1.745,7.083-.991,1.872-1.932,3.654-1.781,5.48.2,2.453,2.4,4.32,4.384,5.257a26.6,26.6,0,0,0,4.617,1.507c.968.251,1.968.516,2.946.84a6.33,6.33,0,0,1,2.557,1.4c1.63,1.617,1.4,3.832,1.183,5.974a8.2,8.2,0,0,0,.26,4.316c1.055,2.183,4.325,2.5,6.6,1.429a17.91,17.91,0,0,0,4.882-3.946c.5-.511,1.023-1.037,1.553-1.539,2.9-2.74,5.823-3.937,8.472-3.475a11.95,11.95,0,0,1,2.443.79,12.076,12.076,0,0,0,1.886.649,5.814,5.814,0,0,0,6.645-4.256c.059-.269.1-.553.146-.849a5.142,5.142,0,0,1,1.06-2.864,5.336,5.336,0,0,1,2.813-1.338l8.814-2.037.365,1.576-8.814,2.037a3.815,3.815,0,0,0-1.978.849,3.872,3.872,0,0,0-.653,2.014c-.046.311-.1.635-.164.955a7.43,7.43,0,0,1-8.577,5.48,13.454,13.454,0,0,1-2.142-.731,10.576,10.576,0,0,0-2.115-.694c-2.685-.457-5.33,1.4-7.079,3.055-.507.479-1.018,1-1.512,1.5a19.4,19.4,0,0,1-5.343,4.275A7.608,7.608,0,0,1,500.71,749.5Z" transform="translate(-303.739 -393.767)" fill="#f55f44"/>
    <path id="Path_579" data-name="Path 579" d="M661.78,748.406s11.258-1.7,16.77,14.007" transform="translate(-412.065 -433.619)" fill="none" stroke="#000" stroke-miterlimit="10" stroke-width="1" opacity="0.2"/>
    <path id="Path_580" data-name="Path 580" d="M631.73,773.682s-8.358-11.829,6.535-24.872" transform="translate(-394.469 -433.868)" fill="none" stroke="#000" stroke-miterlimit="10" stroke-width="1" opacity="0.2"/>
    <path id="Path_581" data-name="Path 581" d="M639.935,779.809s-4.033-6.207.2-11.769" transform="translate(-399.254 -444.316)" fill="none" stroke="#000" stroke-miterlimit="10" stroke-width="1" opacity="0.2"/>
    <path id="Path_582" data-name="Path 582" d="M657.81,762.88s5.339,2.11,6.088,11.614" transform="translate(-409.908 -441.512)" fill="none" stroke="#000" stroke-miterlimit="10" stroke-width="1" opacity="0.2"/>
    <path id="Path_583" data-name="Path 583" d="M671.53,738.52s8.339,1.594,14.158,13.062" transform="translate(-417.362 -428.278)" fill="none" stroke="#000" stroke-miterlimit="10" stroke-width="1" opacity="0.2"/>
    <path id="Path_584" data-name="Path 584" d="M648,744.327s3.941-2.786,7.6-1.329" transform="translate(-404.578 -430.482)" fill="none" stroke="#000" stroke-miterlimit="10" stroke-width="1" opacity="0.2"/>
    <path id="Path_585" data-name="Path 585" d="M654.52,796.481s5.27,3.352,18.853-6.321" transform="translate(-408.121 -456.334)" fill="none" stroke="#000" stroke-miterlimit="10" stroke-width="1" opacity="0.2"/>
    <path id="Path_586" data-name="Path 586" d="M652.47,818.6s3.3,3.284,10.162.493" transform="translate(-407.007 -471.785)" fill="none" stroke="#000" stroke-miterlimit="10" stroke-width="1" opacity="0.2"/>
    <path id="Path_587" data-name="Path 587" d="M627.441,754.77a17.811,17.811,0,0,0-2.457,14.482" transform="translate(-391.756 -437.106)" fill="none" stroke="#000" stroke-miterlimit="10" stroke-width="1" opacity="0.2"/>
    <path id="Path_588" data-name="Path 588" d="M640.729,801.17a4.546,4.546,0,0,0,3.005,4.6" transform="translate(-400.618 -462.315)" fill="none" stroke="#000" stroke-miterlimit="10" stroke-width="1" opacity="0.2"/>
    <path id="Path_589" data-name="Path 589" d="M696.448,793.38s-.21,5.937-3.5,6.293" transform="translate(-429 -458.083)" fill="none" stroke="#000" stroke-miterlimit="10" stroke-width="1" opacity="0.2"/>
    <path id="Path_590" data-name="Path 590" d="M661.1,808.154a13.162,13.162,0,0,0,10.961-3.654" transform="translate(-411.696 -464.124)" fill="none" stroke="#000" stroke-miterlimit="10" stroke-width="1" opacity="0.2"/>
    <path id="Path_591" data-name="Path 591" d="M672.22,766.06a6.415,6.415,0,0,1,2.571,5.48" transform="translate(-417.737 -443.24)" fill="none" stroke="#000" stroke-miterlimit="10" stroke-width="1" opacity="0.2"/>
    <path id="Path_592" data-name="Path 592" d="M648.2,774.59s-.795,4.17,1.256,6.65" transform="translate(-404.605 -447.874)" fill="none" stroke="#000" stroke-miterlimit="10" stroke-width="1" opacity="0.2"/>
    <path id="Path_593" data-name="Path 593" d="M653.66,772.82s2.932,3.654,2.133,6.357" transform="translate(-407.653 -446.913)" fill="none" stroke="#000" stroke-miterlimit="10" stroke-width="1" opacity="0.2"/>
  </g>
</svg>
