<svg aria-hidden="true" style="position: absolute; width: 0; height: 0; overflow: hidden;" version="1.1" xmlns="http://www.w3.org/2000/svg" xmlns:xlink="http://www.w3.org/1999/xlink">
<defs>
<symbol id="icon-plus1" viewBox="0 0 24 24">
<path d="M5 13h6v6c0 0.552 0.448 1 1 1s1-0.448 1-1v-6h6c0.552 0 1-0.448 1-1s-0.448-1-1-1h-6v-6c0-0.552-0.448-1-1-1s-1 0.448-1 1v6h-6c-0.552 0-1 0.448-1 1s0.448 1 1 1z"></path>
</symbol>
<symbol id="icon-paperclip" viewBox="0 0 24 24">
<path d="M20.733 10.343l-9.19 9.19c-0.977 0.977-2.256 1.465-3.538 1.465s-2.561-0.488-3.538-1.465-1.465-2.256-1.465-3.538 0.488-2.561 1.465-3.538l9.19-9.19c0.586-0.586 1.353-0.879 2.123-0.879s1.536 0.293 2.123 0.879 0.879 1.353 0.879 2.123-0.293 1.536-0.879 2.123l-9.2 9.19c-0.196 0.196-0.451 0.294-0.708 0.294s-0.512-0.098-0.708-0.293-0.293-0.45-0.293-0.708 0.098-0.512 0.293-0.708l8.49-8.48c0.391-0.39 0.391-1.023 0.001-1.414s-1.023-0.391-1.414-0.001l-8.49 8.48c-0.586 0.586-0.879 1.356-0.879 2.122s0.293 1.536 0.879 2.122 1.356 0.879 2.122 0.879 1.536-0.293 2.122-0.879l9.2-9.19c0.977-0.977 1.465-2.258 1.465-3.537s-0.489-2.561-1.465-3.537-2.258-1.465-3.537-1.465-2.561 0.489-3.537 1.465l-9.19 9.19c-1.367 1.367-2.051 3.161-2.051 4.952s0.684 3.585 2.051 4.952 3.161 2.051 4.952 2.051 3.585-0.684 4.952-2.051l9.19-9.19c0.391-0.391 0.391-1.024 0-1.414s-1.024-0.391-1.414 0z"></path>
</symbol>
<symbol id="icon-message-circle1" viewBox="0 0 24 24">
<path d="M22 11.497v-0.497c0-0.017-0.001-0.038-0.002-0.058-0.136-2.338-1.113-4.461-2.642-6.051-1.602-1.667-3.814-2.752-6.301-2.889-0.016-0.001-0.036-0.002-0.055-0.002h-0.489c-1.405-0.016-2.882 0.31-4.264 1.008-1.223 0.621-2.291 1.488-3.139 2.535-1.322 1.634-2.107 3.705-2.108 5.946-0.014 1.275 0.253 2.61 0.824 3.877l-1.772 5.317c-0.066 0.196-0.072 0.418 0 0.632 0.175 0.524 0.741 0.807 1.265 0.632l5.314-1.771c1.16 0.527 2.484 0.826 3.876 0.823 1.372-0.009 2.714-0.308 3.941-0.866 1.912-0.871 3.54-2.373 4.541-4.375 0.644-1.249 1.015-2.715 1.011-4.261zM20 11.503c0.003 1.225-0.292 2.375-0.789 3.339-0.801 1.602-2.082 2.785-3.592 3.472-0.97 0.442-2.035 0.679-3.126 0.686-1.221 0.003-2.371-0.292-3.335-0.789-0.249-0.129-0.528-0.142-0.775-0.060l-3.803 1.268 1.268-3.803c0.088-0.263 0.060-0.537-0.056-0.767-0.552-1.094-0.804-2.254-0.792-3.338 0.001-1.789 0.619-3.42 1.663-4.709 0.671-0.829 1.518-1.517 2.49-2.010 1.092-0.552 2.252-0.804 3.336-0.792h0.456c1.962 0.107 3.704 0.961 4.969 2.277 1.202 1.251 1.972 2.916 2.086 4.753z"></path>
</symbol>
<symbol id="icon-edit" viewBox="0 0 24 24">
<path d="M11 3h-7c-0.828 0-1.58 0.337-2.121 0.879s-0.879 1.293-0.879 2.121v14c0 0.828 0.337 1.58 0.879 2.121s1.293 0.879 2.121 0.879h14c0.828 0 1.58-0.337 2.121-0.879s0.879-1.293 0.879-2.121v-7c0-0.552-0.448-1-1-1s-1 0.448-1 1v7c0 0.276-0.111 0.525-0.293 0.707s-0.431 0.293-0.707 0.293h-14c-0.276 0-0.525-0.111-0.707-0.293s-0.293-0.431-0.293-0.707v-14c0-0.276 0.111-0.525 0.293-0.707s0.431-0.293 0.707-0.293h7c0.552 0 1-0.448 1-1s-0.448-1-1-1zM17.793 1.793l-9.5 9.5c-0.122 0.121-0.217 0.28-0.263 0.465l-1 4c-0.039 0.15-0.042 0.318 0 0.485 0.134 0.536 0.677 0.862 1.213 0.728l4-1c0.167-0.041 0.33-0.129 0.465-0.263l9.5-9.5c0.609-0.609 0.914-1.41 0.914-2.207s-0.305-1.598-0.914-2.207-1.411-0.915-2.208-0.915-1.598 0.305-2.207 0.914zM19.207 3.207c0.219-0.219 0.504-0.328 0.793-0.328s0.574 0.109 0.793 0.328 0.328 0.504 0.328 0.793-0.109 0.574-0.328 0.793l-9.304 9.304-2.114 0.529 0.529-2.114z"></path>
</symbol>
<symbol id="icon-trash-2" viewBox="0 0 24 24">
<path d="M18 7v13c0 0.276-0.111 0.525-0.293 0.707s-0.431 0.293-0.707 0.293h-10c-0.276 0-0.525-0.111-0.707-0.293s-0.293-0.431-0.293-0.707v-13zM17 5v-1c0-0.828-0.337-1.58-0.879-2.121s-1.293-0.879-2.121-0.879h-4c-0.828 0-1.58 0.337-2.121 0.879s-0.879 1.293-0.879 2.121v1h-4c-0.552 0-1 0.448-1 1s0.448 1 1 1h1v13c0 0.828 0.337 1.58 0.879 2.121s1.293 0.879 2.121 0.879h10c0.828 0 1.58-0.337 2.121-0.879s0.879-1.293 0.879-2.121v-13h1c0.552 0 1-0.448 1-1s-0.448-1-1-1zM9 5v-1c0-0.276 0.111-0.525 0.293-0.707s0.431-0.293 0.707-0.293h4c0.276 0 0.525 0.111 0.707 0.293s0.293 0.431 0.293 0.707v1zM9 11v6c0 0.552 0.448 1 1 1s1-0.448 1-1v-6c0-0.552-0.448-1-1-1s-1 0.448-1 1zM13 11v6c0 0.552 0.448 1 1 1s1-0.448 1-1v-6c0-0.552-0.448-1-1-1s-1 0.448-1 1z"></path>
</symbol>
<symbol id="icon-volume-x" viewBox="0 0 24 24">
<path d="M10 7.081v9.839l-3.375-2.7c-0.17-0.137-0.388-0.22-0.625-0.22h-3v-4h3c0.218 0.001 0.439-0.071 0.625-0.219zM10.375 4.219l-4.726 3.781h-3.649c-0.552 0-1 0.448-1 1v6c0 0.552 0.448 1 1 1h3.649l4.726 3.781c0.431 0.345 1.061 0.275 1.406-0.156 0.148-0.185 0.22-0.407 0.219-0.625v-14c0-0.552-0.448-1-1-1-0.237 0-0.455 0.083-0.625 0.219zM16.293 9.707l2.293 2.293-2.293 2.293c-0.391 0.391-0.391 1.024 0 1.414s1.024 0.391 1.414 0l2.293-2.293 2.293 2.293c0.391 0.391 1.024 0.391 1.414 0s0.391-1.024 0-1.414l-2.293-2.293 2.293-2.293c0.391-0.391 0.391-1.024 0-1.414s-1.024-0.391-1.414 0l-2.293 2.293-2.293-2.293c-0.391-0.391-1.024-0.391-1.414 0s-0.391 1.024 0 1.414z"></path>
</symbol>
<symbol id="icon-volume-1" viewBox="0 0 24 24">
<path d="M10 7.081v9.839l-3.375-2.7c-0.17-0.137-0.388-0.22-0.625-0.22h-3v-4h3c0.218 0.001 0.439-0.071 0.625-0.219zM10.375 4.219l-4.726 3.781h-3.649c-0.552 0-1 0.448-1 1v6c0 0.552 0.448 1 1 1h3.649l4.726 3.781c0.431 0.345 1.061 0.275 1.406-0.156 0.148-0.185 0.22-0.407 0.219-0.625v-14c0-0.552-0.448-1-1-1-0.237 0-0.455 0.083-0.625 0.219zM14.833 9.167c0.781 0.781 1.171 1.803 1.171 2.828s-0.39 2.047-1.171 2.828c-0.39 0.391-0.39 1.024 0 1.414s1.024 0.39 1.414 0c1.171-1.171 1.757-2.708 1.757-4.242s-0.586-3.071-1.757-4.242c-0.39-0.391-1.024-0.391-1.414 0s-0.391 1.024 0 1.414z"></path>
</symbol>
<symbol id="icon-copy" viewBox="0 0 24 24">
<path d="M11 8c-0.828 0-1.58 0.337-2.121 0.879s-0.879 1.293-0.879 2.121v9c0 0.828 0.337 1.58 0.879 2.121s1.293 0.879 2.121 0.879h9c0.828 0 1.58-0.337 2.121-0.879s0.879-1.293 0.879-2.121v-9c0-0.828-0.337-1.58-0.879-2.121s-1.293-0.879-2.121-0.879zM11 10h9c0.276 0 0.525 0.111 0.707 0.293s0.293 0.431 0.293 0.707v9c0 0.276-0.111 0.525-0.293 0.707s-0.431 0.293-0.707 0.293h-9c-0.276 0-0.525-0.111-0.707-0.293s-0.293-0.431-0.293-0.707v-9c0-0.276 0.111-0.525 0.293-0.707s0.431-0.293 0.707-0.293zM5 14h-1c-0.276 0-0.525-0.111-0.707-0.293s-0.293-0.431-0.293-0.707v-9c0-0.276 0.111-0.525 0.293-0.707s0.431-0.293 0.707-0.293h9c0.276 0 0.525 0.111 0.707 0.293s0.293 0.431 0.293 0.707v1c0 0.552 0.448 1 1 1s1-0.448 1-1v-1c0-0.828-0.337-1.58-0.879-2.121s-1.293-0.879-2.121-0.879h-9c-0.828 0-1.58 0.337-2.121 0.879s-0.879 1.293-0.879 2.121v9c0 0.828 0.337 1.58 0.879 2.121s1.293 0.879 2.121 0.879h1c0.552 0 1-0.448 1-1s-0.448-1-1-1z"></path>
</symbol>
<symbol id="icon-message-circle1" viewBox="0 0 24 24">
<path d="M22 11.497v-0.497c0-0.017-0.001-0.038-0.002-0.058-0.136-2.338-1.113-4.461-2.642-6.051-1.602-1.667-3.814-2.752-6.301-2.889-0.016-0.001-0.036-0.002-0.055-0.002h-0.489c-1.405-0.016-2.882 0.31-4.264 1.008-1.223 0.621-2.291 1.488-3.139 2.535-1.322 1.634-2.107 3.705-2.108 5.946-0.014 1.275 0.253 2.61 0.824 3.877l-1.772 5.317c-0.066 0.196-0.072 0.418 0 0.632 0.175 0.524 0.741 0.807 1.265 0.632l5.314-1.771c1.16 0.527 2.484 0.826 3.876 0.823 1.372-0.009 2.714-0.308 3.941-0.866 1.912-0.871 3.54-2.373 4.541-4.375 0.644-1.249 1.015-2.715 1.011-4.261zM20 11.503c0.003 1.225-0.292 2.375-0.789 3.339-0.801 1.602-2.082 2.785-3.592 3.472-0.97 0.442-2.035 0.679-3.126 0.686-1.221 0.003-2.371-0.292-3.335-0.789-0.249-0.129-0.528-0.142-0.775-0.060l-3.803 1.268 1.268-3.803c0.088-0.263 0.060-0.537-0.056-0.767-0.552-1.094-0.804-2.254-0.792-3.338 0.001-1.789 0.619-3.42 1.663-4.709 0.671-0.829 1.518-1.517 2.49-2.010 1.092-0.552 2.252-0.804 3.336-0.792h0.456c1.962 0.107 3.704 0.961 4.969 2.277 1.202 1.251 1.972 2.916 2.086 4.753z"></path>
</symbol>
<symbol id="icon-plus-circle" viewBox="0 0 24 24">
<path d="M23 12c0-3.037-1.232-5.789-3.222-7.778s-4.741-3.222-7.778-3.222-5.789 1.232-7.778 3.222-3.222 4.741-3.222 7.778 1.232 5.789 3.222 7.778 4.741 3.222 7.778 3.222 5.789-1.232 7.778-3.222 3.222-4.741 3.222-7.778zM21 12c0 2.486-1.006 4.734-2.636 6.364s-3.878 2.636-6.364 2.636-4.734-1.006-6.364-2.636-2.636-3.878-2.636-6.364 1.006-4.734 2.636-6.364 3.878-2.636 6.364-2.636 4.734 1.006 6.364 2.636 2.636 3.878 2.636 6.364zM8 13h3v3c0 0.552 0.448 1 1 1s1-0.448 1-1v-3h3c0.552 0 1-0.448 1-1s-0.448-1-1-1h-3v-3c0-0.552-0.448-1-1-1s-1 0.448-1 1v3h-3c-0.552 0-1 0.448-1 1s0.448 1 1 1z"></path>
</symbol>
<symbol id="icon-bell1" viewBox="0 0 24 24">
<path d="M17 8c0 4.011 0.947 6.52 1.851 8h-13.702c0.904-1.48 1.851-3.989 1.851-8 0-1.381 0.559-2.63 1.464-3.536s2.155-1.464 3.536-1.464 2.63 0.559 3.536 1.464 1.464 2.155 1.464 3.536zM19 8c0-1.933-0.785-3.684-2.050-4.95s-3.017-2.050-4.95-2.050-3.684 0.785-4.95 2.050-2.050 3.017-2.050 4.95c0 6.127-2.393 8.047-2.563 8.174-0.453 0.308-0.573 0.924-0.269 1.381 0.192 0.287 0.506 0.443 0.832 0.445h18c0.552 0 1-0.448 1-1 0-0.339-0.168-0.638-0.429-0.821-0.176-0.13-2.571-2.050-2.571-8.179zM12.865 20.498c-0.139 0.239-0.359 0.399-0.608 0.465s-0.52 0.037-0.759-0.101c-0.162-0.094-0.283-0.222-0.359-0.357-0.274-0.48-0.884-0.647-1.364-0.373s-0.647 0.884-0.373 1.364c0.25 0.439 0.623 0.823 1.093 1.096 0.716 0.416 1.535 0.501 2.276 0.304s1.409-0.678 1.824-1.394c0.277-0.478 0.114-1.090-0.363-1.367s-1.090-0.114-1.367 0.363z"></path>
</symbol>
<symbol id="icon-log-out" viewBox="0 0 24 24">
<path d="M9 20h-4c-0.276 0-0.525-0.111-0.707-0.293s-0.293-0.431-0.293-0.707v-14c0-0.276 0.111-0.525 0.293-0.707s0.431-0.293 0.707-0.293h4c0.552 0 1-0.448 1-1s-0.448-1-1-1h-4c-0.828 0-1.58 0.337-2.121 0.879s-0.879 1.293-0.879 2.121v14c0 0.828 0.337 1.58 0.879 2.121s1.293 0.879 2.121 0.879h4c0.552 0 1-0.448 1-1s-0.448-1-1-1zM18.586 11h-9.586c-0.552 0-1 0.448-1 1s0.448 1 1 1h9.586l-3.293 3.293c-0.391 0.391-0.391 1.024 0 1.414s1.024 0.391 1.414 0l5-5c0.092-0.092 0.166-0.202 0.217-0.324 0.15-0.362 0.078-0.795-0.217-1.090l-5-5c-0.391-0.391-1.024-0.391-1.414 0s-0.391 1.024 0 1.414z"></path>
</symbol>
<symbol id="icon-calendar" viewBox="0 0 24 24">
<path d="M7 2v1h-2c-0.828 0-1.58 0.337-2.121 0.879s-0.879 1.293-0.879 2.121v14c0 0.828 0.337 1.58 0.879 2.121s1.293 0.879 2.121 0.879h14c0.828 0 1.58-0.337 2.121-0.879s0.879-1.293 0.879-2.121v-14c0-0.828-0.337-1.58-0.879-2.121s-1.293-0.879-2.121-0.879h-2v-1c0-0.552-0.448-1-1-1s-1 0.448-1 1v1h-6v-1c0-0.552-0.448-1-1-1s-1 0.448-1 1zM20 9h-16v-3c0-0.276 0.111-0.525 0.293-0.707s0.431-0.293 0.707-0.293h2v1c0 0.552 0.448 1 1 1s1-0.448 1-1v-1h6v1c0 0.552 0.448 1 1 1s1-0.448 1-1v-1h2c0.276 0 0.525 0.111 0.707 0.293s0.293 0.431 0.293 0.707zM4 11h16v9c0 0.276-0.111 0.525-0.293 0.707s-0.431 0.293-0.707 0.293h-14c-0.276 0-0.525-0.111-0.707-0.293s-0.293-0.431-0.293-0.707z"></path>
</symbol>
<symbol id="icon-view-grid-outline" viewBox="0 0 32 32">
<path d="M0 14.222h14.222v-14.222h-14.222zM3.557 3.557h7.111v7.111h-7.111zM17.778 32h14.222v-14.222h-14.222zM21.335 21.335h7.111v7.111h-7.113zM0 32h14.222v-14.222h-14.222zM3.557 21.335h7.111v7.111h-7.111zM17.778 0v14.222h14.222v-14.222zM28.443 10.667h-7.111v-7.111h7.111z"></path>
</symbol>
<symbol id="icon-video" viewBox="0 0 32 32">
<path stroke-linejoin="round" stroke-linecap="round" stroke-miterlimit="4" stroke-width="2.4615" d="M30.791 9.723l-9.406 6.718 9.406 6.718z"></path>
<path stroke-linejoin="round" stroke-linecap="round" stroke-miterlimit="4" stroke-width="2.4615" d="M6.154 6.154h9.846c2.719 0 4.923 2.204 4.923 4.923v9.846c0 2.719-2.204 4.923-4.923 4.923h-9.846c-2.719 0-4.923-2.204-4.923-4.923v-9.846c0-2.719 2.204-4.923 4.923-4.923z"></path>
</symbol>
<symbol id="icon-users" viewBox="0 0 24 24">
<path d="M18 21v-2c0-1.38-0.561-2.632-1.464-3.536s-2.156-1.464-3.536-1.464h-8c-1.38 0-2.632 0.561-3.536 1.464s-1.464 2.156-1.464 3.536v2c0 0.552 0.448 1 1 1s1-0.448 1-1v-2c0-0.829 0.335-1.577 0.879-2.121s1.292-0.879 2.121-0.879h8c0.829 0 1.577 0.335 2.121 0.879s0.879 1.292 0.879 2.121v2c0 0.552 0.448 1 1 1s1-0.448 1-1zM14 7c0-1.38-0.561-2.632-1.464-3.536s-2.156-1.464-3.536-1.464-2.632 0.561-3.536 1.464-1.464 2.156-1.464 3.536 0.561 2.632 1.464 3.536 2.156 1.464 3.536 1.464 2.632-0.561 3.536-1.464 1.464-2.156 1.464-3.536zM12 7c0 0.829-0.335 1.577-0.879 2.121s-1.292 0.879-2.121 0.879-1.577-0.335-2.121-0.879-0.879-1.292-0.879-2.121 0.335-1.577 0.879-2.121 1.292-0.879 2.121-0.879 1.577 0.335 2.121 0.879 0.879 1.292 0.879 2.121zM24 21v-2c-0.001-1.245-0.457-2.385-1.215-3.261-0.652-0.753-1.528-1.311-2.529-1.576-0.534-0.141-1.081 0.177-1.222 0.711s0.177 1.081 0.711 1.222c0.607 0.161 1.136 0.498 1.528 0.952 0.454 0.526 0.726 1.206 0.727 1.952v2c0 0.552 0.448 1 1 1s1-0.448 1-1zM15.752 4.099c0.803 0.206 1.445 0.715 1.837 1.377s0.531 1.47 0.325 2.273c-0.176 0.688-0.575 1.256-1.105 1.652-0.314 0.235-0.675 0.409-1.063 0.511-0.534 0.14-0.854 0.687-0.713 1.221s0.687 0.854 1.221 0.713c0.637-0.167 1.232-0.455 1.752-0.844 0.884-0.66 1.552-1.613 1.845-2.758 0.342-1.337 0.11-2.689-0.542-3.788s-1.725-1.953-3.062-2.296c-0.535-0.137-1.080 0.186-1.217 0.721s0.186 1.080 0.721 1.217z"></path>
</symbol>
<symbol id="icon-phone" viewBox="0 0 32 32">
<path stroke-linejoin="round" stroke-linecap="round" stroke-miterlimit="4" stroke-width="2.4551" d="M30.711 23.346v4.446c0 0.004 0 0.008 0 0.013 0 1.638-1.328 2.966-2.966 2.966-0.097 0-0.193-0.005-0.287-0.014l0.012 0.001c-4.811-0.536-9.157-2.161-12.905-4.62l0.111 0.069c-3.601-2.315-6.574-5.291-8.816-8.78l-0.069-0.115c-2.399-3.654-4.024-8.021-4.538-12.722l-0.012-0.131c-0.008-0.079-0.012-0.172-0.012-0.265 0-1.636 1.325-2.963 2.96-2.966h4.449c0.008-0 0.018-0 0.027-0 1.491 0 2.725 1.1 2.934 2.532l0.002 0.016c0.209 1.559 0.572 2.968 1.082 4.304l-0.044-0.131c0.12 0.31 0.189 0.668 0.189 1.042 0 0.813-0.327 1.55-0.857 2.086l-1.883 1.883c2.149 3.73 5.164 6.743 8.78 8.829l0.115 0.061 1.883-1.883c0.535-0.53 1.272-0.857 2.085-0.857 0.375 0 0.733 0.069 1.063 0.196l-0.020-0.007c1.206 0.466 2.614 0.83 4.075 1.028l0.098 0.011c1.445 0.215 2.542 1.447 2.542 2.935 0 0.025-0 0.051-0.001 0.076l0-0.004z"></path>
</symbol>
<symbol id="icon-message-circle" viewBox="0 0 32 32">
<path stroke-linejoin="round" stroke-linecap="round" stroke-miterlimit="4" stroke-width="2.4623" d="M30.779 15.18c0 0.010 0 0.022 0 0.034 0 2.262-0.546 4.396-1.514 6.278l0.036-0.077c-2.34 4.607-7.043 7.71-12.471 7.712h-0c-0.010 0-0.022 0-0.034 0-2.262 0-4.396-0.546-6.278-1.514l0.077 0.036-9.364 3.13 3.117-9.357c-0.931-1.805-1.477-3.939-1.477-6.201 0-0.012 0-0.024 0-0.035v0.002c0-5.432 3.105-10.139 7.638-12.442l0.079-0.037c1.805-0.931 3.939-1.477 6.201-1.477 0.011 0 0.022 0 0.033 0h0.818c7.087 0.397 12.735 6.041 13.137 13.090l0.002 0.037z"></path>
</symbol>
<symbol id="icon-home" viewBox="0 0 32 32">
<path stroke-linejoin="round" stroke-linecap="round" stroke-miterlimit="4" stroke-width="2.6667" d="M3.111 11.289l12.8-9.956 12.8 9.956v15.644c0 1.571-1.273 2.844-2.844 2.844v0h-19.911c-1.571 0-2.844-1.273-2.844-2.844v0z"></path>
<path stroke-linejoin="round" stroke-linecap="round" stroke-miterlimit="4" stroke-width="2.6667" d="M11.662 29.778v-14.16h8.496v14.16"></path>
</symbol>
<symbol id="icon-format-list-bulleted" viewBox="0 0 32 32">
<path d="M7.783 4.293h24.217v3.461h-24.217v-3.461zM7.783 18.13v-3.458h24.217v3.461h-24.217zM2.594 3.429c1.433 0 2.594 1.162 2.594 2.594s-1.162 2.594-2.594 2.594c-1.433 0-2.594-1.162-2.594-2.594v0c0-1.433 1.161-2.594 2.594-2.594v0zM2.594 13.808c1.433 0 2.594 1.162 2.594 2.594s-1.162 2.594-2.594 2.594c-1.433 0-2.594-1.162-2.594-2.594v0c0-1.433 1.161-2.594 2.594-2.594v0zM7.783 28.51v-3.461h24.217v3.461h-24.217zM2.594 24.185c1.433 0 2.594 1.162 2.594 2.594s-1.162 2.594-2.594 2.594c-1.433 0-2.594-1.162-2.594-2.594v0c0-1.433 1.161-2.594 2.594-2.594v0z"></path>
</symbol>
<symbol id="icon-chevron-down" viewBox="0 0 32 32">
<path stroke-linejoin="round" stroke-linecap="round" stroke-miterlimit="4" stroke-width="3.5556" d="M1.778 8.889l14.222 14.222 14.222-14.222"></path>
</symbol>
<symbol id="icon-bildiri" viewBox="0 0 32 32">
<path stroke-linejoin="round" stroke-linecap="round" stroke-miterlimit="4" stroke-width="1.8824" d="M25.438 9.976c0-4.997-4.051-9.048-9.048-9.048s-9.048 4.051-9.048 9.048v0c0 10.541-4.518 13.553-4.518 13.553h27.138s-4.518-3.012-4.518-13.553"></path>
<path stroke-linejoin="round" stroke-linecap="round" stroke-miterlimit="4" stroke-width="1.8824" d="M19 29.557c-0.53 0.906-1.499 1.505-2.608 1.505s-2.078-0.599-2.6-1.491l-0.008-0.014"></path>
</symbol>
<symbol id="icon-download" viewBox="0 0 24 24">
<path d="M20 15v4c0 0.276-0.111 0.525-0.293 0.707s-0.431 0.293-0.707 0.293h-14c-0.276 0-0.525-0.111-0.707-0.293s-0.293-0.431-0.293-0.707v-4c0-0.552-0.448-1-1-1s-1 0.448-1 1v4c0 0.828 0.337 1.58 0.879 2.121s1.293 0.879 2.121 0.879h14c0.828 0 1.58-0.337 2.121-0.879s0.879-1.293 0.879-2.121v-4c0-0.552-0.448-1-1-1s-1 0.448-1 1zM13 12.586v-9.586c0-0.552-0.448-1-1-1s-1 0.448-1 1v9.586l-3.293-3.293c-0.391-0.391-1.024-0.391-1.414 0s-0.391 1.024 0 1.414l5 5c0.092 0.092 0.202 0.166 0.324 0.217s0.253 0.076 0.383 0.076c0.256 0 0.512-0.098 0.707-0.293l5-5c0.391-0.391 0.391-1.024 0-1.414s-1.024-0.391-1.414 0z"></path>
</symbol>
<symbol id="icon-content_copy" viewBox="0 0 24 24">
<path d="M18.984 21v-14.016h-10.969v14.016h10.969zM18.984 5.016q0.797 0 1.406 0.586t0.609 1.383v14.016q0 0.797-0.609 1.406t-1.406 0.609h-10.969q-0.797 0-1.406-0.609t-0.609-1.406v-14.016q0-0.797 0.609-1.383t1.406-0.586h10.969zM15.984 0.984v2.016h-12v14.016h-1.969v-14.016q0-0.797 0.586-1.406t1.383-0.609h12z"></path>
</symbol>
<symbol id="icon-users" viewBox="0 0 16 16">
<path d="M9 9.555v-2.555c0-1.657-1.343-3-3-3s-3 1.343-3 3v2.555c-1.786 0.693-3 1.969-3 3.445 0 0.177 0 2 0 2 0 0.553 0.447 1 1 1h10c0.553 0 1-0.447 1-1 0 0 0-1.823 0-2 0-1.477-1.214-2.752-3-3.445zM5 7c0-0.553 0.447-1 1-1s1 0.447 1 1v3c0 0.553-0.447 1-1 1s-1-0.447-1-1v-3zM10 14h-8v-1c0-0.607 0.554-1.146 1.409-1.513 0.519 0.9 1.479 1.513 2.591 1.513s2.072-0.612 2.591-1.513c0.855 0.367 1.409 0.905 1.409 1.513v1zM13 5.555v-2.555c0-1.657-1.343-3-3-3s-3 1.343-3 3v0.142c0.79 0.204 1.479 0.642 2 1.238v-1.38c0-0.553 0.447-1 1-1s1 0.447 1 1v3c0 0.553-0.447 1-1 1v2c1.112 0 2.072-0.612 2.591-1.513 0.855 0.367 1.409 0.905 1.409 1.513v1h-3.649c1.007 0.519 1.78 1.203 2.221 2h2.429c0.553 0 1-0.447 1-1 0 0 0-1.823 0-2 0-1.477-1.214-2.752-3-3.445z"></path>
</symbol>
<symbol id="icon-bell-o" viewBox="0 0 28 28">
<path d="M14.25 26.5c0-0.141-0.109-0.25-0.25-0.25-1.234 0-2.25-1.016-2.25-2.25 0-0.141-0.109-0.25-0.25-0.25s-0.25 0.109-0.25 0.25c0 1.516 1.234 2.75 2.75 2.75 0.141 0 0.25-0.109 0.25-0.25zM3.844 22h20.312c-2.797-3.156-4.156-7.438-4.156-13 0-2.016-1.906-5-6-5s-6 2.984-6 5c0 5.563-1.359 9.844-4.156 13zM27 22c0 1.094-0.906 2-2 2h-7c0 2.203-1.797 4-4 4s-4-1.797-4-4h-7c-1.094 0-2-0.906-2-2 2.312-1.953 5-5.453 5-13 0-3 2.484-6.281 6.625-6.891-0.078-0.187-0.125-0.391-0.125-0.609 0-0.828 0.672-1.5 1.5-1.5s1.5 0.672 1.5 1.5c0 0.219-0.047 0.422-0.125 0.609 4.141 0.609 6.625 3.891 6.625 6.891 0 7.547 2.688 11.047 5 13z"></path>
</symbol>
<symbol id="icon-link" viewBox="0 0 32 32">
<path d="M13.757 19.868c-0.416 0-0.832-0.159-1.149-0.476-2.973-2.973-2.973-7.81 0-10.783l6-6c1.44-1.44 3.355-2.233 5.392-2.233s3.951 0.793 5.392 2.233c2.973 2.973 2.973 7.81 0 10.783l-2.743 2.743c-0.635 0.635-1.663 0.635-2.298 0s-0.635-1.663 0-2.298l2.743-2.743c1.706-1.706 1.706-4.481 0-6.187-0.826-0.826-1.925-1.281-3.094-1.281s-2.267 0.455-3.094 1.281l-6 6c-1.706 1.706-1.706 4.481 0 6.187 0.635 0.635 0.635 1.663 0 2.298-0.317 0.317-0.733 0.476-1.149 0.476z"></path>
<path d="M8 31.625c-2.037 0-3.952-0.793-5.392-2.233-2.973-2.973-2.973-7.81 0-10.783l2.743-2.743c0.635-0.635 1.664-0.635 2.298 0s0.635 1.663 0 2.298l-2.743 2.743c-1.706 1.706-1.706 4.481 0 6.187 0.826 0.826 1.925 1.281 3.094 1.281s2.267-0.455 3.094-1.281l6-6c1.706-1.706 1.706-4.481 0-6.187-0.635-0.635-0.635-1.663 0-2.298s1.663-0.635 2.298 0c2.973 2.973 2.973 7.81 0 10.783l-6 6c-1.44 1.44-3.355 2.233-5.392 2.233z"></path>
</symbol>
<symbol id="icon-video2" viewBox="0 0 24 24">
<path d="M22 8.943v6.114l-4.28-3.057zM3 4c-0.828 0-1.58 0.337-2.121 0.879s-0.879 1.293-0.879 2.121v10c0 0.828 0.337 1.58 0.879 2.121s1.293 0.879 2.121 0.879h11c0.828 0 1.58-0.337 2.121-0.879s0.879-1.293 0.879-2.121v-3.057l5.419 3.871c0.449 0.321 1.074 0.217 1.395-0.232 0.126-0.178 0.187-0.383 0.186-0.582v-10c0-0.552-0.448-1-1-1-0.218 0-0.42 0.070-0.581 0.186l-5.419 3.871v-3.057c0-0.828-0.337-1.58-0.879-2.121s-1.293-0.879-2.121-0.879zM3 6h11c0.276 0 0.525 0.111 0.707 0.293s0.293 0.431 0.293 0.707v10c0 0.276-0.111 0.525-0.293 0.707s-0.431 0.293-0.707 0.293h-11c-0.276 0-0.525-0.111-0.707-0.293s-0.293-0.431-0.293-0.707v-10c0-0.276 0.111-0.525 0.293-0.707s0.431-0.293 0.707-0.293z"></path>
</symbol>
<symbol id="icon-phone1" viewBox="0 0 24 24">
<path d="M23 16.92c0.016-0.714-0.236-1.404-0.673-1.943-0.46-0.566-1.129-0.967-1.925-1.080-0.8-0.098-1.695-0.314-2.586-0.646-0.433-0.159-0.893-0.218-1.344-0.174-0.663 0.064-1.307 0.349-1.819 0.855l-0.72 0.72c-1.77-1.117-3.36-2.667-4.583-4.589l0.726-0.726c0.322-0.33 0.563-0.726 0.707-1.156 0.212-0.632 0.214-1.336-0.039-2.011-0.289-0.753-0.518-1.644-0.644-2.595-0.104-0.714-0.456-1.345-0.963-1.804-0.539-0.486-1.256-0.779-2.027-0.771h-2.996c-0.088 0-0.182 0.004-0.273 0.012-0.824 0.075-1.542 0.478-2.033 1.066s-0.758 1.367-0.683 2.199c0.3 3.076 1.365 6.243 3.216 9.102 1.502 2.413 3.648 4.623 6.298 6.306 2.568 1.697 5.684 2.862 9.086 3.231 0.092 0.009 0.191 0.013 0.288 0.013 0.828-0.003 1.578-0.343 2.118-0.887s0.873-1.297 0.87-2.121zM21 16.92v3c0.001 0.28-0.109 0.53-0.29 0.712s-0.429 0.295-0.706 0.296c-3.149-0.336-5.961-1.391-8.263-2.912-2.428-1.543-4.359-3.537-5.702-5.694-1.697-2.62-2.655-5.481-2.924-8.238-0.024-0.268 0.064-0.526 0.229-0.724s0.403-0.33 0.678-0.355l3.088-0.005c0.271-0.003 0.507 0.094 0.687 0.256 0.17 0.154 0.288 0.366 0.323 0.608 0.142 1.072 0.408 2.117 0.757 3.025 0.081 0.216 0.080 0.447 0.010 0.658-0.049 0.145-0.131 0.281-0.242 0.395l-1.262 1.261c-0.324 0.324-0.379 0.814-0.162 1.201 1.584 2.785 3.839 4.957 6.381 6.378 0.397 0.222 0.882 0.144 1.195-0.166l1.27-1.27c0.166-0.164 0.377-0.257 0.598-0.279 0.152-0.015 0.31 0.005 0.459 0.060 1.022 0.381 2.070 0.636 3.034 0.754 0.241 0.034 0.462 0.166 0.615 0.355 0.147 0.181 0.231 0.412 0.226 0.682z"></path>
</symbol>
<symbol id="icon-exittoapp_baseline" viewBox="0 0 32 32">
<path d="M12.605 22.383l2.507 2.507 8.89-8.89-8.89-8.888-2.507 2.507 4.587 4.604h-17.193v3.555h17.191l-4.587 4.604zM28.445 0h-24.89c-1.963 0-3.555 1.592-3.555 3.555v0 7.112h3.555v-7.112h24.89v24.89h-24.89v-7.11h-3.555v7.11c0 1.963 1.592 3.555 3.555 3.555v0h24.89c1.961-0.007 3.549-1.594 3.555-3.555v-24.89c-0.007-1.961-1.594-3.549-3.555-3.555h-0.001z"></path>
</symbol>
<symbol id="icon-mail" viewBox="0 0 32 32">
<path d="M29.188 3.813h-26.375c-1.549 0-2.813 1.262-2.813 2.813v18.75c0 1.545 1.258 2.813 2.813 2.813h26.375c1.545 0 2.813-1.258 2.813-2.813v-18.75c0-1.545-1.258-2.813-2.813-2.813zM28.799 5.688l-12.739 12.74-12.85-12.74h25.589zM1.875 24.987v-17.982l9.030 8.953-9.030 9.030zM3.201 26.313l9.036-9.036 3.166 3.139c0.367 0.363 0.958 0.362 1.323-0.003l3.087-3.087 8.987 8.987h-25.598zM30.125 24.987l-8.987-8.987 8.987-8.987v17.973z"></path>
</symbol>
<symbol id="icon-camera" viewBox="0 0 32 32">
<path d="M16 10.001c-4.419 0-8 3.581-8 8s3.581 8 8 8c4.418 0 8-3.582 8-8s-3.582-8-8-8zM20.555 21.906c-2.156 2.516-5.943 2.807-8.459 0.65-2.517-2.156-2.807-5.944-0.65-8.459 2.155-2.517 5.943-2.807 8.459-0.65 2.515 2.155 2.806 5.944 0.65 8.459zM16 14.001c0.276 0 0.5 0.224 0.5 0.5s-0.224 0.5-0.5 0.5c-1.657 0-2.999 1.343-3 2.999v0.002c0 0.275-0.224 0.5-0.5 0.5s-0.5-0.225-0.5-0.5v-0.002c0.001-2.208 1.791-3.999 4-3.999zM29.492 9.042l-4.334-0.723-1.373-3.434c-0.459-1.145-1.553-1.885-2.785-1.885h-10c-1.232 0-2.326 0.74-2.786 1.886l-1.372 3.433-4.333 0.723c-1.454 0.241-2.509 1.485-2.509 2.958v15c0 1.654 1.346 3 3 3h26c1.654 0 3-1.346 3-3v-15c0-1.473-1.055-2.717-2.508-2.958zM30 27c0 0.553-0.447 1-1 1h-26c-0.553 0-1-0.447-1-1v-15c0-0.489 0.354-0.906 0.836-0.986l5.444-0.907 1.791-4.478c0.153-0.379 0.52-0.629 0.929-0.629h10c0.408 0 0.775 0.249 0.928 0.629l1.791 4.478 5.445 0.907c0.482 0.080 0.836 0.497 0.836 0.986v15z"></path>
</symbol>
<symbol id="icon-up-angle" viewBox="0 0 32 32">
<path d="M0.509 23.997l1.050 1.072c0.315 0.321 0.753 0.52 1.238 0.52s0.923-0.199 1.238-0.52l0-0 11.955-12.16 11.971 12.16c0.314 0.321 0.752 0.52 1.237 0.52s0.922-0.199 1.237-0.52l0-0 1.050-1.066c0.317-0.324 0.513-0.768 0.513-1.258s-0.196-0.934-0.513-1.258l0 0-14.253-14.531c-0.313-0.337-0.752-0.552-1.242-0.569l-0.003-0c-0.489 0.019-0.925 0.234-1.234 0.568l-0.001 0.001-14.24 14.49c-0.316 0.328-0.511 0.775-0.511 1.267s0.195 0.939 0.511 1.268l-0.001-0.001z"></path>
</symbol>
<symbol id="icon-plus" viewBox="0 0 35 32">
<path d="M33.37 18.289h-13.527v13.527h-4.16v-13.527h-13.53v-4.16h13.527v-13.53h4.163v13.527h13.527z"></path>
</symbol>
<symbol id="icon-bell" viewBox="0 0 24 32">
<path d="M11.821 30.908c2.251 0 3.482-1.594 3.482-3.84h-6.972c0 2.246 1.231 3.84 3.49 3.84z"></path>
<path d="M4.48 1.875c-0.173-0.294-0.482-0.491-0.837-0.508l-0.002-0h-0.066c-0 0-0.001 0-0.002 0-0.559 0-1.013 0.453-1.013 1.013 0 0.193 0.054 0.373 0.147 0.526l-0.003-0.004 16.471 28.079c0.188 0.326 0.538 0.506 0.892 0.506 0.007 0 0.015 0 0.022 0 0.559 0 1.013-0.453 1.013-1.013 0-0.193-0.054-0.373-0.147-0.526l0.003 0.004z"></path>
<path d="M14.731 25.694l-9.926-16.904c-0.593 1.461-0.962 3.328-0.962 5.688 0 6.581-2.195 7.435-3.309 8.913-0.181 0.238-0.29 0.539-0.29 0.866 0 0.793 0.643 1.436 1.436 1.436 0.002 0 0.004 0 0.006 0h10.164z"></path>
<path d="M23.123 23.392c-1.114-1.468-3.309-2.332-3.309-8.913 0-6.754-2.982-9.468-5.762-10.121-0.262-0.064-0.45-0.151-0.45-0.427v-0.209c0-0 0-0 0-0 0-0.978-0.789-1.772-1.765-1.781h-0.001c-0.971-0.015-1.768 0.809-1.768 1.781v0.209c0 0.269-0.188 0.363-0.448 0.427-0.71 0.167-1.336 0.437-1.899 0.798l0.024-0.014 12.055 20.553h2.165c1.193 0 1.875-1.361 1.158-2.302z"></path>
</symbol>
<symbol id="icon-clock-full" viewBox="0 0 32 32">
<path d="M19.477 22.351l-5.628-4.090c-0.19-0.142-0.311-0.366-0.311-0.619 0 0 0 0 0 0v0-10.748c0.001-0.423 0.343-0.765 0.766-0.766h3.061c0.424 0 0.768 0.344 0.768 0.768v0 8.789l4.053 2.95c0.191 0.141 0.313 0.365 0.313 0.618 0 0.171-0.056 0.328-0.15 0.455l0.001-0.002-1.801 2.479c-0.142 0.189-0.366 0.31-0.619 0.31-0.17 0-0.327-0.055-0.454-0.148l0.002 0.002zM15.836 0c-0.002 0-0.004 0-0.006 0-8.742 0-15.829 7.087-15.829 15.829 0 0.002 0 0.003 0 0.005v-0c0 0.001 0 0.003 0 0.004 0 8.742 7.087 15.829 15.829 15.829 0.002 0 0.003 0 0.005 0h-0c0.001 0 0.003 0 0.004 0 8.742 0 15.829-7.087 15.829-15.829 0-0.002 0-0.003 0-0.005v0c0-0.001 0-0.003 0-0.004 0-8.742-7.087-15.829-15.829-15.829-0.002 0-0.003 0-0.005 0h0z"></path>
</symbol>
<symbol id="icon-cancel" viewBox="0 0 32 32">
<path d="M31.833 3.207l-3.211-3.207-12.708 12.711-12.708-12.711-3.207 3.207 12.711 12.708-12.711 12.711 3.207 3.207 12.708-12.711 12.711 12.711 3.207-3.207-12.711-12.711z"></path>
</symbol>
<symbol id="icon-down-abgle" viewBox="0 0 48 32">
<path d="M48.227 6.821l-5.64-5.64-18.36 18.32-18.36-18.32-5.64 5.64 24 24z"></path>
</symbol>
<symbol id="icon-exit" viewBox="0 0 32 32">
<path d="M31.728 3.525v24.678c-0.006 1.944-1.581 3.518-3.524 3.525h-24.679c-1.944-0.006-3.518-1.581-3.525-3.524v-7.052h3.525v7.051h24.678v-24.678h-24.678v7.051h-3.525v-7.051c0.006-1.944 1.581-3.518 3.524-3.525h24.679c1.944 0.006 3.518 1.581 3.525 3.524v0.001zM17.010 17.627h-17.010v-3.526h17.098l-4.582-4.581 2.467-2.467 8.814 8.813-8.814 8.813-2.467-2.467z"></path>
</symbol>
<symbol id="icon-delete" viewBox="0 0 23 32">
<path d="M22.029 1.771h-5.506l-1.574-1.771h-7.868l-1.572 1.771h-5.508v3.539h22.029zM1.574 28.316c0 1.948 1.414 3.541 3.147 3.541h12.587c1.732 0 3.149-1.594 3.149-3.541v-21.237h-18.882z"></path>
</symbol>
<symbol id="icon-person" viewBox="0 0 32 32">
<path d="M32 28v4h-32v-4c0-5.299 10.701-8 16-8s16 2.701 16 8zM8 8c0-4.4 3.6-8 8-8s8 3.6 8 8-3.6 8-8 8-8-3.6-8-8z"></path>
</symbol>
<symbol id="icon-dost" viewBox="0 0 7 32">
<path d="M3.618 30.314c-0.032 0.002-0.070 0.002-0.108 0.002-1.319 0-2.388-1.069-2.388-2.388s1.069-2.388 2.388-2.388c0.038 0 0.076 0.001 0.114 0.003l-0.005-0c1.271 0.060 2.279 1.105 2.279 2.385s-1.008 2.326-2.274 2.385l-0.005 0z"></path>
<path d="M3.618 18.159c-0.023 0.001-0.050 0.001-0.077 0.001-1.319 0-2.388-1.069-2.388-2.388s1.069-2.388 2.388-2.388c0.027 0 0.054 0 0.081 0.001l-0.004-0c1.285 0.043 2.311 1.095 2.311 2.386s-1.026 2.344-2.307 2.386l-0.004 0z"></path>
<path d="M3.618 6.001c-0.032 0.002-0.070 0.002-0.108 0.002-1.319 0-2.388-1.069-2.388-2.388s1.069-2.388 2.388-2.388c0.038 0 0.076 0.001 0.114 0.003l-0.005-0c1.271 0.060 2.279 1.105 2.279 2.385s-1.008 2.326-2.274 2.385l-0.005 0z"></path>
</symbol>
<symbol id="icon-microphon" viewBox="0 0 28 32">
<path d="M2.436 15.452c0 1.824 0.469 3.548 1.404 5.173l1.92-1.995c-0.418-0.915-0.662-1.984-0.662-3.111 0-0.024 0-0.048 0-0.071l-0 0.004zM8.718 15.673l9.461-9.387v-0.295c0-1.28-0.469-2.389-1.404-3.324-0.828-0.866-1.993-1.405-3.284-1.405-0.014 0-0.029 0-0.043 0l0.002-0c-1.28 0-2.393 0.466-3.328 1.404-0.866 0.829-1.405 1.994-1.405 3.285 0 0.014 0 0.028 0 0.041v-0.002zM25.643 2.812l-26.382 26.389 1.991 1.991 6.578-6.578c1.088 0.693 2.443 1.163 4.068 1.408v5.173h3.104v-5.173c2.679-0.402 5.004-1.686 6.72-3.541l0.007-0.008c1.824-2.020 2.734-4.363 2.734-7.022h-2.66c0 2.315-0.814 4.238-2.439 5.767-1.525 1.375-3.555 2.216-5.782 2.216-0.046 0-0.092-0-0.138-0.001l0.007 0c-1.316-0.004-2.562-0.302-3.675-0.833l0.052 0.022 2.588-2.588c0.391 0.096 0.736 0.149 1.031 0.149 1.28 0 2.393-0.469 3.328-1.404 0.866-0.83 1.405-1.996 1.405-3.288 0-0.014-0-0.028-0-0.042v0.002-1.184l9.458-9.458z"></path>
</symbol>
<symbol id="icon-right_down_arrow" viewBox="0 0 32 32">
<path d="M5.419 31.861h23.611v-23.616h-7.093v11.2l-16.517-15.968-4.768 4.768 16.187 16.517h-11.419z"></path>
</symbol>
<symbol id="icon-up" viewBox="0 0 39 32">
<path d="M28.491 14.827c0.268 0.29 0.433 0.68 0.433 1.109 0 0.903-0.732 1.636-1.636 1.636-0.428 0-0.818-0.165-1.11-0.434l0.001 0.001-3.751-3.748v11.236c0 0.903-0.732 1.636-1.636 1.636s-1.636-0.732-1.636-1.636v-11.236l-3.748 3.748c-0.29 0.268-0.68 0.433-1.109 0.433-0.903 0-1.636-0.732-1.636-1.636 0-0.428 0.165-0.818 0.434-1.11l-0.001 0.001 6.542-6.542c0.296-0.295 0.704-0.478 1.156-0.478s0.86 0.183 1.156 0.478l-0-0zM4.91 2.503c-1.807 0-3.271 1.465-3.271 3.271v0 22.894c0 1.806 1.465 3.271 3.271 3.271h31.303c1.807 0 3.271-1.465 3.271-3.271v0-22.894c0-1.807-1.465-3.271-3.271-3.271v0z"></path>
</symbol>
<symbol id="icon-email" viewBox="0 0 42 32">
<path d="M35.834 7.962l-15.93 9.952-15.926-9.952v-3.981l15.926 9.952 15.926-9.952zM35.834 0h-31.853c-2.189 0-3.962 1.792-3.962 3.981l-0.019 23.891c0 2.192 1.792 3.984 3.981 3.984h31.853c2.189 0 3.981-1.792 3.981-3.984v-23.891c0-2.189-1.792-3.981-3.981-3.981z"></path>
</symbol>
<symbol id="icon-preferences" viewBox="0 0 32 32">
<path d="M21.456 0.912h3.417v3.415h6.831v3.415h-6.831v3.415h-3.415zM14.627 17.988v-3.414h17.076v3.415zM11.212 11.158v10.246h-3.415v-3.415h-6.831v-3.414h6.831v-3.417zM14.627 31.649v-10.246h3.414v3.415h13.661v3.415h-13.661v3.415zM18.042 4.327v3.415h-17.078v-3.415zM11.21 24.819v3.415h-10.244v-3.415z"></path>
</symbol>
<symbol id="icon-settings" viewBox="0 0 24 24">
<path d="M16 12c0-1.104-0.449-2.106-1.172-2.828s-1.724-1.172-2.828-1.172-2.106 0.449-2.828 1.172-1.172 1.724-1.172 2.828 0.449 2.106 1.172 2.828 1.724 1.172 2.828 1.172 2.106-0.449 2.828-1.172 1.172-1.724 1.172-2.828zM14 12c0 0.553-0.223 1.051-0.586 1.414s-0.861 0.586-1.414 0.586-1.051-0.223-1.414-0.586-0.586-0.861-0.586-1.414 0.223-1.051 0.586-1.414 0.861-0.586 1.414-0.586 1.051 0.223 1.414 0.586 0.586 0.861 0.586 1.414zM20.315 15.404c0.046-0.105 0.112-0.191 0.192-0.257 0.112-0.092 0.251-0.146 0.403-0.147h0.090c0.828 0 1.58-0.337 2.121-0.879s0.879-1.293 0.879-2.121-0.337-1.58-0.879-2.121-1.293-0.879-2.121-0.879h-0.159c-0.11-0.001-0.215-0.028-0.308-0.076-0.127-0.066-0.23-0.172-0.292-0.312-0.003-0.029-0.004-0.059-0.004-0.089-0.024-0.055-0.040-0.111-0.049-0.168 0.020-0.334 0.077-0.454 0.168-0.547l0.062-0.062c0.585-0.586 0.878-1.356 0.877-2.122s-0.294-1.536-0.881-2.122c-0.586-0.585-1.356-0.878-2.122-0.877s-1.536 0.294-2.12 0.879l-0.046 0.046c-0.083 0.080-0.183 0.136-0.288 0.166-0.14 0.039-0.291 0.032-0.438-0.033-0.101-0.044-0.187-0.11-0.253-0.19-0.092-0.112-0.146-0.251-0.147-0.403v-0.090c0-0.828-0.337-1.58-0.879-2.121s-1.293-0.879-2.121-0.879-1.58 0.337-2.121 0.879-0.879 1.293-0.879 2.121v0.159c-0.001 0.11-0.028 0.215-0.076 0.308-0.066 0.127-0.172 0.23-0.312 0.292-0.029 0.003-0.059 0.004-0.089 0.004-0.055 0.024-0.111 0.040-0.168 0.049-0.335-0.021-0.455-0.078-0.548-0.169l-0.062-0.062c-0.586-0.585-1.355-0.878-2.122-0.878s-1.535 0.294-2.122 0.882c-0.585 0.586-0.878 1.355-0.878 2.122s0.294 1.536 0.879 2.12l0.048 0.047c0.080 0.083 0.136 0.183 0.166 0.288 0.039 0.14 0.032 0.291-0.031 0.434-0.006 0.016-0.013 0.034-0.021 0.052-0.041 0.109-0.108 0.203-0.191 0.275-0.11 0.095-0.25 0.153-0.383 0.156h-0.090c-0.828 0-1.58 0.337-2.121 0.879s-0.879 1.294-0.879 2.122 0.337 1.58 0.879 2.121 1.293 0.879 2.121 0.879h0.159c0.11 0.001 0.215 0.028 0.308 0.076 0.128 0.067 0.233 0.174 0.296 0.321 0.024 0.055 0.040 0.111 0.049 0.168-0.020 0.334-0.077 0.454-0.168 0.547l-0.062 0.062c-0.585 0.586-0.878 1.356-0.877 2.122s0.294 1.536 0.881 2.122c0.586 0.585 1.356 0.878 2.122 0.877s1.536-0.294 2.12-0.879l0.047-0.048c0.083-0.080 0.183-0.136 0.288-0.166 0.14-0.039 0.291-0.032 0.434 0.031 0.016 0.006 0.034 0.013 0.052 0.021 0.109 0.041 0.203 0.108 0.275 0.191 0.095 0.11 0.153 0.25 0.156 0.383v0.092c0 0.828 0.337 1.58 0.879 2.121s1.293 0.879 2.121 0.879 1.58-0.337 2.121-0.879 0.879-1.293 0.879-2.121v-0.159c0.001-0.11 0.028-0.215 0.076-0.308 0.067-0.128 0.174-0.233 0.321-0.296 0.055-0.024 0.111-0.040 0.168-0.049 0.334 0.020 0.454 0.077 0.547 0.168l0.062 0.062c0.586 0.585 1.356 0.878 2.122 0.877s1.536-0.294 2.122-0.881c0.585-0.586 0.878-1.356 0.877-2.122s-0.294-1.536-0.879-2.12l-0.048-0.047c-0.080-0.083-0.136-0.183-0.166-0.288-0.039-0.14-0.032-0.291 0.031-0.434zM18.396 9.302c-0.012-0.201-0.038-0.297-0.076-0.382v0.080c0 0.043 0.003 0.084 0.008 0.125 0.021 0.060 0.043 0.119 0.068 0.177 0.004 0.090 0.005 0.091 0.005 0.092 0.249 0.581 0.684 1.030 1.208 1.303 0.371 0.193 0.785 0.298 1.211 0.303h0.18c0.276 0 0.525 0.111 0.707 0.293s0.293 0.431 0.293 0.707-0.111 0.525-0.293 0.707-0.431 0.293-0.707 0.293h-0.090c-0.637 0.003-1.22 0.228-1.675 0.603-0.323 0.266-0.581 0.607-0.75 0.993-0.257 0.582-0.288 1.21-0.127 1.782 0.119 0.423 0.341 0.814 0.652 1.136l0.072 0.073c0.196 0.196 0.294 0.45 0.294 0.707s-0.097 0.512-0.292 0.707c-0.197 0.197-0.451 0.295-0.709 0.295s-0.512-0.097-0.707-0.292l-0.061-0.061c-0.463-0.453-1.040-0.702-1.632-0.752-0.437-0.037-0.882 0.034-1.293 0.212-0.578 0.248-1.027 0.683-1.3 1.206-0.193 0.371-0.298 0.785-0.303 1.211v0.181c0 0.276-0.111 0.525-0.293 0.707s-0.43 0.292-0.706 0.292-0.525-0.111-0.707-0.293-0.293-0.431-0.293-0.707v-0.090c-0.015-0.66-0.255-1.242-0.644-1.692-0.284-0.328-0.646-0.585-1.058-0.744-0.575-0.247-1.193-0.274-1.756-0.116-0.423 0.119-0.814 0.341-1.136 0.652l-0.073 0.072c-0.196 0.196-0.45 0.294-0.707 0.294s-0.512-0.097-0.707-0.292c-0.197-0.197-0.295-0.451-0.295-0.709s0.097-0.512 0.292-0.707l0.061-0.061c0.453-0.463 0.702-1.040 0.752-1.632 0.037-0.437-0.034-0.882-0.212-1.293-0.248-0.578-0.683-1.027-1.206-1.3-0.371-0.193-0.785-0.298-1.211-0.303l-0.18 0.001c-0.276 0-0.525-0.111-0.707-0.293s-0.293-0.431-0.293-0.707 0.111-0.525 0.293-0.707 0.431-0.293 0.707-0.293h0.090c0.66-0.015 1.242-0.255 1.692-0.644 0.328-0.284 0.585-0.646 0.744-1.058 0.247-0.575 0.274-1.193 0.116-1.756-0.119-0.423-0.341-0.814-0.652-1.136l-0.073-0.073c-0.196-0.196-0.294-0.45-0.294-0.707s0.097-0.512 0.292-0.707c0.197-0.197 0.451-0.295 0.709-0.295s0.512 0.097 0.707 0.292l0.061 0.061c0.463 0.453 1.040 0.702 1.632 0.752 0.37 0.032 0.745-0.014 1.101-0.137 0.096-0.012 0.186-0.036 0.266-0.072-0.031 0.001-0.061 0.003-0.089 0.004-0.201 0.012-0.297 0.038-0.382 0.076h0.080c0.043 0 0.084-0.003 0.125-0.008 0.060-0.021 0.119-0.043 0.177-0.068 0.090-0.004 0.091-0.005 0.092-0.005 0.581-0.249 1.030-0.684 1.303-1.208 0.193-0.37 0.298-0.785 0.303-1.21v-0.181c0-0.276 0.111-0.525 0.293-0.707s0.431-0.293 0.707-0.293 0.525 0.111 0.707 0.293 0.293 0.431 0.293 0.707v0.090c0.003 0.637 0.228 1.22 0.603 1.675 0.266 0.323 0.607 0.581 0.996 0.751 0.578 0.255 1.206 0.286 1.778 0.125 0.423-0.119 0.814-0.341 1.136-0.652l0.073-0.072c0.196-0.196 0.45-0.294 0.707-0.294s0.512 0.097 0.707 0.292c0.197 0.197 0.295 0.451 0.295 0.709s-0.097 0.512-0.292 0.707l-0.061 0.061c-0.453 0.463-0.702 1.040-0.752 1.632-0.032 0.37 0.014 0.745 0.137 1.101 0.012 0.095 0.037 0.185 0.072 0.266-0.001-0.032-0.002-0.062-0.004-0.089z"></path>
</symbol>
<symbol id="icon-message-square" viewBox="0 0 24 24">
<path d="M22 15v-10c0-0.828-0.337-1.58-0.879-2.121s-1.293-0.879-2.121-0.879h-14c-0.828 0-1.58 0.337-2.121 0.879s-0.879 1.293-0.879 2.121v16c0 0.256 0.098 0.512 0.293 0.707 0.391 0.391 1.024 0.391 1.414 0l3.707-3.707h11.586c0.828 0 1.58-0.337 2.121-0.879s0.879-1.293 0.879-2.121zM20 15c0 0.276-0.111 0.525-0.293 0.707s-0.431 0.293-0.707 0.293h-12c-0.276 0-0.526 0.112-0.707 0.293l-2.293 2.293v-13.586c0-0.276 0.111-0.525 0.293-0.707s0.431-0.293 0.707-0.293h14c0.276 0 0.525 0.111 0.707 0.293s0.293 0.431 0.293 0.707z"></path>
</symbol>
<symbol id="icon-cross" viewBox="0 0 18 18">
<path d="M9 1c-4.418 0-8 3.582-8 8s3.582 8 8 8 8-3.582 8-8-3.582-8-8-8zM9 15c-3.309 0-6-2.691-6-6s2.691-6 6-6 6 2.691 6 6-2.691 6-6 6z"></path>
<path d="M11.722 6.292l-0.014-0.014c-0.371-0.371-0.973-0.371-1.344 0l-1.364 1.364-1.364-1.364c-0.371-0.371-0.973-0.371-1.344 0l-0.014 0.014c-0.371 0.371-0.371 0.973 0 1.344l1.364 1.364-1.364 1.364c-0.371 0.371-0.371 0.973 0 1.344l0.014 0.014c0.371 0.371 0.973 0.371 1.344 0l1.364-1.364 1.364 1.364c0.371 0.371 0.973 0.371 1.344 0l0.014-0.014c0.371-0.371 0.371-0.973 0-1.344l-1.364-1.364 1.364-1.364c0.371-0.371 0.371-0.973 0-1.344z"></path>
</symbol>
<symbol id="icon-close" viewBox="0 0 32 32">
<path d="M19.498 21.187l-3.941-3.939-3.942 3.941c-0.218 0.231-0.527 0.374-0.869 0.374-0.66 0-1.195-0.535-1.195-1.195 0-0.342 0.144-0.65 0.374-0.868l0.001-0 3.941-3.941-3.941-3.942c-0.216-0.216-0.35-0.515-0.35-0.845s0.134-0.629 0.35-0.845v0c0.217-0.215 0.515-0.348 0.845-0.348s0.628 0.133 0.845 0.348l3.942 3.941 3.941-3.941c0.217-0.215 0.515-0.348 0.845-0.348s0.628 0.133 0.845 0.348l-0-0c0.215 0.217 0.348 0.515 0.348 0.845s-0.133 0.628-0.348 0.845l-3.939 3.941 3.941 3.941c0.215 0.217 0.348 0.515 0.348 0.845s-0.133 0.628-0.348 0.845l0-0c-0.215 0.218-0.514 0.353-0.845 0.353s-0.629-0.135-0.845-0.353l-0-0zM15.557 0c-0.001 0-0.002 0-0.003 0-8.59 0-15.554 6.964-15.554 15.554 0 0.001 0 0.002 0 0.003v-0c0 0 0 0.001 0 0.002 0 8.59 6.964 15.554 15.554 15.554 0.001 0 0.002 0 0.003 0h-0c0 0 0.001 0 0.002 0 8.59 0 15.554-6.964 15.554-15.554 0-0.001 0-0.001 0-0.002v0c0-0.001 0-0.002 0-0.003 0-8.59-6.964-15.554-15.554-15.554-0.001 0-0.001 0-0.002 0h0z"></path>
</symbol>
<symbol id="icon-messageFull" viewBox="0 0 32 32">
<path d="M29.008 0.725h-24.091c-1.653 0-3.008 1.355-3.008 3.013v27.102l6.023-6.023h21.079c1.657 0 3.013-1.355 3.013-3.010v-18.069c0-1.657-1.355-3.013-3.013-3.013z"></path>
</symbol>
<symbol id="icon-talk" viewBox="0 0 30 32">
<path d="M29.010 12.77v6.023h-3.013v-6.023zM19.975 6.747h3.013v18.069h-3.013zM1.909 12.77h3.010v6.023h-3.010zM13.954 0.725h3.010v30.114h-3.010zM7.931 6.747h3.010v18.069h-3.010z"></path>
</symbol>
<symbol id="icon-video" viewBox="0 0 52 32">
<path d="M38.86 11.664v-9.22c-0.002-1.455-1.181-2.634-2.636-2.636h-31.616c0 0 0 0 0 0-1.457 0-2.638 1.18-2.64 2.636v26.348c0.002 1.456 1.183 2.636 2.64 2.636 0 0 0 0 0 0h31.616c0 0 0 0 0 0 1.457 0 2.638-1.18 2.64-2.636v-9.22l10.536 10.54v-28.992z"></path>
</symbol>
<symbol id="icon-search" viewBox="0 0 32 32">
<path d="M22.88 20.126h-1.467l-0.513-0.493c1.785-2.070 2.872-4.786 2.872-7.756 0-6.577-5.332-11.909-11.909-11.909s-11.909 5.332-11.909 11.909c0 6.577 5.332 11.909 11.909 11.909 2.97 0 5.686-1.087 7.771-2.885l-0.015 0.013 0.493 0.513v1.452l9.149 9.129 2.725-2.725zM11.904 20.126c-0.004 0-0.008 0-0.012 0-4.547 0-8.234-3.686-8.234-8.234s3.686-8.234 8.234-8.234c4.547 0 8.234 3.686 8.234 8.234v0c0 0.006 0 0.013 0 0.021 0 4.536-3.677 8.213-8.213 8.213-0.007 0-0.014 0-0.022-0h0.001z"></path>
</symbol>
<symbol id="icon-message" viewBox="0 0 32 32">
<path stroke-linejoin="round" stroke-linecap="round" stroke-miterlimit="20" stroke-width="3.2" d="M28.8 19.91c0 1.636-1.327 2.965-2.963 2.965h-17.777l-5.926 5.924v-23.703c0-1.636 1.327-2.963 2.963-2.963h20.74c1.636 0 2.963 1.327 2.963 2.963z"></path>
</symbol>
<symbol id="icon-call-missed" viewBox="0 0 20 32">
<path d="M18.336 28.328l-12.868-12.868 9.478-9.476v7.78h3.39v-13.558h-13.564v3.388h7.782l-11.866 11.866 15.258 15.26z"></path>
</symbol>
<symbol id="icon-emoji" viewBox="0 0 32 32">
<path d="M18.526 12.632c0-1.395 1.131-2.526 2.526-2.526s2.526 1.131 2.526 2.526v0c0 1.395-1.131 2.526-2.526 2.526s-2.526-1.131-2.526-2.526v0z"></path>
<path d="M8.421 12.632c0-1.395 1.131-2.526 2.526-2.526s2.526 1.131 2.526 2.526v0c0 1.395-1.131 2.526-2.526 2.526s-2.526-1.131-2.526-2.526v0z"></path>
<path d="M16.35 24.29c3.537 0 6.555-2.201 7.769-5.312h-2.535c-1.062 1.824-3.007 3.032-5.234 3.035h-0c-2.247 0-4.173-1.229-5.236-3.035h-2.533c1.246 3.135 4.253 5.312 7.769 5.312h0zM16.35 28.083c-0.001 0-0.002 0-0.003 0-6.703 0-12.136-5.434-12.136-12.136 0-0.001 0-0.002 0-0.004v0c0-0.001 0-0.002 0-0.003 0-6.703 5.434-12.136 12.136-12.136 0.001 0 0.002 0 0.004 0h-0c0.001 0 0.002 0 0.003 0 6.703 0 12.136 5.434 12.136 12.136 0 0.001 0 0.002 0 0.004v-0c0 0.001 0 0.002 0 0.003 0 6.703-5.434 12.136-12.136 12.136-0.001 0-0.002 0-0.004 0h0zM16.333 0.768c-8.376 0-15.158 6.797-15.158 15.175s6.782 15.175 15.158 15.175c8.394 0 15.192-6.797 15.192-15.175s-6.797-15.175-15.192-15.175z"></path>
</symbol>
<symbol id="icon-circul" viewBox="0 0 32 32">
<path d="M0 16c0-8.837 7.163-16 16-16s16 7.163 16 16-7.163 16-16 16-16-7.163-16-16z"></path>
</symbol>
<symbol id="icon-apps" viewBox="0 0 31 32">
<path d="M2.16 9.080h6.682v-6.92h-6.682zM12.182 29.83h6.682v-6.91h-6.682zM2.16 29.83h6.682v-6.91h-6.682zM2.16 19.449h6.682v-6.908h-6.682zM12.182 19.449h6.682v-6.908h-6.682zM22.204 2.16v6.92h6.68v-6.92zM12.182 9.080h6.682v-6.92h-6.682zM22.204 19.461h6.68v-6.92h-6.68zM22.204 29.842h6.68v-6.922h-6.68z"></path>
</symbol>
<symbol id="icon-arrow-down" viewBox="0 0 32 32">
<path d="M0 6.4l17.37 17.37 17.376-17.37z"></path>
</symbol>
<symbol id="icon-arrow-up" viewBox="0 0 32 32">
<path d="M0 23.77l17.37-17.37 17.37 17.37z"></path>
</symbol>
<symbol id="icon-folder" viewBox="0 0 32 32">
<path d="M11.607 6.756l3.237 3.2h14.293v16.025h-25.9v-19.225h8.37zM12.949 3.556h-9.712c-0.002 0-0.003 0-0.005 0-1.771 0-3.207 1.431-3.216 3.199v0.001l-0.016 19.234c0.017 1.771 1.457 3.2 3.23 3.2 0.003 0 0.005 0 0.008 0h25.9c0.002 0 0.005 0 0.007 0 1.773 0 3.213-1.429 3.23-3.198v-16.027c-0.012-1.775-1.454-3.209-3.23-3.209-0.003 0-0.005 0-0.008 0h-12.951z"></path>
</symbol>
<symbol id="icon-groups" viewBox="0 0 32 32">
<path d="M21.733 14.228c2.421-0.123 4.338-2.115 4.338-4.556 0-0.079-0.002-0.157-0.006-0.235l0 0.011c0.004-0.067 0.006-0.146 0.006-0.226 0-2.44-1.917-4.433-4.327-4.555l-0.011-0c-2.429 0.122-4.352 2.12-4.352 4.568 0 0.075 0.002 0.149 0.005 0.222l-0-0.010c-0.003 0.064-0.005 0.138-0.005 0.213 0 2.448 1.923 4.446 4.341 4.568l0.011 0zM10.144 14.228c2.421-0.123 4.338-2.115 4.338-4.556 0-0.079-0.002-0.157-0.006-0.235l0 0.011c0.004-0.067 0.006-0.146 0.006-0.225 0-2.441-1.918-4.435-4.329-4.556l-0.011-0c-2.429 0.122-4.352 2.12-4.352 4.568 0 0.075 0.002 0.149 0.005 0.222l-0-0.010c-0.003 0.064-0.005 0.138-0.005 0.213 0 2.448 1.923 4.446 4.341 4.568l0.011 0zM10.144 17.415c-3.379 0-10.144 1.865-10.144 5.577v3.984h20.281v-3.984c0-3.712-6.765-5.577-10.14-5.577zM21.733 17.415c-0.42 0-0.899 0.032-1.405 0.080 1.715 1.25 2.825 3.241 2.853 5.493l0 0.005v3.984h8.685v-3.984c0-3.712-6.761-5.577-10.133-5.577z"></path>
</symbol>
<symbol id="icon-list" viewBox="0 0 32 32">
<path d="M0 21.020h31.059v-3.452h-31.059zM0 27.923h31.059v-3.452h-31.059zM0 14.118h31.059v-3.45h-31.059zM0 3.765v3.45h31.059v-3.45z"></path>
</symbol>
<symbol id="icon-notifications" viewBox="0 0 32 32">
<path d="M16.413 32.824c1.806-0.010 3.266-1.475 3.267-3.282v-0h-6.535c0.001 1.807 1.461 3.273 3.266 3.283h0.001zM27.032 22.976v-9.026c-0.004-4.996-3.45-9.185-8.096-10.324l-0.073-0.015v-1.149c0-1.353-1.097-2.451-2.451-2.451s-2.451 1.097-2.451 2.451v0 1.149c-4.718 1.154-8.165 5.344-8.168 10.339v9.026l-3.267 3.283v1.64h27.773v-1.64z"></path>
</symbol>
<symbol id="icon-search" viewBox="0 0 32 32">
<path d="M22.88 20.126h-1.467l-0.513-0.493c1.785-2.070 2.872-4.786 2.872-7.756 0-6.577-5.332-11.909-11.909-11.909s-11.909 5.332-11.909 11.909c0 6.577 5.332 11.909 11.909 11.909 2.97 0 5.686-1.087 7.771-2.885l-0.015 0.013 0.493 0.513v1.452l9.149 9.129 2.725-2.725zM11.904 20.126c-0.004 0-0.008 0-0.012 0-4.547 0-8.234-3.686-8.234-8.234s3.686-8.234 8.234-8.234c4.547 0 8.234 3.686 8.234 8.234v0c0 0.006 0 0.013 0 0.021 0 4.536-3.677 8.213-8.213 8.213-0.007 0-0.014 0-0.022-0h0.001z"></path>
</symbol>
<symbol id="icon-settings" viewBox="0 0 32 32">
<path stroke-linejoin="round" stroke-linecap="round" stroke-miterlimit="4" stroke-width="2.0426" d="M19.528 16c0 1.949-1.58 3.528-3.528 3.528s-3.528-1.58-3.528-3.528c0-1.949 1.58-3.528 3.528-3.528v0c1.949 0 3.528 1.58 3.528 3.528v0z"></path>
<path stroke-linejoin="round" stroke-linecap="round" stroke-miterlimit="4" stroke-width="2.0426" d="M26.077 20.085c-0.121 0.267-0.191 0.579-0.191 0.907 0 0.612 0.244 1.166 0.641 1.572l-0-0 0.082 0.082c0.493 0.493 0.798 1.174 0.798 1.927 0 1.505-1.22 2.725-2.725 2.725-0.752 0-1.434-0.305-1.927-0.798v0l-0.082-0.082c-0.407-0.395-0.963-0.638-1.576-0.638-1.244 0-2.253 1.003-2.264 2.244v0.233c0 1.504-1.219 2.723-2.723 2.723s-2.723-1.219-2.723-2.723v0-0.123c-0.023-0.941-0.621-1.737-1.455-2.051l-0.015-0.005c-0.267-0.121-0.579-0.191-0.907-0.191-0.612 0-1.166 0.244-1.572 0.641l0-0-0.082 0.082c-0.493 0.493-1.174 0.798-1.927 0.798-1.505 0-2.725-1.22-2.725-2.725 0-0.752 0.305-1.434 0.798-1.927v0l0.082-0.082c0.395-0.407 0.638-0.963 0.638-1.576 0-1.244-1.003-2.253-2.244-2.264h-0.233c-1.504 0-2.723-1.219-2.723-2.723s1.219-2.723 2.723-2.723v0h0.123c0.941-0.023 1.737-0.621 2.051-1.455l0.005-0.015c0.121-0.267 0.191-0.579 0.191-0.907 0-0.612-0.244-1.166-0.641-1.572l0 0-0.082-0.082c-0.493-0.493-0.798-1.174-0.798-1.927 0-1.505 1.22-2.725 2.725-2.725 0.752 0 1.434 0.305 1.927 0.798l0.082 0.082c0.405 0.396 0.959 0.641 1.571 0.641 0.328 0 0.64-0.070 0.921-0.197l-0.014 0.006h0.109c0.805-0.351 1.358-1.139 1.362-2.056v-0.232c0-1.504 1.219-2.723 2.723-2.723s2.723 1.219 2.723 2.723v0 0.123c0.011 1.242 1.021 2.245 2.264 2.245 0.613 0 1.169-0.243 1.576-0.639l-0.001 0.001 0.082-0.082c0.493-0.493 1.174-0.798 1.927-0.798 1.505 0 2.725 1.22 2.725 2.725 0 0.752-0.305 1.434-0.798 1.927v0l-0.082 0.082c-0.396 0.405-0.641 0.959-0.641 1.571 0 0.328 0.070 0.64 0.197 0.921l-0.006-0.014v0.109c0.351 0.805 1.139 1.358 2.056 1.362h0.232c1.504 0 2.723 1.219 2.723 2.723s-1.219 2.723-2.723 2.723v0h-0.123c-0.917 0.004-1.705 0.557-2.051 1.347l-0.006 0.014z"></path>
</symbol>
<symbol id="icon-teammates" viewBox="0 0 32 32">
<path d="M20.073 15.84c0.003 0 0.008 0 0.012 0 3.17 0 5.74-2.57 5.74-5.74s-2.57-5.74-5.74-5.74c-3.17 0-5.74 2.57-5.74 5.74 0 0.001 0 0.002 0 0.003v-0c0 0 0 0 0 0 0 3.165 2.563 5.732 5.728 5.737h0zM7.174 12.972v-4.305h-2.871v4.305h-4.303v2.868h4.303v4.303h2.868v-4.303h4.305v-2.868zM20.073 18.708c-3.831 0-11.476 1.923-11.476 5.74v2.868h22.953v-2.88c0.012-3.805-7.633-5.728-11.476-5.728z"></path>
</symbol>
<symbol id="icon-watch" viewBox="0 0 32 32">
<path d="M16.001 0c-8.837 0-16.001 7.164-16.001 16.001s7.164 16.001 16.001 16.001c8.837 0 16.001-7.164 16.001-16.001v0c-0.026-8.827-7.174-15.975-15.998-16.001h-0.003zM16.001 28.8c-7.070 0-12.801-5.731-12.801-12.801s5.731-12.801 12.801-12.801c7.070 0 12.801 5.731 12.801 12.801v0c-0.010 7.066-5.735 12.791-12.8 12.801h-0.001zM16.801 8h-2.401v9.6l8.327 5.12 1.28-2.080-7.207-4.326z"></path>
</symbol>
<symbol id="icon-weekend" viewBox="0 0 32 32">
<path d="M28 12.32v-2.601c-0.035-2.162-1.796-3.901-3.963-3.901-0.013 0-0.026 0-0.039 0h-15.998c-0.011-0-0.024-0-0.037-0-2.167 0-3.928 1.739-3.963 3.898l-0 0.003v2.601c-0.011-0-0.024-0-0.037-0-2.167 0-3.928 1.739-3.963 3.898l-0 0.003v6.502c0.038 2.16 1.798 3.895 3.963 3.895 0.013 0 0.026-0 0.039-0h23.998c0.011 0 0.024 0 0.037 0 2.165 0 3.925-1.736 3.963-3.892l0-0.004v-6.502c-0.035-2.162-1.796-3.901-3.963-3.901-0.013 0-0.026 0-0.039 0h0.002zM6.666 9.719c0.011-0.721 0.598-1.3 1.321-1.3 0.005 0 0.009 0 0.014 0h15.999c0.004-0 0.009-0 0.013-0 0.722 0 1.309 0.58 1.321 1.299v3.616c-0.813 0.704-1.327 1.735-1.334 2.886v2.602h-16v-2.601c-0.007-1.152-0.521-2.184-1.329-2.883l-0.005-0.004zM29.332 22.723c-0.011 0.721-0.598 1.3-1.321 1.3-0.005 0-0.009-0-0.014-0h-23.998c-0.004 0-0.009 0-0.013 0-0.722 0-1.309-0.58-1.321-1.299v-6.503c0.024-0.717 0.612-1.29 1.333-1.29s1.309 0.572 1.333 1.288l0 0.002v5.201h21.334v-5.201c0.024-0.717 0.612-1.29 1.333-1.29s1.309 0.572 1.333 1.288l0 0.002z"></path>
</symbol>
</defs>
</svg>
