<svg id="undraw_calendar_dutt" xmlns="http://www.w3.org/2000/svg" xmlns:xlink="http://www.w3.org/1999/xlink" width="494.9" height="390.922" viewBox="0 0 494.9 390.922">
  <defs>
    <linearGradient id="linear-gradient" x1="0.5" y1="1" x2="0.5" gradientUnits="objectBoundingBox">
      <stop offset="0" stop-color="gray" stop-opacity="0.251"/>
      <stop offset="0.54" stop-color="gray" stop-opacity="0.122"/>
      <stop offset="1" stop-color="gray" stop-opacity="0.102"/>
    </linearGradient>
    <linearGradient id="linear-gradient-4" y2="-0.001" xlink:href="#linear-gradient"/>
    <linearGradient id="linear-gradient-7" x1="29.773" y1="26.262" x2="29.773" y2="25.263" xlink:href="#linear-gradient"/>
    <linearGradient id="linear-gradient-8" y1="0.999" xlink:href="#linear-gradient"/>
    <linearGradient id="linear-gradient-9" x1="35.813" y1="30.815" x2="35.813" y2="29.815" xlink:href="#linear-gradient"/>
    <linearGradient id="linear-gradient-10" x1="39.503" y1="24.82" x2="39.503" y2="23.82" xlink:href="#linear-gradient"/>
    <linearGradient id="linear-gradient-11" x1="30.785" y1="19.69" x2="30.785" y2="18.69" xlink:href="#linear-gradient"/>
    <linearGradient id="linear-gradient-12" x1="25.655" y1="10.971" x2="25.655" y2="9.972" xlink:href="#linear-gradient"/>
    <linearGradient id="linear-gradient-13" x1="25.656" y1="0.713" x2="25.656" y2="-0.287" xlink:href="#linear-gradient"/>
    <linearGradient id="linear-gradient-14" x1="40.017" y1="-13.391" x2="40.017" y2="-14.391" xlink:href="#linear-gradient"/>
    <linearGradient id="linear-gradient-15" x1="50.274" y1="-13.135" x2="50.274" y2="-14.134" xlink:href="#linear-gradient"/>
    <linearGradient id="linear-gradient-16" x1="58.481" y1="-8.006" x2="58.481" y2="-9.006" xlink:href="#linear-gradient"/>
    <linearGradient id="linear-gradient-17" x1="63.609" y1="0.2" x2="63.609" y2="-0.799" xlink:href="#linear-gradient"/>
  </defs>
  <rect id="Rectangle_570" data-name="Rectangle 570" width="473.809" height="313.306" transform="translate(21.09)" fill="url(#linear-gradient)"/>
  <rect id="Rectangle_571" data-name="Rectangle 571" width="464.333" height="266.814" transform="translate(25.236 37.016)" fill="#fff"/>
  <rect id="Rectangle_572" data-name="Rectangle 572" width="464.333" height="30.501" transform="translate(25.236 6.515)" fill="#a7a7a7"/>
  <rect id="Rectangle_573" data-name="Rectangle 573" width="452.488" height="232.759" transform="translate(31.751 56.265)" fill="url(#linear-gradient)"/>
  <rect id="Rectangle_574" data-name="Rectangle 574" width="54.488" height="43.531" transform="translate(37.378 60.411)" fill="#d3e6fb" opacity="0.5"/>
  <rect id="Rectangle_575" data-name="Rectangle 575" width="54.488" height="43.531" transform="translate(92.458 60.411)" fill="#fff"/>
  <rect id="Rectangle_576" data-name="Rectangle 576" width="54.488" height="43.531" transform="translate(147.538 60.411)" fill="#6c63ff" opacity="0.2"/>
  <rect id="Rectangle_577" data-name="Rectangle 577" width="54.488" height="43.531" transform="translate(202.619 60.411)" fill="#fff"/>
  <rect id="Rectangle_578" data-name="Rectangle 578" width="54.488" height="43.531" transform="translate(257.699 60.411)" fill="#fff"/>
  <rect id="Rectangle_579" data-name="Rectangle 579" width="54.488" height="43.531" transform="translate(312.779 60.411)" fill="#d3e6fb" opacity="0.5"/>
  <rect id="Rectangle_580" data-name="Rectangle 580" width="54.488" height="43.531" transform="translate(367.86 60.411)" fill="#fff"/>
  <rect id="Rectangle_581" data-name="Rectangle 581" width="54.488" height="43.531" transform="translate(422.94 60.411)" fill="#6c63ff" opacity="0.2"/>
  <rect id="Rectangle_582" data-name="Rectangle 582" width="54.488" height="43.531" transform="translate(37.378 104.83)" fill="#6c63ff" opacity="0.2"/>
  <rect id="Rectangle_583" data-name="Rectangle 583" width="54.488" height="43.531" transform="translate(92.458 104.83)" fill="#6c63ff" opacity="0.2"/>
  <rect id="Rectangle_584" data-name="Rectangle 584" width="54.488" height="43.531" transform="translate(147.538 104.83)" fill="#fff"/>
  <rect id="Rectangle_585" data-name="Rectangle 585" width="54.488" height="43.531" transform="translate(202.619 104.83)" fill="#00b9ff" opacity="0.5"/>
  <rect id="Rectangle_586" data-name="Rectangle 586" width="54.488" height="43.531" transform="translate(257.699 104.83)" fill="#fff"/>
  <rect id="Rectangle_587" data-name="Rectangle 587" width="54.488" height="43.531" transform="translate(312.779 104.83)" fill="#6c63ff" opacity="0.2"/>
  <rect id="Rectangle_588" data-name="Rectangle 588" width="54.488" height="43.531" transform="translate(367.86 104.83)" fill="#d3e6fb" opacity="0.5"/>
  <rect id="Rectangle_589" data-name="Rectangle 589" width="54.488" height="43.531" transform="translate(422.94 104.83)" fill="#fff"/>
  <rect id="Rectangle_590" data-name="Rectangle 590" width="54.488" height="43.531" transform="translate(37.378 148.658)" fill="#fff"/>
  <rect id="Rectangle_591" data-name="Rectangle 591" width="54.488" height="43.531" transform="translate(92.458 148.658)" fill="#fff"/>
  <rect id="Rectangle_592" data-name="Rectangle 592" width="54.488" height="43.531" transform="translate(147.538 148.658)" fill="#6c63ff" opacity="0.2"/>
  <rect id="Rectangle_593" data-name="Rectangle 593" width="54.488" height="43.531" transform="translate(202.619 148.658)" fill="#fff"/>
  <rect id="Rectangle_594" data-name="Rectangle 594" width="54.488" height="43.531" transform="translate(257.699 148.658)" fill="#6c63ff" opacity="0.2"/>
  <rect id="Rectangle_595" data-name="Rectangle 595" width="54.488" height="43.531" transform="translate(312.779 148.658)" fill="#fff"/>
  <rect id="Rectangle_596" data-name="Rectangle 596" width="54.488" height="43.531" transform="translate(367.86 148.658)" fill="#fff"/>
  <rect id="Rectangle_597" data-name="Rectangle 597" width="54.488" height="43.531" transform="translate(422.94 148.658)" fill="#6c63ff" opacity="0.2"/>
  <rect id="Rectangle_598" data-name="Rectangle 598" width="54.488" height="43.531" transform="translate(37.378 192.485)" fill="#fff"/>
  <rect id="Rectangle_599" data-name="Rectangle 599" width="54.488" height="43.531" transform="translate(92.458 192.485)" fill="#6c63ff" opacity="0.5"/>
  <rect id="Rectangle_600" data-name="Rectangle 600" width="54.488" height="43.531" transform="translate(147.538 192.485)" fill="#d3e6fb" opacity="0.5"/>
  <rect id="Rectangle_601" data-name="Rectangle 601" width="54.488" height="43.531" transform="translate(202.619 192.485)" fill="#fff"/>
  <rect id="Rectangle_602" data-name="Rectangle 602" width="54.488" height="43.531" transform="translate(257.699 192.485)" fill="#fff"/>
  <rect id="Rectangle_603" data-name="Rectangle 603" width="54.488" height="43.531" transform="translate(312.779 192.485)" fill="#d3e6fb" opacity="0.5"/>
  <rect id="Rectangle_604" data-name="Rectangle 604" width="54.488" height="43.531" transform="translate(367.86 192.485)" fill="#fff"/>
  <rect id="Rectangle_605" data-name="Rectangle 605" width="54.488" height="43.531" transform="translate(422.94 192.485)" fill="#d3e6fb" opacity="0.5"/>
  <rect id="Rectangle_606" data-name="Rectangle 606" width="54.488" height="43.531" transform="translate(37.378 236.905)" fill="#6c63ff" opacity="0.5"/>
  <rect id="Rectangle_607" data-name="Rectangle 607" width="54.488" height="43.531" transform="translate(92.458 236.905)" fill="#6c63ff" opacity="0.2"/>
  <rect id="Rectangle_608" data-name="Rectangle 608" width="54.488" height="43.531" transform="translate(147.538 236.905)" fill="#fff"/>
  <rect id="Rectangle_609" data-name="Rectangle 609" width="54.488" height="43.531" transform="translate(202.619 236.905)" fill="#d3e6fb" opacity="0.5"/>
  <rect id="Rectangle_610" data-name="Rectangle 610" width="54.488" height="43.531" transform="translate(257.699 236.905)" fill="#6c63ff" opacity="0.2"/>
  <rect id="Rectangle_611" data-name="Rectangle 611" width="54.488" height="43.531" transform="translate(312.779 236.905)" fill="#fff"/>
  <rect id="Rectangle_612" data-name="Rectangle 612" width="54.488" height="43.531" transform="translate(367.86 236.905)" fill="#6c63ff" opacity="0.2"/>
  <rect id="Rectangle_613" data-name="Rectangle 613" width="54.488" height="43.531" transform="translate(422.94 236.905)" fill="#fff"/>
  <rect id="Rectangle_614" data-name="Rectangle 614" width="16.583" height="16.583" transform="translate(41.82 152.804)" fill="#69f0ae"/>
  <rect id="Rectangle_615" data-name="Rectangle 615" width="16.583" height="16.583" transform="translate(206.468 65.149)" fill="#69f0ae"/>
  <rect id="Rectangle_616" data-name="Rectangle 616" width="16.583" height="16.583" transform="translate(204.692 152.804)" fill="#69f0ae"/>
  <rect id="Rectangle_617" data-name="Rectangle 617" width="16.583" height="16.583" transform="translate(260.956 194.854)" fill="#69f0ae"/>
  <rect id="Rectangle_618" data-name="Rectangle 618" width="16.583" height="16.583" transform="translate(370.525 152.804)" fill="#69f0ae"/>
  <circle id="Ellipse_40" data-name="Ellipse 40" cx="101.603" cy="101.603" r="101.603" transform="translate(0 187.717)" fill="url(#linear-gradient)"/>
  <path id="Path_597" data-name="Path 597" d="M98.86,0A98.86,98.86,0,1,1,0,98.86,98.86,98.86,0,0,1,98.86,0Z" transform="translate(2.742 190.46)" fill="#efefef"/>
  <circle id="Ellipse_42" data-name="Ellipse 42" cx="80.323" cy="80.323" r="80.323" transform="translate(21.28 208.997)" fill="#fff"/>
  <circle id="Ellipse_43" data-name="Ellipse 43" cx="4.803" cy="4.803" r="4.803" transform="translate(96.799 284.517)" fill="url(#linear-gradient-4)"/>
  <line id="Line_6" data-name="Line 6" x1="26.089" y2="61.785" transform="translate(102.29 227.535)" fill="#6c63ff"/>
  <path id="Path_594" data-name="Path 594" d="M172.571,445.872l-2.961-1L196.262,382.5l2.961,1.392Z" transform="translate(-69.156 -155.96)" fill="url(#linear-gradient)"/>
  <rect id="Rectangle_619" data-name="Rectangle 619" width="67.068" height="2.061" transform="matrix(0.389, -0.921, 0.921, 0.389, 101.333, 288.899)" fill="#a7a7a7"/>
  <line id="Line_7" data-name="Line 7" x2="17.164" y2="31.579" transform="translate(102.29 290.007)" fill="#6c63ff"/>
  <path id="Path_595" data-name="Path 595" d="M187.786,521.667,170.61,489.684l2.369-1.185,17.768,31.39Z" transform="translate(-69.564 -199.18)" fill="url(#linear-gradient)"/>
  <rect id="Rectangle_620" data-name="Rectangle 620" width="2.061" height="35.944" transform="translate(101.376 290.517) rotate(-28.52)" fill="#a7a7a7"/>
  <circle id="Ellipse_44" data-name="Ellipse 44" cx="2.061" cy="2.061" r="2.061" transform="translate(174.374 289.32)" fill="#6c63ff"/>
  <circle id="Ellipse_45" data-name="Ellipse 45" cx="2.677" cy="2.677" r="2.677" transform="translate(33.489 253.293) rotate(-60)" fill="url(#linear-gradient-7)"/>
  <circle id="Ellipse_46" data-name="Ellipse 46" cx="2.677" cy="2.677" r="2.677" transform="translate(34.173 327.536) rotate(-30)" fill="url(#linear-gradient-8)"/>
  <circle id="Ellipse_47" data-name="Ellipse 47" cx="2.677" cy="2.677" r="2.677" transform="translate(24.099 288.704)" fill="url(#linear-gradient-9)"/>
  <circle id="Ellipse_48" data-name="Ellipse 48" cx="2.677" cy="2.677" r="2.677" transform="translate(60.807 223.875) rotate(-30)" fill="url(#linear-gradient-10)"/>
  <circle id="Ellipse_49" data-name="Ellipse 49" cx="2.677" cy="2.677" r="2.677" transform="translate(97.88 214.267) rotate(-30)" fill="url(#linear-gradient-11)"/>
  <circle id="Ellipse_50" data-name="Ellipse 50" cx="2.677" cy="2.677" r="2.677" transform="translate(134.952 223.878) rotate(-30)" fill="url(#linear-gradient-12)"/>
  <circle id="Ellipse_51" data-name="Ellipse 51" cx="2.677" cy="2.677" r="2.677" transform="translate(162.411 251.34) rotate(-30)" fill="url(#linear-gradient-13)"/>
  <circle id="Ellipse_52" data-name="Ellipse 52" cx="2.677" cy="2.677" r="2.677" transform="translate(161.728 327.542) rotate(-30)" fill="url(#linear-gradient-14)"/>
  <circle id="Ellipse_53" data-name="Ellipse 53" cx="2.677" cy="2.677" r="2.677" transform="translate(133.578 354.314) rotate(-30)" fill="url(#linear-gradient-15)"/>
  <circle id="Ellipse_54" data-name="Ellipse 54" cx="2.677" cy="2.677" r="2.677" transform="translate(97.877 362.557) rotate(-30)" fill="url(#linear-gradient-16)"/>
  <circle id="Ellipse_55" data-name="Ellipse 55" cx="2.677" cy="2.677" r="2.677" transform="translate(62.181 354.317) rotate(-30)" fill="url(#linear-gradient-17)"/>
  <circle id="Ellipse_56" data-name="Ellipse 56" cx="2.061" cy="2.061" r="2.061" transform="translate(99.541 213.114)" fill="#77d4f7"/>
  <circle id="Ellipse_57" data-name="Ellipse 57" cx="2.061" cy="2.061" r="2.061" transform="translate(135.861 225.86) rotate(-60)" fill="#77d4f7"/>
  <circle id="Ellipse_58" data-name="Ellipse 58" cx="2.061" cy="2.061" r="2.061" transform="translate(162.997 251.495) rotate(-30)" fill="#77d4f7"/>
  <circle id="Ellipse_59" data-name="Ellipse 59" cx="2.061" cy="2.061" r="2.061" transform="translate(162.568 329.269) rotate(-60)" fill="#77d4f7"/>
  <circle id="Ellipse_60" data-name="Ellipse 60" cx="2.061" cy="2.061" r="2.061" transform="translate(134.42 354.399) rotate(-30)" fill="#77d4f7"/>
  <circle id="Ellipse_61" data-name="Ellipse 61" cx="2.061" cy="2.061" r="2.061" transform="translate(61.714 224.359) rotate(-30)" fill="#77d4f7"/>
  <circle id="Ellipse_62" data-name="Ellipse 62" cx="2.061" cy="2.061" r="2.061" transform="translate(34.582 253.003) rotate(-60)" fill="#77d4f7"/>
  <circle id="Ellipse_63" data-name="Ellipse 63" cx="2.677" cy="2.677" r="2.677" transform="translate(172.714 290.473) rotate(-30)" fill="#77d4f7"/>
  <circle id="Ellipse_64" data-name="Ellipse 64" cx="2.061" cy="2.061" r="2.061" transform="translate(35.015 327.762) rotate(-30)" fill="#77d4f7"/>
  <circle id="Ellipse_65" data-name="Ellipse 65" cx="2.061" cy="2.061" r="2.061" transform="translate(63.157 355.908) rotate(-60)" fill="#77d4f7"/>
  <circle id="Ellipse_66" data-name="Ellipse 66" cx="2.061" cy="2.061" r="2.061" transform="translate(24.715 289.32)" fill="#77d4f7"/>
  <circle id="Ellipse_67" data-name="Ellipse 67" cx="2.061" cy="2.061" r="2.061" transform="translate(99.541 361.398)" fill="#77d4f7"/>
  <circle id="Ellipse_68" data-name="Ellipse 68" cx="3.435" cy="3.435" r="3.435" transform="translate(98.167 285.885)" fill="#a7a7a7"/>
</svg>
