<svg xmlns="http://www.w3.org/2000/svg" width="13.01" height="13.034" viewBox="0 0 13.01 13.034">
  <path id="phone" d="M14.12,11.009V12.82A1.208,1.208,0,0,1,12.8,14.028a11.949,11.949,0,0,1-5.211-1.854A11.774,11.774,0,0,1,3.97,8.551,11.949,11.949,0,0,1,2.117,3.316,1.208,1.208,0,0,1,3.318,2H5.13A1.208,1.208,0,0,1,6.337,3.038a7.753,7.753,0,0,0,.423,1.7,1.208,1.208,0,0,1-.272,1.274l-.767.767A9.661,9.661,0,0,0,9.344,10.4l.767-.767a1.208,1.208,0,0,1,1.274-.272,7.753,7.753,0,0,0,1.7.423A1.208,1.208,0,0,1,14.12,11.009Z" transform="translate(-1.611 -1.5)" fill="none" stroke="#409a5d" stroke-linecap="round" stroke-linejoin="round" stroke-width="1"/>
</svg>
