<svg xmlns="http://www.w3.org/2000/svg" xmlns:xlink="http://www.w3.org/1999/xlink" width="617.3" height="427.493" viewBox="0 0 617.3 427.493">
  <defs>
    <filter id="Path_625" x="0" y="408.012" width="617.3" height="19.481" filterUnits="userSpaceOnUse">
      <feOffset dy="3" input="SourceAlpha"/>
      <feGaussianBlur stdDeviation="3" result="blur"/>
      <feFlood flood-opacity="0.161"/>
      <feComposite operator="in" in2="blur"/>
      <feComposite in="SourceGraphic"/>
    </filter>
  </defs>
  <g id="undraw_reading_time_gvg0" transform="translate(9 0)">
    <path id="Path_599" data-name="Path 599" d="M235.317,644.019s-76.227-35.091-49.449-59.426S235.317,644.019,235.317,644.019Z" transform="translate(-165.477 -284.068)" fill="#e6e6e6"/>
    <path id="Path_600" data-name="Path 600" d="M253.965,634.336s-35.037-115.12,16.556-109.614S253.965,634.336,253.965,634.336Z" transform="translate(-185.451 -266.197)" fill="#e6e6e6"/>
    <path id="Path_601" data-name="Path 601" d="M221.829,671.266l1.471,19.257.023.333a88.5,88.5,0,0,0,.455,9c2,19.642,10.574,28.594,20.6,28.594s18.23-8.952,20.226-28.594a88.478,88.478,0,0,0,.455-9l.012-.268.006-.064,1.476-19.257Z" transform="translate(-178.861 -313.336)" fill="#e6e6e6"/>
    <path id="Path_602" data-name="Path 602" d="M265.772,699.637l-.006.064-.012.268a88.48,88.48,0,0,1-.455,9H224.474a88.477,88.477,0,0,1-.455-9l-.023-.333Z" transform="translate(-179.557 -322.45)" fill="#fff"/>
    <path id="Path_603" data-name="Path 603" d="M973.7,668.194s-59.016-27.168-38.284-46.008S973.7,668.194,973.7,668.194Z" transform="translate(-406.685 -296.466)" fill="#e6e6e6"/>
    <path id="Path_604" data-name="Path 604" d="M988.136,660.7s-27.126-89.128,12.818-84.865S988.136,660.7,988.136,660.7Z" transform="translate(-422.15 -282.63)" fill="#e6e6e6"/>
    <path id="Path_605" data-name="Path 605" d="M963.256,689.289l1.139,14.909.018.258a68.535,68.535,0,0,0,.352,6.971c1.545,15.207,8.186,22.138,15.948,22.138s14.114-6.931,15.659-22.138a68.534,68.534,0,0,0,.352-6.971l.009-.208,0-.05,1.143-14.909Z" transform="translate(-417.047 -319.126)" fill="#e6e6e6"/>
    <path id="Path_606" data-name="Path 606" d="M997.277,711.255l0,.05-.009.208a68.465,68.465,0,0,1-.352,6.971H965.3a68.5,68.5,0,0,1-.352-6.971l-.018-.258Z" transform="translate(-417.586 -326.183)" fill="#fff"/>
    <path id="Path_607" data-name="Path 607" d="M447.706,314.117V287.926h-4.072v26.191a5.43,5.43,0,1,0,4.072,0Z" transform="translate(-249.027 -190.187)" fill="#e6e6e6"/>
    <path id="Path_608" data-name="Path 608" d="M421.871,555.942H394.043V217.926h-10.86V555.942H355.354a25.114,25.114,0,0,0-25.114,25.114H446.985A25.113,25.113,0,0,0,421.871,555.942Z" transform="translate(-213.689 -167.699)" fill="#e6e6e6"/>
    <path id="Path_609" data-name="Path 609" d="M330.323,244.38H446.955l-7.132-89.147a12.352,12.352,0,0,0-12.249-11.308H349.7a12.352,12.352,0,0,0-12.249,11.308Z" transform="translate(-213.716 -143.926)" fill="#e6e6e6"/>
    <path id="Path_610" data-name="Path 610" d="M563.445,522.392h0a8.4,8.4,0,0,0-9.678,7.018l-3.284,21.549,11.172,2.963,8.186-20.078a8.4,8.4,0,0,0-6.4-11.452Z" transform="translate(-284.443 -265.473)" fill="#a0616a"/>
    <path id="Path_611" data-name="Path 611" d="M532.38,561.408c6.2,24.64,3.532,47.177-19.556,64.872-27.693-7.634-46.111-26.051-57.348-52.819a13.36,13.36,0,0,1,7.706-17.71h0a13.354,13.354,0,0,1,14.7,3.789L505.053,590.9,517.8,559.279Z" transform="translate(-253.587 -275.963)" fill="#00b9ff"/>
    <path id="Path_612" data-name="Path 612" d="M757.11,738.228c-25.286-1.343-40.993-10.025-44.8-27.829l4.072-7.466,46.626,21.241a6.522,6.522,0,0,1-.459,12.058Z" transform="translate(-336.431 -323.509)" fill="#e6e6e6"/>
    <path id="Path_613" data-name="Path 613" d="M722.473,735.836c-13.138-.4-25.772-.274-37.744.536a8,8,0,0,1-8.516-7.341l-.719-8.984-10.181-16.29,8.824-8.824c14.829,14.769,31.091,27.174,50.406,34.548a3.483,3.483,0,0,1-2.069,6.355Z" transform="translate(-321.332 -320.939)" fill="#e6e6e6"/>
    <path id="Path_614" data-name="Path 614" d="M589.217,644.379c-16.776,30.018-33.276,50.254-54.978,61.087-26.7,8.813-46.216-2.863-61.427-26.811l44.118-29.186,6.448,6.448,58.439-44.47a7.462,7.462,0,0,1,10.5.233l49.846,61.206-6.109,10.181Z" transform="translate(-259.491 -293.463)" fill="#2f2e41"/>
    <path id="Path_615" data-name="Path 615" d="M496.865,547.483l-23.077-35.295,5.43-10.181,30.544,31.9Z" transform="translate(-152.206 -161.272)" fill="#2f2e41"/>
    <circle id="Ellipse_69" data-name="Ellipse 69" cx="23.077" cy="23.077" r="23.077" transform="translate(188.548 227.385)" fill="#a0616a"/>
    <path id="Path_616" data-name="Path 616" d="M467.1,562.119,441.312,553.3a32.033,32.033,0,0,0,4.751-20.362H467.1C465.908,543.289,465.729,553.112,467.1,562.119Z" transform="translate(-249.371 -268.896)" fill="#a0616a"/>
    <path id="Path_617" data-name="Path 617" d="M514.967,631.274c-3.867,1.588-4.149,6.735-7.806,8.484-17.674,8.456-36.373,15.318-49.209,27.489-30-20.369-57.8-83.633-21.72-111.314,12.315,7.206,23.316,12.363,23.077,0Z" transform="translate(-242.255 -276.285)" fill="#00b9ff"/>
    <path id="Path_618" data-name="Path 618" d="M501.92,613.661l-12.557-4.412-24.774,19.344-11.106-39.98c-.77-2.773-2.018-1.367-3.81.559a13.347,13.347,0,0,0-22.4,9.2c-1.321,29,7.424,53.535,29.171,72.3,28.444-6.09,40.516-25.308,45.476-50.227l-1.345-.9Q501.319,616.663,501.92,613.661Z" transform="translate(-244.819 -285.822)" opacity="0.2"/>
    <path id="Path_619" data-name="Path 619" d="M458.293,467.9c7.612,1.739,16.276,4.2,16.762,6.494,7.831,1.973,13.741,6.7,14.948,13.905a4.315,4.315,0,0,1-4.329,5c-4.258-.055-10.651-.463-14.873-2.226-12.263,7.9-14.321,28.452-8.966,42.44l-8.427-.772-8.718-25.522-2.227,24.519L423.232,529.2l2.477-31.266a46.583,46.583,0,0,1,7.316-20.656,17.591,17.591,0,0,1,1.376-1.783,24.442,24.442,0,0,1,23.892-7.594Z" transform="translate(-243.563 -247.796)" fill="#2f2e41"/>
    <path id="Path_620" data-name="Path 620" d="M380.285,420.191l21.121,24.831,31.681-37.389L411.68,381.659Z" transform="translate(-122.168 -122.609)" fill="#3f3d56"/>
    <path id="Path_621" data-name="Path 621" d="M596.725,554.219l-25.117-20.55c1.427-3.425,8.277-2.283,8.277-2.283l19.661,19.932a10.759,10.759,0,0,1,1.745,2.33h0Z" transform="translate(-291.229 -268.34)" fill="#f2f2f2"/>
    <path id="Path_622" data-name="Path 622" d="M581.791,552.473l-28.542-22.262-31.681,47.95,29.826,20.122c2.854,1.142,5.708-.856,5.708-.856L586.215,552.9Z" transform="translate(-275.154 -268.022)" fill="#3f3d56"/>
    <rect id="Rectangle_621" data-name="Rectangle 621" width="0.463" height="22.495" transform="matrix(0.584, -0.812, 0.812, 0.584, 281.387, 269.515)" fill="#6c63ff"/>
    <rect id="Rectangle_622" data-name="Rectangle 622" width="43.459" height="0.463" transform="matrix(0.552, -0.834, 0.834, 0.552, 276.194, 323.427)" fill="#6c63ff"/>
    <rect id="Rectangle_623" data-name="Rectangle 623" width="0.463" height="24.09" transform="translate(253.984 310.608) rotate(-53.656)" fill="#6c63ff"/>
    <rect id="Rectangle_624" data-name="Rectangle 624" width="43.467" height="0.462" transform="translate(253.361 305.442) rotate(-55.162)" fill="#6c63ff"/>
    <rect id="Rectangle_625" data-name="Rectangle 625" width="0.285" height="30.655" transform="translate(285.67 262.973) rotate(-47.455)" fill="#b3b3b3"/>
    <rect id="Rectangle_626" data-name="Rectangle 626" width="0.286" height="31.486" transform="translate(283.794 263.155) rotate(-48.561)" fill="#b3b3b3"/>
    <rect id="Rectangle_627" data-name="Rectangle 627" width="0.286" height="31.899" transform="matrix(0.64, -0.768, 0.768, 0.64, 282.32, 263.576)" fill="#b3b3b3"/>
    <path id="Path_623" data-name="Path 623" d="M544.268,592.382h0a8.4,8.4,0,0,0-11.751,2.192l-12.2,18.062,8.824,7.466,16-14.631a8.4,8.4,0,0,0-.871-13.089Z" transform="translate(-274.75 -287.511)" fill="#a0616a"/>
    <path id="Path_624" data-name="Path 624" d="M501.92,614.449c-4.96,24.919-17.032,44.137-45.476,50.227-21.747-18.767-30.493-43.3-29.171-72.3a13.36,13.36,0,0,1,14.553-12.7h0a13.354,13.354,0,0,1,11.657,9.725l11.106,39.98,25.071-23.106Z" transform="translate(-244.819 -283.895)" fill="#00b9ff"/>
    <g transform="matrix(1, 0, 0, 1, -9, 0)" filter="url(#Path_625)">
      <path id="Path_625-2" data-name="Path 625" d="M599.032,611.447H0v-1.481H599.3Z" transform="translate(9 -195.95)" fill="#3f3d56"/>
    </g>
    <path id="Path_626" data-name="Path 626" d="M619.17,235.433a1.359,1.359,0,0,0-1.358,1.357V342.675a1.359,1.359,0,0,0,1.357,1.358h88.237a1.359,1.359,0,0,0,1.357-1.358V236.79a1.359,1.359,0,0,0-1.357-1.357Z" transform="translate(-306.072 -173.323)" fill="#e6e6e6"/>
    <path id="Path_627" data-name="Path 627" d="M633.312,338.491h69.911V250.933H633.312Z" transform="translate(-311.052 -178.302)" fill="#fff"/>
    <path id="Path_628" data-name="Path 628" d="M835.862,276.433a.811.811,0,0,0-.81.81v52.679a.811.811,0,0,0,.81.81h63.215a.811.811,0,0,0,.81-.81V277.243a.811.811,0,0,0-.81-.81Z" transform="translate(-375.861 -186.494)" fill="#e6e6e6"/>
    <path id="Path_629" data-name="Path 629" d="M844.3,285.687v41.738h52.274V285.687Z" transform="translate(-378.834 -189.467)" fill="#fff"/>
    <path id="Path_630" data-name="Path 630" d="M689.705,233.1H665.017a3.386,3.386,0,0,1-2.939-5.091l12.344-21.38.031-.053a3.354,3.354,0,0,1,2.57-1.628l.018,0c.105-.01.213-.015.32-.015a3.359,3.359,0,0,1,2.939,1.7l12.344,21.381a3.394,3.394,0,0,1-2.939,5.091Zm-25.37-3.4a.7.7,0,0,0,.094.343.667.667,0,0,0,.588.339h24.688a.667.667,0,0,0,.588-.339.7.7,0,0,0,.094-.342.67.67,0,0,0-.094-.336l-12.344-21.381a.679.679,0,0,0-1.176,0l-12.344,21.38A.667.667,0,0,0,664.336,229.7Z" transform="translate(-320.145 -163.525)" fill="#e6e6e6"/>
    <circle id="Ellipse_70" data-name="Ellipse 70" cx="2.036" cy="2.036" r="2.036" transform="translate(355.18 43.784)" fill="#e6e6e6"/>
    <path id="Path_631" data-name="Path 631" d="M885.465,271.7H872.08a1.836,1.836,0,0,1-1.593-2.76l6.693-11.592.017-.029a1.818,1.818,0,0,1,1.393-.883h.01c.057-.005.115-.008.174-.008a1.821,1.821,0,0,1,1.593.92l6.693,11.592a1.84,1.84,0,0,1-1.593,2.76Zm-13.755-1.842a.377.377,0,0,0,.051.186.362.362,0,0,0,.319.184h13.385a.362.362,0,0,0,.319-.184.379.379,0,0,0,.051-.186.362.362,0,0,0-.051-.182l-6.693-11.592a.368.368,0,0,0-.638,0l-6.693,11.592a.361.361,0,0,0-.051.182Z" transform="translate(-387.165 -180.069)" fill="#e6e6e6"/>
    <circle id="Ellipse_71" data-name="Ellipse 71" cx="1.104" cy="1.104" r="1.104" transform="translate(490.504 77.652)" fill="#e6e6e6"/>
    <path id="Path_632" data-name="Path 632" d="M633.524,324.678a17.981,17.981,0,0,1,10.359-9.725,17.77,17.77,0,0,1,14.8.921c5.3,2.811,9.531,7.231,14.91,9.921a38.13,38.13,0,0,0,16.823,3.963,37.654,37.654,0,0,0,18.865-4.9,1.019,1.019,0,0,0-1.028-1.758,36.206,36.206,0,0,1-34.229.628c-5.4-2.83-9.673-7.4-15.171-10.05a19.6,19.6,0,0,0-15.089-.847,20.258,20.258,0,0,0-12.209,11.3c-.494,1.213,1.475,1.741,1.964.541Z" transform="translate(-310.464 -197.829)" fill="#e6e6e6"/>
    <path id="Path_633" data-name="Path 633" d="M631.519,355.784a77.516,77.516,0,0,1,34.3.119c10.023,2.324,20.369,6.506,30.7,3.387a18.666,18.666,0,0,0,11.219-8.469c.635-1.148-1.123-2.176-1.758-1.028-4.466,8.075-14.927,9.437-23.19,8.112-5.521-.885-10.842-2.66-16.277-3.931a79.33,79.33,0,0,0-35.542-.155C629.7,354.106,630.24,356.069,631.519,355.784Z" transform="translate(-310.067 -209.901)" fill="#e6e6e6"/>
    <path id="Path_634" data-name="Path 634" d="M630.435,290.3a80.518,80.518,0,0,1,32.608,1.16c9.974,2.444,19.724,8.027,30.27,7.063,4.883-.446,9.717-2.242,13.034-5.978.867-.977-.568-2.422-1.44-1.44a17.221,17.221,0,0,1-11.212,5.344c-4.875.52-9.664-.49-14.3-1.925-5.136-1.588-10.125-3.6-15.346-4.913a82.467,82.467,0,0,0-34.152-1.274c-1.289.22-.743,2.183.541,1.964Z" transform="translate(-309.717 -189.929)" fill="#e6e6e6"/>
    <path id="Path_635" data-name="Path 635" d="M857.577,283.848a35.5,35.5,0,0,1,9.314,17.367,35.061,35.061,0,0,1-7.58,29.771c-.844.993.59,2.441,1.44,1.44a37.612,37.612,0,0,0,8.619-19.462,37.123,37.123,0,0,0-10.353-30.555c-.919-.937-2.359.5-1.44,1.44Z" transform="translate(-383.003 -188.316)" fill="#e6e6e6"/>
    <path id="Path_636" data-name="Path 636" d="M897.861,278.18c-6.24,4.577-9.734,11.964-10.226,19.606-.511,7.951,2.521,15.629,7.4,21.8a42.4,42.4,0,0,0,10.078,9.1c1.1.72,2.121-1.043,1.028-1.758a37.554,37.554,0,0,1-14.4-16.827,27.229,27.229,0,0,1-.059-20.863,22.291,22.291,0,0,1,7.2-9.3c1.046-.767.031-2.535-1.028-1.758Z" transform="translate(-392.736 -186.994)" fill="#e6e6e6"/>
    <circle id="Ellipse_72" data-name="Ellipse 72" cx="9.502" cy="9.502" r="9.502" transform="translate(352.465 92.654)" fill="#e6e6e6"/>
  </g>
</svg>
