<svg id="Group_91" data-name="Group 91" xmlns="http://www.w3.org/2000/svg" width="12.964" height="12.964" viewBox="0 0 12.964 12.964">
  <path id="Icon_material-chat" data-name="Icon material-chat" d="M14.667,3H4.3a1.3,1.3,0,0,0-1.29,1.3L3,15.964l2.593-2.593h9.075a1.3,1.3,0,0,0,1.3-1.3V4.3A1.3,1.3,0,0,0,14.667,3ZM5.593,7.537h7.778v1.3H5.593Zm5.185,3.241H5.593v-1.3h5.185Zm2.593-3.889H5.593v-1.3h7.778Z" transform="translate(-3 -3)" fill="#fdfdfd"/>
  <path id="Icon_material-chat-2" data-name="Icon material-chat" d="M14.667,3H4.3a1.3,1.3,0,0,0-1.29,1.3L3,15.964l2.593-2.593h9.075a1.3,1.3,0,0,0,1.3-1.3V4.3A1.3,1.3,0,0,0,14.667,3ZM5.593,7.537h7.778v1.3H5.593Zm5.185,3.241H5.593v-1.3h5.185Zm2.593-3.889H5.593v-1.3h7.778Z" transform="translate(-3 -3)" fill="#fdfdfd"/>
</svg>
