<svg xmlns="http://www.w3.org/2000/svg" width="18.897" height="18.897" viewBox="0 0 18.897 18.897">
  <g id="Icon_feather-settings" data-name="Icon feather-settings" transform="translate(-1 -1)">
    <path id="Path_17" data-name="Path 17" d="M18.381,15.94a2.44,2.44,0,1,1-2.44-2.44A2.44,2.44,0,0,1,18.381,15.94Z" transform="translate(-5.492 -5.492)" fill="none" stroke="#37517e" stroke-linecap="round" stroke-linejoin="round" stroke-width="1"/>
    <path id="Path_18" data-name="Path 18" d="M16.468,12.889a1.342,1.342,0,0,0,.268,1.481l.049.049a1.628,1.628,0,1,1-2.3,2.3l-.049-.049a1.353,1.353,0,0,0-2.294.96v.138a1.627,1.627,0,0,1-3.254,0V17.7a1.342,1.342,0,0,0-.879-1.228,1.342,1.342,0,0,0-1.481.268l-.049.049a1.628,1.628,0,1,1-2.3-2.3l.049-.049a1.353,1.353,0,0,0-.96-2.294H3.127a1.627,1.627,0,1,1,0-3.254H3.2a1.342,1.342,0,0,0,1.228-.879A1.342,1.342,0,0,0,4.16,6.527l-.049-.049a1.628,1.628,0,1,1,2.3-2.3l.049.049a1.342,1.342,0,0,0,1.481.268h.065a1.342,1.342,0,0,0,.813-1.228V3.127a1.627,1.627,0,1,1,3.254,0V3.2a1.353,1.353,0,0,0,2.294.96l.049-.049a1.628,1.628,0,1,1,2.3,2.3l-.049.049A1.342,1.342,0,0,0,16.4,7.943v.065a1.342,1.342,0,0,0,1.228.813h.138a1.627,1.627,0,0,1,0,3.254H17.7a1.342,1.342,0,0,0-1.228.813Z" fill="none" stroke="#37517e" stroke-linecap="round" stroke-linejoin="round" stroke-width="1"/>
  </g>
</svg>
