<svg xmlns="http://www.w3.org/2000/svg" width="12.668" height="12.668" viewBox="0 0 12.668 12.668">
  <path id="Icon_awesome-expand" data-name="Icon awesome-expand" d="M0,6.435V2.929A.677.677,0,0,1,.679,2.25H4.185a.34.34,0,0,1,.339.339V3.72a.34.34,0,0,1-.339.339H1.81V6.435a.34.34,0,0,1-.339.339H.339A.34.34,0,0,1,0,6.435ZM8.144,2.589V3.72a.34.34,0,0,0,.339.339h2.375V6.435a.34.34,0,0,0,.339.339h1.131a.34.34,0,0,0,.339-.339V2.929a.677.677,0,0,0-.679-.679H8.483A.34.34,0,0,0,8.144,2.589Zm4.185,7.8H11.2a.34.34,0,0,0-.339.339v2.375H8.483a.34.34,0,0,0-.339.339v1.131a.34.34,0,0,0,.339.339h3.506a.677.677,0,0,0,.679-.679V10.733A.34.34,0,0,0,12.329,10.394Zm-7.8,4.185V13.447a.34.34,0,0,0-.339-.339H1.81V10.733a.34.34,0,0,0-.339-.339H.339A.34.34,0,0,0,0,10.733v3.506a.677.677,0,0,0,.679.679H4.185A.34.34,0,0,0,4.524,14.579Z" transform="translate(0 -2.25)" fill="#fff"/>
</svg>
