<svg xmlns="http://www.w3.org/2000/svg" width="15.25" height="15.253" viewBox="0 0 15.25 15.253">
  <path id="Icon_awesome-globe" data-name="Icon awesome-globe" d="M10.348,5.237C9.9,2.491,8.85.563,7.627.563S5.351,2.491,4.9,5.237ZM4.674,8.189a19.275,19.275,0,0,0,.1,1.968h5.7a19.275,19.275,0,0,0,.1-1.968,19.275,19.275,0,0,0-.1-1.968h-5.7A19.275,19.275,0,0,0,4.674,8.189Zm9.985-2.952A7.643,7.643,0,0,0,9.8.882a10.379,10.379,0,0,1,1.538,4.354ZM5.449.882A7.637,7.637,0,0,0,.594,5.237H3.915A10.337,10.337,0,0,1,5.449.882Zm9.539,5.339H11.461c.065.646.1,1.307.1,1.968s-.037,1.322-.1,1.968h3.524a7.561,7.561,0,0,0,.264-1.968A7.693,7.693,0,0,0,14.989,6.221ZM3.69,8.189c0-.661.037-1.322.1-1.968H.264a7.456,7.456,0,0,0,0,3.936H3.789C3.727,9.511,3.69,8.85,3.69,8.189ZM4.9,11.141c.446,2.746,1.5,4.674,2.722,4.674s2.276-1.928,2.722-4.674ZM9.8,15.5a7.65,7.65,0,0,0,4.859-4.354H11.341A10.379,10.379,0,0,1,9.8,15.5ZM.594,11.141A7.643,7.643,0,0,0,5.452,15.5a10.379,10.379,0,0,1-1.538-4.354H.594Z" transform="translate(0 -0.563)" fill="#ccc"/>
</svg>
