<svg xmlns="http://www.w3.org/2000/svg" width="29.259" height="18.619" viewBox="0 0 29.259 18.619">
  <path id="Icon_material-people" data-name="Icon material-people" d="M21.449,15.48a3.99,3.99,0,1,0-3.99-3.99A3.973,3.973,0,0,0,21.449,15.48Zm-10.64,0a3.99,3.99,0,1,0-3.99-3.99A3.973,3.973,0,0,0,10.81,15.48Zm0,2.66c-3.1,0-9.31,1.556-9.31,4.655v3.325H20.119V22.794C20.119,19.7,13.908,18.14,10.81,18.14Zm10.64,0c-.386,0-.825.027-1.29.066a5.612,5.612,0,0,1,2.62,4.588v3.325h7.98V22.794C30.759,19.7,24.548,18.14,21.449,18.14Z" transform="translate(-1.5 -7.5)" fill="#fdfdfd"/>
</svg>
