<svg xmlns="http://www.w3.org/2000/svg" width="30.2" height="25.168" viewBox="0 0 30.2 25.168">
  <path id="Icon_awesome-volume-up" data-name="Icon awesome-volume-up" d="M11.274,4.011,6.609,8.675H1.258A1.258,1.258,0,0,0,0,9.933v7.55a1.258,1.258,0,0,0,1.258,1.258H6.609l4.665,4.664a1.259,1.259,0,0,0,2.148-.89V4.9A1.259,1.259,0,0,0,11.274,4.011ZM23.507,1.333a1.269,1.269,0,1,0-1.393,2.121,12.25,12.25,0,0,1,0,20.509,1.269,1.269,0,1,0,1.393,2.121,14.788,14.788,0,0,0,0-24.751Zm1.659,12.375a9.681,9.681,0,0,0-4.5-8.192,1.253,1.253,0,0,0-1.736.391,1.273,1.273,0,0,0,.389,1.749,7.166,7.166,0,0,1,0,12.1,1.273,1.273,0,0,0-.389,1.749,1.255,1.255,0,0,0,1.736.391A9.68,9.68,0,0,0,25.167,13.708Zm-7.433-4.03a1.259,1.259,0,1,0-1.214,2.205,2.067,2.067,0,0,1,0,3.65,1.259,1.259,0,1,0,1.214,2.205,4.584,4.584,0,0,0,0-8.061Z" transform="translate(0 -1.125)" fill="#00b9ff"/>
</svg>
