<svg xmlns="http://www.w3.org/2000/svg" width="16.5" height="16.5" viewBox="0 0 16.5 16.5">
  <path id="Icon_ionic-md-exit" data-name="Icon ionic-md-exit" d="M11.008,16.05l1.283,1.283,4.583-4.583L12.292,8.167,11.008,9.45l2.383,2.383H4.5v1.833h8.846ZM19.167,4.5H6.333A1.839,1.839,0,0,0,4.5,6.333V10H6.333V6.333H19.167V19.167H6.333V15.5H4.5v3.667A1.839,1.839,0,0,0,6.333,21H19.167A1.839,1.839,0,0,0,21,19.167V6.333A1.839,1.839,0,0,0,19.167,4.5Z" transform="translate(-4.5 -4.5)" fill="#ff4040"/>
</svg>
