<svg xmlns="http://www.w3.org/2000/svg" width="18.505" height="12.336" viewBox="0 0 18.505 12.336">
  <path id="Icon_material-screen-share" data-name="Icon material-screen-share" d="M15.421,16.794a1.54,1.54,0,0,0,1.534-1.542l.008-7.71A1.542,1.542,0,0,0,15.421,6H3.084A1.537,1.537,0,0,0,1.542,7.542v7.71a1.542,1.542,0,0,0,1.542,1.542H0v1.542H18.5V16.794Zm-5.4-2.722V12.384a5.214,5.214,0,0,0-4.626,2.1,5.235,5.235,0,0,1,4.626-4.526V8.313l3.084,2.876Z" transform="translate(0 -6)" fill="#fdfdfd"/>
</svg>
