<svg xmlns="http://www.w3.org/2000/svg" width="11.371" height="15.432" viewBox="0 0 11.371 15.432">
  <path id="Icon_metro-keyboard-voice" data-name="Icon metro-keyboard-voice" d="M14.683,16.173a2.432,2.432,0,0,0,2.429-2.437l.008-4.873a2.437,2.437,0,0,0-4.873,0v4.873a2.439,2.439,0,0,0,2.437,2.437Zm4.3-2.437a4.212,4.212,0,0,1-4.3,4.142,4.214,4.214,0,0,1-4.3-4.142H9a5.666,5.666,0,0,0,4.873,5.458v2.664H15.5V19.195a5.666,5.666,0,0,0,4.873-5.458H18.988Z" transform="translate(-8.997 -6.427)" fill="#fff"/>
</svg>
