<svg xmlns="http://www.w3.org/2000/svg" width="464.878" height="336.73" viewBox="0 0 464.878 336.73">
    <defs>
        <style>
            .cls-1{fill:#f5ebdd}.cls-2{fill:#a15842}.cls-10,.cls-17,.cls-18,.cls-19,.cls-22,.cls-24,.cls-5{fill:none}.cls-10{stroke:#a15842}.cls-10,.cls-17,.cls-19,.cls-24,.cls-5{stroke-miterlimit:10}.cls-10,.cls-17,.cls-19,.cls-22,.cls-24,.cls-5{stroke-width:4px}.cls-4{fill:#ffbe21}.cls-5{stroke:#f5ebdd}.cls-10,.cls-17,.cls-19,.cls-22,.cls-24,.cls-5{stroke-linecap:round}.cls-6{fill:#ff7235}.cls-7{fill:#30242a}.cls-9{fill:#a9e4fc}.cls-14{fill:#eaa58b}.cls-15{fill:#3ec1f3}.cls-17{stroke:#4756df}.cls-19{stroke:#30242a}.cls-20{fill:#4856df}.cls-22{stroke-linejoin:round;stroke:#000}.cls-23{fill:#fff}.cls-24{stroke:#4856df}.cls-25{fill:#15abe5}
        </style>
    </defs>
    <g id="wfh_9" transform="translate(-228.77 -200.25)">
        <rect id="Rectangle_330" width="171.834" height="171.834" class="cls-1" data-name="Rectangle 330" rx="17" transform="translate(236.278 286.032)"/>
        <circle id="Ellipse_172" cx="4.148" cy="4.148" r="4.148" class="cls-2" data-name="Ellipse 172" transform="translate(371.867 272.598)"/>
        <path id="Line_57" fill="none" stroke="#a15842" stroke-miterlimit="10" stroke-width="4px" d="M0 0L0 13.037" data-name="Line 57" transform="translate(376.015 262.327)"/>
        <path id="Rectangle_331" d="M0 0H6.311V54.512H0z" class="cls-2" data-name="Rectangle 331" transform="translate(387.576 266.676)"/>
        <path id="Path_284" d="M598.667 252.66a21.348 21.348 0 0 1-37.573 0l-11.824 44.946h61.225z" class="cls-4" data-name="Path 284" transform="translate(-189.149 -30.931)"/>
        <path id="Line_58" d="M0 0L7.951 44.082" class="cls-5" data-name="Line 58" transform="translate(404.416 222.602)"/>
        <path id="Line_59" d="M7.848 0L0 43.508" class="cls-5" data-name="Line 59" transform="translate(369.203 223.176)"/>
        <path id="Line_60" d="M3.041 0L0 43.774" class="cls-5" data-name="Line 60" transform="translate(382.535 222.893)"/>
        <path id="Line_61" d="M0 0L3.049 43.86" class="cls-5" data-name="Line 61" transform="translate(395.887 222.893)"/>
        <path id="Path_285" d="M596.923 263.735a20.627 20.627 0 0 0 18.787-11.209v-.086h-37.565l-.025.086a20.64 20.64 0 0 0 18.803 11.209z" class="cls-6" data-name="Path 285" transform="translate(-206.175 -30.801)"/>
        <rect id="Rectangle_332" width="171.834" height="171.834" class="cls-1" data-name="Rectangle 332" rx="16" transform="translate(471.313 201.889)"/>
        <path id="Path_286" d="M611.808 969.029a4.672 4.672 0 0 1-4.639-4.1l-3.459-29.059h16.2l-3.459 29.061a4.668 4.668 0 0 1-4.643 4.098z" class="cls-7" data-name="Path 286" transform="translate(-221.278 -434.139)"/>
        <path id="Path_287" d="M1055.184 969.029a4.664 4.664 0 0 1-4.635-4.1l-3.459-29.061h16.193l-3.459 29.061a4.668 4.668 0 0 1-4.64 4.1z" class="cls-7" data-name="Path 287" transform="translate(-482.946 -434.139)"/>
        <path id="Path_288" fill="#ffb7d5" d="M343.851 642.81h72.709V763.3H310.7v-87.343a33.15 33.15 0 0 1 33.147-33.147z" data-name="Path 288" transform="translate(-48.352 -261.185)"/>
        <path id="Path_289" d="M542.413 495.334h250.506a33.152 33.152 0 0 1 33.151 33.151V676.25h-316.8V528.481a33.151 33.151 0 0 1 33.151-33.151z" class="cls-9" data-name="Path 289" transform="translate(-165.542 -174.147)"/>
        <path id="Line_62" d="M0 0L0 102.724" class="cls-10" data-name="Line 62" transform="translate(343.72 399.379)"/>
        <path id="Path_290" d="M542.413 760.4h250.506a33.152 33.152 0 0 1 33.151 33.151v39.139h-316.8v-39.139a33.151 33.151 0 0 1 33.143-33.151z" class="cls-9" data-name="Path 290" transform="translate(-165.542 -330.582)"/>
        <path id="Path_291" fill="none" stroke="#2fc2fe" stroke-linecap="round" stroke-miterlimit="10" stroke-width="4px" d="M695.538 760.4H541.187a31.967 31.967 0 0 0-31.967 31.967V832.7" data-name="Path 291" transform="translate(-165.513 -330.582)"/>
        <path id="Path_367" fill="#2fc2fe" stroke="#2ebffa" stroke-width="4px" d="M0 0v71.782" data-name="Path 367" transform="translate(553.873 430.322)"/>
        <path id="Path_368" fill="none" stroke="#2fc2fe" stroke-width="4px" d="M73.913 0H0" data-name="Path 368" transform="translate(586.615 380.834)"/>
        <path id="Path_292" d="M415.875 560.509c9.479 1.184 12.434-2.84 13.824-6.32 1.578-3.947.561-7.34-.668-11.75 0 0 3.131-1.705 2.643-3.66-.41-1.578-3.971-1.754-3.971-1.754q-.209-1.057-.373-2.193a45.59 45.59 0 0 0-1.975-8.693 15.478 15.478 0 0 1-7.5 0 23.634 23.634 0 0 1-8.3 11.065s-8.692-9.479-14.221-2.369c-4.508 5.8 1.975 13.033 6.32 13.824-2.582 5.447-9.529 8.606-13.143 9.926.221 1.713.43 3.3.615 4.688h27.049z" class="cls-14" data-name="Path 292" transform="translate(-94.273 -192.33)"/>
        <path id="Path_293" d="M642.934 616.873a153.885 153.885 0 0 0 3.492-15.418l-9.479-25.676s3.951-10.656.41-12.246-11.471 8.7-14.631 16.988c-1.365 3.582-5.094 11.815-8.885 20.008z" class="cls-14" data-name="Path 293" transform="translate(-227.256 -214.301)"/>
        <path id="Path_294" d="M443.632 653.517s-22.91-19.356-32.828-26.471a33.952 33.952 0 0 0-21.287-5.918l-.5-4.348h-27.044c.41 3.086.676 5.135.676 5.135l-20.139 71.9 60.036-4.742-1.578-22.131s32.377 27.049 50.958 24.492c16.758-2.32 26.279-26.516 30.873-43.032l-29.1-16.344c-4.969 10.759-10.067 21.459-10.067 21.459z" class="cls-15" data-name="Path 294" transform="translate(-67.126 -245.823)"/>
        <path id="Path_295" d="M397.542 527.419c-4.344-.791-10.832-8.025-6.32-13.824 5.529-7.11 14.221 2.369 14.221 2.369a23.635 23.635 0 0 0 8.295-11.065 15.478 15.478 0 0 0 7.5 0s5.926-1.975 5.529-6.713c-.529-6.361-10.27-3.557-10.27-3.557s-10.656-7.9-22.131-2.766c-12.229 5.5-13.418 16.6-12.639 24.1.451 4.307 1.684 13.934 2.656 21.381 3.63-1.322 10.577-4.478 13.159-9.925z" class="cls-7" data-name="Path 295" transform="translate(-90.162 -171.076)"/>
        <path id="Path_296" fill="none" stroke="#a15842" stroke-linecap="round" stroke-miterlimit="10" stroke-width="8px" d="M667.968 629.641c-1.807.746-3.393.963-4.1.557-1.77-1.008-2.049-3.119.053-6.086 0 0-5 1.947-6.537-.586s.775-4.865.775-4.865-3.537.975-4.4-2.172a4.346 4.346 0 0 1 2.049-4.795 3.262 3.262 0 0 1-2.049-2.82c-.078-3.02 4.844-5.471 6.262-6.115" data-name="Path 296" transform="translate(-250.72 -237.548)"/>
        <path id="Line_65" d="M1.463 17.086L0 0" class="cls-17" data-name="Line 65" transform="translate(333.253 403.945)"/>
        <path id="Path_297" d="M444.927 608.192a25 25 0 0 1-6.557-2.492" class="cls-10" data-name="Path 297" transform="translate(-123.699 -239.284)"/>
        <path id="Line_66" d="M0 27.069L10.18 0" class="cls-17" data-name="Line 66" transform="translate(277.95 415.584)"/>
        <path id="Path_298" d="M473.618 574.12c-.652.41-3.1.721-4.1-1.16" class="cls-10" data-name="Path 298" transform="translate(-142.083 -219.961)"/>
        <circle id="Ellipse_173" cx="1.184" cy="1.184" r="1.184" class="cls-2" data-name="Ellipse 173" transform="translate(326.736 342.913)"/>
        <path id="Line_67" d="M0 0L4.344 2.369" class="cls-10" data-name="Line 67" transform="translate(306.195 347.654)"/>
        <path id="Path_299" d="M663.531 918.706l30.258-8.955c-2.307-7.975-6.721-23.094-9.561-31.9l-37.758 15.761a172.959 172.959 0 0 0 17.061 25.094z" class="cls-14" data-name="Path 299" transform="translate(-246.513 -399.898)"/>
        <path id="Path_300" d="M447.57 835.194l10.955 5.147-10.065-6.082c-.583.608-.89.935-.89.935z" class="cls-18" data-name="Path 300" transform="translate(-129.129 -374.172)"/>
        <path id="Path_301" d="M551.52 885.37l9.541 4.479 1.988-1.82z" class="cls-18" data-name="Path 301" transform="translate(-190.477 -404.336)"/>
        <path id="Path_302" d="M687.139 965.315a52.465 52.465 0 0 0-1.639 10.275h53.528a12 12 0 0 0-5.18-5.844l-15.5-8.779-1.521-5.287-30.258 8.959c.365.442.57.676.57.676z" class="cls-4" data-name="Path 302" transform="translate(-269.547 -445.83)"/>
        <path id="Path_303" d="M685.443 1009.391h54.508l-.168-1.688a11.943 11.943 0 0 0-.873-3.443h-53.528a31.83 31.83 0 0 0 .061 5.131z" class="cls-6" data-name="Path 303" transform="translate(-269.433 -474.501)"/>
        <path id="Path_304" d="M519.559 770.264a123.187 123.187 0 0 0 10.807 25.184l37.758-15.762c-.41-1.324-.82-2.5-1.164-3.5-11.815-34.143-18.959-61.6-36.34-64.385-27.356-4.352-73.893 42.762-80.88 50l10.065 6.1 31.647 14.865 11.529 2.66z" class="cls-2" data-name="Path 304" transform="translate(-130.409 -301.734)"/>
        <path id="Path_305" d="M616.11 834.878a64.329 64.329 0 0 1-1.31-13.278" class="cls-19" data-name="Path 305" transform="translate(-227.821 -366.701)"/>
        <path id="Path_306" d="M838.21 626.408s-37.857 9.992-54.51 19.356c-18.963 10.656-20.147 24.885-32 60.832-3.816 11.57-6.512 20.865-9.016 28.168l32.639 15.41.062-.123s15.983-2.348 17.381-22.131c1.053-14.754 1.557-25.7 6.713-36.737l88.095-64.783z" class="cls-7" data-name="Path 306" transform="translate(-303.299 -251.5)"/>
        <path id="Path_307" d="M673.783 912.51c-11.414 1.729-16.176 3.951-18.033 9.127l21.561 10.037S688.873 928.4 695.1 930v.021a69.371 69.371 0 0 1 12.16 4.07 181.612 181.612 0 0 0 16.8-27.869l-32.639-15.41c-4.679 13.666-8.581 20.326-17.638 21.698z" class="cls-20" data-name="Path 307" transform="translate(-251.99 -407.546)"/>
        <path id="Path_308" d="M739.09 994l10.516 4.893a93.569 93.569 0 0 0 6.811-8.348 69.364 69.364 0 0 0-12.16-4.07z" class="cls-7" data-name="Path 308" transform="translate(-301.174 -464.008)"/>
        <path id="Line_68" d="M0 0L7.32 3.201" class="cls-5" data-name="Line 68" transform="translate(432.518 496.448)"/>
        <path id="Line_69" d="M0 0L7.32 3.205" class="cls-5" data-name="Line 69" transform="translate(428.358 501.526)"/>
        <circle id="Ellipse_174" cx="4.148" cy="4.148" r="4.148" class="cls-4" data-name="Ellipse 174" transform="translate(569.078 278.721)"/>
        <circle id="Ellipse_175" cx="16.59" cy="16.59" r="16.59" class="cls-7" data-name="Ellipse 175" transform="translate(571.254 223.619)"/>
        <path id="Path_309" d="M1058.625 300.361c1.016.467-7.5-19.754-11.848-16.594-4.106 2.975 6.697 14.242 11.848 16.594z" class="cls-15" data-name="Path 309" transform="translate(-482.224 -49.091)"/>
        <path id="Path_310" d="M1078.059 310.942c.93 1.111 22.66-6.492 19.672-10.881-2.914-4.217-20.598 9.754-19.672 10.881z" class="cls-15" data-name="Path 310" transform="translate(-501.203 -58.439)"/>
        <path id="Path_311" d="M1177.21 520.132l1.9-.3v-.557a16.351 16.351 0 0 1-1.9.857z" class="cls-7" data-name="Path 311" transform="translate(-559.739 -188.281)"/>
        <path id="Path_312" d="M1020.388 416.9c18.492.336 27.823-18.492 30.192-24.11-.82-.152-1.639-.283-2.541-.381-10.656-1.184-12.639-1.578-16.2-6.32s-3.951-14.221-3.951-14.221 9.213-2.049 7.9-9.479c-1.184-6.717-9.086-6.717-13.43-1.975 0 0-6.717-1.582-13.037-8.693 0 0-4.623 1.086-7.787.557-.82 5.172-.77 10.959-1.7 15.639-1.582 7.9-.41 13.037 4.344 15.8s10.271.787 10.271.787l-1.185 7.111a80.275 80.275 0 0 0-12.647 2.607c1.144 8.928 5.255 22.415 19.771 22.678z" class="cls-2" data-name="Path 312" transform="translate(-454.667 -89.393)"/>
        <path id="Path_313" d="M1111.318 624.319l2.152-1.459-3.729 1.459z" class="cls-2" data-name="Path 313" transform="translate(-519.92 -249.411)"/>
        <path id="Path_314" d="M845.513 449.645s-20.713-28.278-25.676-33.975c-5.533-6.32-13.037-13.033-15.406-10.656s4.344 10.27 4.344 10.27l-1.184 25.676s13.606 36.692 28.442 41.479c7.418 2.393 21.508-3.918 31.463-9.262l-15.4-27.869c-3.911 2.567-6.583 4.337-6.583 4.337z" class="cls-2" data-name="Path 314" transform="translate(-339.438 -120.556)"/>
        <path id="Path_315" d="M1026.28 480.385s-1.582-8.688-3.557-13.43c-2.955-7.1-7.832-13.115-18-15.024-2.369 5.619-11.7 24.446-30.192 24.11-14.516-.262-18.627-13.75-19.758-22.676a29 29 0 0 0-3.549 1.344c-4.168 1.947-20.459 12.5-29.754 18.578l15.381 27.852c6.471-3.471 11.2-6.557 11.2-6.557l-4.351 28.835h54.918l3.729-1.459 25.82-17.516a162.7 162.7 0 0 0-1.887-24.057z" class="cls-6" data-name="Path 315" transform="translate(-408.809 -148.533)"/>
        <path id="Path_316" d="M1087.02 379.25c-2.832-13.447-17.381-13.037-17.381-13.037a20.008 20.008 0 0 0-5.135-18.172c-7.9-8.3-18.963-4.742-18.963-4.742.41-4.738 1.185-16.983-9.086-24.487s-23.3-3.557-28.045 2.369c-1.93 2.414-2.869 5.684-3.43 9.246 3.152.529 7.787-.557 7.787-.557 6.32 7.111 13.037 8.693 13.037 8.693 4.344-4.742 12.246-4.742 13.43 1.975 1.312 7.43-7.9 9.479-7.9 9.479s.41 9.479 3.951 14.221 5.532 5.135 16.2 6.32c.885.1 1.729.229 2.541.381 10.168 1.906 15.045 7.926 18 15.024 1.975 4.742 3.557 13.43 3.557 13.43a16.362 16.362 0 0 0 1.881-.852c3.823-1.992 11.999-7.693 9.556-19.291z" class="cls-7" data-name="Path 316" transform="translate(-458.094 -67.542)"/>
        <path id="Line_70" d="M0 1.971L3.16 0" class="cls-19" data-name="Line 70" transform="translate(572.439 273.786)"/>
        <path id="Path_317" d="M1018 405.45c.656.41 3.1.721 4.1-1.16" class="cls-19" data-name="Path 317" transform="translate(-465.778 -120.418)"/>
        <circle id="Ellipse_176" cx="1.184" cy="1.184" r="1.184" class="cls-7" data-name="Ellipse 176" transform="translate(557.48 273.774)"/>
        <circle id="Ellipse_177" cx="1.184" cy="1.184" r="1.184" class="cls-7" data-name="Ellipse 177" transform="translate(548.341 272.204)"/>
        <path id="Path_318" d="M1017.892 386.42s-1.078 2.7-.82 3.242a2.021 2.021 0 0 0 .82.82" class="cls-19" data-name="Path 318" transform="translate(-465.207 -109.872)"/>
        <path id="Path_319" fill="none" stroke="#30242a" stroke-linecap="round" stroke-linejoin="round" stroke-width="8px" d="M818.117 465.836a3.033 3.033 0 0 0 1.783-.6c1.4-1.4 1.115-3.443-1.615-5.672 0 0 5.172.537 5.959-2.229s-1.971-4.344-1.971-4.344 3.553 0 3.553-3.16a4.217 4.217 0 0 0-3.16-3.951 3.151 3.151 0 0 0 1.185-3.16c-.791-3.16-7.5-3.951-7.5-3.951l-.926-1.131" data-name="Path 319" transform="translate(-346.222 -140.1)"/>
        <path id="Path_320" d="M1037 430.325a45.716 45.716 0 0 0 4.869-2.275" class="cls-19" data-name="Path 320" transform="translate(-476.991 -134.44)"/>
        <path id="Line_71" d="M0 0L4.152 5.619" class="cls-19" data-name="Line 71" transform="translate(507.058 328.999)"/>
        <path id="Line_72" d="M2.016 0L0 12.656" class="cls-10" data-name="Line 72" transform="translate(538.574 333.032)"/>
        <path id="Line_73" d="M0.197 20.34L0 0" class="cls-10" data-name="Line 73" transform="translate(589.226 338.372)"/>
        <path id="Path_321" d="M1160.923 441.75a36.293 36.293 0 0 1-2.283 6.2" class="cls-22" data-name="Path 321" transform="translate(-548.779 -142.525)"/>
        <path id="Line_74" d="M1.119 0L0 5.869" class="cls-22" data-name="Line 74" transform="translate(587.053 276.212)"/>
        <path id="Path_322" d="M948.619 627.384s-33.975 10.656-52.934 19.75c-18.852 9.016-16.59 30.02-13.037 66.758 1.258 12.988 2.729 23.156 3.475 31.209h36.065c1.853-1.033 12.787-8.053 6.266-27.258-4.762-14.02-8.873-23.307-8.873-35.487h30.164a32.967 32.967 0 0 0 32.955-32.027l.66-22.949z" class="cls-7" data-name="Path 322" transform="translate(-384.475 -252.078)"/>
        <path id="Path_323" d="M859.781 940.613c-9.606 6.4-12.979 10.426-12.479 15.906l23.77-.033s9.086-7.865 15.406-9.049a67.388 67.388 0 0 1 12.7-1.184 175.859 175.859 0 0 0 3.279-31.467l.262-.135h-36.061c1.258 13.515.459 21.064-6.877 25.962z" class="cls-20" data-name="Path 323" transform="translate(-365.009 -421.616)"/>
        <path id="Path_324" d="M939.33 1001.962h11.6a82.526 82.526 0 0 0 2.623-10.192 67.388 67.388 0 0 0-12.7 1.184z" class="cls-7" data-name="Path 324" transform="translate(-419.35 -467.13)"/>
        <path id="Line_75" d="M9.311 0L0 0" class="cls-22" data-name="Line 75" transform="translate(525.431 431.002)"/>
        <path id="Line_76" d="M0 0L8.906 0" class="cls-5" data-name="Line 76" transform="translate(500.923 508.624)"/>
        <path id="Line_77" d="M0 0L8.906 0" class="cls-5" data-name="Line 77" transform="translate(498.944 514.944)"/>
        <circle id="Ellipse_178" cx="17.578" cy="17.578" r="17.578" class="cls-23" data-name="Ellipse 178" transform="translate(361.105 410.855)"/>
        <rect id="Rectangle_333" width="9.877" height="15.799" class="cls-20" data-name="Rectangle 333" rx="4.938" transform="translate(373.744 418.162)"/>
        <path id="Line_78" d="M0 0L0 5.533" class="cls-24" data-name="Line 78" transform="translate(378.683 432.383)"/>
        <path id="Line_79" d="M0 0L5.66 0" class="cls-24" data-name="Line 79" transform="translate(375.851 437.916)"/>
        <circle id="Ellipse_179" cx="6.516" cy="6.516" r="6.516" class="cls-23" data-name="Ellipse 179" transform="translate(248.126 297.88)"/>
        <circle id="Ellipse_180" cx="6.516" cy="6.516" r="6.516" class="cls-23" data-name="Ellipse 180" transform="translate(267.88 297.88)"/>
        <circle id="Ellipse_181" cx="6.516" cy="6.516" r="6.516" class="cls-23" data-name="Ellipse 181" transform="translate(287.63 297.88)"/>
        <path id="Path_325" d="M404.527 407.2a12.016 12.016 0 0 1 12.016 12.016v147.8a12.016 12.016 0 0 1-12.016 12.016H256.746a12.016 12.016 0 0 1-12.016-12.016v-147.8a12.016 12.016 0 0 1 12.016-12.016h147.781m0-1.639H256.746a13.672 13.672 0 0 0-13.656 13.656v147.8a13.672 13.672 0 0 0 13.656 13.656h147.781a13.672 13.672 0 0 0 13.656-13.656v-147.8a13.672 13.672 0 0 0-13.656-13.657z" class="cls-1" data-name="Path 325" transform="translate(-8.451 -121.167)"/>
        <path id="Path_326" d="M1057.131 642.81h72.716V763.3H1024v-87.343a33.15 33.15 0 0 1 33.127-33.147z" class="cls-9" data-name="Path 326" transform="translate(-469.319 -261.185)"/>
        <path id="Path_327" d="M1220.048 874.842a14.221 14.221 0 0 1 26.86 0 14.23 14.23 0 0 1 12.647-9.52 35.488 35.488 0 0 0-4.463-6.258l-5.164-5.783a11.766 11.766 0 0 1-1.574-13.414l4.385-8.148a27.135 27.135 0 0 1-38.282 0l4.389 8.148a11.775 11.775 0 0 1-1.582 13.414l-5.164 5.783a35.424 35.424 0 0 0-4.471 6.27 14.221 14.221 0 0 1 12.419 9.508z" class="cls-25" data-name="Path 327" transform="translate(-577.692 -372.673)"/>
        <path id="Path_328" d="M1253.758 956.995a14.23 14.23 0 0 0-13.43 9.549 14.217 14.217 0 0 0-26.86 0 14.225 14.225 0 0 0-16.987-9.1 35.38 35.38 0 0 0 10.172 24.041h40.688a35.362 35.362 0 0 0 10.168-23.987 14.3 14.3 0 0 0-3.751-.503z" class="cls-25" data-name="Path 328" transform="translate(-571.111 -446.604)"/>
        <path id="Path_329" d="M1243.379 839.622a28.137 28.137 0 0 0 19.143-7.9h-38.282a28.125 28.125 0 0 0 19.139 7.9z" class="cls-7" data-name="Path 329" transform="translate(-587.494 -372.673)"/>
        <path id="Path_330" fill="#68d0f8" d="M1213.482 940.974a14.217 14.217 0 0 1 26.86 0 14.217 14.217 0 0 1 17.18-9.045 35.39 35.39 0 0 0-4.533-18.254 14.229 14.229 0 0 0-12.647 9.52 14.221 14.221 0 0 0-26.86 0 14.222 14.222 0 0 0-12.459-9.508 35.442 35.442 0 0 0-4.508 18.188 14.225 14.225 0 0 1 16.987 9.1z" data-name="Path 330" transform="translate(-571.125 -421.026)"/>
        <path id="Path_331" d="M1277.86 799.286c.779-4.779 4.332-23.737 13.262-34.016" class="cls-19" data-name="Path 331" transform="translate(-619.139 -333.457)"/>
        <path id="Path_332" d="M1259.268 779.479c-.057-5.426-.615-32.09-5.918-48" class="cls-19" data-name="Path 332" transform="translate(-604.674 -313.515)"/>
        <ellipse id="Ellipse_182" cx="15.492" cy="3.484" class="cls-7" data-name="Ellipse 182" rx="15.492" ry="3.484" transform="rotate(-23.75 1393.78 -1348.4)"/>
        <ellipse id="Ellipse_183" cx="8.57" cy="2.992" class="cls-7" data-name="Ellipse 183" rx="8.57" ry="2.992" transform="rotate(-53.51 732.947 -461.586)"/>
        <ellipse id="Ellipse_184" cx="18.692" cy="3.303" class="cls-7" data-name="Ellipse 184" rx="18.692" ry="3.303" transform="rotate(-8.6 3275.91 -3874.662)"/>
        <path id="Path_333" d="M1196.159 744.71v.029a6.91 6.91 0 0 1-5.639 12.557v.029c8.557 3.844 16.762 4.135 18.328.652s-4.131-9.423-12.689-13.267z" class="cls-6" data-name="Path 333" transform="translate(-567.594 -321.323)"/>
        <path id="Path_334" d="M1232.737 674.57c-1.824-.471-4.193 2.283-5.922 6.557-2.082-5.176-5.1-8.639-7.135-7.967s-2.4 5.25-.992 10.656c-3.926-2.393-7.471-3.2-8.651-1.734-1.508 1.869 1.4 6.713 6.492 10.824a28.978 28.978 0 0 0 4.66 3.1 6.906 6.906 0 0 1 10.955-3.75 29.432 29.432 0 0 0 1.824-5.106c1.638-6.35 1.093-11.978-1.231-12.58z" class="cls-6" data-name="Path 334" transform="translate(-578.877 -279.047)"/>
        <path id="Path_335" d="M1327.864 724.836c-.561-1.8-4.151-2.348-8.684-1.566 3.279-4.508 4.639-8.9 2.992-10.27s-5.738.742-9.565 4.791c-.045-4.6-1.229-8.029-3.1-8.258-2.381-.291-4.959 4.738-5.738 11.233a29.068 29.068 0 0 0-.168 5.594 6.906 6.906 0 0 1 8.975 7.316 29.351 29.351 0 0 0 5.3-1.152c6.224-1.955 10.705-5.397 9.988-7.688z" class="cls-6" data-name="Path 335" transform="translate(-634.291 -300.555)"/>
        <path id="Path_336" d="M1310.168 751.4a6.9 6.9 0 0 0-6.529-1.27c.221 3.09 1 5.455 2.18 6.336 1.095 1.016 3.635 1.352 6.8.98a6.9 6.9 0 0 0-2.451-6.046z" class="cls-7" data-name="Path 336" transform="translate(-634.354 -324.329)"/>
        <path id="Path_337" d="M1242.358 716.607a6.894 6.894 0 0 0-4.529 4.873c2.738 1.447 5.16 2.049 6.529 1.5 1.442-.41 3.07-2.369 4.426-5.25a6.9 6.9 0 0 0-6.426-1.123z" class="cls-7" data-name="Path 337" transform="translate(-595.515 -304.531)"/>
        <path id="Path_338" d="M1196.9 756.334a3.357 3.357 0 0 1 2.754-6.094 6.9 6.9 0 0 0-3.529-5.479l-5.639 12.557a6.893 6.893 0 0 0 6.414-.984z" class="cls-1" data-name="Path 338" transform="translate(-567.576 -321.352)"/>
        <path id="Path_339" d="M1202.206 759.649a3.356 3.356 0 0 0 1.438 4.311 6.893 6.893 0 0 0 2.754-6.094 3.356 3.356 0 0 0-4.192 1.783z" class="cls-20" data-name="Path 339" transform="translate(-574.317 -328.971)"/>
        <circle id="Ellipse_185" cx="6.516" cy="6.516" r="6.516" class="cls-23" data-name="Ellipse 185" transform="translate(483.165 213.742)"/>
        <circle id="Ellipse_186" cx="6.516" cy="6.516" r="6.516" class="cls-23" data-name="Ellipse 186" transform="translate(502.915 213.742)"/>
        <circle id="Ellipse_187" cx="6.516" cy="6.516" r="6.516" class="cls-23" data-name="Ellipse 187" transform="translate(522.665 213.742)"/>
        <path id="Path_340" d="M978.033 201.889a12.02 12.02 0 0 1 12.02 12.02v147.8a12.02 12.02 0 0 1-12.02 12.016H830.24a12.02 12.02 0 0 1-12.02-12.016V213.91a12.02 12.02 0 0 1 12.02-12.02h147.793m0-1.639H830.24a13.676 13.676 0 0 0-13.66 13.66v147.8a13.672 13.672 0 0 0 13.66 13.656h147.793a13.672 13.672 0 0 0 13.66-13.656V213.91a13.676 13.676 0 0 0-13.66-13.66z" class="cls-1" data-name="Path 340" transform="translate(-346.906)"/>
        <path id="Path_341" d="M800.938 430.76s-8.688 0-9.873 3.553 1.578 6.324 1.578 6.324-4.738 2.369-1.578 6.713c0 0-2.373 3.951 1.578 6.32 0 0-2.369 2.766 1.582 5.533s9.479 3.16 10.656 1.975c1.4-1.4 1.115-3.443-1.615-5.672 0 0 5.172.537 5.959-2.229s-1.971-4.344-1.971-4.344 3.553 0 3.553-3.16a4.217 4.217 0 0 0-3.16-3.951 3.151 3.151 0 0 0 1.184-3.16c-.582-2.324-4.361-3.365-6.324-3.754a13.644 13.644 0 0 0-1.578-.2z" class="cls-2" data-name="Path 341" transform="translate(-331.207 -136.04)"/>
        <path id="Path_342" d="M797.59 487.47a57.039 57.039 0 0 0 12.053 2.266" class="cls-19" data-name="Path 342" transform="translate(-335.699 -169.508)"/>
        <path id="Path_343" d="M794 472a62.977 62.977 0 0 0 17.492 1.8" class="cls-19" data-name="Path 343" transform="translate(-333.581 -160.378)"/>
        <path id="Path_344" d="M797.05 456a48.5 48.5 0 0 0 16.565 1.057" class="cls-19" data-name="Path 344" transform="translate(-335.381 -150.935)"/>
        <path id="Path_345" d="M1015.454 594s-32 8.3-43.057 16.594a66.269 66.269 0 0 0-13.033 13.824c-1.967 3.168-10.27 15.012-6.32 15.406s8.3-6.713 8.3-6.713-2.377 8.688-1.967 11.455 4.344 1.975 4.344 1.975c3.16 3.16 5.926-.791 5.926-.791 5.529 3.553 11.475-15.406 11.475-15.406a37.289 37.289 0 0 0 8.889-6.123s35.352-.2 46.413-10.074c7.852-7.008 9.791-20.832 9.787-33.987h-30.741z" class="cls-2" data-name="Path 345" transform="translate(-426.822 -224.211)"/>
        <path id="Line_80" d="M0 1.803L7.213 0" class="cls-19" data-name="Line 80" transform="translate(588.927 367.027)"/>
        <path id="Path_346" d="M971 697.412a89.939 89.939 0 0 1 4.918-13.6" class="cls-19" data-name="Path 346" transform="translate(-438.04 -285.382)"/>
        <path id="Path_347" d="M986.754 689.6c-3.557 7.664-5.738 16.91-6.754 21.475" class="cls-19" data-name="Path 347" transform="translate(-443.352 -288.799)"/>
        <path id="Path_348" d="M1001.738 696.34c-2.324 5.328-4.434 13.344-5.738 18.3" class="cls-19" data-name="Path 348" transform="translate(-452.794 -292.776)"/>
        <path id="Path_349" d="M924.189 647.67c-9.627 3.426-20.373 7.541-28.5 11.438-14.574 6.967-16.529 21.111-15.024 44.131" class="cls-22" data-name="Path 349" transform="translate(-384.476 -264.053)"/>
        <path id="Path_350" d="M308.2 924.29a211.393 211.393 0 0 0-27.676 7.492l-15.549-6.889.033-.34-36.238 32.905.791.947a10.541 10.541 0 0 0 8.094 3.791h72.725z" class="cls-14" data-name="Path 350" transform="translate(0 -427.305)"/>
        <path id="Path_351" d="M335.989 875.444a207.518 207.518 0 0 1 27.676-7.492l2.184 37.905h51.905a29.35 29.35 0 0 0 28.946-23.622c1.742-9.2-.98-19.053-10.758-25.754-15.728-10.781-49.375-24.881-58.064-27.651l-47.8 11.065c-9.086 9.877-7.111 26.069-7.111 26.069z" class="cls-2" data-name="Path 351" transform="translate(-55.486 -370.968)"/>
        <path id="Path_352" d="M422.86 920.815a156.553 156.553 0 0 1 39.553-3.094" class="cls-19" data-name="Path 352" transform="translate(-114.546 -423.318)"/>
        <path id="Path_353" d="M459.21 827.83c7.6 2.422 34.315 13.525 51.409 23.483" class="cls-19" data-name="Path 353" transform="translate(-135.998 -370.377)"/>
        <path id="Path_354" d="M278.583 925.63l-39.873 36.184a10.5 10.5 0 0 0 4.824 1.172h29.024l13.811-30.414a29.531 29.531 0 0 0-7.786-6.942z" class="cls-4" data-name="Path 354" transform="translate(-5.866 -428.096)"/>
        <path id="Path_355" d="M267.483 919.43l-38.713 35.16.791.947a10.5 10.5 0 0 0 3.279 2.619l39.877-36.184a26.328 26.328 0 0 0-5.234-2.542z" class="cls-6" data-name="Path 355" transform="translate(0 -424.437)"/>
        <path id="Line_81" d="M0 0L0 7" class="cls-19" data-name="Line 81" transform="translate(258.594 527.981)"/>
        <path id="Line_82" d="M0 0L0 7" class="cls-19" data-name="Line 82" transform="translate(252.274 527.981)"/>
        <path id="Path_356" d="M392.05 627.224c1.229-.115 3.8-.324 6.361-.324" class="cls-17" data-name="Path 356" transform="translate(-96.363 -251.795)"/>
        <path id="Path_357" d="M660.369 592.265s7.7-2.553 9.836.66.156 6.721.156 6.721 5.365 1.062 3.41 6.25c0 0 3.438 3.279.16 6.721 0 0 3.115 2.1-.062 5.934s-8.566 5.738-10.07 4.885c-1.77-1.008-2.049-3.119.053-6.086 0 0-5 1.947-6.537-.586s.775-4.865.775-4.865-3.537.975-4.4-2.172a4.346 4.346 0 0 1 2.049-4.8 3.261 3.261 0 0 1-2.049-2.82c-.078-3.02 5.221-5.651 6.639-6.291z" class="cls-14" data-name="Path 357" transform="translate(-250.679 -230.787)"/>
        <path id="Path_358" d="M656 617.648c3.041-.533 10.766-2.18 15.881-5.738" class="cls-10" data-name="Path 358" transform="translate(-252.137 -242.948)"/>
        <path id="Path_359" d="M659 634.524A43.443 43.443 0 0 0 677.033 628" class="cls-10" data-name="Path 359" transform="translate(-253.908 -252.444)"/>
        <path id="Path_360" d="M673 650.393c1.094-.385 8.233-2.947 12.565-5.693" class="cls-10" data-name="Path 360" transform="translate(-262.17 -262.3)"/>
        <path id="Path_361" d="M324.487 691.887c-7.152.873-15.131 2.164-24.115 3.77l12.639-33.971 5.529-32.377s-18.168 1.975-26.463 11.475c-7.652 8.742-31.6 49.377-22.131 70.708s37.93 13.807 44.635 11.832c3.66-1.078 9.2-3.562 14.9-5.41z" class="cls-15" data-name="Path 361" transform="translate(-23.012 -253.217)"/>
        <path id="Path_362" d="M424.7 804.072c8.693 1.185 18.565 5.529 20.147 0 0 0 5.328-.135 3.647-5.2 0 0 2.672-.332 3.066-2.307.791-3.947-8.688-7.5-8.688-7.5s7.5 1.184 9.086-.41c2.012-2.016.053-5.225-12.2-8.2-8.9-2.156-19.672-2.025-33.606-.32l5 26.012c4.772-1.517 9.6-2.616 13.548-2.075z" class="cls-14" data-name="Path 362" transform="translate(-104.684 -341.468)"/>
        <path id="Path_363" d="M478.092 797.452a107.512 107.512 0 0 0-17.992-5.242" class="cls-10" data-name="Path 363" transform="translate(-136.524 -349.356)"/>
        <path id="Path_364" d="M478.507 815.979c-5.492-2.459-16.1-7.016-21.787-7.869" class="cls-10" data-name="Path 364" transform="translate(-134.529 -358.739)"/>
        <path id="Path_365" d="M472.543 830.854c-4.234-2.148-12.7-6.18-18.713-7.324" class="cls-10" data-name="Path 365" transform="translate(-132.823 -367.84)"/>
        <path id="Path_366" d="M356.435 783.44c-3.861.5-16.209 2.2-34.655 5.766" class="cls-17" data-name="Path 366" transform="translate(-54.891 -344.18)"/>
        <circle id="Ellipse_188" cx="17.578" cy="17.578" r="17.578" class="cls-23" data-name="Ellipse 188" transform="translate(596.14 326.716)"/>
        <rect id="Rectangle_334" width="9.877" height="15.799" class="cls-20" data-name="Rectangle 334" rx="4.938" transform="translate(608.779 334.023)"/>
        <path id="Line_83" d="M0 0L0 5.533" class="cls-24" data-name="Line 83" transform="translate(613.717 348.244)"/>
        <path id="Line_84" d="M0 0L5.664 0" class="cls-24" data-name="Line 84" transform="translate(610.885 353.777)"/>
    </g>
</svg>
