<svg aria-hidden="true" style="position: absolute; width: 0; height: 0; overflow: hidden;" version="1.1" xmlns="http://www.w3.org/2000/svg" xmlns:xlink="http://www.w3.org/1999/xlink">
<defs>
<symbol id="icon-exit" viewBox="0 0 32 32">
<path d="M31.728 3.525v24.678c-0.006 1.944-1.581 3.518-3.524 3.525h-24.679c-1.944-0.006-3.518-1.581-3.525-3.524v-7.052h3.525v7.051h24.678v-24.678h-24.678v7.051h-3.525v-7.051c0.006-1.944 1.581-3.518 3.524-3.525h24.679c1.944 0.006 3.518 1.581 3.525 3.524v0.001zM17.010 17.627h-17.010v-3.526h17.098l-4.582-4.581 2.467-2.467 8.814 8.813-8.814 8.813-2.467-2.467z"></path>
</symbol>
<symbol id="icon-delete" viewBox="0 0 23 32">
<path d="M22.029 1.771h-5.506l-1.574-1.771h-7.868l-1.572 1.771h-5.508v3.539h22.029zM1.574 28.316c0 1.948 1.414 3.541 3.147 3.541h12.587c1.732 0 3.149-1.594 3.149-3.541v-21.237h-18.882z"></path>
</symbol>
<symbol id="icon-person" viewBox="0 0 32 32">
<path d="M32 28v4h-32v-4c0-5.299 10.701-8 16-8s16 2.701 16 8zM8 8c0-4.4 3.6-8 8-8s8 3.6 8 8-3.6 8-8 8-8-3.6-8-8z"></path>
</symbol>
<symbol id="icon-dost" viewBox="0 0 7 32">
<path d="M3.618 30.314c-0.032 0.002-0.070 0.002-0.108 0.002-1.319 0-2.388-1.069-2.388-2.388s1.069-2.388 2.388-2.388c0.038 0 0.076 0.001 0.114 0.003l-0.005-0c1.271 0.060 2.279 1.105 2.279 2.385s-1.008 2.326-2.274 2.385l-0.005 0z"></path>
<path d="M3.618 18.159c-0.023 0.001-0.050 0.001-0.077 0.001-1.319 0-2.388-1.069-2.388-2.388s1.069-2.388 2.388-2.388c0.027 0 0.054 0 0.081 0.001l-0.004-0c1.285 0.043 2.311 1.095 2.311 2.386s-1.026 2.344-2.307 2.386l-0.004 0z"></path>
<path d="M3.618 6.001c-0.032 0.002-0.070 0.002-0.108 0.002-1.319 0-2.388-1.069-2.388-2.388s1.069-2.388 2.388-2.388c0.038 0 0.076 0.001 0.114 0.003l-0.005-0c1.271 0.060 2.279 1.105 2.279 2.385s-1.008 2.326-2.274 2.385l-0.005 0z"></path>
</symbol>
<symbol id="icon-microphon" viewBox="0 0 28 32">
<path d="M2.436 15.452c0 1.824 0.469 3.548 1.404 5.173l1.92-1.995c-0.418-0.915-0.662-1.984-0.662-3.111 0-0.024 0-0.048 0-0.071l-0 0.004zM8.718 15.673l9.461-9.387v-0.295c0-1.28-0.469-2.389-1.404-3.324-0.828-0.866-1.993-1.405-3.284-1.405-0.014 0-0.029 0-0.043 0l0.002-0c-1.28 0-2.393 0.466-3.328 1.404-0.866 0.829-1.405 1.994-1.405 3.285 0 0.014 0 0.028 0 0.041v-0.002zM25.643 2.812l-26.382 26.389 1.991 1.991 6.578-6.578c1.088 0.693 2.443 1.163 4.068 1.408v5.173h3.104v-5.173c2.679-0.402 5.004-1.686 6.72-3.541l0.007-0.008c1.824-2.020 2.734-4.363 2.734-7.022h-2.66c0 2.315-0.814 4.238-2.439 5.767-1.525 1.375-3.555 2.216-5.782 2.216-0.046 0-0.092-0-0.138-0.001l0.007 0c-1.316-0.004-2.562-0.302-3.675-0.833l0.052 0.022 2.588-2.588c0.391 0.096 0.736 0.149 1.031 0.149 1.28 0 2.393-0.469 3.328-1.404 0.866-0.83 1.405-1.996 1.405-3.288 0-0.014-0-0.028-0-0.042v0.002-1.184l9.458-9.458z"></path>
</symbol>
<symbol id="icon-right_down_arrow" viewBox="0 0 32 32">
<path d="M5.419 31.861h23.611v-23.616h-7.093v11.2l-16.517-15.968-4.768 4.768 16.187 16.517h-11.419z"></path>
</symbol>
<symbol id="icon-up" viewBox="0 0 39 32">
<path d="M28.491 14.827c0.268 0.29 0.433 0.68 0.433 1.109 0 0.903-0.732 1.636-1.636 1.636-0.428 0-0.818-0.165-1.11-0.434l0.001 0.001-3.751-3.748v11.236c0 0.903-0.732 1.636-1.636 1.636s-1.636-0.732-1.636-1.636v-11.236l-3.748 3.748c-0.29 0.268-0.68 0.433-1.109 0.433-0.903 0-1.636-0.732-1.636-1.636 0-0.428 0.165-0.818 0.434-1.11l-0.001 0.001 6.542-6.542c0.296-0.295 0.704-0.478 1.156-0.478s0.86 0.183 1.156 0.478l-0-0zM4.91 2.503c-1.807 0-3.271 1.465-3.271 3.271v0 22.894c0 1.806 1.465 3.271 3.271 3.271h31.303c1.807 0 3.271-1.465 3.271-3.271v0-22.894c0-1.807-1.465-3.271-3.271-3.271v0z"></path>
</symbol>
<symbol id="icon-email" viewBox="0 0 42 32">
<path d="M35.834 7.962l-15.93 9.952-15.926-9.952v-3.981l15.926 9.952 15.926-9.952zM35.834 0h-31.853c-2.189 0-3.962 1.792-3.962 3.981l-0.019 23.891c0 2.192 1.792 3.984 3.981 3.984h31.853c2.189 0 3.981-1.792 3.981-3.984v-23.891c0-2.189-1.792-3.981-3.981-3.981z"></path>
</symbol>
<symbol id="icon-preferences" viewBox="0 0 32 32">
<path d="M21.456 0.912h3.417v3.415h6.831v3.415h-6.831v3.415h-3.415zM14.627 17.988v-3.414h17.076v3.415zM11.212 11.158v10.246h-3.415v-3.415h-6.831v-3.414h6.831v-3.417zM14.627 31.649v-10.246h3.414v3.415h13.661v3.415h-13.661v3.415zM18.042 4.327v3.415h-17.078v-3.415zM11.21 24.819v3.415h-10.244v-3.415z"></path>
</symbol>
<symbol id="icon-settings" viewBox="0 0 24 24">
<path d="M16 12c0-1.104-0.449-2.106-1.172-2.828s-1.724-1.172-2.828-1.172-2.106 0.449-2.828 1.172-1.172 1.724-1.172 2.828 0.449 2.106 1.172 2.828 1.724 1.172 2.828 1.172 2.106-0.449 2.828-1.172 1.172-1.724 1.172-2.828zM14 12c0 0.553-0.223 1.051-0.586 1.414s-0.861 0.586-1.414 0.586-1.051-0.223-1.414-0.586-0.586-0.861-0.586-1.414 0.223-1.051 0.586-1.414 0.861-0.586 1.414-0.586 1.051 0.223 1.414 0.586 0.586 0.861 0.586 1.414zM20.315 15.404c0.046-0.105 0.112-0.191 0.192-0.257 0.112-0.092 0.251-0.146 0.403-0.147h0.090c0.828 0 1.58-0.337 2.121-0.879s0.879-1.293 0.879-2.121-0.337-1.58-0.879-2.121-1.293-0.879-2.121-0.879h-0.159c-0.11-0.001-0.215-0.028-0.308-0.076-0.127-0.066-0.23-0.172-0.292-0.312-0.003-0.029-0.004-0.059-0.004-0.089-0.024-0.055-0.040-0.111-0.049-0.168 0.020-0.334 0.077-0.454 0.168-0.547l0.062-0.062c0.585-0.586 0.878-1.356 0.877-2.122s-0.294-1.536-0.881-2.122c-0.586-0.585-1.356-0.878-2.122-0.877s-1.536 0.294-2.12 0.879l-0.046 0.046c-0.083 0.080-0.183 0.136-0.288 0.166-0.14 0.039-0.291 0.032-0.438-0.033-0.101-0.044-0.187-0.11-0.253-0.19-0.092-0.112-0.146-0.251-0.147-0.403v-0.090c0-0.828-0.337-1.58-0.879-2.121s-1.293-0.879-2.121-0.879-1.58 0.337-2.121 0.879-0.879 1.293-0.879 2.121v0.159c-0.001 0.11-0.028 0.215-0.076 0.308-0.066 0.127-0.172 0.23-0.312 0.292-0.029 0.003-0.059 0.004-0.089 0.004-0.055 0.024-0.111 0.040-0.168 0.049-0.335-0.021-0.455-0.078-0.548-0.169l-0.062-0.062c-0.586-0.585-1.355-0.878-2.122-0.878s-1.535 0.294-2.122 0.882c-0.585 0.586-0.878 1.355-0.878 2.122s0.294 1.536 0.879 2.12l0.048 0.047c0.080 0.083 0.136 0.183 0.166 0.288 0.039 0.14 0.032 0.291-0.031 0.434-0.006 0.016-0.013 0.034-0.021 0.052-0.041 0.109-0.108 0.203-0.191 0.275-0.11 0.095-0.25 0.153-0.383 0.156h-0.090c-0.828 0-1.58 0.337-2.121 0.879s-0.879 1.294-0.879 2.122 0.337 1.58 0.879 2.121 1.293 0.879 2.121 0.879h0.159c0.11 0.001 0.215 0.028 0.308 0.076 0.128 0.067 0.233 0.174 0.296 0.321 0.024 0.055 0.040 0.111 0.049 0.168-0.020 0.334-0.077 0.454-0.168 0.547l-0.062 0.062c-0.585 0.586-0.878 1.356-0.877 2.122s0.294 1.536 0.881 2.122c0.586 0.585 1.356 0.878 2.122 0.877s1.536-0.294 2.12-0.879l0.047-0.048c0.083-0.080 0.183-0.136 0.288-0.166 0.14-0.039 0.291-0.032 0.434 0.031 0.016 0.006 0.034 0.013 0.052 0.021 0.109 0.041 0.203 0.108 0.275 0.191 0.095 0.11 0.153 0.25 0.156 0.383v0.092c0 0.828 0.337 1.58 0.879 2.121s1.293 0.879 2.121 0.879 1.58-0.337 2.121-0.879 0.879-1.293 0.879-2.121v-0.159c0.001-0.11 0.028-0.215 0.076-0.308 0.067-0.128 0.174-0.233 0.321-0.296 0.055-0.024 0.111-0.040 0.168-0.049 0.334 0.020 0.454 0.077 0.547 0.168l0.062 0.062c0.586 0.585 1.356 0.878 2.122 0.877s1.536-0.294 2.122-0.881c0.585-0.586 0.878-1.356 0.877-2.122s-0.294-1.536-0.879-2.12l-0.048-0.047c-0.080-0.083-0.136-0.183-0.166-0.288-0.039-0.14-0.032-0.291 0.031-0.434zM18.396 9.302c-0.012-0.201-0.038-0.297-0.076-0.382v0.080c0 0.043 0.003 0.084 0.008 0.125 0.021 0.060 0.043 0.119 0.068 0.177 0.004 0.090 0.005 0.091 0.005 0.092 0.249 0.581 0.684 1.030 1.208 1.303 0.371 0.193 0.785 0.298 1.211 0.303h0.18c0.276 0 0.525 0.111 0.707 0.293s0.293 0.431 0.293 0.707-0.111 0.525-0.293 0.707-0.431 0.293-0.707 0.293h-0.090c-0.637 0.003-1.22 0.228-1.675 0.603-0.323 0.266-0.581 0.607-0.75 0.993-0.257 0.582-0.288 1.21-0.127 1.782 0.119 0.423 0.341 0.814 0.652 1.136l0.072 0.073c0.196 0.196 0.294 0.45 0.294 0.707s-0.097 0.512-0.292 0.707c-0.197 0.197-0.451 0.295-0.709 0.295s-0.512-0.097-0.707-0.292l-0.061-0.061c-0.463-0.453-1.040-0.702-1.632-0.752-0.437-0.037-0.882 0.034-1.293 0.212-0.578 0.248-1.027 0.683-1.3 1.206-0.193 0.371-0.298 0.785-0.303 1.211v0.181c0 0.276-0.111 0.525-0.293 0.707s-0.43 0.292-0.706 0.292-0.525-0.111-0.707-0.293-0.293-0.431-0.293-0.707v-0.090c-0.015-0.66-0.255-1.242-0.644-1.692-0.284-0.328-0.646-0.585-1.058-0.744-0.575-0.247-1.193-0.274-1.756-0.116-0.423 0.119-0.814 0.341-1.136 0.652l-0.073 0.072c-0.196 0.196-0.45 0.294-0.707 0.294s-0.512-0.097-0.707-0.292c-0.197-0.197-0.295-0.451-0.295-0.709s0.097-0.512 0.292-0.707l0.061-0.061c0.453-0.463 0.702-1.040 0.752-1.632 0.037-0.437-0.034-0.882-0.212-1.293-0.248-0.578-0.683-1.027-1.206-1.3-0.371-0.193-0.785-0.298-1.211-0.303l-0.18 0.001c-0.276 0-0.525-0.111-0.707-0.293s-0.293-0.431-0.293-0.707 0.111-0.525 0.293-0.707 0.431-0.293 0.707-0.293h0.090c0.66-0.015 1.242-0.255 1.692-0.644 0.328-0.284 0.585-0.646 0.744-1.058 0.247-0.575 0.274-1.193 0.116-1.756-0.119-0.423-0.341-0.814-0.652-1.136l-0.073-0.073c-0.196-0.196-0.294-0.45-0.294-0.707s0.097-0.512 0.292-0.707c0.197-0.197 0.451-0.295 0.709-0.295s0.512 0.097 0.707 0.292l0.061 0.061c0.463 0.453 1.040 0.702 1.632 0.752 0.37 0.032 0.745-0.014 1.101-0.137 0.096-0.012 0.186-0.036 0.266-0.072-0.031 0.001-0.061 0.003-0.089 0.004-0.201 0.012-0.297 0.038-0.382 0.076h0.080c0.043 0 0.084-0.003 0.125-0.008 0.060-0.021 0.119-0.043 0.177-0.068 0.090-0.004 0.091-0.005 0.092-0.005 0.581-0.249 1.030-0.684 1.303-1.208 0.193-0.37 0.298-0.785 0.303-1.21v-0.181c0-0.276 0.111-0.525 0.293-0.707s0.431-0.293 0.707-0.293 0.525 0.111 0.707 0.293 0.293 0.431 0.293 0.707v0.090c0.003 0.637 0.228 1.22 0.603 1.675 0.266 0.323 0.607 0.581 0.996 0.751 0.578 0.255 1.206 0.286 1.778 0.125 0.423-0.119 0.814-0.341 1.136-0.652l0.073-0.072c0.196-0.196 0.45-0.294 0.707-0.294s0.512 0.097 0.707 0.292c0.197 0.197 0.295 0.451 0.295 0.709s-0.097 0.512-0.292 0.707l-0.061 0.061c-0.453 0.463-0.702 1.040-0.752 1.632-0.032 0.37 0.014 0.745 0.137 1.101 0.012 0.095 0.037 0.185 0.072 0.266-0.001-0.032-0.002-0.062-0.004-0.089z"></path>
</symbol>
<symbol id="icon-message-square" viewBox="0 0 24 24">
<path d="M22 15v-10c0-0.828-0.337-1.58-0.879-2.121s-1.293-0.879-2.121-0.879h-14c-0.828 0-1.58 0.337-2.121 0.879s-0.879 1.293-0.879 2.121v16c0 0.256 0.098 0.512 0.293 0.707 0.391 0.391 1.024 0.391 1.414 0l3.707-3.707h11.586c0.828 0 1.58-0.337 2.121-0.879s0.879-1.293 0.879-2.121zM20 15c0 0.276-0.111 0.525-0.293 0.707s-0.431 0.293-0.707 0.293h-12c-0.276 0-0.526 0.112-0.707 0.293l-2.293 2.293v-13.586c0-0.276 0.111-0.525 0.293-0.707s0.431-0.293 0.707-0.293h14c0.276 0 0.525 0.111 0.707 0.293s0.293 0.431 0.293 0.707z"></path>
</symbol>
<symbol id="icon-cross" viewBox="0 0 18 18">
<path d="M9 1c-4.418 0-8 3.582-8 8s3.582 8 8 8 8-3.582 8-8-3.582-8-8-8zM9 15c-3.309 0-6-2.691-6-6s2.691-6 6-6 6 2.691 6 6-2.691 6-6 6z"></path>
<path d="M11.722 6.292l-0.014-0.014c-0.371-0.371-0.973-0.371-1.344 0l-1.364 1.364-1.364-1.364c-0.371-0.371-0.973-0.371-1.344 0l-0.014 0.014c-0.371 0.371-0.371 0.973 0 1.344l1.364 1.364-1.364 1.364c-0.371 0.371-0.371 0.973 0 1.344l0.014 0.014c0.371 0.371 0.973 0.371 1.344 0l1.364-1.364 1.364 1.364c0.371 0.371 0.973 0.371 1.344 0l0.014-0.014c0.371-0.371 0.371-0.973 0-1.344l-1.364-1.364 1.364-1.364c0.371-0.371 0.371-0.973 0-1.344z"></path>
</symbol>
<symbol id="icon-close" viewBox="0 0 32 32">
<path d="M19.498 21.187l-3.941-3.939-3.942 3.941c-0.218 0.231-0.527 0.374-0.869 0.374-0.66 0-1.195-0.535-1.195-1.195 0-0.342 0.144-0.65 0.374-0.868l0.001-0 3.941-3.941-3.941-3.942c-0.216-0.216-0.35-0.515-0.35-0.845s0.134-0.629 0.35-0.845v0c0.217-0.215 0.515-0.348 0.845-0.348s0.628 0.133 0.845 0.348l3.942 3.941 3.941-3.941c0.217-0.215 0.515-0.348 0.845-0.348s0.628 0.133 0.845 0.348l-0-0c0.215 0.217 0.348 0.515 0.348 0.845s-0.133 0.628-0.348 0.845l-3.939 3.941 3.941 3.941c0.215 0.217 0.348 0.515 0.348 0.845s-0.133 0.628-0.348 0.845l0-0c-0.215 0.218-0.514 0.353-0.845 0.353s-0.629-0.135-0.845-0.353l-0-0zM15.557 0c-0.001 0-0.002 0-0.003 0-8.59 0-15.554 6.964-15.554 15.554 0 0.001 0 0.002 0 0.003v-0c0 0 0 0.001 0 0.002 0 8.59 6.964 15.554 15.554 15.554 0.001 0 0.002 0 0.003 0h-0c0 0 0.001 0 0.002 0 8.59 0 15.554-6.964 15.554-15.554 0-0.001 0-0.001 0-0.002v0c0-0.001 0-0.002 0-0.003 0-8.59-6.964-15.554-15.554-15.554-0.001 0-0.001 0-0.002 0h0z"></path>
</symbol>
<symbol id="icon-messageFull" viewBox="0 0 32 32">
<path d="M29.008 0.725h-24.091c-1.653 0-3.008 1.355-3.008 3.013v27.102l6.023-6.023h21.079c1.657 0 3.013-1.355 3.013-3.010v-18.069c0-1.657-1.355-3.013-3.013-3.013z"></path>
</symbol>
<symbol id="icon-talk" viewBox="0 0 30 32">
<path d="M29.010 12.77v6.023h-3.013v-6.023zM19.975 6.747h3.013v18.069h-3.013zM1.909 12.77h3.010v6.023h-3.010zM13.954 0.725h3.010v30.114h-3.010zM7.931 6.747h3.010v18.069h-3.010z"></path>
</symbol>
<symbol id="icon-video" viewBox="0 0 52 32">
<path d="M38.86 11.664v-9.22c-0.002-1.455-1.181-2.634-2.636-2.636h-31.616c0 0 0 0 0 0-1.457 0-2.638 1.18-2.64 2.636v26.348c0.002 1.456 1.183 2.636 2.64 2.636 0 0 0 0 0 0h31.616c0 0 0 0 0 0 1.457 0 2.638-1.18 2.64-2.636v-9.22l10.536 10.54v-28.992z"></path>
</symbol>
<symbol id="icon-search" viewBox="0 0 32 32">
<path d="M22.88 20.126h-1.467l-0.513-0.493c1.785-2.070 2.872-4.786 2.872-7.756 0-6.577-5.332-11.909-11.909-11.909s-11.909 5.332-11.909 11.909c0 6.577 5.332 11.909 11.909 11.909 2.97 0 5.686-1.087 7.771-2.885l-0.015 0.013 0.493 0.513v1.452l9.149 9.129 2.725-2.725zM11.904 20.126c-0.004 0-0.008 0-0.012 0-4.547 0-8.234-3.686-8.234-8.234s3.686-8.234 8.234-8.234c4.547 0 8.234 3.686 8.234 8.234v0c0 0.006 0 0.013 0 0.021 0 4.536-3.677 8.213-8.213 8.213-0.007 0-0.014 0-0.022-0h0.001z"></path>
</symbol>
<symbol id="icon-message" viewBox="0 0 32 32">
<path stroke-linejoin="round" stroke-linecap="round" stroke-miterlimit="20" stroke-width="3.2" d="M28.8 19.91c0 1.636-1.327 2.965-2.963 2.965h-17.777l-5.926 5.924v-23.703c0-1.636 1.327-2.963 2.963-2.963h20.74c1.636 0 2.963 1.327 2.963 2.963z"></path>
</symbol>
<symbol id="icon-call-missed" viewBox="0 0 20 32">
<path d="M18.336 28.328l-12.868-12.868 9.478-9.476v7.78h3.39v-13.558h-13.564v3.388h7.782l-11.866 11.866 15.258 15.26z"></path>
</symbol>
<symbol id="icon-emoji" viewBox="0 0 32 32">
<path d="M18.526 12.632c0-1.395 1.131-2.526 2.526-2.526s2.526 1.131 2.526 2.526v0c0 1.395-1.131 2.526-2.526 2.526s-2.526-1.131-2.526-2.526v0z"></path>
<path d="M8.421 12.632c0-1.395 1.131-2.526 2.526-2.526s2.526 1.131 2.526 2.526v0c0 1.395-1.131 2.526-2.526 2.526s-2.526-1.131-2.526-2.526v0z"></path>
<path d="M16.35 24.29c3.537 0 6.555-2.201 7.769-5.312h-2.535c-1.062 1.824-3.007 3.032-5.234 3.035h-0c-2.247 0-4.173-1.229-5.236-3.035h-2.533c1.246 3.135 4.253 5.312 7.769 5.312h0zM16.35 28.083c-0.001 0-0.002 0-0.003 0-6.703 0-12.136-5.434-12.136-12.136 0-0.001 0-0.002 0-0.004v0c0-0.001 0-0.002 0-0.003 0-6.703 5.434-12.136 12.136-12.136 0.001 0 0.002 0 0.004 0h-0c0.001 0 0.002 0 0.003 0 6.703 0 12.136 5.434 12.136 12.136 0 0.001 0 0.002 0 0.004v-0c0 0.001 0 0.002 0 0.003 0 6.703-5.434 12.136-12.136 12.136-0.001 0-0.002 0-0.004 0h0zM16.333 0.768c-8.376 0-15.158 6.797-15.158 15.175s6.782 15.175 15.158 15.175c8.394 0 15.192-6.797 15.192-15.175s-6.797-15.175-15.192-15.175z"></path>
</symbol>
<symbol id="icon-circul" viewBox="0 0 32 32">
<path d="M0 16c0-8.837 7.163-16 16-16s16 7.163 16 16-7.163 16-16 16-16-7.163-16-16z"></path>
</symbol>
<symbol id="icon-apps" viewBox="0 0 31 32">
<path d="M2.16 9.080h6.682v-6.92h-6.682zM12.182 29.83h6.682v-6.91h-6.682zM2.16 29.83h6.682v-6.91h-6.682zM2.16 19.449h6.682v-6.908h-6.682zM12.182 19.449h6.682v-6.908h-6.682zM22.204 2.16v6.92h6.68v-6.92zM12.182 9.080h6.682v-6.92h-6.682zM22.204 19.461h6.68v-6.92h-6.68zM22.204 29.842h6.68v-6.922h-6.68z"></path>
</symbol>
<symbol id="icon-arrow-down" viewBox="0 0 32 32">
<path d="M0 6.4l17.37 17.37 17.376-17.37z"></path>
</symbol>
<symbol id="icon-arrow-up" viewBox="0 0 32 32">
<path d="M0 23.77l17.37-17.37 17.37 17.37z"></path>
</symbol>
<symbol id="icon-folder" viewBox="0 0 32 32">
<path d="M11.607 6.756l3.237 3.2h14.293v16.025h-25.9v-19.225h8.37zM12.949 3.556h-9.712c-0.002 0-0.003 0-0.005 0-1.771 0-3.207 1.431-3.216 3.199v0.001l-0.016 19.234c0.017 1.771 1.457 3.2 3.23 3.2 0.003 0 0.005 0 0.008 0h25.9c0.002 0 0.005 0 0.007 0 1.773 0 3.213-1.429 3.23-3.198v-16.027c-0.012-1.775-1.454-3.209-3.23-3.209-0.003 0-0.005 0-0.008 0h-12.951z"></path>
</symbol>
<symbol id="icon-groups" viewBox="0 0 32 32">
<path d="M21.733 14.228c2.421-0.123 4.338-2.115 4.338-4.556 0-0.079-0.002-0.157-0.006-0.235l0 0.011c0.004-0.067 0.006-0.146 0.006-0.226 0-2.44-1.917-4.433-4.327-4.555l-0.011-0c-2.429 0.122-4.352 2.12-4.352 4.568 0 0.075 0.002 0.149 0.005 0.222l-0-0.010c-0.003 0.064-0.005 0.138-0.005 0.213 0 2.448 1.923 4.446 4.341 4.568l0.011 0zM10.144 14.228c2.421-0.123 4.338-2.115 4.338-4.556 0-0.079-0.002-0.157-0.006-0.235l0 0.011c0.004-0.067 0.006-0.146 0.006-0.225 0-2.441-1.918-4.435-4.329-4.556l-0.011-0c-2.429 0.122-4.352 2.12-4.352 4.568 0 0.075 0.002 0.149 0.005 0.222l-0-0.010c-0.003 0.064-0.005 0.138-0.005 0.213 0 2.448 1.923 4.446 4.341 4.568l0.011 0zM10.144 17.415c-3.379 0-10.144 1.865-10.144 5.577v3.984h20.281v-3.984c0-3.712-6.765-5.577-10.14-5.577zM21.733 17.415c-0.42 0-0.899 0.032-1.405 0.080 1.715 1.25 2.825 3.241 2.853 5.493l0 0.005v3.984h8.685v-3.984c0-3.712-6.761-5.577-10.133-5.577z"></path>
</symbol>
<symbol id="icon-list" viewBox="0 0 32 32">
<path d="M0 21.020h31.059v-3.452h-31.059zM0 27.923h31.059v-3.452h-31.059zM0 14.118h31.059v-3.45h-31.059zM0 3.765v3.45h31.059v-3.45z"></path>
</symbol>
<symbol id="icon-notifications" viewBox="0 0 32 32">
<path d="M16.413 32.824c1.806-0.010 3.266-1.475 3.267-3.282v-0h-6.535c0.001 1.807 1.461 3.273 3.266 3.283h0.001zM27.032 22.976v-9.026c-0.004-4.996-3.45-9.185-8.096-10.324l-0.073-0.015v-1.149c0-1.353-1.097-2.451-2.451-2.451s-2.451 1.097-2.451 2.451v0 1.149c-4.718 1.154-8.165 5.344-8.168 10.339v9.026l-3.267 3.283v1.64h27.773v-1.64z"></path>
</symbol>
<symbol id="icon-search" viewBox="0 0 32 32">
<path d="M22.88 20.126h-1.467l-0.513-0.493c1.785-2.070 2.872-4.786 2.872-7.756 0-6.577-5.332-11.909-11.909-11.909s-11.909 5.332-11.909 11.909c0 6.577 5.332 11.909 11.909 11.909 2.97 0 5.686-1.087 7.771-2.885l-0.015 0.013 0.493 0.513v1.452l9.149 9.129 2.725-2.725zM11.904 20.126c-0.004 0-0.008 0-0.012 0-4.547 0-8.234-3.686-8.234-8.234s3.686-8.234 8.234-8.234c4.547 0 8.234 3.686 8.234 8.234v0c0 0.006 0 0.013 0 0.021 0 4.536-3.677 8.213-8.213 8.213-0.007 0-0.014 0-0.022-0h0.001z"></path>
</symbol>
<symbol id="icon-settings" viewBox="0 0 32 32">
<path stroke-linejoin="round" stroke-linecap="round" stroke-miterlimit="4" stroke-width="2.0426" d="M19.528 16c0 1.949-1.58 3.528-3.528 3.528s-3.528-1.58-3.528-3.528c0-1.949 1.58-3.528 3.528-3.528v0c1.949 0 3.528 1.58 3.528 3.528v0z"></path>
<path stroke-linejoin="round" stroke-linecap="round" stroke-miterlimit="4" stroke-width="2.0426" d="M26.077 20.085c-0.121 0.267-0.191 0.579-0.191 0.907 0 0.612 0.244 1.166 0.641 1.572l-0-0 0.082 0.082c0.493 0.493 0.798 1.174 0.798 1.927 0 1.505-1.22 2.725-2.725 2.725-0.752 0-1.434-0.305-1.927-0.798v0l-0.082-0.082c-0.407-0.395-0.963-0.638-1.576-0.638-1.244 0-2.253 1.003-2.264 2.244v0.233c0 1.504-1.219 2.723-2.723 2.723s-2.723-1.219-2.723-2.723v0-0.123c-0.023-0.941-0.621-1.737-1.455-2.051l-0.015-0.005c-0.267-0.121-0.579-0.191-0.907-0.191-0.612 0-1.166 0.244-1.572 0.641l0-0-0.082 0.082c-0.493 0.493-1.174 0.798-1.927 0.798-1.505 0-2.725-1.22-2.725-2.725 0-0.752 0.305-1.434 0.798-1.927v0l0.082-0.082c0.395-0.407 0.638-0.963 0.638-1.576 0-1.244-1.003-2.253-2.244-2.264h-0.233c-1.504 0-2.723-1.219-2.723-2.723s1.219-2.723 2.723-2.723v0h0.123c0.941-0.023 1.737-0.621 2.051-1.455l0.005-0.015c0.121-0.267 0.191-0.579 0.191-0.907 0-0.612-0.244-1.166-0.641-1.572l0 0-0.082-0.082c-0.493-0.493-0.798-1.174-0.798-1.927 0-1.505 1.22-2.725 2.725-2.725 0.752 0 1.434 0.305 1.927 0.798l0.082 0.082c0.405 0.396 0.959 0.641 1.571 0.641 0.328 0 0.64-0.070 0.921-0.197l-0.014 0.006h0.109c0.805-0.351 1.358-1.139 1.362-2.056v-0.232c0-1.504 1.219-2.723 2.723-2.723s2.723 1.219 2.723 2.723v0 0.123c0.011 1.242 1.021 2.245 2.264 2.245 0.613 0 1.169-0.243 1.576-0.639l-0.001 0.001 0.082-0.082c0.493-0.493 1.174-0.798 1.927-0.798 1.505 0 2.725 1.22 2.725 2.725 0 0.752-0.305 1.434-0.798 1.927v0l-0.082 0.082c-0.396 0.405-0.641 0.959-0.641 1.571 0 0.328 0.070 0.64 0.197 0.921l-0.006-0.014v0.109c0.351 0.805 1.139 1.358 2.056 1.362h0.232c1.504 0 2.723 1.219 2.723 2.723s-1.219 2.723-2.723 2.723v0h-0.123c-0.917 0.004-1.705 0.557-2.051 1.347l-0.006 0.014z"></path>
</symbol>
<symbol id="icon-teammates" viewBox="0 0 32 32">
<path d="M20.073 15.84c0.003 0 0.008 0 0.012 0 3.17 0 5.74-2.57 5.74-5.74s-2.57-5.74-5.74-5.74c-3.17 0-5.74 2.57-5.74 5.74 0 0.001 0 0.002 0 0.003v-0c0 0 0 0 0 0 0 3.165 2.563 5.732 5.728 5.737h0zM7.174 12.972v-4.305h-2.871v4.305h-4.303v2.868h4.303v4.303h2.868v-4.303h4.305v-2.868zM20.073 18.708c-3.831 0-11.476 1.923-11.476 5.74v2.868h22.953v-2.88c0.012-3.805-7.633-5.728-11.476-5.728z"></path>
</symbol>
<symbol id="icon-watch" viewBox="0 0 32 32">
<path d="M16.001 0c-8.837 0-16.001 7.164-16.001 16.001s7.164 16.001 16.001 16.001c8.837 0 16.001-7.164 16.001-16.001v0c-0.026-8.827-7.174-15.975-15.998-16.001h-0.003zM16.001 28.8c-7.070 0-12.801-5.731-12.801-12.801s5.731-12.801 12.801-12.801c7.070 0 12.801 5.731 12.801 12.801v0c-0.010 7.066-5.735 12.791-12.8 12.801h-0.001zM16.801 8h-2.401v9.6l8.327 5.12 1.28-2.080-7.207-4.326z"></path>
</symbol>
<symbol id="icon-weekend" viewBox="0 0 32 32">
<path d="M28 12.32v-2.601c-0.035-2.162-1.796-3.901-3.963-3.901-0.013 0-0.026 0-0.039 0h-15.998c-0.011-0-0.024-0-0.037-0-2.167 0-3.928 1.739-3.963 3.898l-0 0.003v2.601c-0.011-0-0.024-0-0.037-0-2.167 0-3.928 1.739-3.963 3.898l-0 0.003v6.502c0.038 2.16 1.798 3.895 3.963 3.895 0.013 0 0.026-0 0.039-0h23.998c0.011 0 0.024 0 0.037 0 2.165 0 3.925-1.736 3.963-3.892l0-0.004v-6.502c-0.035-2.162-1.796-3.901-3.963-3.901-0.013 0-0.026 0-0.039 0h0.002zM6.666 9.719c0.011-0.721 0.598-1.3 1.321-1.3 0.005 0 0.009 0 0.014 0h15.999c0.004-0 0.009-0 0.013-0 0.722 0 1.309 0.58 1.321 1.299v3.616c-0.813 0.704-1.327 1.735-1.334 2.886v2.602h-16v-2.601c-0.007-1.152-0.521-2.184-1.329-2.883l-0.005-0.004zM29.332 22.723c-0.011 0.721-0.598 1.3-1.321 1.3-0.005 0-0.009-0-0.014-0h-23.998c-0.004 0-0.009 0-0.013 0-0.722 0-1.309-0.58-1.321-1.299v-6.503c0.024-0.717 0.612-1.29 1.333-1.29s1.309 0.572 1.333 1.288l0 0.002v5.201h21.334v-5.201c0.024-0.717 0.612-1.29 1.333-1.29s1.309 0.572 1.333 1.288l0 0.002z"></path>
</symbol>
</defs>
</svg>
